<svg width="284" height="284" viewBox="0 0 284 284" fill="none" xmlns="http://www.w3.org/2000/svg">
<g clip-path="url(#clip0)">
<path d="M173.56 98.2429C173.672 97.3704 174.079 95.8868 175.075 95.6027C175.097 95.6027 175.097 95.5813 175.12 95.5813C175.255 95.5086 175.405 95.4663 175.56 95.4574C175.715 95.4484 175.869 95.4731 176.013 95.5296C176.156 95.5861 176.284 95.6729 176.388 95.7837C176.492 95.8945 176.569 96.0264 176.613 96.1696C176.726 96.5394 176.742 96.9306 176.659 97.3078C176.576 97.685 176.397 98.0363 176.138 98.33C176.04 98.5526 175.918 98.765 175.775 98.9639C175.66 99.1474 175.48 99.2854 175.269 99.3533C175.058 99.4213 174.829 99.4149 174.622 99.3351C174.6 99.3351 174.6 99.3123 174.576 99.3123C174.435 99.3125 174.295 99.2842 174.165 99.2293C174.036 99.1745 173.92 99.0942 173.824 98.9936C173.728 98.893 173.655 98.7743 173.61 98.6451C173.564 98.5158 173.547 98.3788 173.56 98.2429Z" fill="#161720"/>
<path d="M188.534 258.617C187.349 262.725 185.042 266.405 181.882 269.229C181.118 269.911 180.32 270.552 179.491 271.15C178.837 271.626 177.511 272.12 177.23 272.88C177.067 273.61 176.979 274.356 176.969 275.106C176.894 275.771 176.82 276.456 176.727 277.121C176.777 278.339 176.486 279.546 175.886 280.602C175.799 280.691 175.692 280.759 175.575 280.8C175.457 280.841 175.332 280.854 175.209 280.837C175.086 280.821 174.969 280.775 174.866 280.705C174.763 280.634 174.678 280.54 174.616 280.43C174.074 279.27 174.486 277.9 174.635 276.665C174.802 275.296 174.915 273.926 175.138 272.577C175.456 270.543 177.81 269.82 179.248 268.679C182.755 265.869 185.596 262.293 187.563 258.215C187.63 258.109 187.732 258.03 187.85 257.992C187.968 257.954 188.096 257.959 188.211 258.006C188.326 258.053 188.421 258.14 188.48 258.251C188.539 258.362 188.558 258.491 188.534 258.615V258.617Z" fill="#161720" stroke="#161720" stroke-width="0.326" stroke-miterlimit="10"/>
<path d="M168.997 105.125C168.784 105.078 168.594 104.955 168.463 104.779C167.489 103.396 166.631 102.222 167.833 100.703C169.097 99.0571 170.529 97.549 172.105 96.2035C172.15 96.1666 172.202 96.1404 172.258 96.1267C173.279 93.5365 174.497 91.0293 175.901 88.6277C175.95 88.5392 176.023 88.4661 176.111 88.4163C175.961 87.1596 175.897 85.894 175.92 84.6284C175.916 84.4814 175.942 84.3351 175.998 84.1993C176.054 84.0635 176.138 83.9412 176.245 83.8408C176.206 79.8026 179.372 77.6878 182.711 75.4184C184.889 73.9689 187.368 73.0434 189.958 72.7134C192.547 72.3833 195.177 72.6576 197.645 73.515C202.565 75.0724 206.686 76.7255 209.758 80.9172C212.79 85.0712 215.003 93.2433 216.109 98.2226C218.779 110.22 217.253 119.796 217.902 131.968C218.113 138.01 219.081 144 220.782 149.797C221.144 150.932 222.155 152.451 221.411 153.546C220.538 154.716 219.547 155.793 218.455 156.758C216.447 158.659 214.226 160.317 211.837 161.7C200.583 168.141 187.746 163.968 177.122 156.527C176.913 156.399 176.749 156.207 176.656 155.978C176.564 155.75 176.546 155.498 176.607 155.258C179.735 147.432 180.459 142.683 181.337 134.3C182.1 126.935 181.299 118.841 185.152 112.208C185.251 112.042 185.391 111.906 185.558 111.811C185.726 111.716 185.914 111.667 186.106 111.667C186.297 111.667 186.486 111.716 186.653 111.811C186.82 111.906 186.96 112.042 187.06 112.208C188.948 114.745 192.362 112.784 193.144 110.361C193.411 109.534 193.774 107.016 193.261 106.228C192.498 105.056 190.567 105.52 189.713 106.19C189.498 106.31 189.251 106.357 189.008 106.326C188.764 106.295 188.537 106.187 188.359 106.017C185.002 103.076 181.55 100.903 179.105 97.115C177.86 95.1626 176.975 92.9999 176.492 90.7306C174.337 96.5164 171.724 102.152 170.255 108.171C169.626 110.747 168.71 114.804 170.751 116.996C171.912 118.088 173.435 118.705 175.023 118.727C175.807 118.769 176.593 118.684 177.351 118.476C177.984 118.197 178.663 118.034 179.354 117.996C179.487 117.998 179.618 118.034 179.733 118.102C179.848 118.17 179.944 118.266 180.011 118.382C180.078 118.498 180.114 118.63 180.116 118.764C180.118 118.899 180.085 119.031 180.021 119.149C179.664 119.588 179.22 119.946 178.717 120.201C178.215 120.456 177.664 120.602 177.102 120.63C177.904 122.822 178.018 126.764 176.321 128.533C176.192 128.655 176.026 128.731 175.85 128.75C175.674 128.77 175.497 128.731 175.344 128.64C175.192 128.549 175.073 128.411 175.005 128.246C174.937 128.081 174.923 127.898 174.967 127.725C175.43 126.548 175.763 125.323 175.958 124.072C176.034 122.956 175.92 121.842 176.054 120.726C175.958 120.726 175.863 120.746 175.767 120.746C174.087 120.806 172.422 120.414 170.942 119.611C167.756 117.861 167.318 114.342 167.699 111.016C167.95 109.016 168.384 107.044 168.997 105.125ZM205.275 81.2443C207.392 84.5703 208.826 88.2907 209.492 92.1853C209.883 94.4957 210.15 96.8255 210.293 99.1648C210.292 101.474 210.503 103.779 210.922 106.049C210.948 106.13 210.999 106.201 211.067 106.251C211.136 106.302 211.218 106.329 211.303 106.329C211.388 106.329 211.471 106.302 211.539 106.251C211.608 106.201 211.658 106.13 211.684 106.049C212.244 103.57 212.348 101.008 211.99 98.4918C211.827 96.1578 211.54 93.8343 211.132 91.5312C210.787 89.4578 210.204 87.4319 209.396 85.4939C208.999 84.548 208.521 83.6392 207.966 82.7781C207.418 81.9788 206.74 81.2783 205.961 80.7059C205.599 80.4178 204.989 80.7826 205.275 81.2443ZM180.364 88.0325C180.994 89.4913 181.767 90.8825 182.672 92.1853C183.375 93.1854 184.217 94.7617 185.324 95.3391C185.416 95.389 185.519 95.4145 185.624 95.4134C185.729 95.4123 185.832 95.3845 185.923 95.3327C186.014 95.2809 186.091 95.2067 186.146 95.117C186.201 95.0273 186.233 94.925 186.239 94.8196C186.088 93.5742 185.622 92.3888 184.885 91.3777C184.256 90.2241 183.549 89.1082 182.939 87.9168C182.339 86.761 181.903 85.5261 181.642 84.2482C181.454 82.9302 181.371 81.5992 181.394 80.2678C181.39 80.1183 181.337 79.9742 181.245 79.8569C181.153 79.7395 181.026 79.6552 180.883 79.6164C180.739 79.5776 180.587 79.5864 180.449 79.6414C180.311 79.6964 180.194 79.7947 180.116 79.9218C178.476 82.3023 179.315 85.5706 180.364 88.0325ZM169.531 103.452C169.969 102.184 170.427 100.915 170.885 99.6454C170.94 99.4757 171.004 99.3089 171.076 99.1459C170.865 99.434 170.637 99.7033 170.408 99.9914C169.951 100.493 169.531 101.026 169.149 101.588C168.71 102.299 169.11 102.876 169.531 103.452Z" fill="#161720" stroke="#161720" stroke-width="0.163" stroke-miterlimit="10"/>
<path d="M174.81 132.04C173.799 131.507 172.902 130.789 171.93 130.2C170.755 129.52 169.426 129.128 168.058 129.059C162.451 128.599 156.882 129.832 151.523 131.286C141.529 133.99 129.856 137.946 121.809 142.4C117.023 145.049 113.377 147.277 109.681 151.158C109.051 151.821 108.536 151.306 109.127 150.644C112.083 147.239 114.525 145.933 118.206 143.062C122 140.1 127.797 137.299 132.28 135.389C137.278 133.382 142.406 131.692 147.632 130.329C152.923 128.631 158.402 127.538 163.957 127.073C166.704 126.944 169.813 126.907 172.33 128.121C174.907 129.372 176.755 131.654 179.921 131.084C180.044 131.053 180.175 131.061 180.293 131.108C180.411 131.155 180.51 131.238 180.575 131.344C180.639 131.45 180.666 131.574 180.652 131.696C180.637 131.819 180.581 131.933 180.492 132.022C178.89 133.568 176.544 132.979 174.81 132.04Z" fill="#161720" stroke="#161720" stroke-width="0.326" stroke-miterlimit="10"/>
<path d="M73.3586 81.8653C72.1528 79.9385 71.2294 77.8136 70.6226 75.5689C69.8261 73.2186 69.1158 70.8424 68.5277 68.4122C67.9557 66.0619 67.4708 63.6857 67.056 61.2931C66.8434 60.0298 66.6403 58.7477 66.484 57.4856C66.3627 56.5455 65.9523 55.2657 66.7264 54.6147C66.8235 54.517 66.9458 54.4552 67.0763 54.4382C67.2067 54.4211 67.3387 54.4495 67.4537 54.5195C68.3544 54.9402 68.2502 56.2223 68.3714 57.1413C68.5278 58.2694 68.7011 59.3988 68.8733 60.5281C69.2721 62.9195 69.757 65.3121 70.328 67.666C70.882 69.9434 71.4711 72.2197 72.1464 74.4595C72.9998 76.6982 73.672 79.0161 74.1551 81.3859C74.1721 81.8066 73.6872 82.3237 73.3586 81.8653Z" fill="#161720" stroke="#161720" stroke-width="0.326" stroke-miterlimit="10"/>
<path d="M66.2637 70.4174C66.2599 70.5148 66.2289 70.6091 66.1746 70.689C66.1202 70.7689 66.0447 70.8312 65.957 70.8684C65.8693 70.9056 65.7731 70.9161 65.6797 70.8988C65.5863 70.8815 65.4997 70.8371 65.4302 70.7708C64.8326 70.2687 64.1794 69.8033 63.6174 70.6404C63.2751 71.3369 63.1251 72.1164 63.1834 72.8944C63.1371 74.404 63.2464 75.9143 63.5094 77.4002C63.7552 78.7641 64.0943 80.1085 64.5243 81.4233C64.8504 82.4526 65.8285 83.9393 65.2666 84.9799C65.2181 85.0642 65.1441 85.1298 65.0558 85.1668C64.9676 85.2037 64.8701 85.21 64.7781 85.1846C63.9802 84.9616 63.7632 84.1794 63.4905 83.4349C63.0743 82.3359 62.7115 81.1992 62.4033 80.0636C61.8069 77.927 61.5142 75.7129 61.5342 73.4902C61.5698 71.9075 61.661 69.8033 63.1834 68.8907C64.3429 68.2388 66.3538 68.853 66.2637 70.4174Z" fill="#161720" stroke="#161720" stroke-width="0.326" stroke-miterlimit="10"/>
<path d="M59.7283 79.5887C59.9006 80.7005 60.1628 81.7995 60.5126 82.8769C61.0522 83.9394 61.3969 85.0738 61.5332 86.2358C61.5139 86.5897 61.0223 86.9425 60.65 86.695C59.1198 85.6702 58.6884 83.4599 58.2956 81.8869C57.842 80.0469 57.6117 78.1679 57.6088 76.2831C57.6088 75.0108 57.3534 72.9948 58.6679 72.1112C58.895 71.9455 59.1679 71.8388 59.4573 71.8026C59.7466 71.7664 60.0415 71.8021 60.3101 71.9057C60.5786 72.0094 60.8107 72.1771 60.9812 72.3909C61.1517 72.6046 61.2543 72.8562 61.2778 73.1186C61.2759 73.2121 61.2438 73.303 61.1854 73.3802C61.127 73.4574 61.0448 73.5176 60.9489 73.5534C60.8531 73.5891 60.7477 73.5989 60.6458 73.5814C60.5439 73.564 60.4499 73.5201 60.3753 73.4551C59.3162 72.553 59.4535 75.4874 59.4535 75.8945C59.4472 77.1302 59.539 78.3648 59.7283 79.5887Z" fill="#161720" stroke="#161720" stroke-width="0.326" stroke-miterlimit="10"/>
<path d="M55.2626 73.8995C55.8771 73.2659 57.125 73.0736 57.5284 74.0175C57.6464 74.2677 57.5096 74.67 57.164 74.6322C55.7037 74.4977 56.2203 77.4758 56.2994 78.3784C56.4342 79.9172 56.7041 81.4412 57.1062 82.9327C57.8748 85.6745 59.1376 88.2527 60.8323 90.5406C62.3657 92.6349 63.9628 94.6525 65.3652 96.8424C66.6332 98.8022 68.2279 100.724 67.8422 103.144C69.3193 102.305 70.9208 101.708 72.5863 101.374C73.6479 101.144 74.6988 100.991 75.771 100.856C76.5694 100.713 77.3808 100.655 78.1914 100.683C78.097 100.59 78.036 100.468 78.018 100.337C78.0242 99.2476 78.2463 98.17 78.6715 97.1669C79.036 95.9764 79.4972 94.8224 79.9395 93.6697C80.8671 91.4421 81.6311 89.1498 82.2254 86.811C82.6665 84.7356 82.8152 82.2578 81.3797 80.5281C80.0162 78.8763 77.7491 78.7418 76.2711 77.32C76.1873 77.2317 76.1309 77.121 76.1087 77.0013C76.0865 76.8815 76.0996 76.758 76.1463 76.6455C76.1931 76.5331 76.2714 76.4366 76.3719 76.3678C76.4723 76.2991 76.5906 76.261 76.7123 76.2581C78.7482 76.0281 81.2075 77.4298 82.5899 78.8539C83.3668 79.7399 83.9388 80.7865 84.265 81.919C84.5912 83.0515 84.6636 84.2421 84.4771 85.4058C84.1091 88.0343 83.3854 90.6005 82.3257 93.0337C81.8267 94.2832 81.2499 95.5316 80.7121 96.7799C80.2902 98.1188 79.7101 99.4025 78.9841 100.604C78.9233 100.683 78.8415 100.743 78.7482 100.777C78.9788 100.833 79.2039 100.91 79.4205 101.007C79.5034 100.893 79.61 100.799 79.733 100.73C79.8559 100.661 79.9924 100.619 80.1329 100.608C80.2734 100.597 80.4147 100.616 80.5471 100.665C80.6794 100.713 80.7997 100.79 80.8996 100.889C87.387 107.365 92.6949 114.973 98.2245 122.255C101.144 126.116 104.057 129.985 106.964 133.86C110.006 137.713 112.827 141.735 115.415 145.907C115.461 145.994 115.475 146.094 115.454 146.191C115.433 146.287 115.378 146.372 115.3 146.432C115.222 146.492 115.125 146.522 115.026 146.517C114.928 146.513 114.835 146.473 114.763 146.406C111.488 142.846 108.423 139.099 105.581 135.185C102.681 131.4 99.7803 127.596 96.8999 123.811C91.329 116.472 86.0093 108.827 79.4594 102.311C79.3548 102.216 79.274 102.098 79.2235 101.965C77.9366 102.311 76.5542 102.408 75.2473 102.715C73.9805 103.004 72.6936 103.272 71.4646 103.675C70.2732 104.071 69.1468 104.641 68.1218 105.366C67.9421 105.498 67.7432 105.602 67.532 105.674C69.4193 114.378 71.3159 123.024 73.9664 131.535C76.68 140.227 79.9607 148.732 83.7871 156.995C85.5564 160.818 87.3788 164.642 89.5102 168.273C91.3307 171.654 93.8287 174.623 96.848 176.996C104.279 182.376 114.595 180.569 123.009 179.168C128.425 178.264 133.86 177.304 139.277 176.362C141.754 175.94 144.252 175.517 146.708 174.979C149.282 174.402 151.741 173.423 154.295 172.885C155.217 172.693 155.525 173.326 154.66 173.692C152.201 174.768 150.414 175.402 148.034 176.381C146.336 177.097 144.565 177.626 142.752 177.957C143.46 180.859 143.731 183.913 144.269 186.833C144.825 189.811 145.421 192.79 146.093 195.729C146.766 198.688 147.496 201.628 148.322 204.548C148.725 205.97 149.128 207.392 149.571 208.814C150.098 210.138 150.502 211.507 150.78 212.905C150.858 213.156 150.953 213.386 151.03 213.636C151.126 213.905 151.222 214.155 151.318 214.424C151.798 214.289 152.261 214.155 152.733 214.039C154.852 213.504 157.001 213.093 159.168 212.81C163.39 212.253 167.652 212.06 171.907 212.233C176.273 212.412 180.627 212.823 184.949 213.463C187.196 213.789 189.443 214.136 191.673 214.558C193.834 214.88 195.972 215.348 198.069 215.961C201.843 209.037 205.147 201.866 207.961 194.499C209.363 190.811 210.637 187.084 211.784 183.317C212.955 179.493 214.337 175.536 215.676 171.77C215.887 171.194 216.464 171.252 216.384 171.962C216.071 174.442 215.576 176.895 214.905 179.302C217.427 180.732 219.83 182.364 222.088 184.182C223.221 185.066 224.316 186.008 225.373 187.006C226.5 187.888 227.457 188.967 228.197 190.191C228.244 190.277 228.262 190.376 228.248 190.474C228.234 190.571 228.189 190.661 228.12 190.73C228.05 190.799 227.96 190.844 227.863 190.858C227.766 190.872 227.667 190.854 227.581 190.806C226.472 190.145 225.453 189.344 224.547 188.423C223.452 187.479 222.319 186.579 221.167 185.676C218.999 184.013 216.749 182.461 214.425 181.026C214.175 181.891 213.925 182.756 213.656 183.622C212.485 187.523 211.166 191.385 209.7 195.208C207.99 199.685 206.107 204.085 204.052 208.408C204.736 208.353 205.423 208.367 206.104 208.45C207.159 208.442 208.212 208.521 209.254 208.686C209.24 208.605 209.243 208.522 209.263 208.443C209.284 208.363 209.321 208.289 209.372 208.225C211.724 205.594 214.28 203.153 217.016 200.924C219.551 198.637 222.125 196.389 224.7 194.142C227.081 192.066 229.481 190.03 231.999 188.109C234.46 186.05 237.147 184.278 240.008 182.825C241.069 182.364 240.951 182.633 239.95 183.286C238.99 183.939 238.144 184.746 235.955 186.321C234.649 187.244 233.323 188.704 232.055 189.684C229.52 191.625 227.983 193.796 225.583 195.89C223.047 198.099 220.55 200.348 217.995 202.557C215.755 204.651 213.395 206.615 210.927 208.436C211.565 209.386 212.032 210.439 212.31 211.549C212.752 212.836 213.135 214.144 213.482 215.449C214.148 217.743 214.522 220.112 214.596 222.5C214.654 222.457 214.719 222.425 214.788 222.405C217.196 221.665 219.646 221.068 222.125 220.617C224.584 220.041 227.042 219.445 229.481 218.792C234.36 217.467 239.182 215.968 243.926 214.239C248.455 212.673 252.87 210.792 257.137 208.609C261.269 206.61 264.86 203.644 267.605 199.963C268.9 198.23 269.83 196.251 270.339 194.147C270.847 192.043 270.924 189.858 270.563 187.724C269.583 183.151 266.51 179.309 263.649 175.735C258.065 168.754 251.783 162.362 244.901 156.657C241.006 153.436 236.934 150.434 232.705 147.665C228.459 144.878 223.927 142.572 219.663 139.826C219.087 139.46 219.452 138.404 220.143 138.673C224.505 140.4 228.676 142.574 232.589 145.162C244.569 152.665 255.246 162.07 264.201 173.008C267.178 176.658 270.327 180.441 271.986 184.924C272.739 187.053 273.059 189.31 272.927 191.564C272.795 193.818 272.214 196.022 271.218 198.048C267.145 206.848 257.83 211.132 249.321 214.532C243.827 216.727 238.221 218.628 232.526 220.229C229.606 221.055 226.667 221.785 223.71 222.419C220.842 223.184 217.898 223.629 214.932 223.745C214.82 223.747 214.71 223.719 214.612 223.665C214.515 223.611 214.433 223.533 214.375 223.437C214.314 223.486 214.241 223.518 214.164 223.532C214.087 223.545 214.007 223.539 213.933 223.515C213.859 223.49 213.792 223.447 213.738 223.39C213.685 223.332 213.646 223.263 213.626 223.187C213.357 222.323 213.146 221.458 212.935 220.591C211.936 221.34 210.783 221.897 209.766 222.647C209.176 223.108 207.653 224.684 206.981 223.454C206.385 222.359 208.286 221.379 208.978 220.937C210.075 220.17 211.306 219.616 212.608 219.304C212.339 218.17 212.089 217.036 211.763 215.903C211.437 214.731 211.071 213.559 210.687 212.425C210.399 211.562 209.979 210.697 209.743 209.813L209.625 209.871C208.444 210.114 207.239 210.223 206.034 210.196C205.15 210.235 203.978 210.485 203.249 209.927C202.211 212.061 201.116 214.155 200.003 216.249C200.09 216.267 200.174 216.299 200.251 216.345C203.649 218.907 206.432 222.196 208.396 225.971C210.543 229.831 212.386 233.852 213.908 237.998C217.597 247.308 220.207 257.01 221.687 266.915C222.436 272.275 223.128 278.006 222.359 283.4C222.225 284.379 220.804 284.052 220.727 283.189C220.362 278.423 220.477 273.678 219.901 268.912C219.311 264.117 218.399 259.367 217.173 254.695C214.997 245.74 211.821 237.059 207.704 228.815C205.443 224.656 202.696 220.779 199.521 217.267C199.498 217.245 199.479 217.219 199.465 217.191C199.444 217.212 199.43 217.238 199.426 217.267C199.348 217.404 199.237 217.518 199.103 217.6C198.969 217.683 198.816 217.73 198.659 217.737C198.503 217.745 198.346 217.713 198.205 217.644C198.064 217.575 197.942 217.472 197.851 217.344C195.562 217.17 193.285 216.862 191.032 216.421C188.785 216.096 186.537 215.73 184.29 215.403C179.561 214.722 174.795 214.337 170.018 214.25C165.439 214.157 160.862 214.537 156.361 215.384C155.285 215.596 154.23 215.827 153.176 216.092C152.324 216.472 151.396 216.65 150.464 216.61C150.466 216.644 150.46 216.677 150.445 216.707C148.101 224.315 145.316 231.789 143.241 239.494C141.153 247.271 139.55 255.17 138.439 263.145C137.806 267.621 137.537 272.137 136.865 276.613C136.711 277.594 135.174 277.321 135.174 276.383C135.25 272.361 135.605 268.348 136.236 264.374C136.774 260.363 137.409 256.382 138.195 252.404C139.751 244.432 141.804 236.565 144.342 228.849C145.711 224.538 147.407 220.337 149.414 216.283C149.464 216.195 149.537 216.122 149.625 216.072C149.351 215.631 149.144 215.152 149.01 214.65C148.857 214.209 148.685 213.786 148.53 213.344C148.033 212.162 147.635 210.941 147.34 209.694C146.898 208.214 146.457 206.716 146.053 205.217C145.228 202.219 144.497 199.2 143.844 196.168C143.191 193.208 142.653 190.211 142.193 187.215C141.624 184.267 141.283 181.28 141.174 178.28C136.141 179.146 131.115 180.011 126.096 180.876C117.299 182.394 107.062 184.603 98.5713 180.64C91.1769 177.182 87.2585 169.286 83.8779 162.311C79.7723 153.831 76.2304 145.089 73.2751 136.143C69.842 126.175 67.3409 115.909 65.804 105.478C65.7863 105.364 65.8024 105.248 65.8502 105.143C65.898 105.038 65.9754 104.949 66.0729 104.888C66.0694 104.757 66.0932 104.626 66.1427 104.504C66.1922 104.382 66.2665 104.272 66.3607 104.18C66.4374 104.103 66.5141 104.046 66.5907 103.969C66.4962 103.929 66.4133 103.865 66.3497 103.785C66.286 103.704 66.2436 103.609 66.2263 103.508C65.7462 100.53 63.8448 97.9739 62.1156 95.5729C60.272 93.0172 58.1972 90.6917 56.8726 87.8104C55.4256 84.7355 54.5968 81.4061 54.4333 78.0114C54.5513 76.7631 54.3213 74.86 55.2626 73.8995Z" fill="#161720" stroke="#161720" stroke-width="0.326" stroke-miterlimit="10"/>
<path fill-rule="evenodd" clip-rule="evenodd" d="M136.2 34.5352C136.115 39.4004 136.03 44.2607 136.104 49.0324L136.101 49.0354C136.13 50.901 136.293 54.0071 136.488 57.729C136.958 66.6809 137.616 79.1953 137.045 86.5826C136.108 98.705 130.616 98.8195 118.371 99.0746C117.828 99.086 117.271 99.0976 116.701 99.1105C107.826 99.3116 97.8337 99.3921 87.4143 99.4C87.3769 99.3641 87.3292 99.321 87.2745 99.2716C87.1408 99.1508 86.9658 98.9927 86.8003 98.8119C86.407 98.3821 86.7894 97.8784 87.372 97.8765C98.1895 97.8413 108.649 97.7539 118.137 97.5616C118.612 97.5521 119.079 97.5441 119.538 97.5363C128.76 97.3788 134.87 97.2744 135.27 86.2127C135.53 79.0354 135.198 71.307 134.869 63.6655C134.659 58.7935 134.451 53.9568 134.399 49.3208C134.326 42.8789 134.416 36.4463 134.506 30.0152C134.577 24.9266 134.648 19.839 134.638 14.7486C134.622 6.34287 133.272 2.31476 123.783 1.85141C120.702 1.70085 117.196 1.67215 113.626 1.64293C110.302 1.61572 106.922 1.58805 103.778 1.46118C103.612 1.45388 103.455 1.39496 103.341 1.29666C103.227 1.19836 103.164 1.06822 103.165 0.933261C103.167 0.798298 103.232 0.668871 103.347 0.571847C103.463 0.474823 103.62 0.417652 103.787 0.412196C105.524 0.403176 107.418 0.357013 109.386 0.30905C114.482 0.184895 120.071 0.0486835 124.705 0.513499C135.465 1.59306 135.712 6.16425 136.104 13.9567C136.444 20.6647 136.322 27.6049 136.2 34.5352ZM57.9892 97.8833C58.6442 97.8842 59.1726 98.5375 58.8203 99.0896C58.7659 99.1749 58.7101 99.2413 58.6542 99.2796C50.6603 99.2166 42.7765 99.1372 35.296 99.0618C29.2139 99.0005 23.3984 98.942 18.0071 98.8971C17.3184 98.8917 17.3177 97.9104 18.0071 97.9062C29.1343 97.8392 41.6159 97.8583 54.4531 97.8779C55.6291 97.8797 56.8081 97.8815 57.9892 97.8833ZM29.0079 0.255746C45.7861 -0.220793 83.9623 0.0862474 100.794 0.2391L100.792 0.237301C101.896 0.249289 101.741 1.61118 100.658 1.61597C93.6831 1.64491 83.1355 1.62143 72.0152 1.59669C56.6426 1.56248 40.1756 1.52583 30.5382 1.62183C22.9859 1.69676 12.7721 3.14137 12.7721 10.9033C12.7721 20.5846 12.7909 30.267 12.8096 39.9498C12.831 50.9692 12.8523 61.989 12.846 73.0081C12.8426 77.9651 13.4831 85.5047 13.9304 90.7704C13.9678 91.2112 14.0039 91.6361 14.0382 92.0422C14.2022 93.9478 14.5297 95.3395 16.3725 96.8267C17.1328 97.4423 16.0075 98.0489 15.4333 97.6856C13.4479 96.4311 12.7599 95.0459 12.4437 92.8598C11.7617 88.1394 11.0609 79.6053 11.052 74.6679C11.0273 61.9855 11.067 49.306 11.1066 36.6267C11.1335 28.036 11.1604 19.4453 11.1673 10.8541C11.1673 2.92617 20.8335 0.487722 29.0079 0.255746Z" fill="#161720"/>
<path d="M33.3506 39.3608C43.6385 36.721 52.8364 35.2421 62.7784 31.255C62.7771 31.2451 62.778 31.2351 62.7812 31.2256C62.7843 31.2161 62.7895 31.2075 62.7965 31.2002C66.3616 22.1664 67.1683 20.3643 70.4491 10.502C70.5407 10.2471 70.9454 10.1386 71.0743 10.4293C74.683 17.7677 75.578 19.7924 77.6352 23.7766C78.4266 25.7243 79.1818 27.6899 79.9359 29.6578C80.0392 30.1391 80.2467 30.5927 80.5441 30.9872C80.9622 31.2526 81.4328 31.4265 81.9245 31.497C83.011 31.8246 84.1155 32.1332 85.2031 32.4429C89.2357 33.5722 90.4368 34.5657 94.5418 35.4389C99.1996 36.4228 103.913 37.2279 108.625 37.8786C108.883 37.9155 108.938 38.2789 108.773 38.4432C101.301 45.461 96.2059 51.9379 87.7807 57.8057C89.6958 67.1096 91.4203 76.4558 92.954 85.844C92.9689 85.9141 92.9612 85.9871 92.9319 86.0526C92.9026 86.1181 92.8533 86.1729 92.7908 86.2092C92.7284 86.2455 92.656 86.2615 92.5839 86.255C92.5117 86.2484 92.4435 86.2197 92.3888 86.1727C85.1352 78.8347 80.5369 75.2094 73.8542 67.2709L72.4739 68.8553C71.9956 66.2155 71.4982 63.5578 71.0042 60.9168C70.697 59.1568 70.2863 57.4159 69.7741 55.7032C69.6566 55.1206 69.4174 54.5686 69.0719 54.0827C68.7263 53.5968 68.282 53.1875 67.7674 52.8811C65.4102 51.7887 64.3984 54.5012 64.2876 56.3036C64.1305 59.3923 64.3717 62.4882 65.0055 65.5167C64.597 65.291 64.14 65.1651 63.6724 65.1494C63.2048 65.1336 62.7402 65.2285 62.3171 65.4261C61.8296 65.6678 61.4128 66.029 61.1067 66.4753C60.8005 66.9216 60.6151 67.438 60.5681 67.9753C60.2715 67.8342 59.9493 67.7534 59.6205 67.7377C59.2918 67.722 58.9632 67.7716 58.6542 67.8836C58.0881 68.1732 57.6064 68.6014 57.2551 69.1273C56.9038 69.6532 56.6946 70.2594 56.6474 70.888C56.2382 70.6931 55.7749 70.6391 55.3312 70.7348C54.8874 70.8304 54.4888 71.0701 54.1987 71.4157C52.9834 72.8178 53.2411 75.4218 53.223 77.1325C53.2069 80.1996 53.5341 83.2591 54.1987 86.255L53.7567 86.6922C53.7087 86.7347 53.6495 86.7628 53.5859 86.7732C53.5224 86.7837 53.4572 86.776 53.3979 86.7512C53.3386 86.7263 53.2877 86.6853 53.2511 86.6328C53.2146 86.5804 53.1938 86.5188 53.1914 86.4551C52.2519 79.1171 51.2943 71.7802 50.9077 64.3885C50.8165 62.531 50.7615 60.6738 50.7426 58.8171C50.7426 57.7426 50.9077 56.9778 50.0643 56.213C49.386 55.6126 48.7212 55.0111 48.0395 54.3928C45.2968 51.8983 44.4412 51.3926 41.8081 48.7897C38.8816 45.8938 36.0281 42.932 33.2477 39.9042C33.2042 39.868 33.1712 39.821 33.1521 39.7681C33.133 39.7151 33.1284 39.6581 33.1389 39.6028C33.1493 39.5476 33.1744 39.496 33.2116 39.4535C33.2488 39.411 33.2968 39.379 33.3506 39.3608Z" fill="#BCF0F5"/>
<path d="M33.3506 39.3608C43.6385 36.721 52.8364 35.2421 62.7784 31.255C62.7771 31.2451 62.778 31.2351 62.7812 31.2256C62.7843 31.2161 62.7895 31.2075 62.7965 31.2002C66.3616 22.1664 67.1683 20.3643 70.4491 10.502C70.5407 10.2471 70.9454 10.1386 71.0743 10.4293C74.683 17.7677 75.578 19.7924 77.6352 23.7766C78.4266 25.7243 79.1818 27.6899 79.9359 29.6578C80.0392 30.1391 80.2467 30.5927 80.5441 30.9872C80.9622 31.2526 81.4328 31.4265 81.9245 31.497C83.011 31.8246 84.1155 32.1332 85.2031 32.4429C89.2357 33.5722 90.4368 34.5657 94.5418 35.4389C99.1996 36.4228 103.913 37.2279 108.625 37.8786C108.883 37.9155 108.938 38.2789 108.773 38.4432C101.301 45.461 96.2059 51.9379 87.7807 57.8057C89.6958 67.1096 91.4203 76.4558 92.954 85.844C92.9689 85.9141 92.9612 85.9871 92.9319 86.0526C92.9026 86.1181 92.8533 86.1729 92.7908 86.2092C92.7284 86.2455 92.656 86.2615 92.5839 86.255C92.5117 86.2484 92.4435 86.2197 92.3888 86.1727C85.1352 78.8347 80.5369 75.2094 73.8542 67.2709L72.4739 68.8553C71.9956 66.2155 71.4982 63.5578 71.0042 60.9168C70.697 59.1568 70.2863 57.4159 69.7741 55.7032C69.6566 55.1206 69.4174 54.5686 69.0719 54.0827C68.7263 53.5968 68.282 53.1875 67.7674 52.8811C65.4102 51.7887 64.3984 54.5012 64.2876 56.3036C64.1305 59.3923 64.3717 62.4882 65.0055 65.5167C64.597 65.291 64.14 65.1651 63.6724 65.1494C63.2048 65.1336 62.7402 65.2285 62.3171 65.4261C61.8296 65.6678 61.4128 66.029 61.1067 66.4753C60.8005 66.9216 60.6151 67.438 60.5681 67.9753C60.2715 67.8342 59.9493 67.7534 59.6205 67.7377C59.2918 67.722 58.9632 67.7716 58.6542 67.8836C58.0881 68.1732 57.6064 68.6014 57.2551 69.1273C56.9038 69.6532 56.6946 70.2594 56.6474 70.888C56.2382 70.6931 55.7749 70.6391 55.3312 70.7348C54.8874 70.8304 54.4888 71.0701 54.1987 71.4157C52.9834 72.8178 53.2411 75.4218 53.223 77.1325C53.2069 80.1996 53.5341 83.2591 54.1987 86.255L53.7567 86.6922C53.7087 86.7347 53.6495 86.7628 53.5859 86.7732C53.5224 86.7837 53.4572 86.776 53.3979 86.7512C53.3386 86.7263 53.2877 86.6853 53.2511 86.6328C53.2146 86.5804 53.1938 86.5188 53.1914 86.4551C52.2519 79.1171 51.2943 71.7802 50.9077 64.3885C50.8165 62.531 50.7615 60.6738 50.7426 58.8171C50.7426 57.7426 50.9077 56.9778 50.0643 56.213C49.386 55.6126 48.7212 55.0111 48.0395 54.3928C45.2968 51.8983 44.4412 51.3926 41.8081 48.7897C38.8816 45.8938 36.0281 42.932 33.2477 39.9042C33.2042 39.868 33.1712 39.821 33.1521 39.7681C33.133 39.7151 33.1284 39.6581 33.1389 39.6028C33.1493 39.5476 33.1744 39.496 33.2116 39.4535C33.2488 39.411 33.2968 39.379 33.3506 39.3608Z" fill="url(#paint0_linear)" fill-opacity="0.5"/>
<path fill-rule="evenodd" clip-rule="evenodd" d="M34.1462 9.49572C34.3321 9.49963 34.6338 9.55136 34.7607 9.59527C34.9605 9.6644 35.0755 9.73439 35.2748 9.96242C35.4376 10.2132 35.4751 10.3889 35.4704 10.4843C35.442 11.0516 35.1882 11.4988 34.9127 11.6305C34.6661 11.7484 34.3143 11.8195 34.1178 11.802C34.0856 11.7992 34.0552 11.7965 34.0262 11.794C33.7021 11.7656 33.5655 11.7536 33.2997 11.6758C33.0719 11.6092 32.8985 11.5442 32.7269 11.4517C32.7282 11.4524 32.7288 11.4528 32.7288 11.4527C32.7289 11.4526 32.7132 11.443 32.6829 11.4178C32.6496 11.39 32.611 11.3537 32.5721 11.3122C32.5332 11.2707 32.4997 11.2302 32.4748 11.1961C32.4542 11.1679 32.4461 11.1532 32.4455 11.1523C32.4087 11.0714 32.4001 11.0311 32.3946 10.9935C32.3907 10.9666 32.3873 10.9317 32.3839 10.8749C32.3817 10.8382 32.3802 10.808 32.3785 10.7723C32.3779 10.7584 32.3772 10.7437 32.3764 10.7275C32.4385 10.2553 32.5952 10.0187 32.7878 9.86978C33.0174 9.69227 33.4223 9.54316 34.1462 9.49572ZM35.2864 8.07706C34.9709 7.96788 34.4706 7.88889 34.1245 7.88889C34.1081 7.88889 34.0917 7.88939 34.0753 7.89039C33.2003 7.94404 32.4087 8.132 31.8048 8.59878C31.169 9.09019 30.8616 9.79428 30.7716 10.6124C30.7668 10.6559 30.7656 10.6998 30.7679 10.7436C30.7697 10.7759 30.7712 10.8084 30.7726 10.8413C30.785 11.1163 30.7986 11.4162 30.9863 11.8256C31.0878 12.0471 31.2559 12.2577 31.3996 12.411C31.5441 12.565 31.7452 12.7478 31.9642 12.8659C32.2689 13.0301 32.5575 13.1327 32.8483 13.2177C33.271 13.3414 33.5501 13.3655 33.877 13.3937C33.9093 13.3965 33.9421 13.3994 33.9755 13.4023C34.522 13.4509 35.1631 13.2917 35.6061 13.0799C36.6621 12.575 37.0345 11.3826 37.0754 10.5645C37.1045 9.98459 36.8702 9.45144 36.5816 9.02551C36.565 9.00097 36.547 8.97738 36.5278 8.95483C36.162 8.526 35.8176 8.26086 35.2864 8.07706Z" fill="#161720"/>
<path fill-rule="evenodd" clip-rule="evenodd" d="M41.7015 9.45563C41.8184 9.42364 42.0913 9.42425 42.2362 9.46C42.3468 9.48729 42.392 9.50272 42.4629 9.52694C42.503 9.5406 42.5512 9.55705 42.6239 9.57999C42.7273 9.61263 42.8008 9.6486 42.8585 9.68259C42.9199 9.71876 42.969 9.75532 43.0458 9.81257L43.0489 9.81487C43.4255 10.0955 43.589 10.5176 43.4869 11.0142C43.4704 11.0945 43.4319 11.2178 43.3725 11.3404C43.311 11.4671 43.2498 11.5467 43.2093 11.5828C43.0734 11.7042 42.7636 11.8323 42.495 11.8609C42.1496 11.8976 41.8245 11.7833 41.3899 11.5422C41.2584 11.4692 41.1858 11.4025 41.1313 11.3327C41.0718 11.2563 41.0081 11.1429 40.931 10.94C40.914 10.8952 40.8921 10.7855 40.8948 10.6213C40.8975 10.4635 40.9219 10.3182 40.9491 10.2281C40.9736 10.1471 40.9877 10.1051 40.997 10.0805C41.0011 10.0696 41.0033 10.0647 41.0039 10.0634L41.0046 10.0619C41.0071 10.0574 41.0133 10.0469 41.0435 10.0017C41.0475 9.99573 41.0519 9.98928 41.0565 9.9824C41.0837 9.94184 41.1212 9.88609 41.1667 9.81504C41.1662 9.81579 41.166 9.81617 41.166 9.81618C41.1661 9.8163 41.1821 9.79443 41.2255 9.75433C41.2706 9.71267 41.3294 9.66599 41.3965 9.61994C41.544 9.51873 41.6649 9.46566 41.7015 9.45563ZM42.5637 7.9564C42.228 7.87353 41.7161 7.85794 41.3404 7.96077C41.0945 8.02806 40.8259 8.1751 40.6108 8.32264C40.4028 8.46541 40.1378 8.68142 39.9686 8.94553C39.9327 9.00153 39.9048 9.0431 39.8779 9.08331C39.8728 9.09083 39.8678 9.0983 39.8628 9.10582C39.8334 9.14972 39.7938 9.20902 39.756 9.27713C39.6717 9.42905 39.6224 9.57781 39.5687 9.75577C39.4922 10.0089 39.4498 10.3064 39.445 10.5936C39.4403 10.8744 39.4702 11.2119 39.5868 11.5187C39.6944 11.802 39.8252 12.0743 40.0156 12.3185C40.2111 12.5692 40.4441 12.758 40.7198 12.911C41.2282 13.193 41.8648 13.4791 42.6393 13.3967C43.106 13.347 43.7205 13.141 44.1411 12.7654C44.59 12.3647 44.8247 11.727 44.9034 11.3441C45.1326 10.2292 44.7286 9.18233 43.8805 8.55039C43.8756 8.54674 43.8706 8.54301 43.8655 8.53921C43.7061 8.42027 43.4539 8.23203 43.036 8.10016C43.0097 8.09185 42.9809 8.08211 42.9489 8.07129C42.8547 8.03939 42.7328 7.99813 42.5637 7.9564Z" fill="#161720"/>
<path fill-rule="evenodd" clip-rule="evenodd" d="M25.5263 9.41173C26.0352 9.51044 26.1164 9.53244 26.2746 9.64487C26.6379 9.90307 26.7423 10.002 26.827 10.2154C26.917 10.4421 26.945 10.6136 26.9212 10.8043C26.8898 11.0557 26.7969 11.2971 26.6578 11.4875C26.547 11.6391 26.3382 11.7664 26.2189 11.7848C26.1394 11.797 26.0678 11.8089 26.0003 11.8201C25.7287 11.8652 25.5237 11.8992 25.1356 11.9013C24.8781 11.8731 24.6432 11.8323 24.447 11.7711C24.2358 11.7052 24.1234 11.6321 24.0708 11.5782C23.8445 11.3458 23.7054 11.1355 23.5939 10.8473C23.5229 10.6637 23.5514 10.3035 23.8422 9.9506C23.959 9.809 24.1697 9.63765 24.3327 9.54758C24.3792 9.52185 24.467 9.48282 24.5654 9.45106C24.6125 9.43587 24.6538 9.425 24.6864 9.41838C24.7099 9.41359 24.7219 9.41245 24.7237 9.41223C24.7381 9.41212 24.7525 9.41159 24.7669 9.41062C24.9836 9.39598 25.0969 9.39661 25.1896 9.39974C25.2124 9.40051 25.2392 9.40175 25.2696 9.40315C25.3383 9.40633 25.4254 9.41035 25.5263 9.41173ZM24.6899 7.90283C25.0277 7.88087 25.2343 7.88968 25.4014 7.8968C25.4715 7.89979 25.5347 7.90248 25.5976 7.90248C25.6432 7.90248 25.6888 7.90684 25.7336 7.91551C25.77 7.92255 25.806 7.92939 25.8415 7.93614C26.2938 8.02219 26.6779 8.09526 27.1117 8.40357C27.491 8.67313 27.9275 8.98691 28.189 9.64582C28.3467 10.0433 28.4441 10.4815 28.3799 10.9963C28.3184 11.488 28.1366 11.9795 27.8342 12.3933C27.5338 12.8045 27.003 13.1907 26.4371 13.2778C26.3758 13.2872 26.3152 13.2974 26.2534 13.3077C25.9576 13.3572 25.6358 13.4111 25.0985 13.4111C25.0738 13.4111 25.0492 13.4098 25.0246 13.4073C24.7095 13.3746 24.3552 13.3204 24.0194 13.2156C23.6894 13.1127 23.3215 12.9441 23.0309 12.6457C22.6774 12.2827 22.4197 11.9024 22.2271 11.4044C21.9028 10.566 22.1817 9.62796 22.7196 8.97539C22.9652 8.67747 23.3244 8.39024 23.6355 8.21829C23.778 8.13948 23.9543 8.06573 24.1243 8.01084C24.276 7.96188 24.4841 7.90757 24.6899 7.90283Z" fill="#161720"/>
</g>
<defs>
<linearGradient id="paint0_linear" x1="115.875" y1="-36.0279" x2="-2.47858" y2="75.0586" gradientUnits="userSpaceOnUse">
<stop stop-color="#3131F1"/>
<stop offset="1" stop-color="#3131F1" stop-opacity="0"/>
</linearGradient>
<clipPath id="clip0">
<rect width="284" height="284" fill="white" transform="matrix(-1 0 0 1 284 0)"/>
</clipPath>
</defs>
</svg>
