<svg xmlns="http://www.w3.org/2000/svg" width="300" height="300" viewBox="0 0 100 100">
    <line x1="0" y1="100" x2="100" y2="0" stroke="black" stroke-width="0.3" stroke-opacity="0.8"/>
    <line x1="5" y1="100" x2="100" y2="5" stroke="black" stroke-width="0.3" stroke-opacity="0.8"/>
    <line x1="10" y1="100" x2="100" y2="10" stroke="black" stroke-width="0.3" stroke-opacity="0.8"/>
    <line x1="15" y1="100" x2="100" y2="15" stroke="black" stroke-width="0.3" stroke-opacity="0.8"/>
    <line x1="20" y1="100" x2="100" y2="20" stroke="black" stroke-width="0.3" stroke-opacity="0.8"/>
    <line x1="25" y1="100" x2="100" y2="25" stroke="black" stroke-width="0.3" stroke-opacity="0.8"/>
    <line x1="30" y1="100" x2="100" y2="30" stroke="black" stroke-width="0.3" stroke-opacity="0.8"/>
    <line x1="35" y1="100" x2="100" y2="35" stroke="black" stroke-width="0.3" stroke-opacity="0.8"/>
    <line x1="40" y1="100" x2="100" y2="40" stroke="black" stroke-width="0.3" stroke-opacity="0.8"/>
    <line x1="45" y1="100" x2="100" y2="45" stroke="black" stroke-width="0.3" stroke-opacity="0.8"/>
    <line x1="50" y1="100" x2="100" y2="50" stroke="black" stroke-width="0.3" stroke-opacity="0.8"/>
    <line x1="55" y1="100" x2="100" y2="55" stroke="black" stroke-width="0.3" stroke-opacity="0.8"/>
    <line x1="60" y1="100" x2="100" y2="60" stroke="black" stroke-width="0.3" stroke-opacity="0.8"/>
    <line x1="65" y1="100" x2="100" y2="65" stroke="black" stroke-width="0.3" stroke-opacity="0.8"/>
    <line x1="70" y1="100" x2="100" y2="70" stroke="black" stroke-width="0.3" stroke-opacity="0.8"/>
    <line x1="75" y1="100" x2="100" y2="75" stroke="black" stroke-width="0.3" stroke-opacity="0.8"/>
    <line x1="80" y1="100" x2="100" y2="80" stroke="black" stroke-width="0.3" stroke-opacity="0.8"/>
    <line x1="85" y1="100" x2="100" y2="85" stroke="black" stroke-width="0.3" stroke-opacity="0.8"/>
    <line x1="90" y1="100" x2="100" y2="90" stroke="black" stroke-width="0.3" stroke-opacity="0.8"/>
    <line x1="95" y1="100" x2="100" y2="95" stroke="black" stroke-width="0.3" stroke-opacity="0.8"/>
    <line x1="100" y1="100" x2="100" y2="100" stroke="black" stroke-width="0.3" stroke-opacity="0.8"/>
    <line x1="-5" y1="100" x2="100" y2="-5" stroke="black" stroke-width="0.3" stroke-opacity="0.8"/>
    <line x1="-10" y1="100" x2="100" y2="-10" stroke="black" stroke-width="0.3" stroke-opacity="0.8"/>
    <line x1="-15" y1="100" x2="100" y2="-15" stroke="black" stroke-width="0.3" stroke-opacity="0.8"/>
    <line x1="-20" y1="100" x2="100" y2="-20" stroke="black" stroke-width="0.3" stroke-opacity="0.8"/>
    <line x1="-25" y1="100" x2="100" y2="-25" stroke="black" stroke-width="0.3" stroke-opacity="0.8"/>
    <line x1="-30" y1="100" x2="100" y2="-30" stroke="black" stroke-width="0.3" stroke-opacity="0.8"/>
    <line x1="-35" y1="100" x2="100" y2="-35" stroke="black" stroke-width="0.3" stroke-opacity="0.8"/>
    <line x1="-40" y1="100" x2="100" y2="-40" stroke="black" stroke-width="0.3" stroke-opacity="0.8"/>
    <line x1="-45" y1="100" x2="100" y2="-45" stroke="black" stroke-width="0.3" stroke-opacity="0.8"/>
    <line x1="-50" y1="100" x2="100" y2="-50" stroke="black" stroke-width="0.3" stroke-opacity="0.8"/>
    <line x1="-55" y1="100" x2="100" y2="-55" stroke="black" stroke-width="0.3" stroke-opacity="0.8"/>
    <line x1="-60" y1="100" x2="100" y2="-60" stroke="black" stroke-width="0.3" stroke-opacity="0.8"/>
    <line x1="-65" y1="100" x2="100" y2="-65" stroke="black" stroke-width="0.3" stroke-opacity="0.8"/>
    <line x1="-70" y1="100" x2="100" y2="-70" stroke="black" stroke-width="0.3" stroke-opacity="0.8"/>
    <line x1="-75" y1="100" x2="100" y2="-75" stroke="black" stroke-width="0.3" stroke-opacity="0.8"/>
    <line x1="-80" y1="100" x2="100" y2="-80" stroke="black" stroke-width="0.3" stroke-opacity="0.8"/>
    <line x1="-85" y1="100" x2="100" y2="-85" stroke="black" stroke-width="0.3" stroke-opacity="0.8"/>
    <line x1="-90" y1="100" x2="100" y2="-90" stroke="black" stroke-width="0.3" stroke-opacity="0.8"/>
    <line x1="-95" y1="100" x2="100" y2="-95" stroke="black" stroke-width="0.3" stroke-opacity="0.8"/>
    <line x1="-100" y1="100" x2="100" y2="-100" stroke="black" stroke-width="0.3" stroke-opacity="0.8"/>
</svg>
