<svg width="284" height="284" viewBox="0 0 284 284" fill="none" xmlns="http://www.w3.org/2000/svg">
<path fill-rule="evenodd" clip-rule="evenodd" d="M240.446 218.783C242.047 219.443 243.417 220.564 244.38 222.003C245.344 223.443 245.858 225.136 245.857 226.869V252.436H271.685V226.696C271.684 224.384 270.765 222.166 269.13 220.531C267.495 218.896 265.278 217.977 262.965 217.977H240.446V218.783Z" fill="#161720"/>
<path fill-rule="evenodd" clip-rule="evenodd" d="M243.851 222.667C245.34 225.507 244.925 225.986 244.798 234.648C244.785 236.135 244.71 252.317 244.829 252.775C244.892 252.966 245.007 253.136 245.16 253.266C245.683 253.638 243.409 253.518 271.681 253.518C271.938 253.516 272.186 253.424 272.382 253.257C272.577 253.09 272.707 252.859 272.749 252.606C272.768 252.37 272.781 226.603 272.737 225.944C272.589 224.136 271.941 222.405 270.865 220.945C269.789 219.485 268.328 218.353 266.646 217.676C264.178 216.729 263.79 216.977 251.246 217.12C239.465 217.288 240.373 217.238 240.094 217.374C239.989 217.435 239.902 217.523 239.843 217.629C239.784 217.735 239.754 217.855 239.758 217.977C239.768 218.891 239.763 218.734 239.776 218.896C239.795 219.008 239.842 219.114 239.913 219.203C239.984 219.292 240.076 219.362 240.181 219.406L240.189 219.396C241.724 220.074 243.005 221.219 243.851 222.667ZM251.786 218.666V218.834L262.965 218.964C264.731 218.986 266.437 219.611 267.797 220.737C269.158 221.863 270.092 223.422 270.444 225.152C270.639 226.194 270.601 224.027 270.601 251.35H246.934C246.934 226.27 246.947 225.201 245.967 223.195C245.109 221.262 243.636 219.668 241.777 218.661L251.786 218.666Z" fill="#161720"/>
<path fill-rule="evenodd" clip-rule="evenodd" d="M102.538 88.2161L102.141 88.5171C101.952 89.5244 102.06 88.4149 102.503 91.98C102.87 94.3599 103.092 98.4855 103.122 98.8433C103.596 107.258 102.35 116.372 94.6817 119.939C92.5621 120.841 92.0746 120.557 91.5123 121.138C91.1696 121.667 91.3097 121.372 91.251 124.841C91.251 129.462 90.9197 137.715 90.932 138.106C90.9522 138.29 91.0355 138.46 91.1677 138.588C91.2998 138.717 91.4725 138.796 91.6562 138.811C92.7215 138.913 93.7788 139.087 94.8209 139.331L95.3359 139.223L95.6322 138.803V138.796L95.5318 138.293L95.1001 137.987C94.2481 137.783 93.4605 137.528 92.5669 137.353C92.5669 137.243 93.4738 129.453 93.4738 122.689C97.7016 121.576 101.072 118.794 103.206 114.088C104.324 111.539 105.003 108.818 105.215 106.042C105.577 102.44 105.472 98.8065 104.901 95.2318C104.544 93.0252 104.029 90.8473 103.358 88.715L103.035 88.306L102.548 88.2208L102.538 88.2161Z" fill="#161720"/>
<path fill-rule="evenodd" clip-rule="evenodd" d="M67.5154 93.5695C66.0933 93.9778 64.8336 94.8185 63.911 95.9751C62.9884 97.1316 62.4486 98.5466 62.3665 100.024C62.3539 100.355 62.364 100.686 62.3968 101.016C62.5077 102.068 62.8535 103.081 63.4087 103.981C65.4772 107.022 68.3911 108.044 72.0149 108.586C73.1098 112.45 74.4972 116.225 76.1651 119.878C76.0505 125.158 76.1367 128.727 75.812 135.337C74.853 135.452 73.9414 135.613 73.0042 135.797C71.854 136.028 72.1361 135.931 71.5917 136.289L71.4696 136.79C71.4772 136.8 71.7536 137.215 71.7536 137.226C72.0931 137.368 72.4723 137.384 72.8224 137.27C76.7321 136.737 76.6091 137.089 77.1297 136.729C77.4478 136.427 77.4478 136.596 77.9666 130.464C78.368 124.508 78.2799 123.562 78.3595 120.098C78.4365 119.685 78.3586 119.259 78.1408 118.9C76.4292 115.2 75.0422 111.357 73.9953 107.416C73.7113 106.222 72.954 106.6 70.9168 106.177C69.0237 105.855 67.2718 104.97 65.89 103.636C65.4116 103.111 65.05 102.49 64.8289 101.815C64.6078 101.14 64.5322 100.425 64.6071 99.7188C64.6821 99.0123 64.9058 98.3297 65.2637 97.7158C65.6215 97.102 66.1053 96.571 66.6833 96.1577C67.5589 95.4875 68.5786 95.0305 69.6615 94.8229C70.5541 94.6295 71.4607 94.5076 72.3727 94.4584L72.8461 94.2378L73.0354 93.7806V93.773L72.8309 93.3186L72.3576 93.1085C70.729 92.9811 69.0907 93.1371 67.5154 93.5695ZM78.0537 118.797L78.0887 118.841L78.101 118.852L78.0357 118.783L78.0537 118.797ZM77.959 118.711C78.0679 118.806 77.9931 118.741 77.8852 118.655L77.959 118.711Z" fill="#161720"/>
<path fill-rule="evenodd" clip-rule="evenodd" d="M96.1426 92.7146L95.798 93.0156L95.6759 93.541C95.6759 97.1658 96.6566 97.6202 96.4436 104.498C93.4219 104.472 94.0694 104.337 93.225 104.622L92.9684 105.042V105.049L93.1161 105.522L93.579 105.815C94.8013 106.155 96.0431 106.422 97.2975 106.614C97.5835 106.659 97.8759 106.591 98.1126 106.424C98.2578 106.312 98.3742 106.166 98.4525 106C98.8662 104.738 98.7365 98.3861 97.9167 95.3975C97.9167 95.3198 97.4547 94.1857 97.4547 94.1781C97.4159 94.1005 97.0192 93.2693 96.9709 93.1898L96.5923 92.8026L96.1473 92.7222L96.1426 92.7146Z" fill="#161720"/>
<path fill-rule="evenodd" clip-rule="evenodd" d="M83.7798 106.405C83.4816 106.861 83.4087 106.773 83.2525 108.224C83.1192 109.677 83.5501 111.125 84.4558 112.269C85.0811 113.13 85.988 113.745 87.0193 114.007C87.8652 114.205 88.7496 114.164 89.573 113.886C90.3964 113.609 91.126 113.108 91.6798 112.438C91.9551 112.055 92.1685 111.631 92.3122 111.182C92.3122 110.499 92.4068 110.766 92.0859 110.256C90.5305 110.635 91.6325 110.343 90.0932 111.189C89.5708 111.546 88.9799 111.792 88.3579 111.909C87.8631 111.945 87.3688 111.833 86.9374 111.589C86.5059 111.344 86.1566 110.977 85.9335 110.534C85.3426 109.506 84.9743 108.365 84.8524 107.185C84.8401 106.969 84.878 107.119 84.6564 106.51L84.2465 106.255L83.7798 106.405Z" fill="#161720"/>
<path fill-rule="evenodd" clip-rule="evenodd" d="M84.2931 87.526C83.7511 87.8988 83.2717 88.3555 82.8731 88.8788C82.6098 89.1595 82.4421 89.5164 82.394 89.8983L82.5635 90.3385L82.573 90.3433L83.017 90.4786C83.336 90.4114 83.6356 90.2728 83.8936 90.0735C84.4572 89.7559 85.0465 89.4864 85.6553 89.2678C86.1253 89.0295 86.6381 88.8876 87.1637 88.8503C87.6893 88.8131 88.217 88.8814 88.7159 89.0511C88.8509 89.1047 88.9819 89.168 89.1078 89.2404C89.2096 89.3001 89.3073 89.3665 89.4003 89.4392C89.4003 89.4392 90.0336 89.7696 90.1898 89.8614C90.7711 90.1587 90.0867 89.9901 91.4839 90.2874C91.6733 89.3928 91.8049 89.3786 91.3666 88.5162C91.1246 88.0135 90.7259 87.6029 90.2305 87.3461C90.0089 87.2148 89.7772 87.1011 89.5376 87.0063C88.6804 86.6941 87.764 86.5787 86.8561 86.6687C85.9483 86.7587 85.0723 87.0516 84.2931 87.526Z" fill="#161720"/>
<path d="M87.1833 99.0175C86.0781 99.0175 85.1821 97.8465 85.1821 96.4019C85.1821 94.9573 86.0781 93.7863 87.1833 93.7863C88.2886 93.7863 89.1846 94.9573 89.1846 96.4019C89.1846 97.8465 88.2886 99.0175 87.1833 99.0175Z" fill="#161720"/>
<path fill-rule="evenodd" clip-rule="evenodd" d="M68.1599 94.6373C66.756 86.6711 65.8103 76.1347 74.0851 71.5717C77.3681 69.7589 81.0563 69.2836 84.5931 68.1959C87.0809 63.0991 92.4031 55.1499 97.8691 53.6731C101.053 52.8733 104.407 53.0812 107.469 54.2681C110.53 55.455 113.147 57.5624 114.96 60.2998C119.659 67.2691 118.558 77.318 110.365 80.9939C103.994 83.8509 94.7896 82.9346 87.8894 81.578C85.766 81.1605 83.761 82.8882 81.6944 83.5187C80.6086 88.7641 77.4344 92.3406 72.2675 93.6357C70.7983 94.0039 68.1599 94.6373 68.1599 94.6373Z" fill="#161720"/>
<path fill-rule="evenodd" clip-rule="evenodd" d="M97.6601 52.5883C91.8116 54.1588 86.5567 61.8419 83.817 67.2786C79.5447 68.4601 75.7174 69.0527 72.3548 71.3493C65.0238 76.6099 65.838 85.928 67.4889 94.7556C67.5969 94.7367 68.9459 94.5 67.4804 94.7556C67.5031 94.885 67.5624 95.0052 67.6514 95.1018C67.7403 95.1985 67.8551 95.2676 67.9822 95.3009C68.233 95.3454 67.8989 95.4041 71.1781 94.6506C73.0801 94.326 74.908 93.6612 76.5741 92.6881C79.8429 90.6424 81.4968 87.8847 82.468 84.2268C84.049 83.6588 85.6413 82.5635 87.0556 82.4925C88.2351 82.4405 104.514 86.975 113.541 80.3909C120.878 74.7109 120.015 63.899 114.462 57.8707C112.421 55.5256 109.772 53.7909 106.806 52.8586C103.841 51.9263 100.675 51.8327 97.6601 52.5883ZM105.139 54.6709C115.085 57.2582 118.943 68.1458 115.289 74.9788C112.031 81.8526 101.635 82.2975 94.0562 81.5108C88.1717 80.8605 88.148 80.3493 86.4563 80.603C84.6179 80.9286 83.3248 81.9482 81.5081 82.6156C80.4147 82.9545 81.1295 83.5452 79.7426 86.6512C79.2984 87.6232 78.7218 88.5289 78.0291 89.3426C75.4656 92.335 72.2545 92.8973 68.712 93.7872C68.712 92.9986 66.8774 84.4218 69.4448 78.331C70.1264 76.615 71.2174 75.0917 72.6227 73.8939C75.8584 71.1268 80.4516 70.5664 84.5734 69.35C85.9281 68.94 85.0345 69.1246 87.8868 64.5219C90.1701 60.9786 93.9757 55.9915 98.0161 54.7779C100.34 54.1228 102.795 54.0872 105.137 54.6747L105.139 54.6709Z" fill="#161720"/>
<path fill-rule="evenodd" clip-rule="evenodd" d="M180.312 33.6814C173.805 36.3542 168.004 40.4944 163.362 45.779C158.72 51.0635 155.361 57.3494 153.549 64.1461C151.559 70.7613 151.104 77.7435 152.22 84.5611C153.335 91.3787 155.992 97.8518 159.987 103.488C164.104 109.311 169.551 114.069 175.875 117.365C178.998 119.017 182.302 120.302 185.721 121.192C191.928 122.822 198.405 123.144 204.743 122.138C211.081 121.131 217.14 118.818 222.537 115.346C256.318 92.6852 247.516 44.0076 212.251 32.5312C201.814 29.0544 190.472 29.4628 180.312 33.6814ZM204.754 34.3175C211.738 35.5278 218.309 38.4581 223.876 42.8439C229.443 47.2298 233.83 52.9331 236.642 59.4389C239.453 65.9447 240.599 73.0482 239.978 80.1081C239.356 87.1679 236.986 93.9619 233.081 99.8764C229.177 105.791 223.861 110.64 217.613 113.986C211.365 117.331 204.383 119.068 197.296 119.04C190.209 119.011 183.24 117.218 177.019 113.823C170.799 110.427 165.522 105.535 161.665 99.5893C158.233 94.4389 155.944 88.613 154.953 82.5039C153.961 76.3948 154.289 70.1441 155.916 64.1726L155.934 64.1783C162.448 43.0079 183.937 30.3652 204.754 34.3175ZM153.555 64.147C153.757 63.4938 153.739 63.5449 153.555 64.147V64.147Z" fill="#161720"/>
<path fill-rule="evenodd" clip-rule="evenodd" d="M199.293 59.0379C198.991 61.4443 198.038 73.3846 198.003 73.8892C197.908 75.0848 197.764 77.4543 197.763 77.4619C194.976 77.6711 187.968 77.2925 183.611 77.3142C182.403 77.3228 182.701 77.2821 182.096 77.5272L181.878 77.9892V77.9958L182.068 78.4692C182.818 78.8289 181.963 78.5989 185.564 78.9775C190.541 79.501 193.976 79.9498 198.639 79.6118C198.859 79.632 199.081 79.5904 199.279 79.4918C199.477 79.3931 199.644 79.2413 199.76 79.0533C199.929 78.7106 199.893 78.8185 199.995 77.052C200.599 66.6633 201.553 62.7526 201.277 54.793C201.257 54.3017 201.31 54.5308 201.059 53.9268L200.619 53.7091H200.614C199.785 54.0319 200.018 53.5387 199.293 59.0379Z" fill="#161720"/>
<path fill-rule="evenodd" clip-rule="evenodd" d="M229.577 76.3174C229.118 76.3774 228.663 76.4704 228.217 76.5957C227.944 76.6648 228.115 76.5957 227.475 76.9157L227.236 77.2991C227.489 77.7999 227.331 77.6333 227.946 78.0167C228.427 78.2016 228.921 78.3484 229.425 78.4559C229.779 78.515 230.138 78.5391 230.497 78.5279C233.344 78.649 232.886 78.8686 233.727 78.5761C234.153 78.436 233.87 78.5875 234.84 77.9447C234.216 77.0132 234.394 77.2139 234.033 76.9337C233.801 76.7505 233.534 76.6165 233.248 76.5399C232.031 76.3866 230.804 76.3123 229.577 76.3174Z" fill="#161720"/>
<path fill-rule="evenodd" clip-rule="evenodd" d="M162.117 74.248C161.79 74.233 161.463 74.2714 161.148 74.3616C161.073 74.3796 160.699 74.4922 160.656 74.5083C160.017 74.7355 160.338 74.5292 159.431 75.3215C160.22 76.1565 159.983 76.005 160.629 76.235C161.568 76.608 162.694 76.3486 164.353 76.4367C164.626 76.4646 164.9 76.3933 165.125 76.236C165.483 76.0646 165.204 76.2455 166.149 75.5629C165.502 74.656 165.647 74.8207 165.351 74.5954C165.114 74.3712 164.801 74.2439 164.475 74.2385C163.626 74.1978 163.023 74.2186 162.117 74.248Z" fill="#161720"/>
<path fill-rule="evenodd" clip-rule="evenodd" d="M200.946 38.8445C200.753 39.1377 200.59 39.4502 200.461 39.777C200.381 40.2269 200.324 40.6806 200.292 41.1364C200.064 43.3355 199.738 44.4498 200.414 46.2551L200.776 46.5391H200.788L201.203 46.3497L201.556 45.8215C201.784 45.2796 201.979 44.7241 202.14 44.1582C202.234 43.7312 202.575 40.6262 202.575 40.5173C202.644 40.1544 202.608 39.7794 202.471 39.4362C202.167 38.7735 202.601 39.3292 201.682 38.2358L200.946 38.8445Z" fill="#161720"/>
<path fill-rule="evenodd" clip-rule="evenodd" d="M196.852 114.295C197.289 113.551 197.536 112.712 197.571 111.851C197.921 109.616 197.872 110.106 197.702 109.46C197.475 108.928 197.632 109.213 196.961 108.337C196.519 108.599 196.14 108.954 195.849 109.378C195.633 109.694 195.683 109.635 195.544 110.52C195.227 112.719 195.115 112.775 195.339 113.921C195.426 114.365 195.339 114.164 195.993 115.105C196.907 114.343 196.747 114.508 196.852 114.295Z" fill="#161720"/>
<path fill-rule="evenodd" clip-rule="evenodd" d="M88.9792 191.648C88.9792 191.648 89.0928 199.988 89.302 203.783C80.0152 205.436 70.86 207.682 61.5902 209.425C58.9396 209.923 56.3277 211.287 53.6505 210.93C39.3814 209.021 24.9022 208.987 10.5232 208.328C9.96404 208.301 9.41722 208.154 8.91956 207.897C8.42189 207.641 7.98489 207.281 7.63794 206.841C7.29097 206.402 7.04208 205.893 6.908 205.35C6.77393 204.806 6.75777 204.24 6.8606 203.69C8.80504 193.288 11.4169 183.066 16.4049 173.592C26.1745 155.038 45.0662 140.907 65.9288 137.516C66.2265 137.469 66.5315 137.503 66.811 137.616C67.0905 137.729 67.334 137.916 67.5154 138.157C71.8758 143.897 78.3282 149.611 85.5172 150.91C89.7772 151.678 96.8924 151.046 98.8851 146.391C99.6059 144.458 99.7347 142.354 99.2552 140.347C99.2032 140.071 99.222 139.786 99.31 139.519C99.3979 139.252 99.5521 139.012 99.7581 138.82C99.9641 138.629 100.215 138.493 100.488 138.425C100.761 138.357 101.046 138.36 101.318 138.432C113.057 141.623 124.133 146.355 134.039 153.641C137.561 156.233 141.468 159.075 144.311 162.432C143.11 163.428 142.183 164.713 141.617 166.166C141.051 167.62 140.865 169.193 141.075 170.739C139.105 172.828 138.115 175.583 139.249 178.349C134.767 185.693 143.982 191.903 149.525 195.069C144.773 204.26 133.476 221.348 133.294 221.81C133.241 221.944 131.797 251.591 131.75 251.63C131.74 251.638 131.728 251.645 131.715 251.649C131.702 251.653 131.689 251.654 131.676 251.652C123.139 250.788 114.516 251.836 105.94 251.664C93.5487 251.414 80.7347 250.914 68.322 250.891C68.2969 250.894 68.2716 250.887 68.2518 250.871C68.232 250.856 68.2193 250.833 68.2164 250.808C68.2135 250.782 68.2207 250.757 68.2364 250.737C68.2522 250.718 68.2751 250.705 68.3002 250.702C76.841 248.435 88.7132 244.622 95.4496 239.178C101.792 241.623 109.414 240.462 115.579 237.924C120.061 236.08 123.462 231.246 116.634 229.695C119.616 227.092 122.916 222.043 117.136 220.723C120.466 217.962 125.384 210.7 118.065 209.416C118.917 204.493 120.157 199.464 121.491 194.639C131.044 193.748 130.403 187.588 126.887 186.119C121.756 183.975 114.326 185.261 108.816 185.24C109.308 182.444 109.77 179.624 110.054 176.799C110.149 175.845 110.446 174.372 109.788 173.541C108.388 171.772 105.21 171.466 103.213 170.89C97.5276 169.261 91.2493 166.509 85.2067 167.088C82.6867 167.329 80.2623 169.241 82.5996 171.601C83.977 172.991 86.2481 173.466 88.0486 174.021C89.924 174.599 91.7463 175.346 93.6254 175.924C96.5288 176.821 99.4806 177.413 102.441 178.091C102.33 180.275 102.085 182.45 101.709 184.605C97.0942 184.388 92.4692 184.578 87.8877 185.173C85.9528 185.257 84.0385 185.606 82.1982 186.209C80.232 187.04 79.4425 189.439 81.6397 190.564C83.7915 191.666 86.586 191.65 88.9792 191.648Z" fill="#BCF0F5"/>
<path fill-rule="evenodd" clip-rule="evenodd" d="M88.9792 191.648C88.9792 191.648 89.0928 199.988 89.302 203.783C80.0152 205.436 70.86 207.682 61.5902 209.425C58.9396 209.923 56.3277 211.287 53.6505 210.93C39.3814 209.021 24.9022 208.987 10.5232 208.328C9.96404 208.301 9.41722 208.154 8.91956 207.897C8.42189 207.641 7.98489 207.281 7.63794 206.841C7.29097 206.402 7.04208 205.893 6.908 205.35C6.77393 204.806 6.75777 204.24 6.8606 203.69C8.80504 193.288 11.4169 183.066 16.4049 173.592C26.1745 155.038 45.0662 140.907 65.9288 137.516C66.2265 137.469 66.5315 137.503 66.811 137.616C67.0905 137.729 67.334 137.916 67.5154 138.157C71.8758 143.897 78.3282 149.611 85.5172 150.91C89.7772 151.678 96.8924 151.046 98.8851 146.391C99.6059 144.458 99.7347 142.354 99.2552 140.347C99.2032 140.071 99.222 139.786 99.31 139.519C99.3979 139.252 99.5521 139.012 99.7581 138.82C99.9641 138.629 100.215 138.493 100.488 138.425C100.761 138.357 101.046 138.36 101.318 138.432C113.057 141.623 124.133 146.355 134.039 153.641C137.561 156.233 141.468 159.075 144.311 162.432C143.11 163.428 142.183 164.713 141.617 166.166C141.051 167.62 140.865 169.193 141.075 170.739C139.105 172.828 138.115 175.583 139.249 178.349C134.767 185.693 143.982 191.903 149.525 195.069C144.773 204.26 133.476 221.348 133.294 221.81C133.241 221.944 131.797 251.591 131.75 251.63C131.74 251.638 131.728 251.645 131.715 251.649C131.702 251.653 131.689 251.654 131.676 251.652C123.139 250.788 114.516 251.836 105.94 251.664C93.5487 251.414 80.7347 250.914 68.322 250.891C68.2969 250.894 68.2716 250.887 68.2518 250.871C68.232 250.856 68.2193 250.833 68.2164 250.808C68.2135 250.782 68.2207 250.757 68.2364 250.737C68.2522 250.718 68.2751 250.705 68.3002 250.702C76.841 248.435 88.7132 244.622 95.4496 239.178C101.792 241.623 109.414 240.462 115.579 237.924C120.061 236.08 123.462 231.246 116.634 229.695C119.616 227.092 122.916 222.043 117.136 220.723C120.466 217.962 125.384 210.7 118.065 209.416C118.917 204.493 120.157 199.464 121.491 194.639C131.044 193.748 130.403 187.588 126.887 186.119C121.756 183.975 114.326 185.261 108.816 185.24C109.308 182.444 109.77 179.624 110.054 176.799C110.149 175.845 110.446 174.372 109.788 173.541C108.388 171.772 105.21 171.466 103.213 170.89C97.5276 169.261 91.2493 166.509 85.2067 167.088C82.6867 167.329 80.2623 169.241 82.5996 171.601C83.977 172.991 86.2481 173.466 88.0486 174.021C89.924 174.599 91.7463 175.346 93.6254 175.924C96.5288 176.821 99.4806 177.413 102.441 178.091C102.33 180.275 102.085 182.45 101.709 184.605C97.0942 184.388 92.4692 184.578 87.8877 185.173C85.9528 185.257 84.0385 185.606 82.1982 186.209C80.232 187.04 79.4425 189.439 81.6397 190.564C83.7915 191.666 86.586 191.65 88.9792 191.648Z" fill="url(#paint0_linear)" fill-opacity="0.5"/>
<path fill-rule="evenodd" clip-rule="evenodd" d="M89.2707 205.223C86.6102 205.193 83.9526 205.406 81.331 205.86C71.3399 207.479 55.2712 211.552 52.1983 212.212C52.1983 211.311 52.2655 211.644 52.0241 210.987L51.5706 210.754H51.5612L51.0822 210.925C50.7451 211.572 50.8663 211.22 50.7556 212.164C50.6817 213.098 50.552 213.584 51.1958 213.883C51.4589 213.956 51.2904 213.963 53.1307 213.715C64.0647 212.185 71.9202 209.428 83.4979 207.757C84.6973 207.584 88.0372 206.942 90.3035 206.6C90.5089 206.569 90.3915 206.614 90.9178 206.321L91.0845 205.86V205.853L90.8573 205.418C90.2467 205.18 90.596 205.219 89.2707 205.223Z" fill="#161720"/>
<path fill-rule="evenodd" clip-rule="evenodd" d="M50.8359 211.949C50.4468 211.971 47.7384 212.605 47.0947 212.764C46.3539 212.913 45.6397 213.172 44.976 213.533C44.5267 213.709 44.1196 213.978 43.7813 214.323L43.6507 214.771V214.779L43.982 215.109L44.5964 215.238C47.0464 215.238 47.0104 214.964 50.5216 214.243C51.1146 214.182 51.6798 213.961 52.1565 213.603C52.4585 213.414 52.2957 213.584 52.9375 212.682C52.0391 212.046 52.2389 212.144 51.8905 212.07C51.5456 211.985 51.1912 211.944 50.8359 211.949Z" fill="#161720"/>
<path fill-rule="evenodd" clip-rule="evenodd" d="M10.135 210.742C9.8093 211.376 9.90586 210.871 9.7506 213.393C9.62547 216.205 9.79522 219.022 10.2571 221.798C11.4156 228.802 14.727 235.271 19.7313 240.307C26.8228 247.664 36.9682 251.403 47.09 251.898C57.6643 252.371 66.2496 249.552 75.9435 245.356C82.2454 242.618 89.0946 239.663 94.2331 235.355C96.6819 236.232 99.2276 236.81 101.815 237.077C107.345 237.606 113.239 236.788 117.301 233.101H117.306L117.532 232.638L117.385 232.155C117.372 232.146 116.937 231.93 116.923 231.923C116.368 232.091 116.467 232.038 116.29 232.186C115.768 232.597 115.214 232.967 114.634 233.293C108.702 236.454 101.171 235.516 94.8787 233.252C92.5906 232.395 94.6032 233.688 84.685 238.906C79.4944 241.538 69.7646 245.889 62.8776 247.835C35.8909 255.231 13.1132 240.413 11.2605 216.645C10.9765 211.237 11.4982 212.006 11.0901 210.819L10.6282 210.583L10.135 210.742Z" fill="#161720"/>
<path fill-rule="evenodd" clip-rule="evenodd" d="M117.976 212.628C117.479 212.928 116.367 213.442 115.941 213.675C115.541 213.891 115.657 213.842 115.247 214.078C113.646 215.001 111.887 215.615 110.059 215.89C108.352 216.113 106.62 216.064 104.928 215.743C103.753 215.482 104.5 215.512 103.559 215.522L103.18 215.837L103.175 215.844V216.336C103.355 216.648 103.634 216.891 103.969 217.025C105.008 217.604 106.147 217.983 107.326 218.142C110.344 218.345 113.356 217.664 115.993 216.181C116.784 215.801 117.492 215.27 118.076 214.616C118.36 214.314 118.801 213.749 118.879 213.633L119.057 213.123L118.931 212.686V212.68L118.509 212.51L117.976 212.628Z" fill="#161720"/>
<path fill-rule="evenodd" clip-rule="evenodd" d="M116.691 223.458C112.642 224.101 112.131 224.972 106.867 224.404C105.753 224.301 104.647 224.127 103.554 223.885L103.004 223.931L102.656 224.267V224.274L102.687 224.761C103.06 225.166 102.899 225.12 104.095 225.693C105.322 226.287 106.65 226.643 108.01 226.742C109.477 226.866 110.954 226.815 112.409 226.589C114.185 226.474 115.881 225.809 117.262 224.686L117.585 224.245L117.598 223.796V223.789L117.25 223.505L116.708 223.456L116.691 223.458Z" fill="#161720"/>
<path fill-rule="evenodd" clip-rule="evenodd" d="M89.7809 197.42H89.7723L89.4883 197.841C89.4853 198.17 89.593 198.49 89.7941 198.75C91.6688 201.47 94.3448 203.538 97.4498 204.666C101.94 206.503 106.642 207.706 111.467 207.199C113.116 206.96 114.702 206.4 116.136 205.551C116.307 205.456 116.217 205.539 116.609 205.059V204.575L116.248 204.259C115.68 204.24 115.784 204.222 115.68 204.254C114.274 204.659 112.829 204.909 111.369 204.999C107.618 205.299 103.976 204.961 98.3103 202.641C95.9264 201.715 93.7088 200.407 91.7442 198.77C90.276 197.273 91.0579 197.833 90.2798 197.337L89.7809 197.42Z" fill="#161720"/>
<path fill-rule="evenodd" clip-rule="evenodd" d="M185.577 180.695H185.569L185.232 181.074L185.241 181.591C188.605 190.547 189.805 200.172 188.744 209.68C188.34 213.095 187.446 216.435 186.088 219.594C183.032 226.579 177.543 230.643 169.922 231.696C159.944 233.073 146.283 228.572 137.95 220.862C136.965 219.949 137.382 220.206 136.7 219.921L136.215 220.11L136.014 220.584L136.204 221.076C146.539 231.91 166.068 238.299 178.86 231.058C193.906 222.49 194.007 195.842 186.469 181.015C186.462 181.01 186.083 180.676 186.077 180.67L185.577 180.695Z" fill="#161720"/>
<path fill-rule="evenodd" clip-rule="evenodd" d="M144.755 185.814V185.819L144.589 186.268L144.759 186.768C145.591 187.848 146.529 188.843 147.558 189.738C148.622 190.578 149.768 191.311 150.976 191.926C151.312 192.096 151.028 191.962 151.761 192.314C154.371 193.496 154.135 193.106 154.099 193.442C153.235 199.302 152.958 198.697 151.905 205.247C151.504 208.052 151.526 207.536 151.683 208.223L152.097 208.515H152.106L152.598 208.401L152.908 207.96C153.752 204.7 155.692 199.41 156.41 192.604C156.436 191.522 155.673 191.461 154.758 191.159C153.805 190.834 152.878 190.438 151.985 189.973C149.863 188.749 147.818 187.397 145.86 185.925C145.662 185.772 145.798 185.838 145.206 185.641L144.755 185.814Z" fill="#161720"/>
<path fill-rule="evenodd" clip-rule="evenodd" d="M149.181 169.468H149.172L148.967 169.912L149.102 170.441C150.037 171.96 151.242 173.295 152.656 174.383C154.351 175.684 156.186 176.791 158.127 177.684C159.095 178.195 160.159 178.498 161.251 178.574C161.625 178.658 162.015 178.634 162.376 178.505L162.682 178.171C162.682 178.161 162.61 177.731 162.608 177.721L162.229 177.331C162.205 177.322 160.73 176.463 160.668 176.431C158.904 175.674 157.201 174.78 155.576 173.758C154.395 172.984 151.411 170.671 150.406 169.782C150.072 169.485 150.257 169.602 149.655 169.334L149.181 169.468Z" fill="#161720"/>
<path fill-rule="evenodd" clip-rule="evenodd" d="M146.909 176.878V176.884L146.7 177.325L146.827 177.856C147.721 179.369 148.849 180.73 150.171 181.888C151.769 183.28 153.568 184.423 155.507 185.279C156.511 185.783 157.623 186.034 158.747 186.012C159.138 186.062 159.535 185.996 159.889 185.823C159.897 185.813 160.152 185.462 160.159 185.451L160.033 185.019L159.615 184.673C159.236 184.526 157.971 183.887 157.679 183.769C155.906 183.151 154.24 182.259 152.743 181.127C152.059 180.613 148.82 177.864 147.89 176.984L147.389 176.754L146.909 176.878Z" fill="#161720"/>
<path fill-rule="evenodd" clip-rule="evenodd" d="M150.959 161.399V161.405L150.797 161.888L151.015 162.375C151.59 162.711 157.754 170.087 167.857 172.615C173.395 174.01 180.493 173.577 183.572 168.862C183.892 168.357 184.154 167.817 184.352 167.252C184.39 167.142 184.371 167.252 184.352 166.674L184.021 166.313H184.012H183.527C183.1 166.681 183.165 166.597 183.105 166.702C182.997 166.734 181.883 169.68 176.395 170.83C167.97 172.515 158.638 166.73 151.931 161.363L151.421 161.198L150.959 161.399Z" fill="#161720"/>
<path fill-rule="evenodd" clip-rule="evenodd" d="M174.416 172.127C180.035 161.729 181.326 157.169 183.079 154.149C181.648 152.445 180.205 150.776 178.653 149.181C172.235 150.028 165.778 150.675 159.366 151.602C158.494 156.199 156.139 160.299 154.916 164.773C157.877 167.802 161.857 169.448 165.834 170.638C168.519 171.589 171.347 172.073 174.196 172.068" fill="#161720"/>
<path fill-rule="evenodd" clip-rule="evenodd" d="M178.51 148.09C171.729 148.974 166.384 149.51 160.42 150.341C159 150.538 158.974 150.504 158.607 150.806C158.21 151.249 158.358 151.3 158.019 152.616C156.923 156.846 155.093 160.113 153.99 164.051C153.829 164.619 153.76 164.762 153.928 165.222C154.288 165.722 154.724 166.163 155.219 166.529C156.431 167.545 157.76 168.411 159.178 169.111C163.218 171.018 167.544 172.248 171.983 172.75C172.739 172.805 173.499 172.801 174.255 172.737C174.772 172.783 174.47 172.815 175.012 172.448C175.125 172.246 178.567 166.458 181.166 160.926C182.087 158.956 182.553 157.499 183.722 155.246C183.908 154.983 184.052 154.692 184.149 154.384C184.263 153.654 183.887 153.401 183.377 152.799C181.944 151.102 181.137 150.213 180.173 149.179C179.481 148.437 179.265 148.049 178.51 148.09ZM178.291 150.391C180.231 152.452 181.605 154.115 181.749 154.273C180.812 155.888 179.28 160.219 174.028 171.38C169.944 171.409 163.11 168.999 159.954 167.234C158.566 166.481 157.283 165.55 156.139 164.463C156.139 163.815 158.943 157.535 160.071 153.481V153.472C160.166 153.093 160.192 152.986 160.284 152.596C160.285 152.487 178.241 150.338 178.291 150.391Z" fill="#161720"/>
<path fill-rule="evenodd" clip-rule="evenodd" d="M159.828 165.659C160.352 165.224 160.139 165.572 161.68 163.146C161.747 163.025 162.138 162.4 162.373 161.915C162.691 161.252 163.575 159.359 163.847 158.677C164.772 156.543 164.764 156.792 163.773 155.34C163.432 154.825 163.13 154.413 163.084 154.332C162.582 153.747 162.024 153.212 161.419 152.733L160.914 152.511L160.477 152.588H160.469L160.268 152.982C160.345 153.665 160.229 153.345 160.957 154.996C161.331 155.666 161.745 156.313 162.195 156.934C160.802 160.388 160.566 159.954 159.047 164.683L159.033 165.273L159.324 165.667H159.333L159.828 165.659Z" fill="white"/>
<path fill-rule="evenodd" clip-rule="evenodd" d="M84.7673 168.669L84.4928 169.073C84.4928 169.909 85.0058 169.824 89.0841 170.989C89.0841 171.251 91.6912 171.256 105.799 175.515C105.768 176.507 105.625 179.87 105.625 184.765C105.625 188.757 105.495 187.869 105.774 188.646L106.227 188.886L106.707 188.71L106.96 188.229C106.96 187.744 107.771 182.682 107.967 176.427C108.027 174.494 108.072 174.629 107.91 174.218C107.583 173.666 107.857 173.817 102.866 172.346C89.9588 168.605 89.5025 169.145 89.5025 168.982C89.3917 168.968 86.1371 168.526 85.269 168.526L84.7673 168.669Z" fill="#161720"/>
<path fill-rule="evenodd" clip-rule="evenodd" d="M95.9465 187.95C90.026 188.033 91.0863 188.087 84.9812 188.087L84.4757 188.277L84.2447 188.731V188.739L84.4227 189.218L84.9027 189.461C84.9027 189.569 90.9613 190.029 96.2381 190.149C114.836 190.235 115.645 191.272 122.019 190.654C123.308 190.529 124.693 190.275 124.805 190.261L125.258 189.997L125.414 189.533V189.523L125.175 189.095C124.859 188.917 124.491 188.853 124.133 188.914C119.582 188.884 107.215 187.787 95.9465 187.95Z" fill="#161720"/>
<path fill-rule="evenodd" clip-rule="evenodd" d="M90.9746 199.295C90.8572 195.821 90.5013 192.361 90.3214 188.889C96.595 188.961 102.865 189.202 109.134 189.253C112.364 189.2 115.596 189.322 118.813 189.62C117.727 194.818 116.489 199.914 115.242 205.064C113.141 205.401 111.131 206.218 108.973 206.168C104.399 206.062 99.3412 204.153 95.387 202.023C93.7628 201.315 92.2241 200.426 90.8004 199.372" fill="#161720"/>
<path fill-rule="evenodd" clip-rule="evenodd" d="M89.3757 188.444C89.2441 188.792 89.247 188.778 89.3843 190.253C90.2845 199.858 90.4142 198.498 90.1217 199.411C90.3536 199.907 90.294 199.854 90.5439 200.064C91.7118 200.965 92.9754 201.734 94.3117 202.359C96.0064 203.339 97.7608 204.212 99.5647 204.972C101.269 205.684 103.029 206.254 104.827 206.676C107.753 207.485 110.852 207.423 113.743 206.498C115.764 206.025 115.617 206.214 116.058 205.802C116.275 205.513 116.132 206.24 117.933 198.572C118.257 197.218 118.983 194.091 119.581 191.308C119.91 189.77 120.064 189.556 119.708 188.974C119.324 188.522 119.076 188.536 118.483 188.472C116.582 188.276 115.007 188.217 113.087 188.181C88.5133 187.8 89.8831 187.535 89.3757 188.444ZM117.481 190.591C116.849 193.692 115.103 200.971 114.337 204.111C111.166 204.724 110.583 205.386 106.934 204.963C101.278 204.28 96.4322 201.601 93.6547 200.308C92.9535 199.99 92.2822 199.61 91.6487 199.172C91.6487 195.007 91.4773 192.72 91.4007 189.983C95.2725 190.131 114.68 190.342 117.481 190.591Z" fill="#161720"/>
<path fill-rule="evenodd" clip-rule="evenodd" d="M198.258 152.525C198.101 152.552 197.96 152.633 197.858 152.755C197.756 152.876 197.7 153.029 197.7 153.188C197.235 198.234 197.184 196.336 197.7 196.848C197.889 197.008 198.128 197.097 198.376 197.098C200.808 197.108 244.19 197.193 244.704 197.06C244.942 196.972 245.142 196.805 245.272 196.587C245.491 196.107 245.415 199.206 245.415 153.191C245.414 152.937 245.325 152.692 245.162 152.499C244.999 152.305 244.773 152.174 244.524 152.129C240.771 151.793 198.365 152.516 198.258 152.525ZM243.252 154.273V194.963C219.396 194.963 279.095 194.991 199.421 194.995C199.314 195.05 199.509 196.694 199.051 153.867C224.191 154.334 223.282 154.273 243.252 154.273Z" fill="#161720"/>
<path fill-rule="evenodd" clip-rule="evenodd" d="M184.574 224.25C183.608 224.58 184.263 224.226 183.353 224.748L183.144 225.154V225.161L183.375 225.554L183.907 225.823C186.574 226.356 184.38 226.147 188.999 226.27C189.528 226.363 190.073 226.304 190.569 226.098C191.19 225.814 190.875 226.056 191.733 225.232C190.917 224.38 191.202 224.614 190.609 224.318C190.125 224.091 189.587 224.004 189.056 224.069C185.584 223.981 185.949 223.949 184.574 224.25Z" fill="#161720"/>
<path fill-rule="evenodd" clip-rule="evenodd" d="M195.284 239.057C194.915 239.011 194.54 239.057 194.194 239.191C191.609 240.495 189.126 241.991 186.765 243.664C184.698 245.066 184.201 245.179 184.341 246.162C184.395 246.408 184.533 246.628 184.733 246.784C185.056 246.996 185.111 246.996 185.758 247.079C189.788 247.603 193.756 246.787 197.869 246.377C206.31 245.559 211.611 243.982 218.47 242.989C220.647 242.666 220.687 242.619 221.718 242.407L222.15 242.106L222.254 241.601C222.247 241.589 221.965 241.181 221.957 241.17L221.495 241.075L221.478 241.062C217.749 240.305 213.974 239.799 210.177 239.547C206.373 239.264 198.736 239.048 195.284 239.057ZM195.663 241.258C201.902 241.271 208.335 241.642 211.712 241.777C215.04 241.912 214.748 241.834 213.53 242.018C211.353 242.351 206.765 243.059 204.008 243.427C204.008 243.534 191.306 245.022 188.653 245.048C190.611 243.712 192.643 242.488 194.739 241.381C195.013 241.24 194.853 241.256 195.663 241.258ZM195.371 241.038L195.358 241.044L195.375 241.03L195.371 241.038Z" fill="#161720"/>
<path fill-rule="evenodd" clip-rule="evenodd" d="M202.991 226.916C200.641 226.888 198.293 227.015 195.96 227.295C194.67 227.422 195.036 227.336 194.404 227.626L194.193 228.08V228.087L194.404 228.541L194.909 228.769C195.364 228.769 196.992 229.033 200.547 229.121C202.677 229.177 201.826 228.969 209.619 229.257C211.621 229.46 213.642 229.269 215.57 228.697L216.011 228.397L216.159 227.952V227.944L215.911 227.547C214.449 226.996 204.468 226.91 202.991 226.916Z" fill="#161720"/>
<path fill-rule="evenodd" clip-rule="evenodd" d="M238.749 235.241C238.102 235.262 237.567 235.383 235.357 235.443C232.095 235.513 231.184 235.305 229.293 235.386C226.245 235.527 226.737 235.481 226.074 235.733L225.826 236.158V236.166L226.016 236.621L226.521 236.898C229.357 237.567 232.275 237.82 235.184 237.648C239.119 237.567 239.679 237.264 240.975 236.702C241.117 236.642 241.024 236.702 241.498 236.304L241.62 235.87C241.613 235.858 241.357 235.516 241.35 235.505L240.831 235.33C240.713 235.321 239.01 235.229 238.749 235.241Z" fill="#161720"/>
<path fill-rule="evenodd" clip-rule="evenodd" d="M4.99454 249.835L4.73328 250.308V250.316L4.98602 250.797L5.59662 251.007L11.8267 251.462L39.0272 251.857L53.2452 252.046L66.8876 252.209L84.205 252.371L104.626 252.56L150.266 252.988L194.824 253.407L213.89 253.586L229.32 253.73L236.361 253.769L243.982 253.792L259.299 253.801L278.159 253.774H278.587L279.06 253.576L279.267 253.107V253.1L279.071 252.627L278.597 252.42L278.166 252.411L259.31 252.024L243.998 251.74L236.377 251.62L229.331 251.526L213.906 251.381L194.84 251.202L150.286 250.784L104.643 250.356L84.2249 250.167L66.9075 250.004L53.2613 249.91L39.0433 249.831L11.8418 249.716L5.61179 249.629L4.99454 249.835Z" fill="#161720"/>
<path fill-rule="evenodd" clip-rule="evenodd" d="M266.162 224.573C259.457 224.7 259.062 224.707 256.442 225.253C256.116 225.292 255.807 225.416 255.544 225.613L255.355 226.06V226.068L255.598 226.488C255.88 226.654 256.201 226.742 256.528 226.743C258.327 226.96 260.143 227.004 261.951 226.873C263.664 226.909 265.376 226.846 267.081 226.684C268.616 226.332 268.507 226.322 269.003 226.021L269.192 225.626V225.619L268.987 225.231L268.506 224.961C267.746 224.728 266.957 224.597 266.162 224.573Z" fill="white"/>
<path fill-rule="evenodd" clip-rule="evenodd" d="M249.195 236.061C247.017 236.222 247.585 236.086 246.828 236.393L246.589 236.834V236.842L246.794 237.3L247.308 237.552C252.649 238.293 251.445 238.074 261.389 238.365C262.961 238.479 264.541 238.39 266.09 238.1L266.575 237.867L266.79 237.456V237.449L266.609 237.022L266.143 236.752C265.764 236.694 265.723 236.629 264.386 236.395C263.418 236.222 262.435 236.145 261.451 236.165C251.447 235.878 252.65 235.897 249.195 236.061Z" fill="white"/>
<path fill-rule="evenodd" clip-rule="evenodd" d="M248.719 246.985C248.151 247.39 248.291 247.216 248.071 247.729C249.018 248.487 248.674 248.297 249.397 248.487C250.196 248.728 250.911 248.686 253.452 248.737C253.663 248.764 253.878 248.742 254.079 248.67C254.857 248.352 254.776 248.342 255.468 247.636C254.738 246.925 254.863 246.964 254.095 246.62C253.782 246.52 253.973 246.55 253.124 246.525C250.452 246.473 250.267 246.359 248.719 246.985Z" fill="white"/>
<path fill-rule="evenodd" clip-rule="evenodd" d="M61.3942 184.566C60.5014 185.151 60.7504 184.879 60.047 188.537C58.8571 194.944 58.1651 197.766 57.6009 201.363C56.9032 205.834 56.8568 205.376 57.527 205.899H57.5355L58.0278 205.804L58.3639 205.372C58.3639 205.263 58.3819 205.409 59.2159 202.681C60.687 197.599 60.4873 197.679 62.3295 188.333C62.8028 185.757 62.4951 186.602 63.5062 185.549C63.7069 185.346 64.1206 184.936 64.2171 184.842C64.5404 184.507 64.9053 184.215 65.3029 183.973L65.6475 183.57L65.6731 183.097V183.09L65.3285 182.762L64.8012 182.719C63.5706 183.141 62.4191 183.765 61.3942 184.566Z" fill="#161720"/>
<path fill-rule="evenodd" clip-rule="evenodd" d="M167.697 155.328C164.755 155.717 165.883 155.475 164.301 155.907C163.234 156.28 163.712 156.013 163.015 156.471L162.845 156.872V156.879L163.058 157.257L163.538 157.498C164.443 157.725 165.383 157.786 166.31 157.68C167.772 157.512 173.081 156.799 174.529 156.478C177.136 155.91 176.549 156.113 177.206 155.745L177.385 155.302V155.294L177.158 154.872C176.814 154.674 176.418 154.583 176.022 154.611C173.08 154.422 172.375 154.685 167.697 155.328Z" fill="white"/>
<path fill-rule="evenodd" clip-rule="evenodd" d="M132.233 194.639L131.815 194.839L131.58 195.307C131.086 199.159 131.221 196.129 131.139 208.758C131.112 211.459 131.236 214.159 131.51 216.846L131.732 217.361L132.181 217.577H132.186L132.635 217.362C132.872 216.813 132.864 217.188 133.088 214.154C133.298 211.204 133.346 211.526 133.346 200.017C133.35 198.432 133.203 196.851 132.905 195.294L132.661 194.831L132.238 194.641L132.233 194.639Z" fill="#161720"/>
<path d="M220.767 158.362C217.878 158.362 215.535 156.02 215.535 153.13C215.535 150.24 217.878 147.898 220.767 147.898C223.657 147.898 226 150.24 226 153.13C226 156.02 223.657 158.362 220.767 158.362Z" fill="#161720"/>
<path fill-rule="evenodd" clip-rule="evenodd" d="M220.158 147.199C219.107 147.231 218.083 147.541 217.19 148.097C216.297 148.654 215.568 149.436 215.076 150.366C214.584 151.295 214.347 152.338 214.388 153.389C214.43 154.44 214.749 155.461 215.314 156.349C215.86 157.275 216.634 158.047 217.562 158.591C218.489 159.136 219.54 159.435 220.616 159.461C221.691 159.487 222.755 159.239 223.708 158.739C224.661 158.24 225.471 157.506 226.061 156.607C226.608 155.783 226.944 154.838 227.042 153.854C227.139 152.87 226.994 151.877 226.619 150.962C226.245 150.047 225.652 149.238 224.893 148.605C224.133 147.972 223.231 147.534 222.263 147.33C221.568 147.208 220.862 147.164 220.158 147.199ZM220.764 148.584C221.838 148.65 222.851 149.104 223.616 149.861C224.38 150.619 224.843 151.629 224.919 152.702C224.919 157.618 219.339 158.765 217.156 155.141C217.026 154.907 216.919 154.661 216.838 154.406C216.662 153.763 216.627 153.089 216.736 152.431C216.844 151.772 217.092 151.145 217.465 150.592C217.837 150.038 218.324 149.572 218.893 149.223C219.462 148.875 220.099 148.653 220.762 148.574L220.764 148.584ZM220.712 147.218H220.69H220.712Z" fill="#161720"/>
<path fill-rule="evenodd" clip-rule="evenodd" d="M205.201 188.654C200.711 188.814 198.798 188.522 194.799 188.825C192.441 189.009 192.914 188.941 192.348 189.204L192.148 189.639V189.647L192.337 190.084C192.941 190.381 192.469 190.273 194.766 190.525C198.004 190.845 201.259 190.95 204.51 190.839C205.884 198.249 207.307 203.524 211.486 210.027C211.714 210.381 211.581 210.25 212.097 210.62L212.593 210.564L212.896 210.16C212.828 209.529 212.876 209.707 212.692 209.34C211.762 207.471 210.936 205.551 210.22 203.589C205.896 191.818 207.148 189.743 206.06 188.842C205.807 188.673 205.501 188.606 205.201 188.654Z" fill="#161720"/>
<path fill-rule="evenodd" clip-rule="evenodd" d="M203.016 217.039C201.076 217.053 199.183 217.639 197.575 218.724C196.228 219.627 195.129 220.855 194.38 222.293C192.94 225.218 193.251 226.135 193.251 235.189C193.27 240.983 193.219 240.463 193.403 240.869C193.522 241.081 193.71 241.247 193.936 241.337C194.162 241.427 194.413 241.437 194.645 241.365C195.067 241.193 194.878 241.218 195.143 241.214C199.104 241.18 206.935 241.358 214.487 241.883C209.962 242.712 206.774 243.309 202.999 243.889C194.574 245.152 193.743 244.595 193.656 245.68H193.669C193.574 253.313 193.55 252.558 193.617 252.838C193.674 253.009 193.79 253.154 193.944 253.248C194.052 253.301 192.24 253.66 245.857 253.66C246.112 253.661 246.358 253.571 246.554 253.407C246.749 253.244 246.88 253.017 246.925 252.766C246.938 252.576 246.965 226.879 246.908 226.075C246.723 223.823 245.769 221.703 244.206 220.07C242.643 218.438 240.566 217.393 238.323 217.111C237.318 217 203.124 217.038 203.016 217.039ZM209.042 219.204C238.087 219.204 237.88 218.92 239.998 219.772C241.01 220.186 241.921 220.81 242.672 221.604C243.423 222.397 243.996 223.342 244.353 224.375C244.941 225.874 244.771 225.626 244.771 251.501C217.462 251.501 221.904 251.448 195.112 251.799L195.099 251.815V246.275C201.043 245.593 199.861 246.038 213.825 243.728C217.233 243.169 220.753 242.918 221.903 242.58C222.096 242.504 222.257 242.365 222.359 242.185C222.462 242.006 222.499 241.796 222.466 241.592C222.433 241.388 222.331 241.202 222.177 241.064C222.023 240.926 221.826 240.845 221.619 240.835C221.51 240.829 212.008 239.172 195.469 239.101C195.352 239.101 195.421 240.023 195.421 226.729C195.458 225.047 196.045 223.425 197.091 222.108C198.137 220.792 199.586 219.854 201.215 219.439C202.45 219.114 203.176 219.204 209.042 219.204ZM195.343 241.006L195.334 241.012L195.348 241L195.343 241.006Z" fill="#161720"/>
<path fill-rule="evenodd" clip-rule="evenodd" d="M102.172 57.0916C101.505 57.1197 100.846 57.2516 100.219 57.4825C99.8033 57.634 99.9614 57.5526 99.4862 57.9341L99.364 58.3639V58.3705L99.6263 58.7283C100.439 59.0199 99.9652 58.8382 101.039 59.0123C102.678 59.1156 104.273 59.5836 105.709 60.3822C106.588 60.8882 107.39 61.516 108.093 62.2471C109.234 63.3693 110.242 64.6189 111.097 65.9713L111.507 66.3196L111.986 66.3282H111.995L112.314 65.9656C112.381 65.5457 112.307 65.1152 112.104 64.7416C111.59 63.2382 110.747 61.8686 109.636 60.7324C108.792 59.8674 107.834 59.1204 106.79 58.5116C105.39 57.6667 103.804 57.1791 102.172 57.0916Z" fill="white"/>
<path fill-rule="evenodd" clip-rule="evenodd" d="M113.468 73.2332C113.535 73.1272 113.593 73.0164 113.643 72.9019C113.848 72.1431 113.951 71.3602 113.948 70.574C113.901 70.4592 113.84 70.3508 113.766 70.2512H113.761C113.694 70.1623 113.622 70.0781 113.543 69.9994C111.926 70.0884 112.313 69.9994 112.017 70.2947C111.982 70.3479 111.942 70.3985 111.9 70.4462C111.878 70.4831 111.862 70.5059 111.838 70.5409C111.783 71.158 111.686 71.7707 111.547 72.3746C111.528 73.073 111.725 73.7603 112.109 74.3436C113.032 73.7936 112.957 73.9091 113.468 73.2332Z" fill="white"/>
<path fill-rule="evenodd" clip-rule="evenodd" d="M110.321 147.396L109.963 147.74C109.963 147.751 109.98 148.232 109.981 148.242L110.347 148.626C111.602 149.235 113.606 150.28 114.676 150.859C118.129 152.809 118.661 152.766 123.601 155.83C127.731 158.386 128.974 159.662 132.783 161.863L133.294 161.977C133.308 161.97 133.707 161.771 133.72 161.763L133.838 161.307L133.62 160.834C133.62 160.724 131.522 158.758 131.092 158.384C126.302 154.704 121.104 151.589 115.6 149.101C111.34 147.374 110.853 147.478 110.853 147.37L110.321 147.396Z" fill="white"/>
<defs>
<linearGradient id="paint0_linear" x1="162.734" y1="68.4301" x2="-11.701" y2="275.212" gradientUnits="userSpaceOnUse">
<stop stop-color="#3131F1"/>
<stop offset="1" stop-color="#3131F1" stop-opacity="0"/>
</linearGradient>
</defs>
</svg>
