<svg width="360" height="360" viewBox="0 0 360 360" fill="none" xmlns="http://www.w3.org/2000/svg">
<path fill-rule="evenodd" clip-rule="evenodd" d="M304.79 277.331C306.821 278.167 308.557 279.588 309.778 281.413C310.999 283.238 311.651 285.384 311.65 287.58V319.99H344.389V287.362C344.389 284.43 343.224 281.619 341.151 279.546C339.078 277.474 336.267 276.309 333.336 276.308H304.79V277.331Z" fill="#161720"/>
<path fill-rule="evenodd" clip-rule="evenodd" d="M309.107 282.254C310.994 285.854 310.469 286.462 310.307 297.442C310.291 299.326 310.195 319.838 310.346 320.419C310.426 320.661 310.572 320.876 310.766 321.041C311.429 321.512 308.546 321.361 344.384 321.361C344.71 321.359 345.025 321.241 345.272 321.03C345.52 320.818 345.685 320.526 345.738 320.204C345.762 319.906 345.779 287.243 345.722 286.408C345.535 284.116 344.714 281.922 343.35 280.071C341.986 278.22 340.135 276.785 338.002 275.927C334.873 274.727 334.381 275.041 318.481 275.222C303.547 275.436 304.698 275.372 304.344 275.544C304.211 275.621 304.101 275.733 304.026 275.868C303.951 276.002 303.914 276.154 303.918 276.308C303.931 277.468 303.925 277.268 303.941 277.474C303.965 277.616 304.025 277.75 304.115 277.863C304.205 277.976 304.321 278.064 304.454 278.12L304.465 278.107C306.41 278.967 308.035 280.418 309.107 282.254ZM319.165 277.182V277.396L333.336 277.56C335.575 277.587 337.737 278.381 339.461 279.808C341.186 281.235 342.37 283.21 342.816 285.404C343.063 286.724 343.015 283.978 343.015 318.613H313.015C313.015 286.822 313.031 285.466 311.789 282.923C310.702 280.473 308.834 278.452 306.478 277.176L319.165 277.182Z" fill="#161720"/>
<path fill-rule="evenodd" clip-rule="evenodd" d="M129.978 111.823L129.475 112.205C129.235 113.482 129.372 112.075 129.934 116.594C130.399 119.611 130.68 124.841 130.718 125.294C131.318 135.961 129.739 147.514 120.019 152.035C117.332 153.179 116.714 152.819 116.002 153.556C115.567 154.225 115.745 153.852 115.67 158.249C115.67 164.107 115.25 174.569 115.266 175.064C115.292 175.297 115.397 175.513 115.565 175.676C115.732 175.838 115.951 175.938 116.184 175.957C117.535 176.087 118.875 176.308 120.196 176.617L120.848 176.48L121.224 175.948V175.938L121.097 175.301L120.55 174.913C119.47 174.654 118.471 174.331 117.338 174.109C117.338 173.97 118.488 164.095 118.488 155.521C123.847 154.11 128.119 150.584 130.824 144.619C132.242 141.387 133.103 137.938 133.372 134.419C133.83 129.854 133.697 125.248 132.973 120.716C132.521 117.919 131.867 115.159 131.017 112.456L130.608 111.937L129.99 111.829L129.978 111.823Z" fill="#161720"/>
<path fill-rule="evenodd" clip-rule="evenodd" d="M85.5828 118.609C83.7802 119.127 82.1833 120.192 81.0138 121.658C79.8443 123.125 79.16 124.918 79.056 126.791C79.04 127.21 79.0529 127.631 79.0944 128.048C79.2349 129.381 79.6733 130.666 80.3772 131.807C82.9992 135.661 86.6928 136.957 91.2864 137.644C92.6742 142.542 94.4329 147.327 96.5471 151.958C96.4019 158.651 96.5111 163.175 96.0995 171.554C94.8839 171.7 93.7284 171.904 92.5404 172.138C91.0824 172.43 91.44 172.307 90.75 172.76L90.5952 173.395C90.6048 173.408 90.9552 173.934 90.9552 173.948C91.3855 174.128 91.8661 174.148 92.31 174.005C97.266 173.328 97.11 173.774 97.77 173.318C98.1732 172.936 98.1731 173.15 98.8307 165.377C99.3395 157.828 99.228 156.628 99.3288 152.237C99.4264 151.714 99.3277 151.173 99.0516 150.719C96.8819 146.028 95.1237 141.157 93.7968 136.162C93.4368 134.647 92.4768 135.127 89.8944 134.591C87.4947 134.183 85.274 133.06 83.5224 131.37C82.916 130.704 82.4576 129.917 82.1773 129.061C81.897 128.205 81.8012 127.3 81.8962 126.404C81.9912 125.509 82.2749 124.643 82.7285 123.865C83.1821 123.087 83.7954 122.414 84.528 121.89C85.6379 121.04 86.9304 120.461 88.3032 120.198C89.4346 119.953 90.5839 119.798 91.7399 119.736L92.3399 119.456L92.5799 118.877V118.867L92.3208 118.291L91.7208 118.025C89.6564 117.863 87.5796 118.061 85.5828 118.609ZM98.9412 150.588L98.9856 150.643L99.0012 150.658L98.9184 150.57L98.9412 150.588ZM98.8211 150.479C98.9591 150.599 98.8643 150.517 98.7275 150.408L98.8211 150.479Z" fill="#161720"/>
<path fill-rule="evenodd" clip-rule="evenodd" d="M121.871 117.526L121.434 117.907L121.279 118.573C121.279 123.168 122.522 123.744 122.252 132.462C118.422 132.43 119.243 132.258 118.172 132.619L117.847 133.152V133.16L118.034 133.76L118.621 134.131C120.171 134.563 121.745 134.902 123.335 135.144C123.697 135.201 124.068 135.115 124.368 134.904C124.552 134.761 124.7 134.577 124.799 134.366C125.323 132.767 125.159 124.715 124.12 120.926C124.12 120.828 123.534 119.39 123.534 119.381C123.485 119.282 122.982 118.229 122.921 118.128L122.441 117.637L121.877 117.535L121.871 117.526Z" fill="#161720"/>
<path fill-rule="evenodd" clip-rule="evenodd" d="M106.2 134.88C105.822 135.457 105.73 135.346 105.532 137.185C105.363 139.027 105.909 140.863 107.057 142.313C107.849 143.404 108.999 144.184 110.306 144.516C111.379 144.767 112.5 144.714 113.543 144.363C114.587 144.012 115.512 143.376 116.214 142.528C116.563 142.042 116.834 141.505 117.016 140.935C117.016 140.069 117.136 140.407 116.729 139.762C114.757 140.242 116.154 139.872 114.203 140.944C113.541 141.397 112.792 141.708 112.003 141.857C111.376 141.902 110.749 141.761 110.202 141.45C109.656 141.14 109.213 140.675 108.93 140.113C108.181 138.81 107.714 137.364 107.56 135.869C107.544 135.595 107.592 135.785 107.311 135.013L106.792 134.689L106.2 134.88Z" fill="#161720"/>
<path fill-rule="evenodd" clip-rule="evenodd" d="M106.85 110.948C106.163 111.421 105.556 112 105.05 112.663C104.717 113.019 104.504 113.471 104.443 113.956L104.658 114.514L104.67 114.52L105.233 114.691C105.637 114.606 106.017 114.43 106.344 114.178C107.058 113.775 107.805 113.433 108.577 113.156C109.173 112.854 109.823 112.674 110.489 112.627C111.155 112.58 111.824 112.666 112.457 112.882C112.628 112.95 112.794 113.03 112.954 113.122C113.083 113.197 113.207 113.281 113.324 113.374C113.324 113.374 114.127 113.792 114.325 113.909C115.062 114.286 114.194 114.072 115.966 114.449C116.206 113.315 116.372 113.297 115.817 112.204C115.51 111.566 115.005 111.046 114.377 110.72C114.096 110.554 113.802 110.41 113.498 110.29C112.412 109.894 111.25 109.748 110.099 109.862C108.949 109.976 107.838 110.347 106.85 110.948Z" fill="#161720"/>
<path d="M110.514 125.515C109.113 125.515 107.977 124.031 107.977 122.2C107.977 120.368 109.113 118.884 110.514 118.884C111.915 118.884 113.051 120.368 113.051 122.2C113.051 124.031 111.915 125.515 110.514 125.515Z" fill="#161720"/>
<path fill-rule="evenodd" clip-rule="evenodd" d="M86.3999 119.963C84.6203 109.865 83.4216 96.5087 93.9108 90.7247C98.0723 88.4267 102.748 87.8243 107.231 86.4455C110.384 79.9847 117.131 69.9083 124.06 68.0363C128.096 67.0225 132.348 67.286 136.228 68.7905C140.108 70.2951 143.426 72.9665 145.724 76.4363C151.681 85.2707 150.284 98.0087 139.9 102.668C131.824 106.29 120.156 105.128 111.409 103.409C108.718 102.88 106.176 105.07 103.556 105.869C102.18 112.518 98.1564 117.052 91.6068 118.693C89.7444 119.16 86.3999 119.963 86.3999 119.963Z" fill="#161720"/>
<path fill-rule="evenodd" clip-rule="evenodd" d="M123.794 66.6612C116.381 68.652 109.72 78.3912 106.247 85.2828C100.831 86.7804 95.9796 87.5316 91.7172 90.4428C82.4244 97.1112 83.4564 108.923 85.5492 120.113C85.686 120.089 87.396 119.789 85.5384 120.113C85.5671 120.277 85.6423 120.429 85.7551 120.552C85.8678 120.674 86.0133 120.762 86.1744 120.804C86.4924 120.86 86.0688 120.935 90.2256 119.98C92.6365 119.568 94.9536 118.725 97.0656 117.492C101.209 114.899 103.306 111.403 104.537 106.766C106.541 106.046 108.559 104.658 110.352 104.568C111.847 104.502 132.482 110.25 143.926 101.904C153.226 94.704 152.131 80.9988 145.092 73.3572C142.506 70.3846 139.147 68.1857 135.388 67.0039C131.629 65.8221 127.617 65.7035 123.794 66.6612ZM133.274 69.3012C145.883 72.5808 150.773 86.382 146.141 95.0436C142.012 103.757 128.833 104.321 119.226 103.324C111.767 102.499 111.737 101.851 109.592 102.173C107.262 102.586 105.623 103.878 103.32 104.724C101.934 105.154 102.84 105.902 101.082 109.84C100.519 111.072 99.788 112.22 98.91 113.251C95.6604 117.044 91.59 117.757 87.0996 118.885C87.0996 117.886 84.774 107.014 88.0284 99.2928C88.8924 97.1176 90.2754 95.1867 92.0568 93.6684C96.1584 90.1608 101.981 89.4504 107.206 87.9084C108.923 87.3888 107.79 87.6228 111.406 81.7884C114.3 77.2968 119.124 70.9752 124.246 69.4368C127.191 68.6063 130.303 68.5612 133.272 69.306L133.274 69.3012Z" fill="#161720"/>
<path fill-rule="evenodd" clip-rule="evenodd" d="M228.564 42.6948C220.316 46.0828 212.963 51.331 207.079 58.0298C201.194 64.7285 196.937 72.6966 194.64 81.312C192.117 89.6975 191.54 98.5482 192.954 107.19C194.369 115.832 197.736 124.038 202.8 131.182C208.019 138.564 214.924 144.594 222.941 148.772C226.899 150.867 231.087 152.495 235.421 153.624C243.289 155.69 251.5 156.098 259.534 154.822C267.567 153.547 275.248 150.615 282.089 146.213C324.91 117.488 313.753 55.7844 269.051 41.2368C255.82 36.8296 241.443 37.3473 228.564 42.6948ZM259.548 43.5012C268.4 45.0353 276.73 48.7498 283.787 54.3093C290.844 59.8688 296.405 67.0984 299.968 75.3452C303.532 83.592 304.985 92.5964 304.197 101.546C303.409 110.495 300.405 119.107 295.456 126.604C290.506 134.101 283.767 140.248 275.848 144.489C267.928 148.73 259.077 150.932 250.093 150.896C241.109 150.86 232.276 148.587 224.391 144.282C216.506 139.978 209.817 133.777 204.928 126.24C200.577 119.711 197.676 112.326 196.419 104.583C195.162 96.8385 195.578 88.9152 197.64 81.3456L197.663 81.3528C205.92 54.5172 233.16 38.4912 259.548 43.5012ZM194.647 81.3132C194.903 80.4852 194.88 80.55 194.647 81.3132V81.3132Z" fill="#161720"/>
<path fill-rule="evenodd" clip-rule="evenodd" d="M252.625 74.8368C252.242 77.8872 251.034 93.0228 250.99 93.6624C250.87 95.178 250.686 98.1816 250.685 98.1912C247.152 98.4564 238.27 97.9764 232.746 98.004C231.215 98.0148 231.593 97.9632 230.826 98.274L230.55 98.8596V98.868L230.79 99.468C231.742 99.924 230.657 99.6324 235.222 100.112C241.531 100.776 245.885 101.345 251.796 100.916C252.075 100.942 252.356 100.889 252.607 100.764C252.858 100.639 253.069 100.447 253.217 100.208C253.432 99.774 253.385 99.9108 253.514 97.6716C254.28 84.5028 255.49 79.5456 255.139 69.456C255.114 68.8332 255.181 69.1236 254.863 68.358L254.305 68.082H254.299C253.248 68.4912 253.543 67.866 252.625 74.8368Z" fill="#161720"/>
<path fill-rule="evenodd" clip-rule="evenodd" d="M291.013 96.7404C290.431 96.8165 289.854 96.9344 289.289 97.0932C288.943 97.1808 289.16 97.0932 288.349 97.4988L288.046 97.9848C288.366 98.6196 288.166 98.4084 288.946 98.8944C289.555 99.1288 290.182 99.315 290.82 99.4512C291.269 99.5262 291.724 99.5567 292.18 99.5424C295.788 99.696 295.207 99.9744 296.274 99.6036C296.814 99.426 296.455 99.618 297.684 98.8032C296.893 97.6224 297.119 97.8768 296.662 97.5216C296.367 97.2894 296.029 97.1195 295.667 97.0224C294.123 96.8281 292.569 96.7339 291.013 96.7404Z" fill="#161720"/>
<path fill-rule="evenodd" clip-rule="evenodd" d="M205.5 94.1172C205.086 94.0982 204.671 94.1469 204.272 94.2612C204.178 94.284 203.704 94.4268 203.648 94.4472C202.838 94.7352 203.245 94.4736 202.096 95.478C203.096 96.5364 202.795 96.3444 203.615 96.636C204.804 97.1088 206.232 96.78 208.334 96.8916C208.681 96.9269 209.028 96.8366 209.314 96.6372C209.767 96.42 209.413 96.6492 210.612 95.784C209.791 94.6344 209.975 94.8432 209.6 94.5576C209.299 94.2734 208.903 94.112 208.489 94.1052C207.413 94.0536 206.648 94.08 205.5 94.1172Z" fill="#161720"/>
<path fill-rule="evenodd" clip-rule="evenodd" d="M254.72 49.2396C254.475 49.6113 254.269 50.0074 254.106 50.4216C254.004 50.9918 253.932 51.567 253.891 52.1448C253.602 54.9324 253.189 56.3448 254.046 58.6332L254.504 58.9932H254.52L255.046 58.7532L255.493 58.0836C255.783 57.3967 256.03 56.6925 256.234 55.9752C256.354 55.434 256.786 51.498 256.786 51.36C256.873 50.9 256.827 50.4246 256.654 49.9896C256.268 49.1496 256.818 49.854 255.653 48.468L254.72 49.2396Z" fill="#161720"/>
<path fill-rule="evenodd" clip-rule="evenodd" d="M249.53 144.881C250.084 143.938 250.397 142.874 250.442 141.782C250.885 138.95 250.824 139.571 250.608 138.752C250.32 138.078 250.519 138.439 249.668 137.328C249.108 137.66 248.628 138.111 248.26 138.648C247.986 139.049 248.048 138.974 247.872 140.095C247.471 142.883 247.328 142.954 247.613 144.407C247.723 144.97 247.613 144.715 248.442 145.908C249.6 144.942 249.397 145.151 249.53 144.881Z" fill="#161720"/>
<path fill-rule="evenodd" clip-rule="evenodd" d="M112.79 242.934C112.79 242.934 112.934 253.506 113.2 258.317C101.428 260.412 89.8224 263.258 78.072 265.469C74.712 266.1 71.4012 267.828 68.0076 267.376C49.92 264.956 31.566 264.913 13.3392 264.078C12.6304 264.043 11.9372 263.857 11.3064 263.531C10.6755 263.206 10.1216 262.75 9.68179 262.193C9.24199 261.636 8.9265 260.991 8.75653 260.302C8.58656 259.613 8.5661 258.896 8.69644 258.198C11.1612 245.012 14.472 232.056 20.7948 220.046C33.1788 196.526 57.126 178.614 83.5716 174.316C83.949 174.256 84.3356 174.3 84.6898 174.443C85.0441 174.586 85.3528 174.823 85.5828 175.128C91.11 182.405 99.2892 189.648 108.402 191.294C113.802 192.268 122.821 191.467 125.347 185.566C126.261 183.115 126.424 180.448 125.816 177.905C125.75 177.555 125.774 177.193 125.886 176.855C125.997 176.517 126.193 176.212 126.454 175.969C126.715 175.727 127.033 175.555 127.379 175.469C127.725 175.382 128.087 175.385 128.431 175.477C143.311 179.522 157.351 185.52 169.908 194.756C174.373 198.042 179.326 201.644 182.929 205.9C181.408 207.162 180.232 208.791 179.515 210.633C178.797 212.476 178.561 214.471 178.828 216.43C176.33 219.078 175.075 222.57 176.513 226.076C170.831 235.386 182.513 243.257 189.539 247.271C183.515 258.922 169.195 280.582 168.964 281.167C168.896 281.338 167.066 318.918 167.006 318.967C166.994 318.978 166.979 318.987 166.963 318.992C166.947 318.997 166.93 318.998 166.913 318.996C156.091 317.9 145.16 319.229 134.29 319.01C118.583 318.694 102.34 318.06 86.6052 318.031C86.5734 318.035 86.5414 318.026 86.5163 318.006C86.4912 317.986 86.4751 317.957 86.4714 317.925C86.4678 317.893 86.4769 317.861 86.4968 317.836C86.5167 317.811 86.5458 317.795 86.5776 317.791C97.404 314.917 112.453 310.084 120.992 303.184C129.032 306.283 138.694 304.811 146.508 301.594C152.19 299.256 156.5 293.129 147.846 291.162C151.626 287.863 155.809 281.462 148.482 279.79C152.704 276.289 158.938 267.084 149.659 265.457C150.739 259.217 152.311 252.841 154.002 246.725C166.112 245.596 165.3 237.787 160.842 235.925C154.338 233.208 144.92 234.838 137.935 234.811C138.559 231.268 139.145 227.693 139.505 224.111C139.625 222.902 140.002 221.035 139.168 219.982C137.393 217.739 133.364 217.351 130.834 216.622C123.626 214.556 115.668 211.068 108.008 211.801C104.814 212.107 101.741 214.531 104.704 217.523C106.45 219.284 109.328 219.887 111.611 220.59C113.988 221.322 116.298 222.27 118.68 223.002C122.36 224.14 126.102 224.89 129.854 225.749C129.714 228.518 129.404 231.275 128.927 234.006C123.077 233.732 117.214 233.973 111.407 234.726C108.954 234.833 106.528 235.275 104.195 236.04C101.702 237.092 100.702 240.134 103.487 241.56C106.214 242.957 109.757 242.936 112.79 242.934Z" fill="#BCF0F5"/>
<path fill-rule="evenodd" clip-rule="evenodd" d="M112.79 242.934C112.79 242.934 112.934 253.506 113.2 258.317C101.428 260.412 89.8224 263.258 78.072 265.469C74.712 266.1 71.4012 267.828 68.0076 267.376C49.92 264.956 31.566 264.913 13.3392 264.078C12.6304 264.043 11.9372 263.857 11.3064 263.531C10.6755 263.206 10.1216 262.75 9.68179 262.193C9.24199 261.636 8.9265 260.991 8.75653 260.302C8.58656 259.613 8.5661 258.896 8.69644 258.198C11.1612 245.012 14.472 232.056 20.7948 220.046C33.1788 196.526 57.126 178.614 83.5716 174.316C83.949 174.256 84.3356 174.3 84.6898 174.443C85.0441 174.586 85.3528 174.823 85.5828 175.128C91.11 182.405 99.2892 189.648 108.402 191.294C113.802 192.268 122.821 191.467 125.347 185.566C126.261 183.115 126.424 180.448 125.816 177.905C125.75 177.555 125.774 177.193 125.886 176.855C125.997 176.517 126.193 176.212 126.454 175.969C126.715 175.727 127.033 175.555 127.379 175.469C127.725 175.382 128.087 175.385 128.431 175.477C143.311 179.522 157.351 185.52 169.908 194.756C174.373 198.042 179.326 201.644 182.929 205.9C181.408 207.162 180.232 208.791 179.515 210.633C178.797 212.476 178.561 214.471 178.828 216.43C176.33 219.078 175.075 222.57 176.513 226.076C170.831 235.386 182.513 243.257 189.539 247.271C183.515 258.922 169.195 280.582 168.964 281.167C168.896 281.338 167.066 318.918 167.006 318.967C166.994 318.978 166.979 318.987 166.963 318.992C166.947 318.997 166.93 318.998 166.913 318.996C156.091 317.9 145.16 319.229 134.29 319.01C118.583 318.694 102.34 318.06 86.6052 318.031C86.5734 318.035 86.5414 318.026 86.5163 318.006C86.4912 317.986 86.4751 317.957 86.4714 317.925C86.4678 317.893 86.4769 317.861 86.4968 317.836C86.5167 317.811 86.5458 317.795 86.5776 317.791C97.404 314.917 112.453 310.084 120.992 303.184C129.032 306.283 138.694 304.811 146.508 301.594C152.19 299.256 156.5 293.129 147.846 291.162C151.626 287.863 155.809 281.462 148.482 279.79C152.704 276.289 158.938 267.084 149.659 265.457C150.739 259.217 152.311 252.841 154.002 246.725C166.112 245.596 165.3 237.787 160.842 235.925C154.338 233.208 144.92 234.838 137.935 234.811C138.559 231.268 139.145 227.693 139.505 224.111C139.625 222.902 140.002 221.035 139.168 219.982C137.393 217.739 133.364 217.351 130.834 216.622C123.626 214.556 115.668 211.068 108.008 211.801C104.814 212.107 101.741 214.531 104.704 217.523C106.45 219.284 109.328 219.887 111.611 220.59C113.988 221.322 116.298 222.27 118.68 223.002C122.36 224.14 126.102 224.89 129.854 225.749C129.714 228.518 129.404 231.275 128.927 234.006C123.077 233.732 117.214 233.973 111.407 234.726C108.954 234.833 106.528 235.275 104.195 236.04C101.702 237.092 100.702 240.134 103.487 241.56C106.214 242.957 109.757 242.936 112.79 242.934Z" fill="url(#paint0_linear)" fill-opacity="0.5"/>
<path fill-rule="evenodd" clip-rule="evenodd" d="M113.16 260.142C109.788 260.104 106.419 260.374 103.096 260.95C90.4308 263.002 70.062 268.164 66.1668 269.002C66.1668 267.859 66.252 268.282 65.946 267.449L65.3712 267.152H65.3592L64.752 267.37C64.3248 268.19 64.4784 267.744 64.338 268.94C64.2444 270.125 64.08 270.74 64.896 271.12C65.2296 271.212 65.016 271.22 67.3488 270.906C81.2088 268.967 91.1664 265.472 105.842 263.354C107.363 263.135 111.596 262.321 114.469 261.887C114.73 261.848 114.581 261.905 115.248 261.534L115.459 260.95V260.94L115.171 260.389C114.397 260.088 114.84 260.137 113.16 260.142Z" fill="#161720"/>
<path fill-rule="evenodd" clip-rule="evenodd" d="M64.44 268.668C63.9468 268.696 60.5136 269.5 59.6976 269.701C58.7586 269.889 57.8532 270.218 57.012 270.676C56.4424 270.899 55.9263 271.24 55.4976 271.676L55.332 272.245V272.255L55.752 272.674L56.5308 272.837C59.6364 272.837 59.5908 272.49 64.0416 271.576C64.7933 271.499 65.5097 271.218 66.114 270.764C66.4968 270.524 66.2904 270.74 67.104 269.597C65.9652 268.79 66.2184 268.915 65.7768 268.822C65.3396 268.713 64.8903 268.662 64.44 268.668Z" fill="#161720"/>
<path fill-rule="evenodd" clip-rule="evenodd" d="M12.8472 267.138C12.4344 267.942 12.5568 267.301 12.36 270.498C12.2014 274.062 12.4166 277.633 13.002 281.153C14.4705 290.031 18.6682 298.231 25.0116 304.614C34.0008 313.94 46.8612 318.68 59.6916 319.307C73.0956 319.907 83.9784 316.333 96.2664 311.015C104.255 307.544 112.937 303.798 119.45 298.337C122.555 299.449 125.781 300.182 129.061 300.521C136.072 301.19 143.543 300.154 148.692 295.481H148.698L148.985 294.893L148.798 294.281C148.781 294.27 148.23 293.995 148.212 293.987C147.509 294.2 147.634 294.133 147.41 294.32C146.748 294.842 146.046 295.311 145.31 295.723C137.791 299.73 128.245 298.542 120.269 295.672C117.368 294.586 119.92 296.225 107.347 302.838C100.768 306.175 88.434 311.69 79.704 314.158C45.4956 323.532 16.6224 304.748 14.274 274.62C13.914 267.766 14.5752 268.74 14.058 267.235L13.4724 266.936L12.8472 267.138Z" fill="#161720"/>
<path fill-rule="evenodd" clip-rule="evenodd" d="M149.548 269.528C148.916 269.909 147.508 270.56 146.968 270.856C146.46 271.129 146.608 271.067 146.088 271.367C144.059 272.536 141.828 273.316 139.512 273.664C137.347 273.946 135.152 273.883 133.007 273.478C131.518 273.146 132.464 273.185 131.272 273.197L130.792 273.596L130.786 273.605V274.229C131.013 274.625 131.367 274.933 131.791 275.102C133.109 275.836 134.552 276.316 136.046 276.518C139.873 276.776 143.691 275.912 147.034 274.032C148.036 273.551 148.933 272.877 149.674 272.048C150.034 271.666 150.593 270.949 150.691 270.803L150.917 270.156L150.757 269.602V269.594L150.222 269.38L149.548 269.528Z" fill="#161720"/>
<path fill-rule="evenodd" clip-rule="evenodd" d="M147.918 283.256C142.786 284.071 142.138 285.176 135.466 284.456C134.053 284.325 132.65 284.105 131.266 283.798L130.568 283.856L130.127 284.282V284.291L130.166 284.909C130.639 285.421 130.435 285.364 131.951 286.09C133.506 286.843 135.19 287.294 136.914 287.419C138.774 287.577 140.646 287.512 142.49 287.226C144.742 287.08 146.892 286.237 148.642 284.813L149.051 284.254L149.068 283.685V283.676L148.626 283.316L147.94 283.254L147.918 283.256Z" fill="#161720"/>
<path fill-rule="evenodd" clip-rule="evenodd" d="M113.807 250.25H113.796L113.436 250.784C113.432 251.201 113.569 251.607 113.824 251.936C116.2 255.385 119.592 258.006 123.528 259.436C129.22 261.764 135.18 263.29 141.296 262.646C143.387 262.344 145.398 261.634 147.215 260.557C147.432 260.437 147.318 260.543 147.815 259.934V259.32L147.356 258.92C146.636 258.895 146.768 258.874 146.636 258.913C144.855 259.427 143.022 259.743 141.172 259.858C136.417 260.238 131.801 259.81 124.619 256.868C121.597 255.695 118.786 254.037 116.296 251.962C114.434 250.064 115.426 250.775 114.439 250.146L113.807 250.25Z" fill="#161720"/>
<path fill-rule="evenodd" clip-rule="evenodd" d="M235.238 229.05H235.228L234.802 229.53L234.812 230.185C239.077 241.538 240.598 253.739 239.252 265.792C238.741 270.121 237.607 274.354 235.886 278.359C232.013 287.213 225.054 292.364 215.394 293.699C202.746 295.445 185.429 289.739 174.866 279.966C173.617 278.808 174.146 279.134 173.281 278.773L172.667 279.013L172.412 279.613L172.652 280.237C185.754 293.97 210.509 302.069 226.724 292.89C245.796 282.03 245.924 248.25 236.369 229.456C236.36 229.45 235.879 229.026 235.872 229.019L235.238 229.05Z" fill="#161720"/>
<path fill-rule="evenodd" clip-rule="evenodd" d="M183.492 235.538V235.546L183.282 236.114L183.497 236.748C184.552 238.117 185.74 239.378 187.045 240.512C188.395 241.578 189.846 242.507 191.378 243.287C191.803 243.502 191.443 243.332 192.373 243.779C195.682 245.276 195.383 244.782 195.336 245.208C194.242 252.636 193.89 251.869 192.556 260.172C192.047 263.728 192.076 263.074 192.274 263.945L192.799 264.314H192.81L193.434 264.17L193.826 263.611C194.897 259.478 197.356 252.773 198.266 244.146C198.299 242.774 197.332 242.698 196.172 242.314C194.964 241.902 193.789 241.4 192.656 240.811C189.967 239.259 187.374 237.546 184.892 235.68C184.642 235.486 184.814 235.57 184.063 235.32L183.492 235.538Z" fill="#161720"/>
<path fill-rule="evenodd" clip-rule="evenodd" d="M189.102 214.819H189.091L188.831 215.382L189.002 216.052C190.188 217.977 191.715 219.67 193.507 221.048C195.656 222.698 197.982 224.101 200.443 225.233C201.67 225.881 203.019 226.265 204.403 226.362C204.877 226.468 205.371 226.437 205.829 226.274L206.216 225.851C206.216 225.838 206.125 225.293 206.123 225.28L205.643 224.786C205.612 224.774 203.742 223.686 203.664 223.645C201.427 222.686 199.269 221.552 197.209 220.256C195.712 219.276 191.929 216.343 190.655 215.216C190.232 214.84 190.466 214.988 189.703 214.649L189.102 214.819Z" fill="#161720"/>
<path fill-rule="evenodd" clip-rule="evenodd" d="M186.223 224.212V224.219L185.958 224.778L186.119 225.451C187.252 227.369 188.682 229.094 190.357 230.562C192.383 232.326 194.664 233.775 197.122 234.86C198.395 235.499 199.804 235.818 201.228 235.79C201.724 235.853 202.227 235.769 202.676 235.55C202.686 235.537 203.01 235.093 203.018 235.079L202.859 234.532L202.328 234.092C201.848 233.906 200.245 233.096 199.874 232.946C197.627 232.163 195.516 231.033 193.618 229.597C192.751 228.946 188.645 225.462 187.466 224.346L186.832 224.054L186.223 224.212Z" fill="#161720"/>
<path fill-rule="evenodd" clip-rule="evenodd" d="M191.357 204.59V204.598L191.152 205.211L191.428 205.828C192.156 206.254 199.97 215.603 212.777 218.808C219.797 220.576 228.794 220.027 232.697 214.05C233.103 213.41 233.435 212.726 233.686 212.01C233.734 211.87 233.71 212.01 233.686 211.277L233.266 210.82H233.255H232.64C232.099 211.286 232.181 211.18 232.105 211.313C231.968 211.352 230.556 215.087 223.6 216.545C212.92 218.681 201.09 211.348 192.589 204.545L191.942 204.336L191.357 204.59Z" fill="#161720"/>
<path fill-rule="evenodd" clip-rule="evenodd" d="M221.09 218.189C228.214 205.009 229.85 199.229 232.072 195.4C230.258 193.24 228.43 191.124 226.462 189.103C218.327 190.176 210.142 190.997 202.013 192.172C200.908 197.999 197.923 203.196 196.373 208.867C200.126 212.707 205.171 214.793 210.212 216.301C213.616 217.507 217.201 218.12 220.812 218.114" fill="#161720"/>
<path fill-rule="evenodd" clip-rule="evenodd" d="M226.28 187.72C217.685 188.84 210.91 189.52 203.35 190.573C201.55 190.823 201.516 190.78 201.05 191.162C200.548 191.724 200.735 191.789 200.305 193.457C198.917 198.818 196.597 202.96 195.198 207.952C194.994 208.672 194.906 208.853 195.12 209.436C195.576 210.07 196.129 210.629 196.757 211.093C198.293 212.38 199.978 213.479 201.775 214.366C206.896 216.784 212.38 218.342 218.006 218.978C218.965 219.049 219.928 219.044 220.886 218.963C221.542 219.02 221.159 219.061 221.846 218.596C221.989 218.34 226.352 211.003 229.646 203.99C230.814 201.493 231.406 199.646 232.886 196.79C233.123 196.457 233.305 196.088 233.428 195.698C233.573 194.773 233.096 194.452 232.45 193.688C230.633 191.538 229.61 190.411 228.388 189.1C227.512 188.16 227.237 187.668 226.28 187.72ZM226.003 190.637C228.462 193.249 230.203 195.356 230.386 195.557C229.199 197.604 227.256 203.094 220.598 217.242C215.422 217.279 206.759 214.224 202.758 211.987C200.999 211.033 199.373 209.852 197.922 208.474C197.922 207.653 201.476 199.692 202.907 194.554V194.542C203.027 194.062 203.06 193.926 203.177 193.432C203.178 193.294 225.94 190.57 226.003 190.637Z" fill="#161720"/>
<path fill-rule="evenodd" clip-rule="evenodd" d="M202.598 209.99C203.263 209.438 202.993 209.88 204.947 206.804C205.031 206.651 205.526 205.859 205.825 205.244C206.228 204.404 207.348 202.004 207.694 201.14C208.866 198.434 208.855 198.75 207.6 196.91C207.167 196.256 206.784 195.734 206.726 195.632C206.089 194.891 205.382 194.212 204.616 193.606L203.975 193.324L203.422 193.421H203.411L203.156 193.921C203.254 194.786 203.107 194.381 204.03 196.474C204.505 197.323 205.029 198.143 205.6 198.93C203.833 203.309 203.534 202.758 201.608 208.753L201.592 209.501L201.96 210H201.971L202.598 209.99Z" fill="white"/>
<path fill-rule="evenodd" clip-rule="evenodd" d="M107.452 213.805L107.104 214.318C107.104 215.377 107.754 215.27 112.924 216.746C112.924 217.079 116.228 217.085 134.112 222.484C134.072 223.741 133.891 228.004 133.891 234.209C133.891 239.269 133.726 238.144 134.08 239.129L134.654 239.432L135.263 239.209L135.583 238.6C135.583 237.985 136.612 231.569 136.86 223.64C136.936 221.19 136.993 221.36 136.788 220.84C136.373 220.14 136.721 220.332 130.393 218.467C114.032 213.725 113.454 214.409 113.454 214.202C113.314 214.184 109.188 213.624 108.088 213.624L107.452 213.805Z" fill="#161720"/>
<path fill-rule="evenodd" clip-rule="evenodd" d="M121.622 238.247C114.118 238.351 115.462 238.421 107.723 238.421L107.082 238.661L106.789 239.237V239.246L107.015 239.854L107.623 240.162C107.623 240.299 115.303 240.882 121.992 241.034C145.567 241.142 146.592 242.458 154.672 241.674C156.306 241.516 158.062 241.194 158.203 241.176L158.778 240.841L158.976 240.253V240.24L158.672 239.698C158.272 239.472 157.806 239.391 157.352 239.468C151.583 239.43 135.906 238.04 121.622 238.247Z" fill="#161720"/>
<path fill-rule="evenodd" clip-rule="evenodd" d="M115.32 252.628C115.171 248.224 114.72 243.838 114.492 239.437C122.444 239.528 130.392 239.833 138.338 239.898C142.434 239.83 146.53 239.986 150.608 240.364C149.232 246.953 147.662 253.412 146.082 259.94C143.418 260.368 140.87 261.403 138.134 261.34C132.337 261.205 125.926 258.786 120.913 256.085C118.854 255.188 116.904 254.061 115.099 252.725" fill="#161720"/>
<path fill-rule="evenodd" clip-rule="evenodd" d="M113.293 238.873C113.126 239.314 113.13 239.296 113.304 241.166C114.445 253.342 114.61 251.617 114.239 252.774C114.533 253.403 114.457 253.336 114.774 253.602C116.254 254.744 117.856 255.719 119.55 256.511C121.698 257.753 123.922 258.86 126.209 259.824C128.369 260.727 130.6 261.449 132.88 261.984C136.589 263.009 140.516 262.931 144.181 261.758C146.743 261.158 146.557 261.398 147.116 260.876C147.391 260.509 147.21 261.431 149.492 251.711C149.903 249.995 150.823 246.031 151.582 242.503C151.999 240.553 152.194 240.282 151.742 239.544C151.256 238.972 150.942 238.99 150.19 238.908C147.78 238.66 145.783 238.585 143.35 238.54C112.2 238.056 113.936 237.72 113.293 238.873ZM148.92 241.595C148.118 245.525 145.906 254.752 144.935 258.732C140.915 259.51 140.176 260.348 135.551 259.812C128.381 258.947 122.238 255.551 118.717 253.912C117.828 253.508 116.977 253.026 116.174 252.472C116.174 247.192 115.957 244.292 115.86 240.823C120.768 241.012 145.369 241.279 148.92 241.595Z" fill="#161720"/>
<path fill-rule="evenodd" clip-rule="evenodd" d="M251.312 193.342C251.114 193.376 250.935 193.479 250.806 193.633C250.676 193.786 250.605 193.981 250.606 194.182C250.016 251.282 249.952 248.876 250.606 249.526C250.845 249.729 251.148 249.841 251.462 249.842C254.545 249.856 309.536 249.962 310.188 249.794C310.489 249.682 310.743 249.471 310.908 249.194C311.186 248.586 311.089 252.515 311.089 194.185C311.088 193.864 310.975 193.554 310.768 193.308C310.562 193.062 310.276 192.896 309.96 192.84C305.203 192.414 251.449 193.33 251.312 193.342ZM308.347 195.557V247.136C278.107 247.136 353.783 247.171 252.787 247.177C252.652 247.247 252.899 249.33 252.318 195.043C284.185 195.635 283.033 195.557 308.347 195.557Z" fill="#161720"/>
<path fill-rule="evenodd" clip-rule="evenodd" d="M233.968 284.261C232.742 284.678 233.573 284.23 232.42 284.892L232.154 285.407V285.415L232.447 285.913L233.122 286.254C236.502 286.93 233.722 286.666 239.576 286.822C240.247 286.939 240.937 286.864 241.566 286.603C242.353 286.243 241.955 286.549 243.042 285.505C242.008 284.425 242.369 284.722 241.616 284.347C241.003 284.058 240.321 283.949 239.648 284.032C235.247 283.92 235.71 283.879 233.968 284.261Z" fill="#161720"/>
<path fill-rule="evenodd" clip-rule="evenodd" d="M247.543 303.03C247.075 302.971 246.6 303.03 246.161 303.2C242.885 304.853 239.738 306.749 236.744 308.87C234.125 310.648 233.495 310.79 233.671 312.036C233.74 312.349 233.916 312.628 234.168 312.824C234.578 313.093 234.648 313.093 235.468 313.199C240.576 313.864 245.606 312.829 250.82 312.308C261.52 311.272 268.24 309.274 276.934 308.015C279.694 307.604 279.744 307.546 281.051 307.277L281.598 306.895L281.73 306.254C281.722 306.24 281.364 305.723 281.354 305.708L280.769 305.588L280.747 305.572C276.02 304.612 271.234 303.97 266.422 303.652C261.6 303.293 251.918 303.019 247.543 303.03ZM248.023 305.82C255.932 305.837 264.086 306.307 268.367 306.478C272.586 306.649 272.216 306.55 270.672 306.784C267.912 307.206 262.097 308.104 258.601 308.569C258.601 308.705 242.501 310.591 239.137 310.625C241.619 308.931 244.195 307.379 246.852 305.976C247.2 305.797 246.997 305.818 248.023 305.82ZM247.654 305.542L247.637 305.549L247.658 305.531L247.654 305.542Z" fill="#161720"/>
<path fill-rule="evenodd" clip-rule="evenodd" d="M257.312 287.64C254.334 287.605 251.357 287.765 248.4 288.12C246.764 288.281 247.229 288.173 246.427 288.54L246.161 289.116V289.124L246.427 289.7L247.068 289.988C247.644 289.988 249.708 290.323 254.214 290.435C256.915 290.506 255.836 290.243 265.715 290.608C268.251 290.864 270.814 290.623 273.258 289.897L273.817 289.517L274.004 288.953V288.943L273.69 288.44C271.837 287.742 259.184 287.633 257.312 287.64Z" fill="#161720"/>
<path fill-rule="evenodd" clip-rule="evenodd" d="M302.64 298.193C301.819 298.219 301.141 298.373 298.34 298.448C294.205 298.537 293.05 298.274 290.653 298.376C286.789 298.555 287.413 298.496 286.573 298.817L286.259 299.356V299.365L286.499 299.942L287.14 300.293C290.734 301.141 294.434 301.462 298.121 301.244C303.108 301.141 303.818 300.757 305.461 300.044C305.641 299.969 305.524 300.044 306.124 299.54L306.278 298.99C306.27 298.975 305.946 298.541 305.936 298.528L305.279 298.306C305.129 298.294 302.97 298.177 302.64 298.193Z" fill="#161720"/>
<path fill-rule="evenodd" clip-rule="evenodd" d="M6.33118 316.692L6 317.292V317.302L6.32037 317.911L7.09436 318.178L14.9916 318.755L49.4712 319.255L67.494 319.495L84.7872 319.702L106.739 319.907L132.625 320.147L190.478 320.689L246.96 321.22L271.128 321.446L290.688 321.63L299.612 321.679L309.274 321.708L328.688 321.72L352.596 321.685H353.138L353.738 321.434L354 320.84V320.831L353.752 320.231L353.152 319.969L352.604 319.957L328.703 319.468L309.293 319.108L299.633 318.955L290.701 318.835L271.148 318.652L246.98 318.425L190.504 317.896L132.646 317.353L106.764 317.113L84.8124 316.907L67.5144 316.787L49.4916 316.687L15.0108 316.541L7.11359 316.432L6.33118 316.692Z" fill="#161720"/>
<path fill-rule="evenodd" clip-rule="evenodd" d="M337.388 284.67C328.889 284.831 328.388 284.84 325.067 285.532C324.654 285.581 324.262 285.739 323.929 285.989L323.689 286.555V286.565L323.998 287.098C324.355 287.308 324.762 287.419 325.176 287.42C327.457 287.696 329.759 287.751 332.051 287.586C334.221 287.631 336.392 287.551 338.554 287.346C340.499 286.9 340.361 286.886 340.99 286.506L341.23 286.004V285.996L340.969 285.504L340.36 285.162C339.396 284.866 338.396 284.7 337.388 284.67Z" fill="white"/>
<path fill-rule="evenodd" clip-rule="evenodd" d="M315.881 299.232C313.121 299.436 313.841 299.264 312.881 299.653L312.577 300.212V300.222L312.838 300.803L313.489 301.122C320.26 302.062 318.733 301.784 331.338 302.153C333.331 302.297 335.333 302.184 337.297 301.817L337.912 301.522L338.184 301.001V300.991L337.955 300.45L337.364 300.108C336.884 300.035 336.832 299.952 335.137 299.656C333.91 299.437 332.664 299.339 331.417 299.364C318.736 299 320.261 299.024 315.881 299.232Z" fill="white"/>
<path fill-rule="evenodd" clip-rule="evenodd" d="M315.277 313.08C314.557 313.592 314.735 313.373 314.456 314.023C315.656 314.983 315.221 314.743 316.136 314.983C317.149 315.289 318.056 315.236 321.277 315.3C321.545 315.335 321.817 315.307 322.072 315.216C323.058 314.813 322.956 314.8 323.832 313.904C322.907 313.003 323.065 313.052 322.092 312.617C321.695 312.49 321.937 312.528 320.861 312.497C317.474 312.431 317.239 312.286 315.277 313.08Z" fill="white"/>
<path fill-rule="evenodd" clip-rule="evenodd" d="M77.8236 233.957C76.692 234.698 77.0076 234.354 76.116 238.991C74.6076 247.112 73.7304 250.69 73.0152 255.248C72.1308 260.916 72.072 260.335 72.9216 260.999H72.9324L73.5564 260.879L73.9824 260.33C73.9824 260.192 74.0052 260.377 75.0624 256.92C76.9272 250.477 76.674 250.579 79.0092 238.732C79.6092 235.466 79.2192 236.538 80.5008 235.202C80.7552 234.946 81.2796 234.426 81.402 234.307C81.8118 233.883 82.2743 233.512 82.7784 233.206L83.2151 232.694L83.2476 232.094V232.086L82.8108 231.67L82.1424 231.616C80.5825 232.15 79.1228 232.941 77.8236 233.957Z" fill="#161720"/>
<path fill-rule="evenodd" clip-rule="evenodd" d="M212.574 196.895C208.844 197.388 210.275 197.081 208.268 197.629C206.916 198.102 207.522 197.764 206.639 198.343L206.423 198.852V198.86L206.693 199.34L207.301 199.645C208.449 199.933 209.64 200.011 210.816 199.876C212.669 199.663 219.398 198.76 221.234 198.353C224.539 197.633 223.794 197.89 224.627 197.423L224.854 196.861V196.852L224.567 196.316C224.13 196.066 223.629 195.951 223.127 195.986C219.397 195.746 218.503 196.08 212.574 196.895Z" fill="white"/>
<path fill-rule="evenodd" clip-rule="evenodd" d="M167.62 246.726L167.089 246.979L166.792 247.572C166.165 252.455 166.337 248.614 166.232 264.623C166.198 268.046 166.355 271.469 166.703 274.876L166.985 275.528L167.554 275.802H167.56L168.128 275.53C168.43 274.834 168.419 275.309 168.703 271.463C168.97 267.724 169.03 268.132 169.03 253.543C169.035 251.534 168.848 249.529 168.472 247.555L168.162 246.968L167.626 246.728L167.62 246.726Z" fill="#161720"/>
<path d="M279.846 200.741C276.183 200.741 273.214 197.771 273.214 194.108C273.214 190.445 276.183 187.476 279.846 187.476C283.509 187.476 286.478 190.445 286.478 194.108C286.478 197.771 283.509 200.741 279.846 200.741Z" fill="#161720"/>
<path fill-rule="evenodd" clip-rule="evenodd" d="M279.073 186.59C277.741 186.631 276.443 187.024 275.311 187.729C274.18 188.434 273.255 189.426 272.632 190.604C272.008 191.783 271.707 193.105 271.76 194.437C271.813 195.769 272.218 197.063 272.933 198.188C273.626 199.363 274.607 200.341 275.782 201.031C276.958 201.722 278.291 202.101 279.654 202.134C281.017 202.167 282.366 201.852 283.574 201.219C284.781 200.586 285.808 199.656 286.556 198.516C287.249 197.472 287.676 196.274 287.799 195.026C287.923 193.779 287.739 192.521 287.264 191.361C286.789 190.201 286.038 189.175 285.075 188.372C284.113 187.57 282.968 187.015 281.742 186.756C280.861 186.601 279.966 186.546 279.073 186.59ZM279.841 188.346C281.203 188.429 282.488 189.005 283.457 189.965C284.426 190.925 285.013 192.205 285.108 193.566C285.108 199.798 278.035 201.252 275.268 196.657C275.103 196.361 274.968 196.049 274.865 195.726C274.642 194.91 274.598 194.056 274.735 193.222C274.872 192.387 275.188 191.592 275.66 190.891C276.132 190.189 276.749 189.598 277.47 189.156C278.192 188.715 278.999 188.434 279.839 188.333L279.841 188.346ZM279.775 186.614H279.748H279.775Z" fill="#161720"/>
<path fill-rule="evenodd" clip-rule="evenodd" d="M260.113 239.138C254.422 239.341 251.998 238.972 246.928 239.356C243.94 239.588 244.538 239.503 243.821 239.836L243.568 240.388V240.397L243.808 240.952C244.573 241.328 243.974 241.192 246.887 241.511C250.991 241.916 255.117 242.049 259.238 241.908C260.98 251.302 262.783 257.988 268.081 266.232C268.369 266.68 268.201 266.514 268.855 266.983L269.484 266.912L269.868 266.4C269.782 265.6 269.843 265.825 269.609 265.361C268.43 262.991 267.384 260.557 266.476 258.071C260.995 243.15 262.582 240.52 261.203 239.377C260.883 239.163 260.494 239.078 260.113 239.138Z" fill="#161720"/>
<path fill-rule="evenodd" clip-rule="evenodd" d="M257.345 275.12C254.885 275.138 252.486 275.881 250.447 277.256C248.739 278.401 247.347 279.957 246.397 281.78C244.572 285.487 244.966 286.65 244.966 298.127C244.99 305.472 244.926 304.812 245.159 305.327C245.309 305.596 245.548 305.806 245.835 305.92C246.121 306.035 246.438 306.047 246.733 305.956C247.268 305.737 247.028 305.77 247.364 305.765C252.385 305.722 262.312 305.947 271.885 306.612C266.149 307.663 262.108 308.42 257.323 309.155C246.643 310.756 245.59 310.05 245.479 311.425H245.496C245.376 321.101 245.345 320.144 245.43 320.498C245.502 320.715 245.649 320.9 245.844 321.019C245.981 321.086 243.684 321.541 311.65 321.541C311.973 321.542 312.285 321.428 312.533 321.221C312.781 321.013 312.947 320.725 313.003 320.407C313.02 320.167 313.054 287.593 312.982 286.574C312.748 283.719 311.538 281.031 309.557 278.962C307.575 276.893 304.942 275.569 302.1 275.212C300.826 275.07 257.482 275.119 257.345 275.12ZM264.983 277.865C301.8 277.865 301.538 277.505 304.223 278.585C305.505 279.109 306.661 279.9 307.613 280.906C308.565 281.912 309.291 283.11 309.743 284.419C310.488 286.319 310.273 286.004 310.273 318.804C275.656 318.804 281.287 318.737 247.325 319.182L247.308 319.202V312.18C254.843 311.315 253.345 311.879 271.045 308.951C275.365 308.243 279.828 307.925 281.286 307.495C281.53 307.4 281.734 307.223 281.864 306.996C281.993 306.768 282.041 306.503 281.999 306.244C281.957 305.985 281.828 305.749 281.632 305.574C281.437 305.399 281.188 305.297 280.926 305.284C280.787 305.276 268.742 303.176 247.777 303.086C247.63 303.086 247.717 304.255 247.717 287.402C247.764 285.271 248.507 283.214 249.833 281.546C251.16 279.877 252.996 278.689 255.061 278.162C256.627 277.75 257.548 277.865 264.983 277.865ZM247.618 305.501L247.607 305.508L247.624 305.492L247.618 305.501Z" fill="#161720"/>
<path fill-rule="evenodd" clip-rule="evenodd" d="M129.514 72.3696C128.668 72.4053 127.833 72.5725 127.038 72.8652C126.511 73.0572 126.712 72.954 126.109 73.4376L125.954 73.9824V73.9908L126.287 74.4444C127.318 74.814 126.716 74.5836 128.077 74.8044C130.155 74.9353 132.178 75.5286 133.997 76.5408C135.111 77.1822 136.129 77.9781 137.02 78.9048C138.465 80.3274 139.743 81.9114 140.827 83.6256L141.347 84.0672L141.954 84.078H141.966L142.369 83.6184C142.455 83.0861 142.362 82.5405 142.104 82.0668C141.452 80.1612 140.384 78.425 138.976 76.9848C137.905 75.8883 136.691 74.9414 135.367 74.1696C133.593 73.0987 131.583 72.4806 129.514 72.3696Z" fill="white"/>
<path fill-rule="evenodd" clip-rule="evenodd" d="M143.833 92.8308C143.917 92.6964 143.991 92.556 144.054 92.4108C144.315 91.4489 144.445 90.4565 144.442 89.46C144.382 89.3145 144.304 89.177 144.21 89.0508H144.204C144.12 88.938 144.027 88.8314 143.928 88.7316C141.878 88.8444 142.368 88.7316 141.994 89.106C141.949 89.1733 141.899 89.2375 141.845 89.298C141.817 89.3448 141.797 89.3736 141.767 89.418C141.697 90.2003 141.573 90.9769 141.397 91.7424C141.374 92.6277 141.623 93.4989 142.11 94.2383C143.28 93.5412 143.185 93.6876 143.833 92.8308Z" fill="white"/>
<path fill-rule="evenodd" clip-rule="evenodd" d="M139.843 186.84L139.39 187.276C139.39 187.29 139.411 187.9 139.412 187.913L139.877 188.399C141.467 189.172 144.007 190.495 145.364 191.23C149.741 193.702 150.415 193.648 156.677 197.531C161.912 200.771 163.488 202.388 168.317 205.178L168.964 205.322C168.982 205.314 169.488 205.062 169.505 205.051L169.654 204.474L169.378 203.874C169.378 203.735 166.718 201.242 166.172 200.768C160.101 196.104 153.512 192.156 146.536 189.001C141.136 186.812 140.518 186.944 140.518 186.808L139.843 186.84Z" fill="white"/>
<defs>
<linearGradient id="paint0_linear" x1="206.283" y1="86.7423" x2="-14.8324" y2="348.86" gradientUnits="userSpaceOnUse">
<stop stop-color="#3131F1"/>
<stop offset="1" stop-color="#3131F1" stop-opacity="0"/>
</linearGradient>
</defs>
</svg>
