<svg width="285" height="285" viewBox="0 0 285 285" fill="none" xmlns="http://www.w3.org/2000/svg">
<path fill-rule="evenodd" clip-rule="evenodd" d="M111.196 142.74C112.382 143.516 113.289 144.651 113.786 145.978C113.959 146.41 114.099 146.855 114.205 147.308C114.593 148.965 114.561 150.692 114.11 152.333C113.875 153.507 113.278 154.577 112.402 155.393C111.526 156.208 110.416 156.728 109.229 156.878C109.994 161.653 110.713 164.819 110.868 165.576C111.613 168.777 111.556 167.98 111.455 168.758L111.061 169.078L110.56 169.016L110.236 168.617C110.236 168.516 109.226 165.615 108.289 161.481C106.959 155.627 107.102 156.001 107.257 155.615C107.353 155.429 107.505 155.278 107.692 155.183C108.1 155.03 108.604 155.059 109.54 154.764C110.199 154.591 110.778 154.194 111.177 153.641C111.807 152.641 112.194 151.507 112.306 150.331C112.418 149.154 112.252 147.968 111.823 146.867C111.461 145.775 110.683 144.869 109.657 144.348C108.498 143.704 109.492 143.094 108.673 138.681C105.751 123.665 89.0785 123.256 82.3117 132.249L81.8794 132.515L81.4044 132.424H81.3959L81.1384 132.014C81.241 131.426 81.2068 131.539 81.2828 131.421V131.416C89.507 118.771 111.041 122.519 111.196 142.74Z" fill="#161720"/>
<path fill-rule="evenodd" clip-rule="evenodd" d="M89.6799 138.178C90.4855 138.158 91.2666 138.457 91.8536 139.009C92.1934 139.283 92.4378 139.658 92.5518 140.08C92.5518 140.087 92.4625 140.512 92.4625 140.518C91.0062 140.663 91.8431 140.62 91.0023 140.476C90.8543 140.446 90.7046 140.425 90.5539 140.414L90.5321 140.408C90.0242 140.296 89.4974 140.299 88.9912 140.419L88.9646 140.432C88.6725 140.534 88.4086 140.704 88.1941 140.928C88.0754 141.09 87.9614 141.118 87.4142 141.463C87.3116 141.544 87.4512 141.463 86.5164 141.87C86.1041 140.92 86.1516 141.049 86.1412 140.948C86.1047 140.507 86.2081 140.066 86.4366 139.687C86.9115 139.092 87.5477 138.645 88.2692 138.402C88.7238 138.249 89.2006 138.174 89.6799 138.178Z" fill="#161720"/>
<path d="M91.6543 146.245C91.7069 145.039 90.8865 144.024 89.8219 143.977C88.7573 143.931 87.8516 144.871 87.7991 146.077C87.7465 147.283 88.5669 148.299 89.6315 148.345C90.6961 148.391 91.6017 147.451 91.6543 146.245Z" fill="#161720"/>
<path fill-rule="evenodd" clip-rule="evenodd" d="M89.7419 162.876L89.2146 162.739C89.0902 162.657 88.6969 162.468 88.5591 162.404C88.4774 162.365 87.7041 161.999 87.6158 161.96C87.3883 161.854 87.1664 161.736 86.9508 161.607C86.5329 161.37 86.0816 161.197 85.6122 161.094C85.5043 161.076 85.3949 161.067 85.2854 161.067H85.2721H85.237H85.2237H85.2151H85.2018H85.1771H85.1676H85.1591H85.1505H85.142H85.1325H85.123H85.1144H85.1097H85.1049H85.1002H85.0954V161.072L85.0812 161.084L85.0764 161.092V161.101H85.0717C85.0594 161.122 85.0483 161.143 85.0384 161.166L85.0289 161.173L85.0099 161.199L85.0014 161.207L84.9919 161.225L84.9824 161.233L84.9548 161.259L84.9453 161.276L84.9035 161.326C84.8349 161.405 84.7742 161.49 84.7221 161.581C84.6322 161.709 84.5531 161.845 84.4855 161.986V161.999L83.8139 162.644C83.0919 161.892 83.1726 162.093 83.0035 161.353C82.9831 161.169 82.9752 160.984 82.9798 160.8C82.9925 160.606 83.0361 160.416 83.109 160.237C83.3084 159.806 83.6264 159.442 84.0257 159.187C84.5062 158.901 85.0647 158.773 85.6217 158.823C86.7888 158.964 87.8983 159.409 88.8394 160.114C89.3759 160.564 89.8452 161.089 90.233 161.672L90.3983 162.187L90.2615 162.619L89.7419 162.876Z" fill="#161720"/>
<path fill-rule="evenodd" clip-rule="evenodd" d="M81.9214 166.772C82.2064 167.015 82.975 167.551 83.0795 167.615C84.6031 168.788 86.4446 169.476 88.3643 169.587C89.3236 169.641 90.2856 169.554 91.22 169.331C91.9553 169.165 92.6897 168.751 93.2217 169.799C94.0547 171.672 94.7531 173.603 95.3117 175.575C95.6527 176.62 95.5967 176.232 95.5891 176.931L95.2718 177.298H95.2623L94.7768 177.303C94.3018 176.891 94.4852 177.227 93.4117 175.17C93.3613 175.086 92.1843 172.684 91.6266 171.437C90.8203 171.629 89.9957 171.732 89.1671 171.746C86.8081 171.793 84.49 171.125 82.517 169.831C81.6875 169.298 80.9811 168.595 80.4451 167.767V167.759C80.1777 167.354 79.9387 166.931 79.7297 166.493L79.6689 165.974L79.9045 165.586H79.914L80.3634 165.514C81.1709 165.954 80.3491 165.434 81.9214 166.772Z" fill="#161720"/>
<path fill-rule="evenodd" clip-rule="evenodd" d="M84.8454 169.88C83.1601 169.273 80.9257 168.619 80.4583 166.897C80.1062 165.657 79.8176 164.399 79.5938 163.129C79.3242 161.472 79.2667 159.787 79.4228 158.115C79.4484 157.932 79.3725 157.465 79.5302 157.568C81.168 158.67 80.2797 161.44 84.6279 169.739" fill="#161720"/>
<path fill-rule="evenodd" clip-rule="evenodd" d="M83.2856 167.808C84.2233 168.247 85.2547 168.448 86.2885 168.393C85.7413 167.057 84.2194 163.292 85.6482 163.503C86.1052 163.576 86.4481 164.045 86.6866 164.397C87.3117 165.322 87.5416 166.715 88.4222 167.454C89.2069 168.119 91.2086 167.199 91.9923 166.884C92.5091 166.675 93.7973 166.409 93.9759 165.749C94.1659 165.026 93.5503 164.075 93.2843 163.443C92.7058 162.069 92.0921 160.688 91.4413 159.34C91.121 158.498 90.6366 157.729 90.0163 157.077C88.6531 155.867 87.6879 156.584 86.7977 155.991C86.241 155.611 85.976 154.961 86.7692 154.641C87.4852 154.442 88.2431 154.451 88.9542 154.667C89.6576 154.775 90.3364 155.006 90.9597 155.35C92.7894 156.473 93.7147 158.675 95.4855 161.464C96.8069 163.595 96.7594 165.394 99.9229 161.894C104.555 156.807 102.753 154.762 104.22 149.768C104.315 149.458 104.541 148.522 105.03 148.635C105.797 148.825 106.028 149.97 106.108 150.613C106.421 152.687 106.381 154.798 105.99 156.858C105.635 158.749 104.864 160.537 103.731 162.091C102.401 163.749 99.1411 167.064 95.6375 168.513C94.867 168.83 92.1662 170.039 91.5335 170.199C86.6885 171.446 82.5949 169.467 81.9546 168.04C81.8349 167.755 81.9613 167.479 82.2976 167.498C82.6543 167.553 83.0009 167.661 83.3255 167.819" fill="#161720"/>
<path fill-rule="evenodd" clip-rule="evenodd" d="M55.4079 137.701C55.8221 138.147 55.6929 137.783 56.4301 140.047C62.3144 159.976 52.3888 174.162 54.2546 203.935C54.9481 213.11 56.6077 220.888 61.3938 228.635C65.0657 234.354 70.1565 239.024 76.1701 242.19C76.6689 242.212 89.9613 251.205 109.787 244.47L110.298 244.497L110.645 244.866C110.645 244.88 110.619 245.364 110.618 245.377L110.249 245.729C106.308 247.209 102.186 248.15 97.9935 248.526C89.717 249.283 81.4052 247.517 74.1516 243.46C66.898 239.403 61.0424 233.245 57.3554 225.797C50.8156 212.629 51.1528 193.479 53.1003 178.918C54.3021 168.665 57.9577 153.879 55.6492 142.928C55.364 141.434 54.9852 139.958 54.5149 138.511L54.5548 138.009L54.9234 137.675L55.4079 137.701Z" fill="#161720"/>
<path fill-rule="evenodd" clip-rule="evenodd" d="M62.0417 136.221L62.4474 136.563C63.6624 138.221 63.8505 139.484 64.3854 142.101C64.7087 143.76 64.8801 145.446 64.8974 147.136C64.8582 148.151 64.7423 149.161 64.5507 150.159L64.2989 150.624L63.8572 150.807L63.4335 150.587L63.2188 150.1H63.214C63.1599 149.419 62.8397 147.155 62.702 145.583C62.3438 141.491 61.5619 139.96 61.3444 138.166C61.3396 138.128 61.2266 137.062 61.219 137.026C61.219 137.019 61.3064 136.506 61.3073 136.5L61.6056 136.184H61.6151L62.0417 136.221Z" fill="#161720"/>
<path fill-rule="evenodd" clip-rule="evenodd" d="M69.708 135.47C70.0317 135.695 70.2889 136.002 70.4528 136.36C70.7415 136.816 70.9771 137.304 71.1549 137.814C71.6003 139.527 71.8818 141.279 71.9956 143.046C72.1632 144.664 72.0578 146.299 71.684 147.882C71.6004 148.333 71.3287 149.108 71.324 149.212L71.0162 149.645L70.5592 149.778L70.1631 149.511L70.0063 149.001C70.0063 147.82 69.8923 143.9 69.8695 143.388C69.7634 141.657 69.4972 139.94 69.0744 138.258C69.0012 137.836 68.873 136.329 68.8768 136.258L68.9718 135.732L69.2701 135.422H69.2786L69.708 135.47Z" fill="#161720"/>
<path fill-rule="evenodd" clip-rule="evenodd" d="M77.3423 138.258C77.6834 138.749 77.6872 138.483 78.1869 141.678C78.6204 145.744 78.7056 149.839 78.4415 153.919C78.2578 157.207 78.3923 160.505 78.8433 163.767C81.1157 176.877 90.6927 191.241 96.1333 206.553C96.2986 206.863 96.3513 207.221 96.2825 207.566L95.9167 207.913L95.4151 207.888C94.9458 207.4 95.209 207.851 94.3977 205.917C88.6673 193.103 79.5216 177.875 76.9747 165.415C75.1963 156.278 77.234 148.861 76.4731 139.955C76.3192 138.693 76.3116 139.041 76.4617 138.418L76.8721 138.143L77.3423 138.258Z" fill="#161720"/>
<path fill-rule="evenodd" clip-rule="evenodd" d="M102.065 197.58L102.438 197.858C102.438 197.865 102.427 198.319 102.426 198.327C101.172 199.942 98.5966 200.731 95.7134 202.412C95.1708 202.752 94.5637 202.976 93.9303 203.069C93.7289 203.124 93.9227 203.14 92.8682 202.922C93.0857 201.865 93.024 202.054 93.1532 201.884C93.5303 201.319 94.0448 200.858 94.6485 200.545C94.6532 200.435 98.3421 198.627 98.9016 198.36C99.4657 198.143 100.041 197.954 100.624 197.796C101.078 197.603 101.574 197.529 102.065 197.58Z" fill="#161720"/>
<path fill-rule="evenodd" clip-rule="evenodd" d="M15.3501 156.784H15.3587L15.6836 157.153C15.6551 157.987 15.7871 157.238 14.8713 159.516C11.324 168.081 9.22831 178.421 8.03796 187.765C7.36631 193.705 7.04521 198.909 6.93501 202.691C6.68228 207.217 7.12116 211.756 8.23651 216.15C8.7014 217.849 9.2599 219.522 9.90945 221.16C12.7238 227.827 17.8283 233.268 24.302 236.502C28.335 238.428 32.7529 239.412 37.222 239.381C42.2897 239.304 47.2964 238.263 51.9745 236.312C52.8656 235.955 55.5968 234.719 55.708 234.615L56.2172 234.576C56.2248 234.582 56.6038 234.897 56.6096 234.904L56.6494 235.409C56.2086 235.943 56.6646 235.672 53.4973 237.232C50.1186 238.825 46.5514 239.983 42.8811 240.679C40.4512 241.116 37.9842 241.313 35.5157 241.268C34.9353 241.268 34.3615 241.213 33.9825 241.196C32.2334 241.069 30.4987 240.791 28.7974 240.366C27.0881 239.933 25.4201 239.351 23.8127 238.626C20.1917 236.94 16.933 234.567 14.2177 231.638C11.806 229.142 9.83871 226.253 8.40086 223.094C4.10401 213.482 4.46501 205.271 5.21171 194.777C6.38496 181.081 8.19091 169.475 14.478 157.097L14.858 156.767L15.3501 156.784Z" fill="#161720"/>
<path fill-rule="evenodd" clip-rule="evenodd" d="M36.0782 161.631L36.4971 161.86L36.6729 162.335C36.6729 162.478 36.6491 164.116 36.7175 165.335C36.7175 166.009 36.8125 167.497 36.8287 167.799C36.9595 171.488 37.3346 175.165 37.9516 178.804C38.9966 185.764 42.3026 195.344 44.9369 201.808C47.3034 207.616 46.9937 206.308 47.0383 207.213C47.0317 207.221 46.722 207.593 46.7153 207.602C46.7087 207.61 46.2166 207.627 46.2109 207.627C45.6884 207.184 45.9259 207.494 45.1326 206.04C44.5807 204.979 42.9695 201.982 41.6594 198.877C38.6872 191.866 36.6124 184.507 35.4844 176.976C34.0936 167.74 35.3229 163.106 35.3609 162.23L35.6117 161.785L36.0649 161.63L36.0782 161.631Z" fill="#161720"/>
<path fill-rule="evenodd" clip-rule="evenodd" d="M50.7301 196.874L51.0854 197.153C51.0854 197.159 51.0531 197.595 51.0531 197.602L50.6959 198.059C50.0319 198.612 49.2971 199.075 48.5109 199.434C48.4017 199.43 47.7205 199.808 45.4709 200.632C45.2595 200.735 45.0313 200.797 44.7974 200.818C44.7024 200.828 44.3756 200.835 44.3062 200.832C43.6802 200.793 43.9775 200.88 42.9639 200.405C43.4389 199.386 43.2603 199.665 43.7239 199.222C44.0033 198.946 44.3437 198.74 44.7176 198.621C44.9133 198.63 48.2706 197.069 49.4676 196.95C49.878 196.834 50.3087 196.808 50.7301 196.874Z" fill="#161720"/>
<path d="M210.536 138.712C211.861 138.619 212.853 137.371 212.752 135.926C212.65 134.48 211.493 133.384 210.168 133.477C208.843 133.571 207.851 134.818 207.953 136.264C208.054 137.709 209.211 138.805 210.536 138.712Z" fill="#161720"/>
<path fill-rule="evenodd" clip-rule="evenodd" d="M211.229 126.341C211.496 126.447 211.756 126.574 212.004 126.721C212.105 126.787 212.014 126.704 212.436 127.164L212.486 127.617L212.162 127.927L211.62 128.013C211.421 127.99 211.221 127.983 211.021 127.991C210.56 128.008 210.102 128.068 209.653 128.167H209.647C209.166 128.224 208.697 128.354 208.256 128.554C207.662 128.824 207.122 129.197 206.659 129.657C206.504 129.839 206.325 129.999 206.126 130.132C205.662 130.546 205.079 130.805 204.461 130.874L204.229 129.971C204.296 129.598 204.408 129.234 204.564 128.887C204.707 128.593 204.909 128.332 205.158 128.121C205.765 127.523 206.467 127.03 207.236 126.662C207.924 126.339 208.658 126.124 209.412 126.026C210.033 126.006 210.651 126.113 211.229 126.341Z" fill="#161720"/>
<path fill-rule="evenodd" clip-rule="evenodd" d="M209.818 151.757L210.164 152.069L210.259 152.599C210.161 153.352 209.954 154.086 209.643 154.778C209.588 154.88 209.777 154.511 209.385 155.292C208.384 156.842 207.01 158.116 205.389 158.997C204.85 159.315 204.271 159.56 203.668 159.726C203.177 159.812 202.676 159.823 202.182 159.759C201.824 159.708 202.05 159.83 201.185 159.141C202.016 158.089 201.396 158.68 203.01 157.737C203.883 157.414 204.704 156.966 205.449 156.407C206.285 155.753 207.028 154.989 207.658 154.135C207.798 153.971 208.228 153.433 208.479 153.051C208.665 152.787 208.832 152.51 208.979 152.223L209.351 151.838L209.809 151.765L209.818 151.757Z" fill="#161720"/>
<path fill-rule="evenodd" clip-rule="evenodd" d="M145.131 174.74C141.31 171.732 136.307 170.044 131.641 168.983C125.73 167.635 113.844 168.593 113.735 168.698C109.156 173.024 104.945 177.642 99.4582 180.927C97.2647 182.24 92.3531 183.051 93.5482 178.932C91.5923 179.698 89.8336 180.894 88.4021 182.431C90.7771 187.691 92.8063 191.938 95.2003 197.172C97.6864 196.16 99.3803 195.836 101.867 194.836C109.394 199.905 114.482 209.283 117.238 217.754C118.311 215.941 119.399 214.084 120.612 212.36C119.209 208.4 117.467 200.449 123.899 200.105C123.566 195.176 125.101 189.618 131.094 190.281C130.876 187.76 130.881 184.911 132.329 182.707C134.158 179.923 138.053 181.227 139.866 183.206C141.412 180.452 145.131 174.74 145.131 174.74Z" fill="#161720"/>
<path fill-rule="evenodd" clip-rule="evenodd" d="M142.186 180.761C140.336 183.81 140.511 184.006 139.762 183.973C139.362 183.878 139.337 183.743 139.145 183.574C138.443 182.907 137.595 182.413 136.669 182.131C136.03 181.924 135.35 181.881 134.691 182.006L134.669 182.013H134.642C134.264 182.101 133.912 182.276 133.614 182.524L133.599 182.541C132.524 183.798 131.931 185.396 131.927 187.05C131.799 190.001 132.229 190.084 131.884 190.77C131.784 190.925 131.641 191.048 131.472 191.123C131.303 191.198 131.116 191.222 130.934 191.191C129.86 191.054 128.77 191.235 127.799 191.712C127.193 192.081 126.666 192.566 126.249 193.14C125.831 193.714 125.532 194.365 125.368 195.055C125.211 195.58 125.095 196.116 125.022 196.66C124.591 200.041 125.37 200.306 124.426 200.989C123.489 201.421 119.527 200.626 120.525 207.673C120.764 209.144 121.134 210.592 121.631 211.997C121.871 212.953 121.476 212.623 118.572 217.615C118.155 218.319 118.036 218.724 117.303 218.82C117.068 218.833 116.835 218.767 116.64 218.634C116.446 218.5 116.301 218.306 116.228 218.082C114.839 213.766 112.935 209.632 110.557 205.772C108.287 201.977 105.288 198.668 101.734 196.038C100.917 196.295 102.712 195.761 98.4722 197.143C96.6672 197.713 95.7457 198.12 95.4322 198.215C95.1938 198.267 94.9448 198.236 94.7265 198.127C94.5082 198.018 94.3338 197.837 94.2323 197.615C89.5707 187.381 87.3429 183.075 87.3391 182.328C87.3595 182.081 87.4677 181.85 87.6441 181.676C88.7556 180.467 90.0719 179.463 91.5324 178.711C92.146 178.375 92.7867 178.092 93.4476 177.863C93.6806 177.839 93.9148 177.893 94.1149 178.014C94.3149 178.136 94.4699 178.32 94.5563 178.537C94.7045 179.042 94.5981 179.068 94.485 179.658C94.4378 179.847 94.4265 180.042 94.4518 180.235V180.253V180.27C94.4551 180.291 94.4599 180.312 94.466 180.332V180.35C94.4767 180.389 94.4894 180.427 94.504 180.465V180.473L94.5126 180.483L94.5202 180.501V180.51C94.5291 180.521 94.5374 180.533 94.5449 180.546V180.554V180.564V180.573L94.5705 180.601H94.5791V180.609H94.5876V180.618L94.5962 180.623H94.6047L94.6171 180.636H94.6256L94.6342 180.645L94.6598 180.66L94.6684 180.668C94.6883 180.68 94.6779 180.668 94.6978 180.683L94.7064 180.692L94.7539 180.712L94.7662 180.721L94.8175 180.74L94.8308 180.75C94.8707 180.766 94.9838 180.799 95.0208 180.812H95.0427C95.0826 180.823 95.0588 180.812 95.0987 180.827H95.1206L95.1595 180.837H95.1814L95.2032 180.843C97.7454 180.953 99.2179 179.831 101.283 178.381C106.876 174.258 112.168 168.406 113.172 167.711C114.141 167.292 125.552 166.717 131.209 167.915C136.009 168.977 141.722 171.035 145.498 174.18L145.508 174.171C146.184 174.8 145.841 174.742 142.186 180.761ZM139.696 181.979C140.076 181.274 144.049 175.098 144.228 174.894C140.755 172.352 135.655 170.731 131.438 169.868C128.459 169.134 121.931 169.281 118.871 169.398C118.01 169.445 115.078 169.6 114.227 169.704C107.989 175.712 106.465 177.391 101.821 180.687C100.406 181.8 98.7529 182.571 96.9911 182.942C95.7419 183.163 94.1117 183.121 93.1911 182.242C92.7457 181.84 92.4485 181.3 92.3475 180.708C91.373 181.23 90.4774 181.888 89.6875 182.662C91.1467 185.928 95.1728 194.499 95.7542 195.8C96.7137 195.42 99.8744 194.47 100.81 194.09C102.11 193.615 101.901 193.505 103.554 194.713C106.905 197.3 109.767 200.466 112.005 204.06C114.229 207.574 116.071 211.316 117.502 215.221C117.565 215.118 118.778 213.115 119.423 212.197C118.312 208.734 117.296 203.83 119.636 200.987C120.457 200.025 121.595 199.389 122.844 199.196C122.673 196.516 123.409 193.856 124.934 191.645C125.331 191.151 125.802 190.719 126.329 190.367C127.452 189.636 128.77 189.265 130.109 189.302C129.963 186.327 130.538 182.285 133.104 180.835C134.639 179.96 137.169 180.004 139.696 181.979Z" fill="#161720"/>
<path fill-rule="evenodd" clip-rule="evenodd" d="M124.595 268.488C120.891 265.954 117.962 262.443 116.134 258.344C114.306 254.246 113.65 249.721 114.239 245.272C106.17 249.84 97.6905 252.189 88.4802 250.014C89.9052 256.331 91.3616 262.649 92.7486 268.969C96.3405 268.842 114.049 268.632 124.915 268.69" fill="#161720"/>
<path fill-rule="evenodd" clip-rule="evenodd" d="M114.422 244.212C114.665 244.255 114.886 244.38 115.049 244.566C115.211 244.753 115.305 244.989 115.314 245.236C115.3 245.436 115.228 246.013 115.219 246.116C114.933 248.811 115.136 251.536 115.817 254.16C116.619 257.493 118.111 260.621 120.197 263.341H120.206C121.62 265.112 123.247 266.702 125.051 268.074L125.403 268.22C126.039 269.722 126.098 269.304 112.366 269.578C98.156 269.992 107.978 269.613 92.7904 270.034C92.5399 270.043 92.294 269.964 92.0958 269.811C91.8976 269.657 91.7598 269.439 91.7065 269.194C87.174 248.813 87.3431 250.3 87.4562 249.707C87.5262 249.474 87.6726 249.272 87.8717 249.133C88.0708 248.994 88.311 248.926 88.5534 248.94C91.9854 249.755 95.5347 249.956 99.0367 249.533C102.903 249.02 106.66 247.886 110.165 246.174C113.856 244.445 113.603 244.157 114.422 244.212ZM91.887 251.699C91.7834 251.686 89.9974 251.459 89.892 251.402C90.6273 254.632 92.8987 264.64 93.6036 267.869C94.4282 267.63 118.155 267.898 122.649 267.97C122.537 267.908 121.705 267.246 121.198 266.809C120.359 266.078 119.575 265.287 118.851 264.443C114.725 259.669 112.618 253.477 112.976 247.178C106.388 250.6 99.2865 252.617 91.887 251.699Z" fill="#161720"/>
<path fill-rule="evenodd" clip-rule="evenodd" d="M193.661 168.167C194.136 168.513 194.643 168.81 195.176 169.055L195.776 169.362C196.773 169.95 197.867 170.356 199.006 170.558C200.092 170.76 201.201 170.817 202.302 170.728C203.605 170.622 204.895 170.39 206.154 170.038C206.603 169.906 207.038 169.729 207.451 169.508L207.967 169.413L208.385 169.645H208.39L208.485 170.12L208.237 170.583C207.805 170.961 207.337 171.297 206.841 171.585C205.618 172.269 204.267 172.691 202.873 172.826C200.865 173.042 198.833 172.836 196.908 172.221C196.127 171.961 195.377 171.616 194.672 171.191L194.328 170.944C193.683 170.406 193.133 169.764 192.7 169.044L192.573 168.536L192.74 168.119L193.165 167.993L193.661 168.167Z" fill="#161720"/>
<path fill-rule="evenodd" clip-rule="evenodd" d="M196.27 170.019C196.592 170.632 196.467 170.163 196.727 171.785C196.984 173.606 197.043 175.451 196.903 177.285C196.925 177.541 196.871 177.797 196.748 178.022C196.273 178.704 195.842 178.526 194.658 178.579C191.249 178.756 187.854 179.141 184.493 179.734C182.885 180.026 183.543 180.034 182.716 179.924L182.386 179.568C182.386 179.555 182.436 179.093 182.438 179.076L182.818 178.721C185.557 177.505 188.493 176.793 191.485 176.62C195.049 176.335 194.763 176.511 194.769 176.369C194.769 176.179 194.781 175.369 194.783 174.849C194.754 173.826 194.822 172.801 194.987 171.79C194.993 171.744 195.186 170.525 195.188 170.486L195.427 170.023L195.839 169.828L196.27 170.019Z" fill="#161720"/>
<path fill-rule="evenodd" clip-rule="evenodd" d="M228.427 131.418C228.831 131.631 229.223 131.865 229.601 132.121C234.428 135.648 234.125 141.533 229.253 144.931C227.817 145.93 226.206 146.65 224.503 147.052C224.543 150.906 223.954 154.741 222.76 158.405C221.818 161.366 220.364 164.138 218.464 166.596C218.473 166.716 218.535 171.625 218.811 175.912C222.349 176.898 225.82 178.113 229.201 179.55C230.311 180.073 230.029 179.882 230.474 180.372L230.46 180.874L230.087 181.217C229.984 181.217 229.469 181.208 229.571 181.208C225.795 179.771 221.922 178.602 217.981 177.709C217.792 177.702 217.608 177.654 217.44 177.567C216.923 177.236 216.928 176.881 216.87 176.255C216.647 174.17 216.425 171.207 216.33 167.163C216.346 165.486 216.32 165.946 217.164 164.788L217.523 164.287C218.45 162.943 219.238 161.508 219.876 160.005C221.693 155.639 222.536 150.93 222.346 146.206C222.338 145.971 222.408 145.739 222.544 145.547C222.681 145.356 222.877 145.214 223.102 145.145C223.883 145.028 224.651 144.834 225.394 144.566C228.475 143.294 231.079 141.255 230.904 137.939C230.904 137.909 230.891 137.792 230.889 137.785C230.789 136.825 230.448 135.905 229.898 135.112C229.297 134.228 228.509 133.486 227.589 132.94C226.423 132.207 225.079 131.804 223.701 131.774L223.233 131.584L223.025 131.142L223.202 130.686C223.732 130.429 223.582 130.459 224.031 130.446C225.554 130.407 227.063 130.74 228.427 131.418Z" fill="#161720"/>
<path fill-rule="evenodd" clip-rule="evenodd" d="M185.535 114.546C188.295 115.992 190.941 117.638 194.013 118.368C200.862 119.993 208.811 117.261 213.926 112.592C214.671 120.222 216.186 128.828 224.429 130.899C224.973 126.16 224.409 120.525 222.3 116.184C219.889 111.236 214.674 107.582 209.374 106.358C204.855 105.278 200.121 105.508 195.728 107.023C193.923 107.706 192.324 108.916 190.449 109.434C189.67 109.65 188.556 109.294 188.679 108.289C188.836 107.185 189.392 106.176 190.242 105.455C192.885 103.476 195.936 102.113 199.172 101.465C203.937 100.584 211.403 101.536 215.697 103.935C220.002 106.567 223.477 110.361 225.72 114.882C227.686 114.977 228.848 115.314 230.51 113.936C232.499 112.286 231.488 108.806 224.494 107.951C225.803 107.548 227.051 106.97 228.206 106.234C229.414 105.634 230.429 104.708 231.137 103.56C232.389 101.051 230.634 98.6337 227.976 98.3506C225.183 98.0533 222.091 100.125 220.204 102.03C221.581 99.8735 223.321 97.9013 224.095 95.4151C225.09 92.2307 223.719 90.0781 220.551 91.6741C218.027 92.9442 216.415 95.7885 214.885 98.0457C215.82 96.377 216.529 94.5916 216.994 92.7361C217.578 89.8919 217.07 83.9715 212.581 85.3442C208.776 86.5089 206.682 90.8837 205.469 94.6542C205.781 91.7824 206.971 84.9699 205.61 82.175C205.439 81.7664 205.171 81.4054 204.83 81.1231C204.489 80.8409 204.084 80.6458 203.65 80.5547C203.217 80.4636 202.767 80.4791 202.341 80.6C201.915 80.7209 201.524 80.9436 201.203 81.2488C200.737 81.6643 200.33 82.1407 199.991 82.6652C197.663 86.1802 197.641 90.5968 197.331 94.6494C196.666 91.7994 195.78 88.5695 193.568 86.4795C190.184 83.2894 187.372 87.6584 187.152 90.9036C186.938 94.0947 188.174 96.9788 189.183 99.9238C187.365 97.2638 186.038 93.3356 183.24 91.4803C180.309 89.5366 177.972 92.4436 177.996 95.4104C178.024 98.8731 180.634 102.364 182.507 105.166C180.287 103.095 177.416 100.168 174.098 100.28C171.793 100.358 169.382 105.41 173.875 110.31C176.955 113.676 181.14 113.73 185.292 114.1" fill="#161720"/>
<path fill-rule="evenodd" clip-rule="evenodd" d="M224.835 91.2275C226.148 93.194 225.272 95.9129 224.151 97.9877C224.18 97.9763 224.28 97.9336 224.315 97.9184C231.779 95.0047 235.357 102.64 230.156 106.23C229.707 106.57 228.504 107.327 228.003 107.611C228.645 107.821 229.267 108.091 229.858 108.418C232.708 109.974 233.676 113.18 230.569 115.227C229.065 116.193 227.925 116.099 226.185 115.987C225.52 115.945 225.52 115.971 225.194 115.819C224.535 115.384 225.067 115.497 223.276 112.734C221.394 109.906 218.997 107.456 216.211 105.514C211.131 102.233 202.574 101.537 198.036 102.83C195.747 103.456 193.575 104.451 191.606 105.775C191.066 106.094 190.605 106.53 190.255 107.05C189.996 107.454 189.823 107.906 189.746 108.38C189.847 108.416 189.956 108.428 190.064 108.415C191.374 107.969 192.637 107.393 193.832 106.696C202.605 102.305 217.353 104.499 223.135 115.463C224.123 117.454 224.813 119.579 225.184 121.77C225.697 124.628 225.813 127.544 225.529 130.434C225.452 131.077 225.485 131.15 225.276 131.508C225.142 131.693 224.952 131.83 224.734 131.899C224.516 131.967 224.281 131.964 224.065 131.888C223.303 131.691 222.561 131.426 221.846 131.096C216.308 128.429 214.553 123.164 213.528 117.086C213.443 116.516 213.237 115.075 213.18 114.396C208.955 117.656 203.801 119.485 198.466 119.616C191.8 119.658 187.939 116.371 185.22 115.126C184.683 114.47 185.486 114.91 181.625 114.461C177.335 113.974 174.252 112.649 171.924 108.967C171.635 108.494 171.384 108 171.174 107.488C170.74 106.449 170.538 105.329 170.582 104.205C170.677 102.042 171.921 99.5495 174.153 99.4935C175.825 99.5159 177.451 100.043 178.819 101.005C177.641 98.7582 176.722 96.4145 177.259 93.9189C178.04 91.0385 179.755 89.9393 181.393 89.945C183.406 89.9659 184.979 91.5847 186.225 93.1617C186.18 93.0059 186.138 91.9942 186.13 91.8916C186.062 86.4547 190.114 82.2785 193.939 85.4525C195.123 86.5141 196.069 87.8148 196.714 89.2686C196.952 86.5448 197.873 83.9251 199.392 81.6515C200.69 79.8066 202.649 78.8699 204.69 79.7914C207.597 81.2639 207.38 85.0487 207.238 88.3063C207.532 87.8766 207.851 87.4642 208.194 87.0713C211.647 83.3454 216.229 82.7763 217.722 87.1796C218.213 88.7387 218.371 90.3835 218.186 92.0075C219.006 91.2583 219.971 90.6848 221.021 90.3222C222.909 89.7341 224.187 90.2671 224.835 91.2275ZM203.44 100.075C207.655 100.139 212.814 101.046 216.412 103.115C219.516 105.044 222.214 107.561 224.353 110.525C225.129 111.575 225.818 112.687 226.414 113.85C227.074 113.928 227.741 113.928 228.401 113.85C229.098 113.683 229.721 113.289 230.17 112.73L230.184 112.714L230.202 112.681L230.208 112.665L230.235 112.618L230.241 112.603L230.251 112.587V112.572L230.26 112.556C230.28 112.493 230.292 112.461 230.306 112.419V112.404L230.316 112.375V112.358L230.321 112.344V112.313L230.327 112.298L230.333 112.141V112.125V112.091V112.075V112.059V112.042V112.025C230.322 111.967 230.314 111.93 230.301 111.868L230.293 111.85V111.832V111.814L230.286 111.795V111.777L230.254 111.702C230.229 111.561 229.899 110.724 228.125 109.943C226.98 109.484 225.779 109.18 224.554 109.039C224.341 109.041 224.131 108.982 223.951 108.869C223.771 108.756 223.626 108.593 223.535 108.401C223.432 108.178 223.409 107.927 223.47 107.689C223.53 107.451 223.671 107.242 223.868 107.095C224.201 106.885 224.688 106.81 225.756 106.343C226.843 105.868 229.392 104.427 229.998 103.414C230.243 103.091 230.404 102.711 230.464 102.309C230.525 101.908 230.485 101.498 230.347 101.116C230.208 100.734 229.977 100.393 229.673 100.124C229.369 99.8547 229.003 99.6657 228.607 99.5742C227.12 99.2397 225.561 99.5056 224.269 100.314C223.056 100.973 221.947 101.807 220.978 102.789C220.803 102.965 220.572 103.075 220.325 103.1C220.077 103.123 219.828 103.061 219.62 102.923C219.413 102.784 219.261 102.578 219.19 102.34C219.119 102.101 219.133 101.845 219.231 101.616C220.051 100.05 223.981 95.7077 223.275 92.8758L223.25 92.8558C223.247 92.8389 223.243 92.8221 223.239 92.8055L223.231 92.7893V92.7732L223.223 92.757V92.7409L223.214 92.7247V92.7095C223.079 92.4483 223.061 92.4245 223.056 92.4169L223.048 92.4084V92.3998L223.039 92.3932V92.3856L223.031 92.3789V92.3723L223.022 92.3656L223.017 92.3599L223.009 92.3542V92.3485L223 92.3438V92.3381H222.992H222.983V92.3333H222.975V92.3286L222.958 92.32L222.923 92.3048C222.796 92.2571 222.66 92.2357 222.523 92.2421C221.39 92.4054 220.342 92.9356 219.538 93.7517C215.981 97.3066 216.233 99.5552 214.553 99.0774C214.327 98.9922 214.136 98.8333 214.012 98.6264C213.888 98.4196 213.836 98.1769 213.867 97.9374C214.023 97.2306 215.828 94.4452 216.102 91.8498C216.271 90.2348 216.144 87.6014 214.88 86.564C213.835 85.7375 211.956 86.6865 210.939 87.4959C209.025 88.9076 207.662 91.8023 206.867 94.0509C206.455 95.1995 206.516 95.3686 205.93 95.6802C205.698 95.775 205.441 95.787 205.202 95.7144C203.535 95.0389 205.247 93.233 205.215 85.5589C205.21 84.2403 204.989 82.3118 203.79 81.7446C203.513 81.6163 203.203 81.5752 202.902 81.6268C202.159 81.8412 201.527 82.3322 201.135 82.9986C198.885 86.3293 198.76 89.8871 198.464 94.1868C198.418 94.8717 198.438 95.1254 198.021 95.5111C197.835 95.6556 197.606 95.7335 197.37 95.7323C197.134 95.7311 196.906 95.6508 196.721 95.5044C196.056 94.8708 196.466 94.2856 195.106 90.705C195.05 90.5844 194.865 90.1008 194.696 89.7892C194.096 88.5143 192.664 86.4528 191.245 86.4205C190.86 86.4679 190.491 86.6042 190.168 86.8185C189.845 87.0328 189.576 87.3194 189.383 87.6555C186.908 91.2798 188.708 95.3505 190.084 99.5058C190.181 99.6996 190.211 99.9202 190.169 100.133C190.127 100.345 190.016 100.538 189.853 100.681C189.688 100.825 189.479 100.908 189.261 100.917C189.042 100.926 188.827 100.86 188.651 100.73C187.396 99.6284 185.081 92.8606 182.024 91.902C181.744 91.7994 181.442 91.7691 181.147 91.8139C180.852 91.8587 180.574 91.9773 180.337 92.1585C175.872 96.2141 183.212 103.939 183.382 105.135C183.394 105.279 183.368 105.424 183.307 105.556C183.246 105.687 183.152 105.8 183.034 105.885C182.916 105.969 182.779 106.021 182.634 106.036C182.49 106.051 182.345 106.028 182.212 105.97C181.34 105.503 177.962 101.125 174.297 101.102C174.035 101.083 173.773 101.149 173.553 101.292C171.146 103.136 171.974 107.909 175.137 110.527C177.721 112.922 181.574 113.125 184.999 113.427C185.491 113.472 185.302 113.417 185.845 113.702L185.949 114.023C189.536 115.94 192.532 117.642 196.175 117.994C199.873 118.307 203.589 117.656 206.96 116.104C209.299 115.069 211.456 113.663 213.347 111.94C213.502 111.799 213.701 111.716 213.91 111.703C214.119 111.691 214.326 111.751 214.497 111.873C215.162 112.434 214.655 112.528 215.529 117.341C215.892 119.549 216.538 121.701 217.45 123.744C218.917 126.611 220.464 128.369 223.536 129.547C223.766 126.172 223.407 122.782 222.476 119.53C222.004 117.89 221.286 116.332 220.344 114.909C216.648 109.616 210.075 106.255 201.738 106.863C195.96 107.305 194.435 109.151 191.551 110.241C191.14 110.446 190.691 110.562 190.233 110.582C189.775 110.602 189.317 110.525 188.891 110.357C188.615 110.233 188.367 110.056 188.16 109.836C187.863 109.508 187.682 109.093 187.643 108.652C187.642 107.812 187.864 106.986 188.285 106.259C188.94 105.119 189.913 104.195 191.085 103.599C192.945 102.445 194.951 101.543 197.049 100.917C199.122 100.303 201.279 100.019 203.44 100.075Z" fill="#161720"/>
<path fill-rule="evenodd" clip-rule="evenodd" d="M175.54 177.509C175.835 178.123 175.73 177.71 175.871 179.078C176.181 182.012 176.324 184.962 176.299 187.913C176.53 199.476 176.62 198.584 176.705 206.738C176.61 214.571 176.705 213.744 175.945 214.128H175.94L175.48 213.929C175.2 213.295 175.277 213.655 175.165 212.314C174.474 204.027 174.553 202.909 174.391 197.932C174.054 183.683 174.035 183.948 174.193 181.296C174.271 179.976 174.438 178.074 174.451 177.971L174.669 177.508L175.102 177.312H175.111L175.54 177.509Z" fill="#161720"/>
<path fill-rule="evenodd" clip-rule="evenodd" d="M237.076 174.8L237.505 175.011L237.707 175.475C238.165 179.953 238.004 198.073 237.975 199.066C237.948 203.471 237.594 207.868 236.916 212.221C236.666 213.943 236.708 213.646 236.411 214.155L235.936 214.3H235.928C235.064 213.784 235.426 214.526 235.636 207.337C236.206 186.722 235.438 184.76 236.292 176.329C236.422 175.231 236.33 175.569 236.626 174.981L237.067 174.799L237.076 174.8Z" fill="#161720"/>
<path fill-rule="evenodd" clip-rule="evenodd" d="M206.473 207.129C207.07 208.269 206.823 207.573 207.067 210.476C207.209 211.388 207.133 212.321 206.843 213.198L206.579 213.725L206.215 213.954H206.206C205.721 213.706 205.883 213.859 205.51 213.263C205.223 212.617 205.043 211.929 204.977 211.226C204.965 211.101 204.737 208.403 204.792 208.049C204.839 207.837 204.912 207.631 205.01 207.437C205.2 207.041 205.022 207.278 205.8 206.474C205.811 206.483 206.461 207.114 206.473 207.129Z" fill="#161720"/>
<path fill-rule="evenodd" clip-rule="evenodd" d="M123.651 202.932C125.974 205.467 123.972 203.242 127.574 207.927C133.122 214.325 132.823 213.647 132.559 214.552L132.118 214.742L131.595 214.588C132.01 214.588 129.22 213.828 124.724 207.754C124.086 206.954 123.529 206.093 123.063 205.182C122.838 204.66 122.653 204.122 122.507 203.573C122.537 202.9 122.412 203.193 122.761 202.678H122.77L123.204 202.658L123.651 202.932Z" fill="#161720"/>
<path fill-rule="evenodd" clip-rule="evenodd" d="M128.369 195.01C128.92 195.634 129.428 196.295 129.889 196.989C132.673 202.002 133.206 202.518 134.293 204.311C136.23 207.8 135.898 206.978 136.059 207.772L135.84 208.195L135.371 208.29L134.891 208.042C134.476 207.614 133.453 206.572 132.882 205.833C131.076 203.321 129.44 200.69 127.986 197.959C127.664 197.2 127.406 196.416 127.213 195.614C127.241 194.96 127.144 195.192 127.492 194.729L127.93 194.721L128.369 195.01Z" fill="#161720"/>
<path fill-rule="evenodd" clip-rule="evenodd" d="M140.702 198.463L140.208 198.239C139.4 197.532 138.646 196.764 137.952 195.944C136.605 194.15 135.475 192.202 134.586 190.142C134.04 189.084 133.778 187.903 133.826 186.713C133.826 186.438 133.793 186.603 133.983 185.993L134.32 185.719H134.328L134.748 185.821C135.165 186.275 135.098 186.183 135.2 186.391C135.267 186.518 136.024 187.884 136.092 188.119C137.575 192.05 138.532 192.782 140.711 196.532C141.349 197.599 141.186 197.184 141.365 197.904L141.166 198.337V198.342L140.702 198.463Z" fill="#161720"/>
<path fill-rule="evenodd" clip-rule="evenodd" d="M149.788 186.01H149.797L150.123 186.365C150.142 188.679 143.71 200.75 144.467 219.498C144.528 222.386 144.916 226.601 145.05 228.246C146.247 239.723 146.687 238.993 146.435 240.155C146.426 240.155 146.026 240.44 146.02 240.44C146.013 240.44 145.536 240.338 145.529 240.336L145.232 239.912C144.015 234.89 143.138 229.793 142.606 224.653C142.122 218.74 142.207 212.794 142.859 206.898C143.135 204.266 143.904 200.513 143.921 200.409C144.734 196.224 146.082 192.161 147.932 188.319C149.017 186.051 148.875 186.375 149.307 185.999L149.788 186.01Z" fill="#161720"/>
<path fill-rule="evenodd" clip-rule="evenodd" d="M121.626 217.376L121.965 217.728C121.992 219.369 121.68 217.241 120.182 225.484C118.891 232.522 115.432 242.797 117.908 253.35C118.609 256.48 119.987 259.419 121.945 261.961C123.967 264.508 126.636 266.465 129.673 267.628C132.336 268.656 135.197 269.066 138.042 268.829C140.273 268.571 142.456 267.995 144.524 267.119C150.586 264.658 154.374 259.176 157.512 253.534C160.742 247.607 159.827 248.657 160.585 247.986L161.088 248.004L161.431 248.384C161.401 249.049 161.476 248.731 161.069 249.654C159.015 254.241 156.081 260.276 152.502 263.918C150.282 266.297 147.57 268.164 144.554 269.387C141.538 270.611 138.291 271.161 135.041 271.001C130.941 270.726 127.016 269.242 123.76 266.737C120.503 264.233 118.063 260.819 116.745 256.927C115.131 252.124 114.548 247.033 115.035 241.989C115.914 233.016 116.978 231.203 118.022 226.782C118.28 225.798 119.39 220.446 120.759 217.723L121.125 217.375H121.615L121.626 217.376Z" fill="#161720"/>
<path fill-rule="evenodd" clip-rule="evenodd" d="M170.365 181.871L170.6 182.311L170.44 182.786C169.938 183.06 170.05 183.027 169.754 183.071C165.696 183.649 161.237 186.606 157.988 189.115C152.383 193.433 148.977 198.235 144.878 203.844C144.87 203.851 144.461 204.136 144.453 204.142L143.978 204.099L143.97 204.094L143.685 203.714C143.726 203.1 143.701 203.239 143.793 203.032C145.284 199.622 147.356 196.497 149.916 193.796C152.51 190.848 155.441 188.214 158.649 185.948C160.466 184.627 162.455 183.559 164.56 182.774C164.661 182.74 166.246 182.198 166.397 182.198C167.535 181.911 168.7 181.746 169.872 181.706L170.365 181.871Z" fill="#161720"/>
<path fill-rule="evenodd" clip-rule="evenodd" d="M240.825 183.415C247.156 185.136 253.946 187.839 259.072 192.08C263.352 195.532 266.32 199.165 269.372 206.006C275.399 218.846 277.599 231.954 278.642 246.096C278.817 249.184 279.45 252.556 279.988 257.184C280.254 259.379 280.316 261.594 280.172 263.801L279.942 264.26L279.467 264.432H279.458L279.008 264.206L278.833 263.731C279.028 259.227 277.779 253.994 277.227 250.359C276.239 244.35 276.148 236.748 273.712 225.787C272.617 220.505 271.027 215.337 268.962 210.353C267.186 206.214 264.727 200.819 261.667 197.477C260.801 196.512 259.877 195.601 258.901 194.748C254.08 190.409 246.957 186.95 240.432 184.678L240.052 184.347C240.052 184.332 240.002 183.863 240.003 183.85L240.321 183.478L240.825 183.415Z" fill="#161720"/>
<path fill-rule="evenodd" clip-rule="evenodd" d="M251.057 268.984C250.636 268.498 250.747 268.753 249.999 267.051C249.524 265.954 249.674 266.397 248.052 260.812C247.801 260.064 247.723 259.269 247.821 258.487L248.276 257.675L249.088 258.13C249.405 258.593 249.684 259.081 249.921 259.589C249.977 259.737 251.498 264.893 251.643 265.569C251.719 265.902 251.876 267.043 251.888 267.207C251.994 268.442 252.014 268.042 251.867 268.769L251.521 269.083C251.508 269.082 251.07 268.987 251.057 268.984Z" fill="#161720"/>
<path fill-rule="evenodd" clip-rule="evenodd" d="M165.821 268.171C163.772 250.786 160.136 232.705 168.516 216.382C176.955 214.434 228.088 214.216 244.706 215.622C250.536 233.401 246.573 251.502 243.132 269.315" fill="#161720"/>
<path fill-rule="evenodd" clip-rule="evenodd" d="M243.77 214.475C244.984 214.553 244.989 214.559 245.296 214.729C245.74 215.073 245.723 215.305 245.996 216.138C251.322 233.568 247.556 250.718 243.958 268.609C243.751 269.615 243.863 269.335 243.5 269.875L243.005 269.981H242.997L242.576 269.696C242.428 268.985 242.409 269.524 242.78 267.515C245.87 250.544 245.382 251.588 245.484 251.588C247.228 238.832 247.462 228.62 243.904 216.634C243.892 216.634 243.371 216.592 239.905 216.381C224.405 215.705 208.767 215.679 194.075 215.946C190.841 216.006 172.32 216.439 169.242 217.328C166.834 222.266 165.309 227.587 164.736 233.051C163.068 248.242 166.943 266.54 166.335 268.581L165.903 268.829H165.898L165.423 268.69L165.171 268.254C162.71 250.579 159.011 232.333 167.365 216.289C167.876 215.244 167.921 215.352 170.443 214.975C185.78 213.228 230.518 213.354 243.77 214.475Z" fill="#161720"/>
<path fill-rule="evenodd" clip-rule="evenodd" d="M158.711 170.459C156.942 169.866 155.356 168.825 154.107 167.438C151.008 172.29 148.08 176.287 144.264 181.646C143.409 182.847 141.53 185.773 142.488 187.327C144.081 189.922 147.087 185.928 148.172 184.43C152.332 178.666 154.197 176.178 158.729 170.391" fill="#161720"/>
<path fill-rule="evenodd" clip-rule="evenodd" d="M154.28 166.488C154.713 166.615 154.745 166.707 155.035 167.048C156.035 168.196 157.275 169.109 158.668 169.721L159.155 169.845L159.394 170.288C159.304 170.61 159.318 170.521 159.329 170.674L159.272 170.731L159.254 170.798C149.405 184.383 148.974 185.428 147.234 187.278C146.414 188.307 145.252 189.006 143.959 189.249C143.507 189.27 143.057 189.17 142.656 188.959C142.255 188.748 141.918 188.434 141.679 188.049C141.377 187.557 141.196 187.001 141.149 186.426C141.103 185.851 141.193 185.274 141.411 184.74C142.127 182.409 143.951 180.264 147.976 174.586C153.738 166.296 153.369 166.407 154.28 166.488ZM143.534 185.17C143.353 185.607 143.281 186.082 143.326 186.552V186.57C143.338 186.608 143.348 186.635 143.366 186.69L143.371 186.699L143.381 186.716V186.724V186.729V186.738C143.42 186.802 143.464 186.863 143.513 186.921C143.539 186.955 143.588 187.007 143.589 187.008H143.598L143.607 187.016L143.612 187.024H143.621H143.63L143.644 187.035H143.653L143.663 187.044L143.672 187.052H143.681L143.699 187.06H143.707H143.717H143.725H143.743L143.848 187.052L143.86 187.046H143.877L143.891 187.041H143.904H143.912H143.925L143.938 187.035H143.951L143.99 187.02H144.002C144.042 187.007 144.023 187.01 144.063 186.998L144.075 186.989C144.164 186.954 144.251 186.913 144.333 186.864C145.789 186.001 147.353 183.626 148.372 182.222C151.085 178.461 154.697 174.096 157.498 170.727C157 170.545 156.515 170.328 156.048 170.078C155.424 169.752 154.835 169.364 154.29 168.919C150.027 175.999 144.315 182.71 143.53 185.17H143.534Z" fill="#161720"/>
<path fill-rule="evenodd" clip-rule="evenodd" d="M173.637 114.133C181.389 114.343 188.753 117.573 194.157 123.135C199.561 128.697 202.579 136.15 202.567 143.905C202.568 146.536 202.242 149.156 201.597 151.706V151.72C199.762 158.83 195.433 165.044 189.4 169.23C183.366 173.415 176.029 175.292 168.727 174.52C166.181 174.271 163.68 173.689 161.287 172.786C155.524 170.645 150.538 166.821 146.978 161.809C143.417 156.798 141.446 150.831 141.321 144.685C141.239 140.063 142.231 135.486 144.22 131.313C145.566 128.487 147.34 125.887 149.48 123.603C152.543 120.319 156.303 117.764 160.483 116.125C164.664 114.486 169.159 113.806 173.637 114.133ZM168.906 116.536C164.249 117.138 159.821 118.914 156.038 121.697C152.255 124.481 149.242 128.18 147.281 132.447C145.309 136.763 144.493 141.518 144.912 146.245C145.475 153.128 148.645 159.537 153.774 164.161C158.904 168.785 165.606 171.276 172.51 171.124C179.415 170.972 186.001 168.189 190.922 163.344C195.844 158.499 198.729 151.958 198.989 145.056C199.043 143.453 198.963 141.848 198.748 140.258C198.32 137.185 197.359 134.21 195.909 131.468C193.234 126.243 188.985 121.989 183.763 119.308C179.225 116.851 174.029 115.881 168.91 116.536H168.906ZM173.637 114.136C173.224 114.127 173.222 114.126 173.637 114.136V114.136Z" fill="#161720"/>
<path d="M181.254 140.959C181.381 138.063 179.722 135.639 177.551 135.544C175.379 135.45 173.516 137.72 173.39 140.616C173.264 143.511 174.922 145.935 177.094 146.03C179.265 146.125 181.128 143.854 181.254 140.959Z" fill="#161720"/>
<path fill-rule="evenodd" clip-rule="evenodd" d="M177.46 134.419C178.117 134.392 178.775 134.481 179.401 134.683C181.599 135.525 183.17 137.78 183.036 140.864C183.013 141.714 182.869 142.557 182.607 143.366C182.316 144.368 181.784 145.283 181.057 146.03C180.33 146.778 179.43 147.335 178.437 147.654C177.622 147.86 176.767 147.855 175.955 147.637C175.143 147.419 174.401 146.997 173.799 146.41C173.06 145.703 172.491 144.837 172.137 143.877C170.461 139.54 173.178 134.235 177.46 134.419ZM177.511 136.649C175.389 137.029 174.784 140.029 175.308 142.116C175.38 142.584 175.572 143.026 175.867 143.396C176.162 143.767 176.549 144.054 176.989 144.229H177.011L177.028 144.235H177.05H177.071H177.089L177.11 144.24H177.233H177.255H177.277H177.294H177.317H177.334H177.356C177.76 144.124 178.131 143.911 178.435 143.62C178.74 143.33 178.97 142.969 179.104 142.57C180.128 140.304 178.892 137.04 177.512 136.632L177.511 136.649Z" fill="#161720"/>
<path fill-rule="evenodd" clip-rule="evenodd" d="M192.639 134.577L192.775 135.078C192.726 137.049 192.56 139.016 192.278 140.968C191.89 144.041 191.905 145.615 190.999 153.216C190.783 154.052 190.67 154.911 190.665 155.774L190.672 155.819V155.841C190.684 155.93 190.707 156.018 190.739 156.102L190.748 156.111V156.124L190.756 156.133V156.147L190.764 156.16L190.772 156.17C190.89 156.367 191.236 156.522 191.811 156.645C192.143 156.707 191.943 156.622 192.515 156.938L192.684 157.396V157.401L192.455 157.837C191.918 158.041 192.021 158.032 191.668 158.017C191.194 158.049 190.72 157.959 190.291 157.754C189.862 157.55 189.493 157.239 189.219 156.851C188.989 156.426 188.859 155.955 188.839 155.472C188.721 152.889 189.549 147.336 189.736 144.95C189.865 143.763 189.749 143.762 190.322 139.325C190.554 137.787 190.944 136.277 191.486 134.819L191.805 134.417L192.256 134.31C192.27 134.31 192.627 134.568 192.639 134.577Z" fill="#161720"/>
<path fill-rule="evenodd" clip-rule="evenodd" d="M168.498 121.081C169.554 121.073 170.595 121.343 171.514 121.865C171.922 122.101 172.273 122.424 172.542 122.811C172.811 123.198 172.992 123.64 173.071 124.104C173.676 127.999 167.195 131.96 164.355 134.386C162.729 135.824 161.289 137.175 159.13 137.472C156.133 137.641 155.173 134.696 155.649 131.761C155.781 130.959 156.052 130.186 156.449 129.476C158.24 126.044 161.191 123.359 164.776 121.9C166.149 121.346 165.943 121.425 166.432 121.447L166.658 121.286C167.261 121.141 167.878 121.073 168.498 121.081ZM166.922 122.601L166.631 122.537C164.269 123.826 162.153 125.522 160.381 127.547C159.424 128.605 158.638 129.805 158.05 131.105C157.801 131.712 157.674 132.362 157.678 133.018C157.682 133.674 157.816 134.323 158.072 134.927V134.94L158.085 134.953L158.101 134.981L158.109 134.989L158.126 135.017L158.134 135.025L158.143 135.039L158.159 135.058L158.167 135.071L158.176 135.08L158.188 135.089V135.099L158.202 135.107L158.235 135.144H158.243L158.259 135.162H158.268L158.277 135.172H158.285L158.294 135.18H158.302L158.311 135.19L158.336 135.204L158.344 135.213L158.43 135.26H158.443C158.455 135.268 158.468 135.274 158.482 135.279H158.49C158.498 135.281 158.505 135.285 158.512 135.289H158.525H158.533H158.546C158.553 135.293 158.561 135.296 158.568 135.298H158.594L158.607 135.304H158.633H158.646L158.826 135.311H158.843H158.865H158.883H158.905H158.922C159.368 135.243 159.798 135.095 160.193 134.876C160.858 134.497 161.48 134.046 162.046 133.53C166.62 129.616 168.944 128.433 170.691 125.905C170.837 125.685 170.964 125.452 171.071 125.209C171.152 125.028 171.207 124.836 171.236 124.639L171.241 124.618V124.574V124.556L171.247 124.435V124.417V124.36V124.343V124.325L171.239 124.289V124.272L171.232 124.236V124.219C171.218 124.156 171.209 124.116 171.203 124.082L171.195 124.069L171.187 124.034L171.179 124.02V124.003L171.171 123.989V123.971C171.165 123.961 171.16 123.951 171.155 123.94V123.922C171.027 123.652 170.828 123.422 170.579 123.257C170.476 123.183 170.37 123.114 170.26 123.051L170.233 123.04L170.212 123.027C169.183 122.557 168.036 122.409 166.922 122.601Z" fill="#161720"/>
<path fill-rule="evenodd" clip-rule="evenodd" d="M155.555 143.165C156.062 143.473 155.977 143.392 156.03 143.545C156.259 143.525 156.114 143.511 156.37 143.582C156.675 143.68 156.968 143.815 157.241 143.983C157.812 144.356 158.294 144.85 158.653 145.43C159.011 146.01 159.239 146.661 159.318 147.338C159.49 148.475 159.356 149.637 158.93 150.705C158.699 151.401 158.306 152.032 157.784 152.547C157.262 153.063 156.625 153.447 155.926 153.668C155.227 153.89 154.485 153.944 153.761 153.824C153.038 153.704 152.353 153.415 151.762 152.979C149.852 151.683 149.37 148.938 150.142 146.772C150.356 145.971 150.763 145.234 151.325 144.625C151.888 144.016 152.59 143.553 153.372 143.275C154.078 143.052 154.83 143.014 155.555 143.165ZM155.384 144.475C154.956 144.505 154.541 144.631 154.169 144.843C153.607 145.195 153.133 145.672 152.783 146.235C152.574 146.529 152.404 146.848 152.277 147.185C152.191 147.429 152.118 147.677 152.057 147.928C151.731 149.25 152.111 150.895 153.353 151.425C153.953 151.727 154.645 151.795 155.293 151.615C155.679 151.458 156.027 151.22 156.315 150.918C156.603 150.616 156.823 150.256 156.962 149.863C157.083 149.593 157.182 149.313 157.256 149.026C157.371 148.577 157.428 148.115 157.425 147.651C157.428 147.127 157.319 146.609 157.107 146.131C156.845 145.527 156.364 145.046 155.76 144.785L155.437 144.469C155.42 144.474 155.402 144.477 155.384 144.478V144.475Z" fill="#161720"/>
<path fill-rule="evenodd" clip-rule="evenodd" d="M24.5861 127.83C27.2434 127.913 29.8677 128.443 32.3486 129.399C35.7239 130.616 35.1302 130.349 35.628 130.789L35.6859 131.264L35.6812 131.273L35.3667 131.64L34.8651 131.71C31.7183 130.83 28.4934 130.257 25.2359 130C24.3388 129.883 23.4268 130.008 22.594 130.362L22.5712 130.369C21.9612 130.741 21.4517 131.257 21.0873 131.871H21.0825C20.2998 133.307 19.7368 134.852 19.4124 136.455C18.4823 140.566 18.1743 144.793 18.4985 148.995C18.6752 151.503 19.0904 154.631 21.0246 156.215C23.3996 158.167 28.161 157.64 31.2295 157.155C33.8505 156.781 33.119 156.725 33.9588 156.915L34.2438 157.33L34.1346 157.821L33.7109 158.113C31.4759 158.672 29.2078 159.089 26.9203 159.362C23.9173 159.674 20.3396 159.085 18.5413 156.677C15.3816 152.885 16.0418 141.667 17.1362 136.797C17.7955 133.843 18.7104 130.337 21.2374 128.668C21.6827 128.375 22.1727 128.157 22.688 128.022C23.3093 127.873 23.9477 127.809 24.5861 127.83Z" fill="#161720"/>
<path fill-rule="evenodd" clip-rule="evenodd" d="M25.118 131.302C25.8666 132.063 26.4526 132.968 26.8404 133.962C27.6507 136.069 27.7505 139.305 27.7571 141.562C27.7172 144.451 27.351 147.326 26.6656 150.132V150.141C26.3606 151.314 26.4556 150.91 26.3521 151.301C25.7944 152.947 25.2539 154.618 23.7681 155.671L23.2684 155.798L22.8314 155.564L22.7117 155.095L22.9425 154.628C23.7975 153.861 24.2507 151.962 24.4473 150.828C25.2957 146.173 25.9531 142.848 25.4667 137.869C25.2919 136.195 24.9689 134.65 24.9423 134.544C24.7958 133.689 24.5091 132.864 24.0939 132.103L23.9942 131.596L24.2041 131.185L24.6601 131.073L25.118 131.302Z" fill="#161720"/>
<path fill-rule="evenodd" clip-rule="evenodd" d="M25.9094 134.33C23.4717 138.029 23.1183 141.806 22.9131 145.741C22.8691 146.569 22.884 147.4 22.9577 148.226C23.0299 148.986 23.048 151.372 23.7852 151.931C23.8916 152.014 24.3552 151.579 24.4397 151.487C26.3293 149.451 26.4556 141.619 26.4623 138.829C26.4537 138.316 26.4851 134.983 25.3622 135.441" fill="#161720"/>
<path fill-rule="evenodd" clip-rule="evenodd" d="M26.2666 133.778L26.2751 133.783L26.5288 134.183C26.4414 134.848 26.506 134.584 26.3103 134.987C27.1586 135.648 27.3106 137.985 27.3401 139.063C27.5462 142.358 27.3819 148.821 25.6709 151.653C25.0791 152.549 24.0768 153.419 23.161 152.8C22.2889 152.143 22.0676 150.698 21.9821 149.531C21.8646 148.389 21.8139 147.241 21.8301 146.093C22.0438 141.19 22.3839 137.844 25.365 133.97V133.965L25.8011 133.7L26.2666 133.778ZM24.1148 143.681C24.0001 144.869 23.9526 146.062 23.9723 147.255C23.9723 147.415 24.1167 149.616 24.1718 149.894C25.2833 146.994 25.7127 138.482 25.5588 136.758C24.7912 138.997 24.3062 141.322 24.1148 143.681Z" fill="#161720"/>
<path fill-rule="evenodd" clip-rule="evenodd" d="M52.9151 126.295C52.9655 126.306 70.5965 130.815 71.138 130.971C76.0533 132.31 77.1838 132.627 78.3941 133.209C79.3475 133.646 80.1831 134.303 80.8318 135.127C82.1514 136.832 82.5418 139.425 82.6473 141.575C82.706 142.778 82.6138 143.984 82.3727 145.165C82.0013 146.644 81.5417 148.101 80.9962 149.525L80.6646 149.905L80.1763 149.958C80.1697 149.951 79.8039 149.641 79.7963 149.635C79.6909 148.72 79.6405 149.825 80.6228 145.835C80.7774 145.146 80.8727 144.444 80.9078 143.738C81.0028 141.545 80.5012 137.637 79.0335 136.233C77.9961 134.523 68.1731 132.467 57.7535 129.773C53.9392 128.786 48.2411 127.052 44.3119 127.37C43.5224 127.452 42.7874 127.811 42.2371 128.383C41.7606 128.854 41.3163 129.357 40.9071 129.888C39.9287 131.177 39.112 132.58 38.4751 134.068C37.2385 137.034 36.4895 140.181 36.2569 143.386C35.9895 146.437 36.2222 149.51 36.9456 152.485C37.232 153.753 37.7944 154.942 38.5929 155.967C41.2586 159.189 48.1765 158.327 52.3214 157.918H52.3261L52.8182 158.066L53.0709 158.502V158.51L52.9322 158.994L52.4829 159.25C52.0459 159.231 46.5074 160.382 42.1478 159.685C36.3139 158.752 35.0437 154.41 34.2096 148.693C33.5374 142.492 34.7723 136.234 37.7493 130.753C38.7559 128.924 40.121 127.316 41.7631 126.026C42.2778 125.72 42.8371 125.495 43.4208 125.361C46.0865 124.808 49.3431 125.523 52.9151 126.295Z" fill="#161720"/>
<path fill-rule="evenodd" clip-rule="evenodd" d="M33.404 138.934V138.917L33.4297 138.931L33.4601 138.94V138.923L33.5161 138.943V138.921C33.5329 138.928 33.5504 138.934 33.5684 138.937V138.915L33.6073 138.925L33.5997 138.902L33.6425 138.914L33.6349 138.891H33.6738L33.6662 138.869H33.7014L33.6938 138.847L33.7061 138.852H33.7242L33.7118 138.829H33.7251H33.7375L33.7213 138.806H33.7251H33.7375C33.7326 138.798 33.7272 138.791 33.7213 138.784L33.7128 138.775H33.7175H33.7128L33.7213 138.784L33.7128 138.775L33.7213 138.784V138.779L33.7289 138.788H33.7375L33.746 138.798H33.7546V138.803L33.7888 138.822H33.7973C34.0493 138.907 34.3067 138.975 34.5678 139.026C34.7872 139.121 34.8176 139.184 34.9858 139.267C35.4484 139.636 34.8908 139.094 35.9833 140.191C35.152 140.819 35.0846 140.938 34.3683 141.109C34.2475 141.128 34.1242 141.123 34.0054 141.094C33.2158 141.004 32.4882 140.622 31.9648 140.024V140.02C31.8833 139.855 31.8455 139.673 31.8549 139.49C31.8644 139.307 31.9209 139.129 32.0189 138.975L33.3318 138.88L33.404 138.934Z" fill="#161720"/>
<path fill-rule="evenodd" clip-rule="evenodd" d="M35.3287 147.982C35.6137 148.141 35.3353 147.897 36.1884 148.763C35.8197 149.173 35.3718 149.503 34.8717 149.734L34.7378 149.794H34.733C34.6905 149.807 34.6489 149.823 34.6086 149.842C34.2605 149.881 33.9239 149.99 33.6187 150.162L33.6044 150.174L33.5911 150.183H33.5864L33.5645 150.195L33.5512 150.207L33.5237 150.223L33.5104 150.237L33.4971 150.244L33.4733 150.265L33.4372 150.299L33.423 150.307L33.3916 150.337H33.3821H33.365L33.347 150.344H33.3384H33.3251C33.3251 150.344 32.9736 150.353 32.9565 150.354C32.719 150.343 33.0468 150.527 31.7329 149.617V149.609C31.7671 148.824 31.8726 148.781 32.2944 148.46C32.6215 148.224 32.9843 148.042 33.3688 147.921C33.6781 147.779 34.0159 147.711 34.3559 147.721C34.6958 147.732 35.0288 147.821 35.3287 147.982Z" fill="#161720"/>
<path fill-rule="evenodd" clip-rule="evenodd" d="M45.6778 129.17L45.7063 129.207H45.7149C46.6899 130.262 47.4318 131.511 47.8923 132.873C48.1526 133.779 48.1032 133.464 48.0984 133.564C48.1317 133.692 48.2172 134.074 48.239 134.175C48.7666 136.826 48.9413 139.536 48.7587 142.233C48.6029 145.199 47.97 148.12 46.8843 150.884C46.0293 152.941 44.9501 155.796 42.73 156.014C42.16 155.989 42.3899 156.09 41.7705 155.729L41.6213 155.254V155.245L41.8674 154.822L42.3557 154.656H42.3908H42.4041H42.4345H42.4478H42.4649H42.4782H42.4915H42.5048H42.5181H42.5267H42.54L42.5799 154.645H42.5932C42.5932 154.645 42.6948 154.61 42.7214 154.602L42.7309 154.594C42.7385 154.592 42.7458 154.589 42.7528 154.586L42.7661 154.577H42.7794C42.787 154.577 42.8136 154.56 42.825 154.554L42.8335 154.545C43.0026 154.497 43.3589 154.15 43.7427 153.459V153.451C44.1995 152.502 44.5706 151.515 44.8513 150.501C45.6016 148.442 46.129 146.308 46.4245 144.136C46.7481 141.661 46.7631 139.155 46.4692 136.676C46.3377 135.593 46.142 134.519 45.883 133.459C45.6304 132.243 45.2086 131.068 44.63 129.969L44.535 129.461L44.7592 129.051L45.219 128.948L45.6778 129.17Z" fill="#161720"/>
<path fill-rule="evenodd" clip-rule="evenodd" d="M46.1919 132.24C43.454 133.596 42.3568 136.677 41.7051 139.46C41.2519 141.376 40.8187 146.345 41.194 148.082C41.5388 149.861 42.8669 153.438 44.3765 152.187C47.3214 149.746 47.424 140.991 47.2853 137.16C47.2331 135.657 47.1352 133.692 46.0038 132.531" fill="#161720"/>
<path fill-rule="evenodd" clip-rule="evenodd" d="M46.7781 131.941V131.949L46.8019 132.414C47.4547 133.286 47.8588 134.319 47.9713 135.403C48.1436 136.772 48.2457 138.15 48.2772 139.53C48.4378 142.687 48.123 145.85 47.3434 148.913C46.8351 150.803 45.5488 153.61 43.6317 153.527C41.993 153.454 41.0297 151.27 40.5195 149.71C39.9676 147.789 39.8279 147.272 40.1129 143.079C40.1566 142.079 40.4274 140.399 40.4701 140.1C41.1674 136.546 42.5193 133.156 45.8319 131.676C45.9336 131.638 45.8196 131.655 46.4019 131.636L46.7781 131.941ZM42.5848 140.485C42.3441 141.987 42.1975 143.502 42.1459 145.022C42.1094 145.917 42.132 146.813 42.2134 147.704C42.4344 149.008 42.9457 150.245 43.7096 151.324L43.7229 151.333C43.8619 151.212 43.9891 151.078 44.1029 150.933C46.2965 148.429 46.7154 136.927 46.2518 134.662C46.1944 134.356 46.1063 134.058 45.9887 133.77C45.9283 133.618 45.8556 133.472 45.7711 133.332C43.8816 135.073 43.1605 137.75 42.5848 140.485Z" fill="#161720"/>
<path fill-rule="evenodd" clip-rule="evenodd" d="M45.6997 136.787C45.7344 137.365 45.6281 137.944 45.39 138.472C44.155 141.825 44.8913 140.855 43.5936 144.238L43.2677 144.688L42.845 144.84H42.8364L42.465 144.59C42.3001 144.269 42.2181 143.912 42.2265 143.551C42.1725 142.986 42.1725 142.418 42.2265 141.853C42.4838 140.433 42.8741 139.04 43.3922 137.693C43.5465 137.217 43.832 136.794 44.2158 136.473C44.6063 136.115 44.3479 136.246 45.4138 135.903L45.6997 136.787Z" fill="white"/>
<path fill-rule="evenodd" clip-rule="evenodd" d="M25.7451 142.242C25.7254 142.951 25.5595 143.649 25.2577 144.291C25.0544 144.757 25.2492 144.508 24.3904 145.3C23.7064 144.424 23.7957 144.618 23.6969 144.16C23.4724 143.106 23.4824 142.015 23.7263 140.966C23.8489 139.8 23.8441 139.779 23.9401 139.57C24.0704 139.341 24.2161 139.121 24.3761 138.911L25.1057 138.334C26.2096 139.719 26.0424 139.444 25.7451 142.242Z" fill="white"/>
<path fill-rule="evenodd" clip-rule="evenodd" d="M83.0546 141.974C83.7629 141.93 84.4627 142.146 85.024 142.58C86.562 143.704 86.829 146.095 86.5715 147.94C86.1317 150.99 84.15 152.478 81.9222 152.381C81.5333 152.35 81.1518 152.256 80.7927 152.104L80.4127 151.742C80.4127 151.735 80.3538 151.267 80.3547 151.267L80.672 150.917C81.642 150.765 81.6743 150.911 82.1996 150.713C82.5017 150.612 82.7819 150.455 83.0252 150.249C83.5402 149.825 83.9403 149.278 84.1889 148.659C84.6136 147.633 84.682 145.134 83.8906 144.448V144.44L83.8783 144.43L83.8631 144.4C83.8574 144.4 83.732 144.287 83.7282 144.285C83.6724 144.252 83.6184 144.216 83.5667 144.177H83.5581C83.4345 144.088 83.305 144.008 83.1705 143.936C83.0031 143.836 82.8246 143.754 82.6385 143.694C82.402 143.599 81.9203 143.457 81.8177 143.427L81.3655 143.149L81.1907 142.747L81.4007 142.362L81.8757 142.12H81.8975C82.2769 142.03 82.6648 141.981 83.0546 141.974Z" fill="#161720"/>
<path fill-rule="evenodd" clip-rule="evenodd" d="M120.135 183.083C120.28 183.906 120.473 183.587 117.421 186.203C116.031 187.411 109.186 192.614 105.299 195.094C105.281 195.107 105.053 195.27 105.042 195.275L104.545 195.433L104.113 195.288L103.953 194.865L104.101 194.363V194.359C104.196 194.247 104.084 194.341 104.887 193.321C105.788 192.281 106.843 191.384 108.014 190.661C113.042 187.084 113.567 186.109 119.175 182.936L119.709 182.841L120.135 183.083Z" fill="#161720"/>
<path fill-rule="evenodd" clip-rule="evenodd" d="M202.01 249.763C202.51 250.044 202.982 250.373 203.421 250.743C205.416 253.014 206.868 253.887 208.593 255.617C209.328 256.358 209.002 255.893 209.437 256.622L209.395 257.079L209.004 257.325L208.454 257.279C207.539 256.947 206.667 256.505 205.858 255.962C204.703 255.05 203.613 254.058 202.596 252.993C201.863 252.361 201.318 251.539 201.023 250.618L201.014 250.604L201.094 249.68L202.01 249.763Z" fill="#161720"/>
<path fill-rule="evenodd" clip-rule="evenodd" d="M128.56 41.5402C132.947 43.3546 136.858 46.1653 139.989 49.7527C143.119 53.3402 145.383 57.6075 146.605 62.2215C147.947 66.7123 148.253 71.4523 147.501 76.0804C146.749 80.7086 144.958 85.103 142.264 88.9289C139.488 92.8825 135.816 96.1121 131.551 98.3496C129.446 99.4715 127.218 100.343 124.913 100.948C120.728 102.054 116.361 102.273 112.088 101.59C107.814 100.906 103.729 99.3362 100.09 96.9788C77.314 81.5956 83.2481 48.5503 107.025 40.7593C114.063 38.3991 121.71 38.6763 128.56 41.5402ZM112.08 41.972C107.372 42.7936 102.941 44.7829 99.1872 47.7603C95.4337 50.7377 92.4757 54.6094 90.5804 59.026C88.685 63.4425 87.912 68.2648 88.3311 73.0575C88.7501 77.8501 90.3481 82.4622 92.9807 86.4774C95.6133 90.4926 99.1977 93.7844 103.41 96.0557C107.623 98.327 112.331 99.5062 117.109 99.4868C121.887 99.4675 126.586 98.2502 130.78 95.9449C134.974 93.6396 138.532 90.3189 141.133 86.2825C143.447 82.7861 144.99 78.8311 145.658 74.6839C146.327 70.5366 146.106 66.2933 145.009 62.2395L144.997 62.2433C140.605 47.8716 126.116 39.2889 112.08 41.972ZM146.601 62.2221C146.465 61.7787 146.477 61.8134 146.601 62.2221V62.2221Z" fill="#161720"/>
<path fill-rule="evenodd" clip-rule="evenodd" d="M115.547 58.9752C115.756 60.5992 116.418 68.6569 116.443 68.9974C116.509 69.8043 116.609 71.4033 116.61 71.4084C118.545 71.5496 123.412 71.2941 126.439 71.3088C127.278 71.3145 127.071 71.2871 127.491 71.4525L127.642 71.7643V71.7688L127.511 72.0882C126.989 72.3309 127.584 72.1757 125.082 72.4312C121.625 72.7845 119.24 73.0873 116.001 72.8593C115.848 72.8729 115.694 72.8448 115.557 72.7783C115.419 72.7117 115.303 72.6092 115.222 72.4824C115.105 72.2511 115.13 72.3239 115.059 71.1318C114.64 64.1211 113.977 61.4821 114.169 56.1106C114.183 55.7791 114.146 55.9337 114.32 55.5261L114.626 55.3792H114.629C115.205 55.597 115.044 55.2642 115.547 58.9752Z" fill="#161720"/>
<path fill-rule="evenodd" clip-rule="evenodd" d="M95.1203 70.2371C95.406 70.2708 95.6887 70.3231 95.9661 70.3935C96.1356 70.4323 96.0291 70.3935 96.4269 70.5732L96.5759 70.7886C96.4187 71.07 96.517 70.9764 96.1344 71.1917C95.8356 71.2956 95.5282 71.3781 95.2151 71.4385C94.9948 71.4717 94.7714 71.4853 94.5482 71.4789C92.7783 71.547 93.0632 71.6704 92.54 71.5061C92.2751 71.4273 92.4511 71.5124 91.8484 71.1513C92.2363 70.628 92.1256 70.7407 92.3499 70.5833C92.4942 70.4804 92.6602 70.4051 92.8378 70.3621C93.5948 70.276 94.3573 70.2342 95.1203 70.2371Z" fill="#161720"/>
<path fill-rule="evenodd" clip-rule="evenodd" d="M140.61 69.5714C140.84 69.5668 141.07 69.5785 141.292 69.6058C141.344 69.6113 141.607 69.6454 141.638 69.6503C142.088 69.7192 141.862 69.6566 142.5 69.8968C141.944 70.1499 142.112 70.104 141.657 70.1737C140.996 70.2868 140.204 70.2082 139.037 70.2348C138.845 70.2433 138.652 70.2217 138.493 70.174C138.241 70.1221 138.438 70.1769 137.772 69.97C138.228 69.6951 138.126 69.745 138.334 69.6767C138.501 69.6087 138.721 69.5701 138.951 69.5685C139.548 69.5562 139.973 69.5625 140.61 69.5714Z" fill="#161720"/>
<path fill-rule="evenodd" clip-rule="evenodd" d="M114.756 45.5954C114.907 45.7623 115.033 45.9402 115.134 46.1263C115.196 46.3824 115.241 46.6408 115.266 46.9003C115.444 48.1524 115.698 48.7867 115.171 49.8146L114.889 49.9763H114.879L114.556 49.8685L114.281 49.5677C114.103 49.2592 113.951 48.9429 113.826 48.6207C113.752 48.3777 113.486 46.6098 113.486 46.5478C113.433 46.3411 113.461 46.1276 113.567 45.9323C113.804 45.555 113.466 45.8713 114.183 45.2488L114.756 45.5954Z" fill="#161720"/>
<path fill-rule="evenodd" clip-rule="evenodd" d="M117.344 96.0099C117.118 95.4906 116.99 94.9043 116.972 94.3027C116.791 92.7423 116.816 93.0841 116.904 92.6332C117.022 92.2616 116.94 92.4606 117.288 91.8483C117.516 92.0314 117.712 92.2796 117.862 92.5756C117.974 92.7965 117.949 92.7555 118.021 93.373C118.184 94.909 118.242 94.948 118.126 95.7487C118.081 96.0588 118.126 95.9186 117.788 96.5758C117.315 96.0436 117.398 96.1586 117.344 96.0099Z" fill="#161720"/>
</svg>
