<svg width="333" height="333" viewBox="0 0 333 333" fill="none" xmlns="http://www.w3.org/2000/svg">
<path fill-rule="evenodd" clip-rule="evenodd" d="M129.923 166.781C131.309 167.688 132.369 169.013 132.95 170.564C133.152 171.069 133.316 171.588 133.44 172.118C133.894 174.054 133.855 176.072 133.329 177.99C133.055 179.361 132.357 180.611 131.333 181.564C130.31 182.517 129.013 183.124 127.626 183.3C128.519 188.879 129.359 192.578 129.54 193.463C130.411 197.203 130.344 196.271 130.226 197.18L129.766 197.554L129.181 197.482L128.802 197.016C128.802 196.897 127.622 193.508 126.527 188.678C124.973 181.838 125.14 182.275 125.321 181.824C125.433 181.606 125.611 181.43 125.83 181.32C126.307 181.141 126.895 181.174 127.989 180.83C128.759 180.627 129.436 180.163 129.902 179.517C130.638 178.349 131.09 177.024 131.221 175.65C131.352 174.275 131.158 172.889 130.656 171.603C130.234 170.326 129.324 169.268 128.125 168.659C126.771 167.906 127.933 167.194 126.976 162.038C123.562 144.493 104.081 144.015 96.1748 154.522L95.6698 154.833L95.1148 154.727H95.1048L94.804 154.248C94.9238 153.561 94.8839 153.693 94.9727 153.555V153.55C104.582 138.774 129.742 143.153 129.923 166.781Z" fill="#161720"/>
<path fill-rule="evenodd" clip-rule="evenodd" d="M104.784 161.451C105.725 161.427 106.638 161.776 107.324 162.421C107.721 162.742 108.006 163.18 108.14 163.673C108.14 163.681 108.035 164.177 108.035 164.185C106.334 164.353 107.311 164.303 106.329 164.136C106.156 164.101 105.981 164.076 105.805 164.062L105.78 164.056C105.186 163.924 104.571 163.929 103.979 164.069L103.948 164.084C103.607 164.203 103.298 164.402 103.048 164.663C102.909 164.853 102.776 164.885 102.137 165.288C102.017 165.383 102.18 165.288 101.088 165.764C100.606 164.654 100.661 164.805 100.649 164.686C100.607 164.171 100.727 163.656 100.994 163.213C101.549 162.518 102.293 161.996 103.136 161.711C103.667 161.533 104.224 161.445 104.784 161.451Z" fill="#161720"/>
<path d="M107.091 170.876C107.152 169.467 106.194 168.28 104.95 168.226C103.706 168.172 102.648 169.27 102.586 170.68C102.525 172.089 103.483 173.275 104.727 173.329C105.971 173.384 107.029 172.285 107.091 170.876Z" fill="#161720"/>
<path fill-rule="evenodd" clip-rule="evenodd" d="M104.856 190.307L104.24 190.147C104.095 190.052 103.635 189.831 103.474 189.757C103.379 189.711 102.475 189.283 102.372 189.237C102.106 189.113 101.847 188.976 101.595 188.825C101.107 188.548 100.579 188.346 100.031 188.226C99.9048 188.204 99.777 188.194 99.649 188.194H99.6335H99.5924H99.5769H99.5669H99.5514H99.5225H99.5114H99.5014H99.4914H99.4814H99.4703H99.4592H99.4492H99.4437H99.4381H99.4326H99.427V188.199L99.4104 188.214L99.4048 188.224V188.234H99.3993C99.385 188.258 99.372 188.283 99.3604 188.309L99.3493 188.318L99.3271 188.348L99.3172 188.358L99.3061 188.378L99.295 188.388L99.2628 188.418L99.2517 188.438L99.2028 188.497C99.1227 188.589 99.0517 188.689 98.9908 188.794C98.8859 188.945 98.7934 189.103 98.7144 189.268V189.283L97.9297 190.036C97.0861 189.158 97.1804 189.393 96.9828 188.528C96.959 188.313 96.9497 188.098 96.9551 187.882C96.97 187.656 97.0209 187.434 97.106 187.224C97.3391 186.721 97.7107 186.296 98.1772 185.997C98.7386 185.663 99.3911 185.514 100.042 185.572C101.406 185.737 102.702 186.257 103.802 187.081C104.428 187.606 104.977 188.219 105.43 188.901L105.623 189.503L105.463 190.008L104.856 190.307Z" fill="#161720"/>
<path fill-rule="evenodd" clip-rule="evenodd" d="M95.7187 194.861C96.0517 195.144 96.9497 195.77 97.0718 195.845C98.852 197.216 101.004 198.019 103.247 198.149C104.368 198.212 105.492 198.111 106.583 197.85C107.443 197.655 108.301 197.173 108.922 198.397C109.896 200.586 110.712 202.841 111.364 205.146C111.763 206.367 111.697 205.913 111.688 206.73L111.318 207.159H111.306L110.739 207.165C110.184 206.683 110.398 207.076 109.144 204.672C109.085 204.574 107.71 201.768 107.058 200.311C106.116 200.534 105.153 200.655 104.185 200.671C101.428 200.726 98.7199 199.947 96.4147 198.435C95.4454 197.812 94.6201 196.99 93.9938 196.023V196.013C93.6814 195.54 93.4021 195.046 93.158 194.534L93.0869 193.927L93.3622 193.474H93.3733L93.8983 193.39C94.8418 193.904 93.8817 193.297 95.7187 194.861Z" fill="#161720"/>
<path fill-rule="evenodd" clip-rule="evenodd" d="M99.1352 198.491C97.166 197.782 94.5553 197.018 94.0092 195.006C93.5978 193.557 93.2606 192.087 92.9991 190.604C92.684 188.667 92.6169 186.698 92.7993 184.745C92.8293 184.531 92.7405 183.986 92.9247 184.106C94.8384 185.393 93.8005 188.63 98.881 198.327" fill="#161720"/>
<path fill-rule="evenodd" clip-rule="evenodd" d="M97.3126 196.07C98.4083 196.583 99.6133 196.818 100.821 196.754C100.182 195.193 98.4037 190.793 100.073 191.04C100.607 191.125 101.008 191.674 101.286 192.085C102.017 193.166 102.285 194.794 103.314 195.656C104.231 196.433 106.57 195.359 107.486 194.99C108.09 194.746 109.595 194.435 109.803 193.665C110.025 192.82 109.306 191.709 108.995 190.97C108.319 189.365 107.602 187.751 106.842 186.176C106.468 185.193 105.902 184.294 105.177 183.532C103.584 182.119 102.456 182.956 101.416 182.263C100.766 181.819 100.456 181.06 101.383 180.686C102.22 180.453 103.105 180.464 103.936 180.716C104.758 180.842 105.551 181.112 106.279 181.514C108.417 182.826 109.498 185.399 111.567 188.658C113.111 191.148 113.056 193.25 116.752 189.161C122.164 183.217 120.059 180.827 121.773 174.993C121.884 174.63 122.148 173.536 122.719 173.668C123.615 173.89 123.885 175.228 123.979 175.979C124.345 178.402 124.298 180.869 123.84 183.277C123.427 185.486 122.525 187.574 121.201 189.39C119.647 191.327 115.838 195.201 111.745 196.894C110.845 197.265 107.689 198.677 106.95 198.864C101.289 200.321 96.5056 198.008 95.7575 196.341C95.6176 196.008 95.7652 195.686 96.1582 195.709C96.5751 195.773 96.9799 195.899 97.3592 196.084" fill="#161720"/>
<path fill-rule="evenodd" clip-rule="evenodd" d="M64.7397 160.892C65.2236 161.414 65.0727 160.989 65.934 163.634C72.8094 186.92 61.2121 203.494 63.3921 238.281C64.2024 249.002 66.1416 258.091 71.7338 267.141C76.0241 273.824 81.9723 279.28 88.9987 282.98C89.5815 283.006 105.113 293.513 128.277 285.644L128.874 285.675L129.28 286.107C129.28 286.122 129.25 286.689 129.248 286.704L128.817 287.115C124.213 288.845 119.396 289.944 114.498 290.383C104.827 291.267 95.1155 289.204 86.6402 284.464C78.1649 279.724 71.3232 272.529 67.0152 263.826C59.3739 248.44 59.768 226.065 62.0435 209.052C63.4476 197.072 67.7189 179.796 65.0216 167.001C64.6884 165.254 64.2458 163.53 63.6963 161.839L63.7429 161.253L64.1736 160.862L64.7397 160.892Z" fill="#161720"/>
<path fill-rule="evenodd" clip-rule="evenodd" d="M72.4908 159.164L72.9648 159.563C74.3845 161.501 74.6043 162.976 75.2292 166.034C75.607 167.973 75.8072 169.942 75.8275 171.917C75.7816 173.103 75.6462 174.283 75.4223 175.449L75.1282 175.993L74.612 176.206L74.117 175.949L73.8661 175.38H73.8606C73.7973 174.584 73.4232 171.939 73.2623 170.102C72.8438 165.321 71.9302 163.532 71.6761 161.436C71.6705 161.392 71.5384 160.146 71.5295 160.104C71.5295 160.095 71.6317 159.497 71.6328 159.489L71.9813 159.121H71.9924L72.4908 159.164Z" fill="#161720"/>
<path fill-rule="evenodd" clip-rule="evenodd" d="M81.4484 158.286C81.8265 158.548 82.1271 158.908 82.3187 159.326C82.6559 159.859 82.9311 160.429 83.1389 161.024C83.6594 163.027 83.9883 165.074 84.1213 167.138C84.3171 169.029 84.194 170.938 83.7572 172.788C83.6595 173.315 83.3421 174.221 83.3365 174.342L82.9769 174.848L82.443 175.004L81.9801 174.692L81.7969 174.096C81.7969 172.716 81.6637 168.136 81.6371 167.538C81.5131 165.515 81.2021 163.509 80.708 161.544C80.6226 161.051 80.4727 159.289 80.4771 159.206L80.5881 158.592L80.9367 158.229H80.9467L81.4484 158.286Z" fill="#161720"/>
<path fill-rule="evenodd" clip-rule="evenodd" d="M90.3685 161.544C90.767 162.118 90.7714 161.807 91.3553 165.54C91.8618 170.29 91.9613 175.075 91.6528 179.842C91.4381 183.684 91.5954 187.537 92.1223 191.348C94.7774 206.666 105.967 223.45 112.324 241.341C112.517 241.703 112.579 242.121 112.499 242.524L112.071 242.93L111.485 242.9C110.937 242.331 111.244 242.857 110.296 240.598C103.601 225.625 92.9149 207.833 89.9389 193.274C87.861 182.598 90.242 173.933 89.3529 163.526C89.173 162.052 89.1642 162.458 89.3395 161.73L89.8191 161.41L90.3685 161.544Z" fill="#161720"/>
<path fill-rule="evenodd" clip-rule="evenodd" d="M119.255 230.857L119.691 231.182C119.691 231.19 119.678 231.72 119.677 231.729C118.212 233.616 115.203 234.539 111.834 236.502C111.2 236.899 110.49 237.161 109.75 237.27C109.515 237.335 109.741 237.353 108.509 237.098C108.763 235.864 108.691 236.084 108.842 235.886C109.283 235.225 109.884 234.687 110.589 234.321C110.595 234.192 114.905 232.08 115.559 231.768C116.218 231.514 116.89 231.294 117.571 231.109C118.102 230.883 118.682 230.797 119.255 230.857Z" fill="#161720"/>
<path fill-rule="evenodd" clip-rule="evenodd" d="M17.9354 183.19H17.9454L18.325 183.621C18.2917 184.595 18.446 183.721 17.376 186.382C13.2312 196.389 10.7826 208.471 9.39172 219.388C8.60695 226.329 8.23177 232.41 8.10301 236.828C7.80773 242.117 8.32052 247.42 9.62371 252.554C10.1669 254.54 10.8195 256.494 11.5784 258.408C14.8668 266.198 20.831 272.556 28.3949 276.334C33.1072 278.584 38.2691 279.734 43.4909 279.698C49.4122 279.608 55.2621 278.391 60.7281 276.112C61.7693 275.695 64.9605 274.251 65.0904 274.129L65.6854 274.083C65.6942 274.09 66.1371 274.459 66.1438 274.466L66.1904 275.057C65.6754 275.681 66.2082 275.364 62.5074 277.187C58.5597 279.049 54.3916 280.402 50.1032 281.214C47.2641 281.725 44.3816 281.955 41.4974 281.902C40.8191 281.902 40.1487 281.838 39.7058 281.819C37.6622 281.67 35.6353 281.346 33.6474 280.849C31.6503 280.343 29.7014 279.662 27.8233 278.815C23.5925 276.846 19.7849 274.073 16.6123 270.65C13.7944 267.734 11.4958 264.358 9.81574 260.668C4.79521 249.437 5.21701 239.843 6.08947 227.581C7.46032 211.579 9.57043 198.018 16.9164 183.555L17.3604 183.17L17.9354 183.19Z" fill="#161720"/>
<path fill-rule="evenodd" clip-rule="evenodd" d="M42.1545 188.853L42.644 189.121L42.8494 189.676C42.8494 189.842 42.8216 191.757 42.9016 193.181C42.9016 193.968 43.0126 195.707 43.0314 196.06C43.1842 200.371 43.6225 204.666 44.3435 208.919C45.5645 217.05 49.4273 228.244 52.5053 235.796C55.2703 242.583 54.9084 241.054 54.9606 242.112C54.9528 242.121 54.591 242.556 54.5832 242.566C54.5754 242.576 54.0005 242.596 53.9938 242.596C53.3833 242.078 53.6608 242.441 52.7339 240.741C52.089 239.501 50.2065 236 48.6758 232.372C45.2029 224.18 42.7787 215.582 41.4608 206.783C39.8357 195.99 41.2721 190.577 41.3165 189.552L41.6095 189.033L42.139 188.852L42.1545 188.853Z" fill="#161720"/>
<path fill-rule="evenodd" clip-rule="evenodd" d="M59.2739 230.032L59.6891 230.357C59.6891 230.365 59.6513 230.874 59.6513 230.882L59.234 231.416C58.4581 232.063 57.5996 232.603 56.681 233.023C56.5533 233.018 55.7575 233.46 53.129 234.423C52.882 234.542 52.6153 234.616 52.342 234.64C52.231 234.652 51.8492 234.66 51.7681 234.656C51.0366 234.611 51.3841 234.713 50.1997 234.158C50.7547 232.967 50.546 233.293 51.0877 232.775C51.4142 232.453 51.812 232.213 52.2488 232.073C52.4774 232.083 56.4002 230.26 57.7988 230.121C58.2783 229.985 58.7816 229.955 59.2739 230.032Z" fill="#161720"/>
<path d="M245.995 162.074C247.543 161.965 248.702 160.508 248.583 158.819C248.464 157.13 247.113 155.849 245.565 155.958C244.016 156.067 242.857 157.524 242.976 159.213C243.095 160.902 244.446 162.183 245.995 162.074Z" fill="#161720"/>
<path fill-rule="evenodd" clip-rule="evenodd" d="M246.804 147.619C247.117 147.743 247.42 147.892 247.71 148.063C247.829 148.141 247.722 148.044 248.215 148.581L248.274 149.111L247.894 149.473L247.261 149.573C247.029 149.547 246.795 149.538 246.561 149.547C246.023 149.568 245.488 149.637 244.963 149.753H244.956C244.394 149.819 243.846 149.972 243.331 150.205C242.637 150.52 242.005 150.957 241.465 151.494C241.284 151.706 241.074 151.893 240.842 152.049C240.299 152.533 239.619 152.836 238.896 152.916L238.625 151.861C238.703 151.425 238.835 150.999 239.017 150.595C239.184 150.251 239.42 149.946 239.711 149.699C240.421 149.001 241.241 148.425 242.139 147.994C242.943 147.617 243.801 147.366 244.682 147.251C245.407 147.228 246.129 147.353 246.804 147.619Z" fill="#161720"/>
<path fill-rule="evenodd" clip-rule="evenodd" d="M245.156 177.316L245.56 177.681L245.671 178.3C245.557 179.179 245.314 180.037 244.951 180.846C244.887 180.966 245.108 180.534 244.649 181.446C243.481 183.258 241.875 184.746 239.981 185.775C239.351 186.147 238.675 186.433 237.97 186.628C237.396 186.728 236.811 186.741 236.233 186.665C235.815 186.607 236.079 186.749 235.069 185.944C236.039 184.714 235.316 185.406 237.201 184.303C238.221 183.925 239.181 183.402 240.051 182.749C241.027 181.985 241.896 181.092 242.632 180.094C242.796 179.903 243.298 179.274 243.592 178.828C243.808 178.519 244.003 178.196 244.176 177.861L244.61 177.41L245.146 177.326L245.156 177.316Z" fill="#161720"/>
<path fill-rule="evenodd" clip-rule="evenodd" d="M169.575 204.17C165.11 200.656 159.264 198.683 153.813 197.443C146.906 195.868 133.018 196.987 132.89 197.11C127.54 202.165 122.621 207.561 116.209 211.398C113.646 212.934 107.908 213.88 109.304 209.067C107.019 209.963 104.964 211.36 103.291 213.157C106.066 219.303 108.437 224.264 111.234 230.38C114.139 229.197 116.118 228.819 119.024 227.651C127.819 233.573 133.764 244.531 136.984 254.429C138.237 252.31 139.508 250.141 140.926 248.126C139.286 243.498 137.251 234.209 144.766 233.807C144.378 228.047 146.17 221.554 153.173 222.329C152.918 219.383 152.925 216.054 154.616 213.479C156.753 210.226 161.304 211.749 163.423 214.061C165.229 210.843 169.575 204.17 169.575 204.17Z" fill="#161720"/>
<path fill-rule="evenodd" clip-rule="evenodd" d="M166.134 211.205C163.972 214.767 164.176 214.996 163.301 214.958C162.834 214.847 162.805 214.69 162.58 214.492C161.76 213.713 160.769 213.135 159.687 212.806C158.941 212.564 158.146 212.513 157.376 212.659L157.35 212.668H157.319C156.877 212.77 156.465 212.975 156.117 213.265L156.101 213.284C154.844 214.753 154.152 216.621 154.147 218.553C153.997 222.001 154.5 222.098 154.096 222.899C153.98 223.081 153.812 223.225 153.615 223.312C153.418 223.4 153.199 223.428 152.986 223.392C151.732 223.232 150.458 223.444 149.323 224C148.615 224.431 147.999 224.999 147.512 225.669C147.024 226.339 146.674 227.1 146.482 227.906C146.299 228.52 146.164 229.147 146.078 229.781C145.576 233.732 146.485 234.041 145.382 234.839C144.287 235.344 139.658 234.415 140.824 242.649C141.103 244.369 141.536 246.06 142.117 247.702C142.396 248.819 141.936 248.434 138.543 254.265C138.055 255.089 137.915 255.562 137.06 255.674C136.784 255.689 136.512 255.612 136.285 255.456C136.058 255.3 135.888 255.074 135.803 254.812C134.181 249.768 131.956 244.939 129.177 240.428C126.525 235.994 123.021 232.128 118.868 229.055C117.913 229.355 120.011 228.731 115.057 230.346C112.948 231.012 111.871 231.487 111.505 231.598C111.227 231.659 110.936 231.623 110.681 231.495C110.426 231.368 110.222 231.157 110.103 230.898C104.656 218.94 102.054 213.908 102.049 213.036C102.073 212.747 102.199 212.477 102.405 212.274C103.704 210.861 105.242 209.688 106.949 208.81C107.666 208.418 108.414 208.086 109.186 207.819C109.459 207.791 109.732 207.854 109.966 207.996C110.2 208.138 110.381 208.352 110.482 208.607C110.655 209.196 110.531 209.227 110.398 209.917C110.343 210.137 110.33 210.365 110.36 210.59V210.611V210.631C110.364 210.656 110.369 210.68 110.376 210.704V210.725C110.389 210.77 110.404 210.815 110.421 210.859V210.869L110.431 210.88L110.44 210.901V210.911C110.45 210.925 110.46 210.939 110.468 210.953V210.963V210.974V210.985L110.498 211.018H110.508V211.028H110.518V211.038L110.528 211.043H110.538L110.553 211.059H110.563L110.573 211.07L110.603 211.086L110.613 211.096C110.636 211.11 110.624 211.096 110.647 211.114L110.657 211.124L110.713 211.148L110.727 211.159L110.787 211.181L110.803 211.192C110.849 211.211 110.981 211.25 111.025 211.264H111.05C111.097 211.277 111.069 211.264 111.116 211.282H111.141L111.187 211.294H111.212L111.238 211.301C114.208 211.429 115.929 210.119 118.342 208.424C124.876 203.606 131.06 196.769 132.232 195.957C133.364 195.468 146.698 194.796 153.308 196.196C158.916 197.437 165.591 199.841 170.003 203.515L170.014 203.505C170.805 204.24 170.404 204.172 166.134 211.205ZM163.223 212.628C163.667 211.805 168.311 204.589 168.519 204.35C164.461 201.38 158.503 199.486 153.575 198.477C150.094 197.62 142.466 197.792 138.891 197.929C137.885 197.983 134.46 198.164 133.465 198.286C126.177 205.306 124.396 207.267 118.97 211.119C117.316 212.419 115.385 213.32 113.327 213.753C111.867 214.011 109.962 213.962 108.887 212.936C108.366 212.466 108.019 211.834 107.901 211.143C106.762 211.754 105.716 212.522 104.793 213.426C106.498 217.243 111.202 227.257 111.881 228.777C113.003 228.333 116.696 227.223 117.789 226.779C119.307 226.224 119.063 226.095 120.995 227.507C124.911 230.53 128.255 234.228 130.869 238.428C133.468 242.534 135.621 246.906 137.292 251.468C137.366 251.348 138.783 249.009 139.537 247.935C138.238 243.889 137.052 238.159 139.786 234.837C140.744 233.713 142.074 232.971 143.534 232.745C143.334 229.613 144.194 226.505 145.976 223.923C146.44 223.344 146.99 222.841 147.606 222.428C148.917 221.575 150.458 221.141 152.022 221.184C151.851 217.709 152.523 212.986 155.522 211.292C157.315 210.27 160.271 210.321 163.223 212.628Z" fill="#161720"/>
<path fill-rule="evenodd" clip-rule="evenodd" d="M145.579 313.707C141.251 310.746 137.829 306.644 135.693 301.855C133.557 297.066 132.791 291.779 133.48 286.581C124.051 291.918 114.144 294.663 103.382 292.122C105.047 299.502 106.749 306.885 108.369 314.269C112.566 314.121 133.258 313.875 145.953 313.944" fill="#161720"/>
<path fill-rule="evenodd" clip-rule="evenodd" d="M133.693 285.342C133.977 285.393 134.235 285.539 134.425 285.757C134.615 285.974 134.724 286.25 134.735 286.539C134.718 286.773 134.634 287.447 134.624 287.567C134.29 290.716 134.527 293.9 135.323 296.966C136.26 300.86 138.003 304.515 140.44 307.693H140.45C142.103 309.762 144.004 311.62 146.111 313.223L146.523 313.394C147.267 315.149 147.336 314.661 131.291 314.98C114.687 315.464 126.164 315.021 108.418 315.513C108.125 315.524 107.838 315.432 107.606 315.253C107.375 315.073 107.214 314.818 107.152 314.532C101.856 290.718 102.053 292.456 102.185 291.762C102.267 291.491 102.438 291.255 102.671 291.092C102.904 290.93 103.184 290.85 103.467 290.867C107.478 291.819 111.624 292.053 115.716 291.559C120.233 290.96 124.624 289.635 128.719 287.635C133.031 285.614 132.736 285.278 133.693 285.342ZM107.362 294.09C107.241 294.076 105.155 293.81 105.031 293.744C105.891 297.518 108.545 309.211 109.368 312.983C110.332 312.705 138.055 313.018 143.305 313.102C143.174 313.029 142.202 312.255 141.61 311.745C140.63 310.891 139.714 309.967 138.868 308.981C134.047 303.403 131.586 296.168 132.003 288.808C124.305 292.806 116.008 295.164 107.362 294.09Z" fill="#161720"/>
<path fill-rule="evenodd" clip-rule="evenodd" d="M226.278 196.49C226.832 196.894 227.425 197.241 228.048 197.528L228.749 197.886C229.913 198.574 231.191 199.047 232.523 199.284C233.792 199.52 235.087 199.587 236.375 199.483C237.897 199.358 239.404 199.088 240.874 198.676C241.4 198.522 241.908 198.315 242.391 198.056L242.993 197.945L243.482 198.217H243.487L243.598 198.772L243.309 199.313C242.804 199.754 242.257 200.147 241.677 200.484C240.249 201.283 238.67 201.776 237.042 201.933C234.695 202.186 232.321 201.945 230.072 201.226C229.159 200.923 228.283 200.519 227.459 200.023L227.057 199.735C226.304 199.106 225.661 198.355 225.155 197.514L225.006 196.921L225.201 196.433L225.699 196.287L226.278 196.49Z" fill="#161720"/>
<path fill-rule="evenodd" clip-rule="evenodd" d="M229.326 198.653C229.702 199.37 229.556 198.822 229.86 200.717C230.161 202.845 230.229 205 230.065 207.144C230.092 207.442 230.029 207.742 229.884 208.005C229.329 208.802 228.825 208.593 227.442 208.656C223.459 208.862 219.493 209.313 215.565 210.005C213.687 210.346 214.455 210.355 213.49 210.227L213.103 209.811C213.103 209.796 213.162 209.256 213.164 209.236L213.608 208.821C216.809 207.4 220.239 206.569 223.735 206.367C227.9 206.034 227.565 206.239 227.572 206.074C227.572 205.852 227.587 204.905 227.589 204.298C227.554 203.101 227.634 201.905 227.826 200.724C227.834 200.669 228.059 199.245 228.062 199.199L228.341 198.659L228.822 198.43L229.326 198.653Z" fill="#161720"/>
<path fill-rule="evenodd" clip-rule="evenodd" d="M266.899 153.552C267.371 153.8 267.829 154.074 268.27 154.373C273.91 158.494 273.556 165.37 267.864 169.34C266.186 170.508 264.303 171.349 262.314 171.819C262.361 176.322 261.673 180.802 260.277 185.084C259.177 188.543 257.478 191.782 255.258 194.654C255.269 194.794 255.341 200.53 255.663 205.539C259.797 206.691 263.853 208.111 267.803 209.79C269.101 210.402 268.771 210.177 269.29 210.75L269.275 211.337L268.839 211.738C268.719 211.738 268.116 211.727 268.236 211.727C263.823 210.048 259.298 208.682 254.694 207.639C254.473 207.631 254.257 207.574 254.061 207.473C253.457 207.086 253.463 206.672 253.395 205.941C253.135 203.504 252.876 200.042 252.765 195.317C252.784 193.358 252.752 193.895 253.739 192.542L254.159 191.957C255.241 190.386 256.163 188.709 256.908 186.953C259.031 181.852 260.016 176.35 259.794 170.83C259.785 170.555 259.866 170.285 260.026 170.061C260.185 169.837 260.414 169.671 260.677 169.59C261.59 169.453 262.487 169.227 263.355 168.914C266.955 167.428 269.997 165.045 269.793 161.171C269.793 161.135 269.778 160.999 269.775 160.991C269.659 159.869 269.261 158.794 268.618 157.868C267.915 156.834 266.995 155.968 265.92 155.33C264.557 154.473 262.987 154.002 261.377 153.967L260.83 153.745L260.587 153.229L260.794 152.696C261.414 152.396 261.238 152.431 261.762 152.416C263.542 152.37 265.305 152.76 266.899 153.552Z" fill="#161720"/>
<path fill-rule="evenodd" clip-rule="evenodd" d="M216.783 133.838C220.008 135.528 223.1 137.451 226.689 138.304C234.692 140.202 243.979 137.011 249.955 131.555C250.826 140.47 252.596 150.525 262.228 152.945C262.864 147.408 262.204 140.823 259.74 135.752C256.923 129.971 250.83 125.701 244.637 124.271C239.357 123.009 233.826 123.278 228.693 125.048C226.584 125.846 224.715 127.259 222.525 127.865C221.615 128.117 220.313 127.701 220.456 126.527C220.64 125.237 221.29 124.059 222.283 123.216C225.371 120.904 228.935 119.311 232.717 118.554C238.285 117.525 247.007 118.637 252.024 121.44C257.055 124.515 261.115 128.949 263.736 134.23C266.033 134.341 267.391 134.735 269.333 133.126C271.657 131.198 270.476 127.132 262.304 126.133C263.833 125.661 265.292 124.986 266.641 124.126C268.052 123.425 269.239 122.343 270.065 121.002C271.528 118.071 269.478 115.246 266.372 114.915C263.109 114.568 259.496 116.988 257.291 119.214C258.9 116.694 260.933 114.39 261.837 111.485C263 107.764 261.398 105.249 257.697 107.114C254.747 108.598 252.864 111.921 251.077 114.559C252.169 112.609 252.998 110.523 253.541 108.355C254.222 105.032 253.63 98.114 248.384 99.718C243.938 101.079 241.492 106.19 240.074 110.596C240.439 107.24 241.829 99.2806 240.24 96.015C240.04 95.5375 239.727 95.1158 239.328 94.786C238.929 94.4562 238.456 94.2283 237.949 94.1218C237.443 94.0153 236.918 94.0335 236.42 94.1748C235.922 94.316 235.466 94.5762 235.09 94.9328C234.546 95.4183 234.07 95.975 233.674 96.5878C230.953 100.695 230.928 105.855 230.566 110.59C229.789 107.26 228.753 103.486 226.169 101.044C222.215 97.317 218.93 102.422 218.672 106.214C218.423 109.942 219.867 113.312 221.046 116.753C218.921 113.645 217.371 109.055 214.101 106.887C210.677 104.616 207.946 108.013 207.974 111.48C208.007 115.525 211.057 119.605 213.246 122.878C210.651 120.458 207.297 117.038 203.42 117.169C200.727 117.26 197.91 123.163 203.159 128.889C206.758 132.821 211.648 132.885 216.499 133.317" fill="#161720"/>
<path fill-rule="evenodd" clip-rule="evenodd" d="M262.702 106.592C264.236 108.89 263.212 112.067 261.902 114.491C261.937 114.478 262.053 114.428 262.094 114.41C270.816 111.006 274.996 119.927 268.919 124.121C268.395 124.519 266.988 125.403 266.403 125.735C267.154 125.98 267.88 126.296 268.571 126.678C271.901 128.496 273.032 132.242 269.401 134.634C267.644 135.762 266.312 135.653 264.279 135.522C263.502 135.472 263.502 135.503 263.121 135.326C262.351 134.817 262.973 134.949 260.88 131.72C258.681 128.416 255.881 125.554 252.625 123.284C246.69 119.452 236.692 118.638 231.39 120.149C228.715 120.881 226.177 122.043 223.876 123.59C223.246 123.963 222.706 124.472 222.298 125.079C221.995 125.551 221.793 126.08 221.703 126.633C221.822 126.676 221.949 126.69 222.074 126.674C223.605 126.153 225.08 125.481 226.478 124.666C236.728 119.535 253.96 122.099 260.716 134.909C261.87 137.235 262.677 139.718 263.11 142.279C263.709 145.618 263.845 149.025 263.513 152.402C263.423 153.153 263.462 153.239 263.218 153.657C263.061 153.873 262.838 154.033 262.583 154.113C262.329 154.193 262.055 154.189 261.802 154.101C260.912 153.87 260.045 153.56 259.209 153.176C252.739 150.059 250.688 143.907 249.49 136.805C249.392 136.139 249.151 134.457 249.084 133.663C244.147 137.472 238.125 139.608 231.891 139.762C224.103 139.811 219.591 135.971 216.415 134.515C215.787 133.749 216.725 134.263 212.214 133.738C207.202 133.17 203.6 131.622 200.879 127.319C200.542 126.767 200.249 126.189 200.003 125.591C199.496 124.378 199.26 123.069 199.312 121.755C199.423 119.228 200.876 116.316 203.484 116.25C205.438 116.277 207.338 116.892 208.935 118.016C207.559 115.391 206.486 112.653 207.113 109.737C208.025 106.371 210.03 105.087 211.943 105.094C214.296 105.118 216.134 107.01 217.589 108.852C217.537 108.67 217.488 107.488 217.478 107.368C217.399 101.016 222.133 96.136 226.602 99.8445C227.986 101.085 229.091 102.605 229.844 104.303C230.123 101.121 231.199 98.0598 232.973 95.4034C234.491 93.2478 236.78 92.1533 239.164 93.23C242.561 94.9505 242.307 99.3728 242.141 103.179C242.485 102.677 242.858 102.195 243.258 101.736C247.293 97.3825 252.646 96.7176 254.391 101.862C254.964 103.684 255.149 105.606 254.933 107.503C255.891 106.628 257.019 105.958 258.246 105.534C260.452 104.847 261.945 105.47 262.702 106.592ZM237.703 116.93C242.628 117.005 248.657 118.064 252.86 120.482C256.487 122.736 259.639 125.677 262.139 129.14C263.046 130.367 263.851 131.666 264.546 133.025C265.318 133.116 266.097 133.116 266.868 133.025C267.683 132.829 268.41 132.369 268.935 131.716L268.952 131.697L268.973 131.659L268.98 131.64L269.012 131.585L269.019 131.567L269.03 131.549V131.532L269.041 131.513C269.064 131.44 269.078 131.402 269.094 131.353V131.335L269.106 131.301V131.282L269.112 131.265V131.229L269.118 131.211L269.126 131.028V131.009V130.97V130.951V130.932V130.912V130.892C269.113 130.825 269.104 130.781 269.088 130.709L269.08 130.688V130.667V130.646L269.071 130.624V130.603L269.034 130.515C269.004 130.351 268.619 129.373 266.545 128.459C265.208 127.924 263.804 127.569 262.373 127.404C262.124 127.406 261.88 127.337 261.669 127.205C261.458 127.072 261.289 126.883 261.183 126.658C261.063 126.397 261.036 126.104 261.106 125.826C261.177 125.548 261.341 125.303 261.572 125.133C261.961 124.887 262.531 124.8 263.778 124.253C265.048 123.698 268.026 122.015 268.734 120.831C269.021 120.453 269.208 120.009 269.279 119.54C269.35 119.072 269.303 118.592 269.142 118.146C268.98 117.7 268.709 117.302 268.355 116.987C268 116.672 267.572 116.452 267.109 116.345C265.372 115.954 263.55 116.265 262.04 117.209C260.624 117.98 259.328 118.954 258.195 120.101C257.991 120.307 257.721 120.435 257.432 120.464C257.142 120.491 256.852 120.418 256.609 120.257C256.367 120.096 256.189 119.854 256.106 119.576C256.023 119.297 256.04 118.998 256.154 118.73C257.113 116.901 261.704 111.827 260.879 108.518L260.85 108.495C260.847 108.475 260.842 108.455 260.837 108.436L260.828 108.417V108.398L260.818 108.379V108.36L260.808 108.342V108.324C260.65 108.019 260.629 107.991 260.624 107.982L260.614 107.972V107.962L260.604 107.954V107.945L260.594 107.938V107.93L260.584 107.922L260.578 107.915L260.568 107.909V107.902L260.558 107.896V107.89H260.548H260.538V107.884H260.528V107.879L260.508 107.869L260.468 107.851C260.319 107.795 260.16 107.77 260.001 107.778C258.677 107.968 257.452 108.588 256.513 109.541C252.356 113.695 252.652 116.322 250.688 115.764C250.424 115.665 250.201 115.479 250.056 115.237C249.911 114.996 249.851 114.712 249.887 114.432C250.069 113.606 252.178 110.352 252.498 107.319C252.696 105.432 252.547 102.355 251.07 101.143C249.849 100.178 247.653 101.286 246.466 102.232C244.229 103.882 242.636 107.264 241.708 109.891C241.226 111.233 241.297 111.431 240.613 111.795C240.342 111.906 240.042 111.92 239.762 111.835C237.814 111.046 239.814 108.935 239.778 99.9688C239.771 98.4281 239.514 96.1748 238.113 95.5122C237.789 95.3622 237.427 95.3142 237.075 95.3745C236.207 95.625 235.468 96.1987 235.01 96.9774C232.382 100.869 232.235 105.026 231.889 110.05C231.836 110.85 231.859 111.147 231.372 111.597C231.154 111.766 230.886 111.857 230.611 111.856C230.336 111.854 230.069 111.76 229.853 111.589C229.076 110.849 229.555 110.165 227.966 105.982C227.901 105.841 227.684 105.276 227.487 104.912C226.785 103.422 225.112 101.013 223.454 100.976C223.004 101.031 222.574 101.19 222.196 101.441C221.819 101.691 221.504 102.026 221.279 102.419C218.387 106.653 220.49 111.41 222.098 116.265C222.211 116.491 222.246 116.749 222.197 116.997C222.148 117.246 222.019 117.471 221.828 117.638C221.635 117.806 221.391 117.903 221.136 117.913C220.881 117.924 220.63 117.847 220.424 117.696C218.958 116.408 216.252 108.5 212.68 107.38C212.353 107.26 212.001 107.225 211.656 107.277C211.312 107.33 210.986 107.468 210.709 107.68C205.492 112.419 214.069 121.444 214.268 122.841C214.282 123.01 214.251 123.18 214.18 123.333C214.109 123.487 213.999 123.619 213.861 123.718C213.723 123.816 213.562 123.877 213.394 123.894C213.225 123.912 213.055 123.885 212.9 123.817C211.881 123.272 207.934 118.156 203.652 118.13C203.346 118.107 203.04 118.185 202.783 118.352C199.971 120.506 200.938 126.083 204.634 129.142C207.653 131.94 212.154 132.178 216.157 132.531C216.732 132.583 216.511 132.518 217.145 132.851L217.267 133.227C221.457 135.467 224.958 137.456 229.215 137.866C233.536 138.233 237.877 137.472 241.816 135.659C244.549 134.449 247.069 132.806 249.279 130.794C249.46 130.629 249.693 130.531 249.937 130.517C250.181 130.502 250.423 130.572 250.623 130.715C251.4 131.371 250.807 131.481 251.828 137.104C252.253 139.683 253.008 142.198 254.074 144.585C255.787 147.935 257.594 149.989 261.184 151.365C261.452 147.422 261.033 143.461 259.945 139.661C259.394 137.745 258.555 135.925 257.455 134.262C253.136 128.077 245.455 124.15 235.715 124.861C228.964 125.378 227.182 127.535 223.812 128.808C223.332 129.047 222.807 129.183 222.272 129.206C221.737 129.229 221.202 129.14 220.704 128.943C220.382 128.798 220.092 128.592 219.85 128.335C219.504 127.952 219.292 127.466 219.246 126.952C219.245 125.97 219.504 125.005 219.996 124.156C220.761 122.824 221.898 121.743 223.268 121.048C225.441 119.699 227.785 118.645 230.236 117.913C232.658 117.196 235.178 116.864 237.703 116.93Z" fill="#161720"/>
<path fill-rule="evenodd" clip-rule="evenodd" d="M205.105 207.406C205.449 208.123 205.327 207.64 205.491 209.238C205.853 212.667 206.021 216.114 205.992 219.561C206.261 233.072 206.367 232.03 206.466 241.557C206.355 250.709 206.466 249.743 205.578 250.192H205.572L205.035 249.959C204.707 249.218 204.797 249.639 204.666 248.072C203.859 238.389 203.951 237.083 203.763 231.268C203.369 214.619 203.347 214.928 203.531 211.83C203.622 210.287 203.817 208.065 203.833 207.945L204.087 207.404L204.593 207.175H204.603L205.105 207.406Z" fill="#161720"/>
<path fill-rule="evenodd" clip-rule="evenodd" d="M277.005 204.24L277.505 204.486L277.742 205.029C278.277 210.261 278.089 231.433 278.055 232.593C278.024 237.74 277.61 242.877 276.817 247.963C276.525 249.975 276.574 249.628 276.228 250.223L275.673 250.393H275.663C274.654 249.79 275.077 250.657 275.322 242.256C275.988 218.169 275.09 215.877 276.088 206.026C276.24 204.744 276.134 205.138 276.479 204.452L276.994 204.239L277.005 204.24Z" fill="#161720"/>
<path fill-rule="evenodd" clip-rule="evenodd" d="M241.247 242.013C241.944 243.345 241.656 242.533 241.941 245.925C242.108 246.991 242.018 248.081 241.68 249.105L241.372 249.721L240.945 249.989H240.935C240.368 249.699 240.558 249.878 240.122 249.181C239.787 248.426 239.577 247.622 239.499 246.801C239.486 246.655 239.219 243.503 239.283 243.089C239.338 242.841 239.423 242.601 239.538 242.374C239.76 241.911 239.552 242.188 240.461 241.249C240.474 241.259 241.233 241.997 241.247 242.013Z" fill="#161720"/>
<path fill-rule="evenodd" clip-rule="evenodd" d="M144.477 237.11C147.191 240.072 144.852 237.472 149.06 242.946C155.542 250.422 155.194 249.63 154.885 250.687L154.37 250.909L153.758 250.729C154.243 250.729 150.983 249.841 145.73 242.744C144.984 241.809 144.334 240.803 143.789 239.739C143.527 239.129 143.31 238.501 143.14 237.859C143.175 237.073 143.029 237.415 143.437 236.813H143.446L143.954 236.79L144.477 237.11Z" fill="#161720"/>
<path fill-rule="evenodd" clip-rule="evenodd" d="M149.989 227.854C150.633 228.583 151.227 229.356 151.765 230.166C155.018 236.024 155.641 236.626 156.911 238.721C159.174 242.798 158.786 241.838 158.974 242.765L158.718 243.26L158.171 243.371L157.61 243.081C157.125 242.58 155.93 241.363 155.262 240.499C153.152 237.564 151.24 234.491 149.541 231.3C149.166 230.413 148.863 229.497 148.638 228.56C148.671 227.795 148.558 228.066 148.964 227.526L149.476 227.517L149.989 227.854Z" fill="#161720"/>
<path fill-rule="evenodd" clip-rule="evenodd" d="M164.399 231.888L163.822 231.627C162.878 230.8 161.997 229.904 161.186 228.945C159.613 226.849 158.292 224.573 157.253 222.166C156.615 220.93 156.309 219.549 156.365 218.159C156.365 217.839 156.327 218.031 156.549 217.318L156.942 216.998H156.952L157.442 217.117C157.93 217.648 157.851 217.54 157.971 217.783C158.048 217.932 158.933 219.528 159.013 219.802C160.746 224.395 161.864 225.25 164.41 229.632C165.155 230.879 164.965 230.394 165.174 231.235L164.942 231.741V231.747L164.399 231.888Z" fill="#161720"/>
<path fill-rule="evenodd" clip-rule="evenodd" d="M175.016 217.338H175.026L175.407 217.753C175.429 220.456 167.914 234.561 168.799 256.466C168.87 259.841 169.323 264.765 169.479 266.688C170.878 280.097 171.392 279.245 171.098 280.603C171.088 280.603 170.62 280.936 170.613 280.936C170.605 280.936 170.048 280.816 170.04 280.813L169.692 280.318C168.271 274.451 167.246 268.495 166.624 262.49C166.059 255.581 166.158 248.634 166.92 241.744C167.242 238.669 168.141 234.283 168.161 234.162C169.111 229.272 170.686 224.525 172.847 220.036C174.115 217.386 173.949 217.764 174.453 217.325L175.016 217.338Z" fill="#161720"/>
<path fill-rule="evenodd" clip-rule="evenodd" d="M142.11 253.987L142.506 254.398C142.538 256.316 142.173 253.829 140.423 263.461C138.914 271.684 134.873 283.689 137.767 296.019C138.585 299.677 140.195 303.111 142.483 306.08C144.846 309.056 147.964 311.344 151.513 312.703C154.624 313.903 157.967 314.383 161.291 314.106C163.898 313.804 166.449 313.131 168.865 312.108C175.948 309.232 180.374 302.827 184.04 296.235C187.814 289.309 186.745 290.536 187.631 289.752L188.218 289.773L188.619 290.217C188.585 290.994 188.672 290.622 188.196 291.701C185.796 297.06 182.369 304.112 178.187 308.367C175.593 311.147 172.424 313.328 168.9 314.758C165.376 316.187 161.582 316.831 157.784 316.643C152.995 316.322 148.408 314.588 144.604 311.662C140.799 308.735 137.947 304.746 136.408 300.2C134.522 294.587 133.841 288.639 134.41 282.745C135.437 272.261 136.68 270.143 137.9 264.977C138.201 263.827 139.498 257.573 141.098 254.392L141.525 253.986H142.098L142.11 253.987Z" fill="#161720"/>
<path fill-rule="evenodd" clip-rule="evenodd" d="M199.058 212.502L199.333 213.016L199.146 213.571C198.559 213.891 198.69 213.853 198.344 213.904C193.603 214.58 188.392 218.034 184.596 220.965C178.047 226.012 174.068 231.622 169.278 238.176C169.269 238.184 168.791 238.517 168.782 238.524L168.227 238.474L168.217 238.468L167.884 238.024C167.933 237.306 167.903 237.469 168.011 237.227C169.753 233.243 172.173 229.592 175.165 226.436C178.196 222.991 181.621 219.913 185.369 217.266C187.492 215.722 189.815 214.474 192.275 213.557C192.394 213.517 194.245 212.884 194.422 212.884C195.751 212.549 197.112 212.356 198.482 212.309L199.058 212.502Z" fill="#161720"/>
<path fill-rule="evenodd" clip-rule="evenodd" d="M281.385 214.305C288.782 216.317 296.716 219.475 302.705 224.43C307.706 228.464 311.174 232.708 314.739 240.701C321.782 255.704 324.352 271.02 325.571 287.543C325.776 291.152 326.515 295.091 327.144 300.499C327.455 303.064 327.527 305.652 327.359 308.23L327.09 308.766L326.535 308.967H326.524L325.999 308.704L325.794 308.149C326.023 302.887 324.563 296.772 323.918 292.525C322.764 285.504 322.657 276.621 319.811 263.815C318.532 257.642 316.674 251.604 314.261 245.781C312.185 240.944 309.313 234.641 305.737 230.737C304.726 229.609 303.646 228.544 302.505 227.548C296.873 222.478 288.55 218.436 280.925 215.782L280.481 215.394C280.481 215.378 280.424 214.829 280.425 214.814L280.797 214.38L281.385 214.305Z" fill="#161720"/>
<path fill-rule="evenodd" clip-rule="evenodd" d="M293.341 314.287C292.848 313.718 292.978 314.017 292.104 312.028C291.549 310.747 291.725 311.264 289.829 304.738C289.537 303.864 289.444 302.936 289.559 302.021L290.091 301.073L291.04 301.605C291.41 302.146 291.736 302.716 292.013 303.31C292.079 303.482 293.856 309.507 294.026 310.296C294.114 310.686 294.298 312.019 294.311 312.211C294.435 313.654 294.459 313.185 294.287 314.036L293.883 314.402C293.867 314.401 293.355 314.29 293.341 314.287Z" fill="#161720"/>
<path fill-rule="evenodd" clip-rule="evenodd" d="M193.748 313.336C191.355 293.023 187.106 271.898 196.897 252.825C206.758 250.549 266.503 250.294 285.919 251.937C292.731 272.71 288.101 293.86 284.08 314.673" fill="#161720"/>
<path fill-rule="evenodd" clip-rule="evenodd" d="M284.826 250.597C286.245 250.688 286.25 250.696 286.609 250.894C287.128 251.296 287.108 251.567 287.427 252.541C293.651 272.906 289.249 292.945 285.046 313.848C284.804 315.024 284.935 314.696 284.511 315.328L283.933 315.451H283.923L283.431 315.118C283.258 314.288 283.235 314.917 283.669 312.571C287.28 292.74 286.71 293.96 286.829 293.96C288.866 279.056 289.14 267.125 284.983 253.12C284.969 253.12 284.36 253.071 280.311 252.825C262.2 252.034 243.928 252.004 226.762 252.316C222.982 252.386 201.343 252.892 197.745 253.93C194.932 259.7 193.151 265.918 192.481 272.302C190.533 290.051 195.06 311.431 194.349 313.816L193.845 314.106H193.839L193.284 313.944L192.989 313.434C190.114 292.781 185.792 271.463 195.553 252.717C196.15 251.496 196.203 251.621 199.15 251.181C217.069 249.141 269.343 249.287 284.826 250.597Z" fill="#161720"/>
<path fill-rule="evenodd" clip-rule="evenodd" d="M185.441 199.167C183.374 198.474 181.521 197.259 180.062 195.639C176.441 201.307 173.02 205.977 168.561 212.239C167.562 213.642 165.367 217.062 166.486 218.876C168.347 221.909 171.859 217.243 173.128 215.492C177.989 208.757 180.168 205.851 185.462 199.088" fill="#161720"/>
<path fill-rule="evenodd" clip-rule="evenodd" d="M180.264 194.529C180.77 194.676 180.808 194.784 181.146 195.182C182.314 196.523 183.763 197.59 185.391 198.306L185.96 198.45L186.239 198.969C186.135 199.344 186.15 199.241 186.164 199.419L186.097 199.486L186.076 199.564C174.567 215.437 174.065 216.658 172.031 218.82C171.073 220.022 169.715 220.839 168.205 221.122C167.676 221.147 167.151 221.03 166.682 220.783C166.214 220.537 165.82 220.17 165.541 219.72C165.188 219.146 164.976 218.496 164.922 217.824C164.868 217.153 164.972 216.478 165.228 215.854C166.064 213.13 168.195 210.625 172.898 203.99C179.631 194.303 179.199 194.433 180.264 194.529ZM167.709 216.357C167.496 216.867 167.413 217.422 167.466 217.972V217.993C167.479 218.037 167.491 218.068 167.512 218.133L167.518 218.143L167.529 218.163V218.173V218.178V218.188C167.575 218.263 167.627 218.335 167.683 218.402C167.714 218.442 167.771 218.502 167.772 218.503H167.783L167.793 218.513L167.8 218.522H167.81H167.821L167.836 218.536H167.847L167.859 218.546L167.87 218.556H167.88L167.901 218.565H167.911H167.922H167.932H167.952L168.075 218.556L168.089 218.549H168.109L168.125 218.542H168.14H168.149H168.165L168.18 218.536H168.195L168.24 218.518H168.255C168.301 218.502 168.279 218.507 168.326 218.492L168.34 218.481C168.445 218.441 168.546 218.393 168.642 218.336C170.343 217.328 172.17 214.553 173.361 212.912C176.531 208.518 180.751 203.417 184.023 199.481C183.442 199.268 182.876 199.015 182.33 198.722C181.601 198.342 180.912 197.888 180.276 197.368C175.294 205.641 168.621 213.482 167.703 216.357H167.709Z" fill="#161720"/>
<path fill-rule="evenodd" clip-rule="evenodd" d="M202.881 133.355C211.939 133.601 220.543 137.375 226.857 143.874C233.172 150.372 236.698 159.081 236.683 168.142C236.684 171.215 236.303 174.277 235.55 177.257V177.273C233.406 185.58 228.349 192.841 221.299 197.731C214.249 202.622 205.676 204.815 197.144 203.913C194.17 203.622 191.247 202.941 188.451 201.887C181.718 199.386 175.892 194.917 171.732 189.062C167.571 183.206 165.269 176.235 165.122 169.053C165.026 163.653 166.186 158.304 168.509 153.429C170.082 150.127 172.155 147.089 174.655 144.42C178.234 140.583 182.627 137.598 187.512 135.683C192.397 133.768 197.649 132.973 202.881 133.355ZM197.354 136.163C191.912 136.866 186.738 138.942 182.318 142.194C177.898 145.446 174.378 149.768 172.087 154.754C169.782 159.797 168.828 165.353 169.318 170.876C169.976 178.918 173.68 186.406 179.673 191.809C185.667 197.212 193.497 200.122 201.565 199.945C209.632 199.768 217.327 196.516 223.078 190.855C228.828 185.194 232.199 177.551 232.503 169.487C232.566 167.614 232.472 165.738 232.221 163.88C231.721 160.29 230.598 156.814 228.904 153.61C225.778 147.504 220.814 142.535 214.713 139.402C209.41 136.531 203.339 135.398 197.358 136.163H197.354ZM202.881 133.359C202.398 133.349 202.396 133.348 202.881 133.359V133.359Z" fill="#161720"/>
<path d="M211.782 164.699C211.929 161.316 209.992 158.483 207.454 158.373C204.917 158.262 202.74 160.915 202.593 164.298C202.445 167.682 204.383 170.514 206.92 170.624C209.457 170.735 211.634 168.082 211.782 164.699Z" fill="#161720"/>
<path fill-rule="evenodd" clip-rule="evenodd" d="M207.348 157.058C208.116 157.027 208.884 157.131 209.616 157.367C212.184 158.35 214.019 160.986 213.863 164.589C213.837 165.582 213.668 166.567 213.362 167.512C213.022 168.683 212.4 169.752 211.551 170.625C210.701 171.499 209.65 172.15 208.489 172.522C207.537 172.763 206.539 172.757 205.59 172.502C204.641 172.248 203.774 171.754 203.07 171.069C202.207 170.243 201.543 169.231 201.129 168.109C199.171 163.041 202.345 156.843 207.348 157.058ZM207.408 159.664C204.928 160.108 204.221 163.613 204.834 166.052C204.917 166.599 205.143 167.114 205.487 167.547C205.832 167.98 206.283 168.316 206.798 168.52H206.823L206.843 168.527H206.869H206.894H206.914L206.94 168.534H207.083H207.108H207.134H207.154H207.181H207.2H207.226C207.699 168.398 208.132 168.149 208.488 167.809C208.844 167.469 209.112 167.048 209.27 166.582C210.465 163.934 209.021 160.121 207.409 159.644L207.408 159.664Z" fill="#161720"/>
<path fill-rule="evenodd" clip-rule="evenodd" d="M225.084 157.243L225.242 157.828C225.185 160.131 224.992 162.429 224.662 164.71C224.209 168.3 224.226 170.14 223.168 179.021C222.915 179.997 222.783 181.001 222.777 182.01L222.785 182.062V182.088C222.8 182.192 222.826 182.294 222.864 182.393L222.874 182.403V182.419L222.884 182.43V182.445L222.893 182.461L222.903 182.472C223.04 182.703 223.444 182.884 224.116 183.027C224.504 183.1 224.27 183 224.939 183.37L225.136 183.905V183.91L224.868 184.42C224.241 184.658 224.362 184.649 223.949 184.631C223.395 184.668 222.841 184.562 222.34 184.323C221.839 184.085 221.408 183.721 221.088 183.268C220.819 182.772 220.667 182.221 220.644 181.657C220.506 178.639 221.473 172.151 221.692 169.363C221.842 167.975 221.707 167.974 222.376 162.79C222.647 160.993 223.103 159.229 223.736 157.526L224.109 157.056L224.636 156.931C224.653 156.931 225.069 157.233 225.084 157.243Z" fill="#161720"/>
<path fill-rule="evenodd" clip-rule="evenodd" d="M196.876 141.474C198.111 141.464 199.327 141.78 200.4 142.39C200.877 142.665 201.287 143.043 201.602 143.495C201.916 143.947 202.127 144.463 202.22 145.006C202.927 149.557 195.354 154.185 192.035 157.02C190.136 158.7 188.454 160.278 185.93 160.625C182.43 160.822 181.307 157.381 181.863 153.953C182.018 153.015 182.334 152.112 182.798 151.283C184.89 147.273 188.339 144.136 192.528 142.431C194.132 141.784 193.891 141.876 194.463 141.901L194.727 141.713C195.431 141.544 196.153 141.464 196.876 141.474ZM195.035 143.25L194.695 143.174C191.935 144.68 189.463 146.662 187.392 149.029C186.274 150.264 185.356 151.667 184.67 153.186C184.378 153.895 184.23 154.654 184.234 155.421C184.239 156.187 184.395 156.946 184.695 157.651V157.667L184.709 157.682L184.728 157.714L184.738 157.724L184.757 157.757L184.767 157.767L184.777 157.782L184.796 157.804L184.806 157.82L184.816 157.83L184.83 157.841V157.852L184.846 157.862L184.885 157.905H184.895L184.914 157.926H184.924L184.934 157.937H184.944L184.954 157.947H184.964L184.974 157.959L185.004 157.975L185.012 157.985L185.112 158.041H185.128C185.142 158.05 185.157 158.057 185.173 158.063H185.183C185.192 158.066 185.201 158.069 185.209 158.074H185.223H185.233H185.249C185.257 158.079 185.266 158.083 185.274 158.085H185.304L185.32 158.092H185.35H185.365L185.575 158.101H185.595H185.621H185.642H185.667H185.687C186.209 158.02 186.711 157.848 187.173 157.592C187.95 157.15 188.677 156.622 189.338 156.019C194.683 151.446 197.398 150.064 199.439 147.111C199.61 146.852 199.758 146.58 199.883 146.297C199.978 146.085 200.042 145.861 200.075 145.631L200.082 145.606V145.555V145.534L200.088 145.392V145.371V145.305V145.285V145.263L200.08 145.222V145.202L200.071 145.16V145.14C200.055 145.067 200.044 145.019 200.037 144.98L200.027 144.965L200.019 144.924L200.01 144.907V144.887L200 144.872V144.851C199.993 144.839 199.986 144.827 199.981 144.814V144.793C199.832 144.477 199.599 144.208 199.308 144.016C199.188 143.929 199.064 143.849 198.935 143.775L198.904 143.763L198.88 143.747C197.677 143.198 196.337 143.025 195.035 143.25Z" fill="#161720"/>
<path fill-rule="evenodd" clip-rule="evenodd" d="M181.754 167.277C182.346 167.637 182.247 167.542 182.309 167.721C182.576 167.698 182.407 167.681 182.706 167.764C183.063 167.879 183.405 168.037 183.724 168.233C184.391 168.669 184.954 169.246 185.373 169.923C185.792 170.601 186.058 171.362 186.15 172.153C186.351 173.481 186.195 174.839 185.697 176.087C185.427 176.9 184.968 177.638 184.358 178.24C183.748 178.841 183.004 179.29 182.187 179.549C181.37 179.809 180.504 179.871 179.658 179.731C178.813 179.591 178.012 179.253 177.323 178.744C175.09 177.229 174.528 174.022 175.429 171.492C175.68 170.556 176.154 169.695 176.812 168.983C177.469 168.271 178.29 167.73 179.203 167.406C180.028 167.145 180.906 167.101 181.754 167.277ZM181.554 168.808C181.055 168.843 180.569 168.99 180.134 169.237C179.477 169.649 178.923 170.206 178.515 170.865C178.271 171.207 178.072 171.58 177.924 171.975C177.824 172.259 177.738 172.549 177.667 172.843C177.286 174.387 177.73 176.309 179.181 176.928C179.882 177.281 180.69 177.361 181.447 177.15C181.899 176.966 182.306 176.689 182.642 176.336C182.978 175.983 183.236 175.562 183.398 175.103C183.54 174.787 183.655 174.46 183.742 174.126C183.876 173.601 183.942 173.06 183.939 172.518C183.942 171.907 183.815 171.302 183.567 170.742C183.261 170.037 182.699 169.475 181.993 169.17L181.616 168.801C181.596 168.807 181.575 168.81 181.554 168.811V168.808Z" fill="#161720"/>
<path fill-rule="evenodd" clip-rule="evenodd" d="M28.7267 149.359C31.8315 149.456 34.8978 150.075 37.7965 151.192C41.7404 152.615 41.0466 152.302 41.6283 152.817L41.696 153.372L41.6904 153.382L41.323 153.811L40.7369 153.893C37.0601 152.864 33.2921 152.195 29.486 151.895C28.4377 151.759 27.3721 151.905 26.3991 152.318L26.3724 152.326C25.6597 152.761 25.0644 153.363 24.6386 154.081H24.633C23.7184 155.759 23.0607 157.564 22.6817 159.437C21.5949 164.24 21.235 169.179 21.6139 174.089C21.8203 177.019 22.3054 180.674 24.5653 182.525C27.3403 184.806 32.9037 184.19 36.489 183.623C39.5514 183.187 38.6967 183.121 39.678 183.343L40.011 183.828L39.8833 184.401L39.3883 184.743C36.7769 185.396 34.1268 185.883 31.454 186.201C27.9453 186.567 23.765 185.878 21.6638 183.065C17.9719 178.635 18.7434 165.527 20.0221 159.837C20.7925 156.385 21.8614 152.289 24.814 150.338C25.3343 149.997 25.9068 149.742 26.509 149.584C27.2348 149.41 27.9808 149.334 28.7267 149.359Z" fill="#161720"/>
<path fill-rule="evenodd" clip-rule="evenodd" d="M29.3485 153.416C30.2231 154.305 30.9078 155.363 31.3609 156.524C32.3077 158.986 32.4243 162.767 32.4321 165.404C32.3855 168.78 31.9576 172.139 31.1567 175.418V175.428C30.8004 176.799 30.9114 176.327 30.7904 176.783C30.1388 178.707 29.5072 180.659 27.7712 181.889L27.1873 182.038L26.6767 181.765L26.5369 181.216L26.8066 180.67C27.8056 179.774 28.3351 177.556 28.5648 176.23C29.5561 170.791 30.3242 166.906 29.7559 161.089C29.5516 159.133 29.1742 157.328 29.1431 157.204C28.972 156.205 28.6371 155.242 28.1519 154.352L28.0354 153.759L28.2807 153.279L28.8135 153.149L29.3485 153.416Z" fill="#161720"/>
<path fill-rule="evenodd" clip-rule="evenodd" d="M30.2732 156.954C27.4249 161.276 27.012 165.689 26.7722 170.287C26.7208 171.255 26.7382 172.225 26.8244 173.19C26.9087 174.078 26.9298 176.866 27.7912 177.519C27.9155 177.617 28.4572 177.108 28.556 177.001C30.7638 174.622 30.9114 165.471 30.9192 162.211C30.9092 161.612 30.9458 157.717 29.6338 158.253" fill="#161720"/>
<path fill-rule="evenodd" clip-rule="evenodd" d="M30.6903 156.309L30.7003 156.315L30.9967 156.782C30.8945 157.559 30.97 157.25 30.7414 157.722C31.7326 158.494 31.9102 161.224 31.9446 162.484C32.1855 166.334 31.9934 173.886 29.9943 177.195C29.3028 178.242 28.1318 179.258 27.0617 178.535C26.0427 177.768 25.7841 176.078 25.6842 174.715C25.547 173.381 25.4877 172.039 25.5066 170.698C25.7564 164.969 26.1537 161.06 29.6369 156.533V156.528L30.1464 156.218L30.6903 156.309ZM28.1762 167.88C28.0421 169.267 27.9866 170.662 28.0097 172.056C28.0097 172.243 28.1784 174.814 28.2428 175.139C29.5415 171.75 30.0432 161.806 29.8634 159.791C28.9665 162.407 28.3997 165.124 28.1762 167.88Z" fill="#161720"/>
<path fill-rule="evenodd" clip-rule="evenodd" d="M61.827 147.566C61.8859 147.579 82.4863 152.847 83.119 153.029C88.8622 154.594 90.1831 154.964 91.5972 155.644C92.7112 156.154 93.6875 156.923 94.4455 157.885C95.9873 159.878 96.4435 162.907 96.5667 165.419C96.6354 166.825 96.5276 168.234 96.2459 169.614C95.812 171.342 95.2749 173.044 94.6375 174.708L94.2501 175.152L93.6796 175.215C93.6718 175.206 93.2445 174.844 93.2356 174.837C93.1124 173.767 93.0535 175.059 94.2013 170.397C94.3819 169.591 94.4933 168.771 94.5343 167.946C94.6453 165.384 94.0592 160.818 92.3443 159.177C91.1321 157.179 79.6547 154.777 67.4803 151.629C63.0236 150.476 56.3658 148.45 51.7749 148.822C50.8524 148.918 49.9936 149.337 49.3506 150.005C48.7939 150.556 48.2747 151.143 47.7966 151.764C46.6535 153.269 45.6992 154.91 44.955 156.648C43.5102 160.114 42.635 163.79 42.3632 167.536C42.0508 171.1 42.3226 174.691 43.1679 178.167C43.5025 179.648 44.1597 181.037 45.0927 182.235C48.2073 185.999 56.2903 184.993 61.1333 184.514H61.1388L61.7138 184.687L62.0091 185.197V185.207L61.847 185.772L61.322 186.072C60.8114 186.049 54.3401 187.394 49.2463 186.579C42.4298 185.489 40.9457 180.416 39.9711 173.736C39.1858 166.491 40.6286 159.179 44.107 152.775C45.2832 150.637 46.8782 148.759 48.7967 147.251C49.3982 146.894 50.0517 146.631 50.7337 146.474C53.8484 145.828 57.6534 146.663 61.827 147.566Z" fill="#161720"/>
<path fill-rule="evenodd" clip-rule="evenodd" d="M39.0299 162.333V162.313L39.0599 162.33L39.0954 162.341V162.321L39.1609 162.344V162.319C39.1805 162.327 39.201 162.333 39.222 162.336V162.311L39.2675 162.323L39.2586 162.296L39.3085 162.31L39.2997 162.283H39.3452L39.3363 162.258H39.3774L39.3685 162.232L39.3829 162.238H39.404L39.3896 162.211H39.4051H39.4195L39.4007 162.184H39.4051H39.4195C39.4138 162.175 39.4075 162.166 39.4007 162.158L39.3907 162.148H39.3962H39.3907L39.4007 162.158L39.3907 162.148L39.4007 162.158V162.152L39.4095 162.163H39.4195L39.4295 162.174H39.4395V162.18L39.4795 162.202H39.4895C39.7839 162.302 40.0846 162.381 40.3897 162.441C40.6461 162.552 40.6816 162.625 40.8781 162.723C41.4186 163.153 40.7671 162.521 42.0436 163.802C41.0723 164.535 40.9935 164.675 40.1566 164.875C40.0154 164.897 39.8713 164.891 39.7325 164.857C38.81 164.752 37.9599 164.306 37.3483 163.607V163.602C37.253 163.41 37.2089 163.197 37.2199 162.983C37.231 162.769 37.297 162.562 37.4115 162.381L38.9456 162.27L39.0299 162.333Z" fill="#161720"/>
<path fill-rule="evenodd" clip-rule="evenodd" d="M41.2787 172.905C41.6117 173.091 41.2865 172.806 42.2833 173.818C41.8525 174.297 41.3291 174.683 40.7448 174.953L40.5883 175.023H40.5828C40.5331 175.038 40.4845 175.056 40.4374 175.078C40.0307 175.124 39.6374 175.251 39.2807 175.452L39.2641 175.467L39.2486 175.477H39.243L39.2175 175.491L39.2019 175.505L39.1697 175.524L39.1542 175.54L39.1387 175.549L39.1109 175.573L39.0687 175.612L39.0521 175.622L39.0154 175.656H39.0044H38.9844L38.9633 175.665H38.9533H38.9377C38.9377 175.665 38.5271 175.675 38.5071 175.676C38.2296 175.664 38.6125 175.879 37.0774 174.816V174.806C37.1174 173.889 37.2406 173.839 37.7334 173.464C38.1157 173.189 38.5395 172.976 38.9888 172.834C39.3501 172.668 39.7449 172.588 40.1421 172.601C40.5393 172.613 40.9284 172.717 41.2787 172.905Z" fill="#161720"/>
<path fill-rule="evenodd" clip-rule="evenodd" d="M53.371 150.924L53.4043 150.968H53.4143C54.5536 152.201 55.4204 153.661 55.9585 155.251C56.2626 156.31 56.2049 155.942 56.1993 156.059C56.2382 156.208 56.3381 156.654 56.3636 156.773C56.98 159.871 57.1842 163.037 56.9708 166.188C56.7887 169.653 56.0492 173.066 54.7808 176.296C53.7818 178.699 52.5208 182.036 49.9267 182.29C49.2607 182.261 49.5293 182.379 48.8056 181.957L48.6313 181.402V181.392L48.9188 180.898L49.4894 180.704H49.5304H49.546H49.5815H49.597H49.617H49.6326H49.6481H49.6636H49.6792H49.6892H49.7047L49.7513 180.69H49.7669C49.7669 180.69 49.8856 180.649 49.9167 180.64L49.9278 180.63C49.9366 180.628 49.9452 180.625 49.9534 180.621L49.9689 180.611H49.9844C49.9933 180.611 50.0244 180.591 50.0377 180.584L50.0477 180.574C50.2453 180.517 50.6615 180.112 51.11 179.305V179.295C51.6438 178.187 52.0773 177.034 52.4054 175.848C53.282 173.442 53.8982 170.949 54.2435 168.411C54.6215 165.519 54.639 162.591 54.2957 159.695C54.142 158.429 53.9134 157.174 53.6108 155.936C53.3156 154.515 52.8228 153.142 52.1467 151.858L52.0357 151.265L52.2977 150.786L52.8349 150.666L53.371 150.924Z" fill="#161720"/>
<path fill-rule="evenodd" clip-rule="evenodd" d="M53.9715 154.512C50.7725 156.096 49.4904 159.697 48.729 162.948C48.1995 165.187 47.6934 170.992 48.1318 173.022C48.5347 175.1 50.0865 179.281 51.8503 177.819C55.2913 174.966 55.4112 164.737 55.2491 160.261C55.1881 158.505 55.0737 156.208 53.7517 154.852" fill="#161720"/>
<path fill-rule="evenodd" clip-rule="evenodd" d="M54.6564 154.162V154.172L54.6841 154.715C55.4469 155.734 55.9191 156.941 56.0505 158.207C56.2519 159.808 56.3711 161.417 56.4079 163.03C56.5956 166.718 56.2277 170.414 55.3168 173.993C54.723 176.201 53.22 179.481 50.98 179.384C49.0653 179.299 47.9398 176.748 47.3437 174.924C46.6988 172.679 46.5356 172.076 46.8686 167.176C46.9197 166.008 47.236 164.045 47.286 163.696C48.1007 159.544 49.6802 155.582 53.5508 153.853C53.6696 153.808 53.5364 153.828 54.2168 153.806L54.6564 154.162ZM49.7568 164.146C49.4756 165.9 49.3043 167.671 49.244 169.447C49.2014 170.492 49.2277 171.539 49.3228 172.581C49.581 174.104 50.1785 175.549 51.0711 176.81L51.0866 176.821C51.249 176.679 51.3976 176.523 51.5306 176.353C54.0936 173.428 54.5831 159.989 54.0414 157.341C53.9744 156.985 53.8713 156.636 53.734 156.3C53.6635 156.123 53.5784 155.951 53.4798 155.787C51.272 157.822 50.4295 160.95 49.7568 164.146Z" fill="#161720"/>
<path fill-rule="evenodd" clip-rule="evenodd" d="M53.3965 159.824C53.437 160.5 53.3128 161.176 53.0346 161.794C51.5916 165.711 52.4519 164.577 50.9356 168.53L50.5549 169.056L50.0609 169.234H50.051L49.6169 168.942C49.4242 168.567 49.3285 168.149 49.3383 167.728C49.2752 167.068 49.2752 166.404 49.3383 165.744C49.639 164.085 50.095 162.457 50.7003 160.883C50.8807 160.327 51.2142 159.833 51.6627 159.458C52.1189 159.04 51.817 159.193 53.0624 158.792L53.3965 159.824Z" fill="white"/>
<path fill-rule="evenodd" clip-rule="evenodd" d="M30.0811 166.198C30.0581 167.027 29.8642 167.842 29.5116 168.592C29.2741 169.137 29.5017 168.847 28.4982 169.771C27.699 168.748 27.8034 168.974 27.6879 168.439C27.4256 167.208 27.4373 165.934 27.7223 164.707C27.8655 163.345 27.86 163.321 27.9721 163.077C28.1244 162.809 28.2946 162.551 28.4816 162.306L29.334 161.633C30.6239 163.251 30.4285 162.929 30.0811 166.198Z" fill="white"/>
<path fill-rule="evenodd" clip-rule="evenodd" d="M97.0428 165.885C97.8703 165.835 98.688 166.086 99.3438 166.593C101.141 167.906 101.453 170.7 101.152 172.856C100.638 176.42 98.3226 178.158 95.7197 178.045C95.2652 178.009 94.8195 177.899 94.3999 177.721L93.9559 177.298C93.9559 177.29 93.8871 176.743 93.8882 176.743L94.2589 176.335C95.3922 176.157 95.43 176.328 96.0438 176.096C96.3967 175.978 96.7241 175.794 97.0084 175.554C97.6101 175.059 98.0777 174.42 98.3681 173.696C98.8643 172.497 98.9442 169.578 98.0196 168.777V168.767L98.0052 168.756L97.9874 168.72C97.9808 168.72 97.8342 168.588 97.8298 168.586C97.7645 168.547 97.7015 168.505 97.6411 168.459H97.6311C97.4866 168.355 97.3353 168.262 97.1782 168.178C96.9825 168.061 96.774 167.966 96.5566 167.895C96.2802 167.784 95.7175 167.618 95.5976 167.583L95.0692 167.258L94.865 166.789L95.1103 166.339L95.6653 166.056H95.6908C96.1341 165.951 96.5874 165.894 97.0428 165.885Z" fill="#161720"/>
<path fill-rule="evenodd" clip-rule="evenodd" d="M140.368 213.918C140.537 214.879 140.764 214.506 137.197 217.563C135.573 218.975 127.576 225.055 123.034 227.952C123.012 227.967 122.746 228.157 122.733 228.164L122.152 228.348L121.648 228.178L121.461 227.684L121.634 227.098V227.093C121.745 226.962 121.614 227.072 122.552 225.881C123.605 224.665 124.837 223.617 126.206 222.773C132.08 218.592 132.694 217.453 139.246 213.746L139.87 213.635L140.368 213.918Z" fill="#161720"/>
<path fill-rule="evenodd" clip-rule="evenodd" d="M236.033 291.828C236.617 292.157 237.169 292.541 237.681 292.973C240.012 295.626 241.709 296.646 243.724 298.669C244.583 299.535 244.202 298.991 244.711 299.842L244.662 300.376L244.204 300.663L243.562 300.61C242.492 300.222 241.474 299.705 240.529 299.072C239.179 298.006 237.905 296.847 236.718 295.602C235.86 294.864 235.224 293.904 234.879 292.827L234.869 292.811L234.963 291.731L236.033 291.828Z" fill="#161720"/>
<path fill-rule="evenodd" clip-rule="evenodd" d="M150.212 48.5364C155.338 50.6564 159.908 53.9405 163.565 58.1321C167.223 62.3238 169.868 67.3098 171.296 72.7009C172.864 77.948 173.222 83.4863 172.343 88.894C171.464 94.3016 169.372 99.4361 166.224 103.906C162.981 108.526 158.69 112.299 153.707 114.914C151.247 116.225 148.644 117.243 145.951 117.95C141.061 119.242 135.958 119.498 130.965 118.7C125.972 117.901 121.199 116.067 116.948 113.312C90.3351 95.338 97.2686 56.7271 125.051 47.6241C133.273 44.8663 142.208 45.1902 150.212 48.5364ZM130.956 49.041C125.455 50.0009 120.278 52.3253 115.892 55.8041C111.507 59.2829 108.05 63.8068 105.836 68.9672C103.621 74.1276 102.718 79.762 103.208 85.3619C103.697 90.9617 105.564 96.3506 108.64 101.042C111.716 105.733 115.904 109.58 120.826 112.234C125.748 114.887 131.249 116.265 136.832 116.242C142.416 116.22 147.905 114.798 152.806 112.104C157.707 109.41 161.864 105.53 164.902 100.814C167.606 96.729 169.409 92.108 170.19 87.2622C170.971 82.4165 170.713 77.4585 169.431 72.7219L169.417 72.7264C164.285 55.9342 147.356 45.906 130.956 49.041ZM171.291 72.7016C171.132 72.1835 171.147 72.224 171.291 72.7016V72.7016Z" fill="#161720"/>
<path fill-rule="evenodd" clip-rule="evenodd" d="M135.007 68.9079C135.252 70.8053 136.026 80.2202 136.054 80.6181C136.131 81.5608 136.248 83.4292 136.249 83.4351C138.511 83.6001 144.198 83.3015 147.734 83.3187C148.714 83.3254 148.472 83.2933 148.963 83.4866L149.14 83.8509V83.8561L148.986 84.2293C148.377 84.513 149.071 84.3316 146.149 84.6302C142.109 85.043 139.322 85.3968 135.538 85.1303C135.359 85.1462 135.179 85.1134 135.019 85.0357C134.858 84.9579 134.723 84.8381 134.628 84.6899C134.491 84.4197 134.521 84.5048 134.438 83.1119C133.948 74.9205 133.173 71.8369 133.398 65.5608C133.414 65.1734 133.371 65.3541 133.574 64.8778L133.931 64.7062H133.935C134.608 64.9607 134.419 64.5718 135.007 68.9079Z" fill="#161720"/>
<path fill-rule="evenodd" clip-rule="evenodd" d="M111.141 82.0665C111.474 82.1059 111.805 82.167 112.129 82.2492C112.327 82.2946 112.202 82.2492 112.667 82.4592L112.841 82.7109C112.658 83.0396 112.773 82.9303 112.326 83.1819C111.976 83.3033 111.617 83.3997 111.251 83.4703C110.994 83.5091 110.733 83.5249 110.472 83.5175C108.404 83.597 108.737 83.7412 108.126 83.5492C107.816 83.4572 108.022 83.5566 107.318 83.1347C107.771 82.5232 107.642 82.655 107.904 82.471C108.072 82.3508 108.266 82.2628 108.474 82.2125C109.358 82.1119 110.249 82.0631 111.141 82.0665Z" fill="#161720"/>
<path fill-rule="evenodd" clip-rule="evenodd" d="M164.292 81.2886C164.561 81.2833 164.83 81.2969 165.088 81.3289C165.15 81.3352 165.457 81.3751 165.493 81.3808C166.018 81.4613 165.754 81.3882 166.5 81.6689C165.851 81.9646 166.046 81.911 165.515 81.9924C164.743 82.1245 163.817 82.0327 162.454 82.0639C162.229 82.0737 162.004 82.0485 161.818 81.9928C161.524 81.9321 161.754 81.9961 160.976 81.7544C161.509 81.4332 161.39 81.4915 161.632 81.4117C161.828 81.3323 162.085 81.2872 162.353 81.2853C163.051 81.2709 163.547 81.2782 164.292 81.2886Z" fill="#161720"/>
<path fill-rule="evenodd" clip-rule="evenodd" d="M134.083 53.2746C134.259 53.4697 134.407 53.6775 134.525 53.8949C134.598 54.1942 134.649 54.4961 134.679 54.7993C134.887 56.2622 135.183 57.0035 134.568 58.2044L134.238 58.3934H134.227L133.85 58.2674L133.528 57.916C133.32 57.5555 133.142 57.186 132.996 56.8095C132.91 56.5255 132.599 54.4598 132.599 54.3874C132.537 54.146 132.57 53.8965 132.694 53.6682C132.971 53.2274 132.576 53.5971 133.413 52.8697L134.083 53.2746Z" fill="#161720"/>
<path fill-rule="evenodd" clip-rule="evenodd" d="M137.107 112.18C136.843 111.573 136.694 110.888 136.672 110.185C136.461 108.362 136.49 108.761 136.593 108.235C136.731 107.8 136.636 108.033 137.041 107.318C137.308 107.531 137.538 107.821 137.713 108.167C137.843 108.425 137.814 108.377 137.898 109.099C138.089 110.894 138.157 110.939 138.021 111.875C137.969 112.237 138.021 112.073 137.626 112.841C137.074 112.219 137.171 112.354 137.107 112.18Z" fill="#161720"/>
</svg>
