<svg width="284" height="284" viewBox="0 0 284 284" fill="none" xmlns="http://www.w3.org/2000/svg">
<path fill-rule="evenodd" clip-rule="evenodd" d="M109.342 174.688C113.599 170.115 119.882 163.366 121.86 164.497C122.87 165.085 126.038 170.568 128.045 174.042C128.599 175.002 129.065 175.808 129.372 176.315C129.372 178.317 129.417 203.435 129.248 203.899C129.208 203.987 129.15 204.06 129.077 204.114C129.005 204.167 125.664 204.247 125.578 204.253C125.297 204.242 125.257 204.195 124.737 203.582C124.681 203.516 124.62 203.444 124.552 203.364C123.638 202.271 122.303 200.477 120.948 198.657C119.435 196.624 117.898 194.559 116.896 193.399C116.837 193.337 116.819 193.311 116.801 193.311C116.785 193.312 116.768 193.336 116.719 193.375C115.534 194.359 112.099 198.499 108.677 202.624C105.376 206.603 102.087 210.567 100.84 211.671C99.3104 213.107 98.7254 212.408 88.6588 200.34C87.172 198.548 86.7509 198.054 85.7494 196.945C84.836 197.783 82.8806 200.118 80.8046 202.597C78.6973 205.114 76.4657 207.78 75.0734 209.177C73.9678 210.238 73.4349 210.703 71.4978 209.288C69.5452 207.866 66.8071 205.005 64.3306 202.419C62.6938 200.709 53.4063 198.022 52.3004 197.045C52.0426 196.815 51.8916 196.753 51.7796 196.638C51.3666 196.217 50.3127 184.276 51.3838 182.525C49.7319 174.832 50.6676 170.154 51.7796 166.211C51.3319 164.442 51.7844 163.605 51.7796 163.413C51.7853 163.255 51.8266 163.102 51.8995 162.969C51.9724 162.835 52.0744 162.725 52.1955 162.651C52.3166 162.576 52.4526 162.538 52.5902 162.542C52.7278 162.545 52.8621 162.59 52.9802 162.671C52.9967 162.685 53.1499 162.827 53.4168 163.075C55.8467 165.334 67.6933 176.349 71.409 178.561C72.0915 178.169 75.0146 175.548 78.3702 172.538C82.9573 168.425 88.3527 163.586 89.9374 162.727C90.6724 162.306 91.017 162.517 91.775 163.218C93.1084 164.469 95.8587 167.617 98.5717 170.722C102.052 174.707 105.472 178.621 105.76 178.368C106.458 177.786 107.76 176.387 109.342 174.688Z" fill="#BCF0F5"/>
<path fill-rule="evenodd" clip-rule="evenodd" d="M109.342 174.688C113.599 170.115 119.882 163.366 121.86 164.497C122.87 165.085 126.038 170.568 128.045 174.042C128.599 175.002 129.065 175.808 129.372 176.315C129.372 178.317 129.417 203.435 129.248 203.899C129.208 203.987 129.15 204.06 129.077 204.114C129.005 204.167 125.664 204.247 125.578 204.253C125.297 204.242 125.257 204.195 124.737 203.582C124.681 203.516 124.62 203.444 124.552 203.364C123.638 202.271 122.303 200.477 120.948 198.657C119.435 196.624 117.898 194.559 116.896 193.399C116.837 193.337 116.819 193.311 116.801 193.311C116.785 193.312 116.768 193.336 116.719 193.375C115.534 194.359 112.099 198.499 108.677 202.624C105.376 206.603 102.087 210.567 100.84 211.671C99.3104 213.107 98.7254 212.408 88.6588 200.34C87.172 198.548 86.7509 198.054 85.7494 196.945C84.836 197.783 82.8806 200.118 80.8046 202.597C78.6973 205.114 76.4657 207.78 75.0734 209.177C73.9678 210.238 73.4349 210.703 71.4978 209.288C69.5452 207.866 66.8071 205.005 64.3306 202.419C62.6938 200.709 53.4063 198.022 52.3004 197.045C52.0426 196.815 51.8916 196.753 51.7796 196.638C51.3666 196.217 50.3127 184.276 51.3838 182.525C49.7319 174.832 50.6676 170.154 51.7796 166.211C51.3319 164.442 51.7844 163.605 51.7796 163.413C51.7853 163.255 51.8266 163.102 51.8995 162.969C51.9724 162.835 52.0744 162.725 52.1955 162.651C52.3166 162.576 52.4526 162.538 52.5902 162.542C52.7278 162.545 52.8621 162.59 52.9802 162.671C52.9967 162.685 53.1499 162.827 53.4168 163.075C55.8467 165.334 67.6933 176.349 71.409 178.561C72.0915 178.169 75.0146 175.548 78.3702 172.538C82.9573 168.425 88.3527 163.586 89.9374 162.727C90.6724 162.306 91.017 162.517 91.775 163.218C93.1084 164.469 95.8587 167.617 98.5717 170.722C102.052 174.707 105.472 178.621 105.76 178.368C106.458 177.786 107.76 176.387 109.342 174.688Z" fill="url(#paint0_linear_30_944)" fill-opacity="0.5"/>
<path fill-rule="evenodd" clip-rule="evenodd" d="M174.025 227.337C175.092 226.063 175.847 227.433 175.246 228.208C173.061 231.029 166.868 231.212 163.516 231.583C152.065 232.844 149.581 235.647 139.657 240.345C133.057 243.562 125.717 244.978 118.386 244.446C115.598 244.277 116.906 242.559 118.467 242.634C124.759 242.932 131.572 242.111 140.602 237.589C149.52 233.123 152.829 230.984 162.982 229.849C165.973 229.515 172.109 229.625 174.025 227.337ZM234.453 75.3313C234.279 75.2793 234.093 75.2861 233.923 75.3505C233.753 75.415 233.609 75.5335 233.514 75.6876C233.419 75.8416 233.378 76.0227 233.397 76.2024C233.417 76.3821 233.495 76.5505 233.621 76.6812C234.927 78.426 235.864 79.2512 236.131 81.6286C236.326 83.3531 237.758 83.7233 238.135 81.6003C238.529 79.3828 236.58 76.0063 234.453 75.3331V75.3313ZM226.865 73.8948C230.431 73.4257 233.553 79.7203 233.409 82.8663C233.298 85.3108 231.729 85.939 231.258 83.0112C230.902 80.7725 229.481 75.7757 226.862 75.432C226.678 75.4028 226.51 75.3094 226.39 75.1686C226.269 75.0277 226.202 74.8486 226.202 74.6634C226.202 74.4782 226.269 74.2991 226.39 74.1582C226.51 74.0174 226.678 73.924 226.862 73.8948H226.865ZM227.158 82.9944C227.189 78.3253 223.781 72.2056 218.367 73.5573C217.714 73.7208 217.543 74.9302 218.374 75.0424C223.286 75.7059 224.118 79.2591 224.804 83.4176C225.37 86.8419 227.136 86.4346 227.158 82.9944ZM210.372 75.6052C215.03 71.7771 221.569 77.9596 220.325 83.8717C220.053 85.1668 218.625 84.4088 218.528 83.3036C218.273 80.3767 216.307 75.0875 211.142 76.8782C210.45 77.1176 209.78 76.092 210.372 75.6052ZM279.447 150.939C279.23 133.889 280.141 116.07 279.447 99.243C278.975 87.758 278.677 81.0208 265.737 79.4297C258.012 78.4799 248.076 79.2326 240.58 79.2804C240.38 79.2884 240.191 79.3727 240.052 79.5157C239.912 79.6587 239.834 79.8494 239.833 80.0483C239.831 80.2472 239.907 80.439 240.044 80.5839C240.181 80.7288 240.369 80.8156 240.569 80.8264C248.413 81.2142 257.474 80.9731 264.629 81.4015C276.041 82.0844 277.664 88.0213 277.684 100.41C277.71 117.395 277.239 134.358 277.396 151.364C277.557 168.914 278.955 188.415 278.444 205.738C277.938 222.853 269.865 222.17 257.839 222.464C221.598 223.365 183.174 222.705 147.026 222.972C146.197 222.978 146.198 224.425 147.026 224.433C181.661 224.786 221.246 225.715 256.111 224.747C272.249 224.298 279.401 224.942 280.578 206.283C281.549 190.868 279.561 160.307 279.442 150.944L279.447 150.939ZM212.625 79.1841C192.382 78.9588 170.825 78.3474 150.647 79.0498C140.816 79.3917 129.191 82.9856 129.191 94.6702C129.171 126.021 129.003 157.366 129.052 188.722C129.063 195.999 128.487 205.247 129.308 212.205C129.688 215.427 130.749 217.673 133.137 219.522C133.827 220.058 135.18 219.164 134.266 218.256C132.05 216.064 131.422 213.808 131.225 211C130.692 203.252 131.206 194.194 131.21 186.276C131.224 155.765 131.121 125.25 131.121 94.7426C131.121 83.3027 143.405 81.1736 152.488 81.0632C172.462 80.8193 192.476 81.315 212.462 81.2134C213.763 81.2063 213.95 79.1991 212.622 79.1814L212.625 79.1841ZM145.755 214.213C149.631 213.263 150.087 215.98 147.554 218.439C145.348 220.555 143.58 223.079 142.349 225.87C141.888 226.905 140.216 226.291 140.682 225.252C142.097 222.136 144.091 219.314 146.559 216.933C147.762 215.738 147.664 215.65 146.134 216.038C137.751 218.158 131.85 229.679 122.637 229.002C119.46 228.77 120.018 227.38 122.637 227.323C131.465 227.124 137.175 216.315 145.755 214.213Z" fill="#161720"/>
<g clip-path="url(#clip0_30_944)">
<path d="M187.724 129.854V136.116L189.808 137.494C189.863 137.511 189.983 137.512 190.037 137.494L199.009 131.144C199.009 130.393 198.341 129.854 197.965 129.854H187.724Z" fill="#161720"/>
<path d="M187.724 138.453L189.626 139.824C189.894 140.031 190.217 139.824 190.217 139.824C189.895 140.031 199.01 133.675 199.01 133.675V145.185C199.01 146.438 198.246 146.963 197.387 146.963H187.723V138.453H187.724Z" fill="#161720"/>
<path d="M177.874 135.566C177.226 135.566 176.709 135.886 176.328 136.524C175.946 137.162 175.755 138.008 175.755 139.06C175.755 140.128 175.946 140.972 176.328 141.592C176.709 142.214 177.209 142.523 177.828 142.523C178.466 142.523 178.972 142.221 179.346 141.617C179.719 141.014 179.907 140.176 179.907 139.104C179.907 137.987 179.726 137.118 179.363 136.496C179 135.876 178.504 135.566 177.874 135.566Z" fill="#161720"/>
<path d="M168.848 126.674V151.173L186.601 155.081V123.067L168.848 126.674ZM180.728 143.065C179.978 144.101 179 144.621 177.792 144.621C176.616 144.621 175.659 144.118 174.918 143.114C174.178 142.109 173.807 140.801 173.807 139.187C173.807 137.483 174.182 136.106 174.935 135.053C175.687 134.001 176.684 133.475 177.924 133.475C179.096 133.475 180.044 133.977 180.767 134.985C181.491 135.992 181.853 137.32 181.853 138.968C181.854 140.663 181.478 142.029 180.728 143.065Z" fill="#161720"/>
</g>
<g clip-path="url(#clip1_30_944)">
<path d="M232.03 134.969H240.031C240.787 134.969 241.4 135.598 241.4 136.373V143.847C241.4 146.697 239.148 149.006 236.369 149.006H236.346C233.567 149.007 231.315 146.697 231.314 143.848C231.314 143.848 231.314 143.848 231.314 143.847V135.703C231.314 135.298 231.635 134.969 232.03 134.969Z" fill="#161720"/>
<path d="M237.438 133.492C239.228 133.492 240.68 132.003 240.68 130.167C240.68 128.331 239.228 126.843 237.438 126.843C235.647 126.843 234.196 128.331 234.196 130.167C234.196 132.003 235.647 133.492 237.438 133.492Z" fill="#161720"/>
<path d="M227.352 133.492C229.938 133.492 232.035 131.342 232.035 128.69C232.035 126.038 229.938 123.888 227.352 123.888C224.766 123.888 222.67 126.038 222.67 128.69C222.67 131.342 224.766 133.492 227.352 133.492Z" fill="#161720"/>
<path d="M233.596 134.969H220.388C219.641 134.988 219.05 135.624 219.068 136.39V144.915C218.963 149.512 222.51 153.326 226.992 153.439C231.474 153.326 235.021 149.512 234.916 144.915V136.39C234.934 135.624 234.343 134.988 233.596 134.969Z" fill="#161720"/>
<path opacity="0.1" d="M227.712 134.969V146.915C227.709 147.463 227.385 147.955 226.891 148.164C226.734 148.232 226.565 148.267 226.394 148.267H219.701C219.608 148.024 219.521 147.78 219.449 147.529C219.197 146.681 219.068 145.8 219.068 144.913V136.388C219.05 135.623 219.64 134.988 220.386 134.969H227.712Z" fill="#161720"/>
<path opacity="0.2" d="M226.992 134.969V147.654C226.992 147.829 226.958 148.003 226.891 148.164C226.688 148.671 226.208 149.003 225.674 149.006H220.04C219.918 148.762 219.802 148.519 219.701 148.267C219.601 148.016 219.521 147.78 219.449 147.529C219.197 146.681 219.068 145.8 219.068 144.913V136.388C219.05 135.623 219.64 134.988 220.386 134.969H226.992Z" fill="#161720"/>
<path opacity="0.2" d="M226.992 134.969V146.177C226.986 146.921 226.399 147.523 225.674 147.529H219.449C219.197 146.681 219.068 145.8 219.068 144.913V136.388C219.05 135.623 219.64 134.988 220.386 134.969H226.992Z" fill="#161720"/>
<path opacity="0.2" d="M226.271 134.969V146.177C226.266 146.921 225.679 147.523 224.953 147.529H219.449C219.197 146.681 219.068 145.8 219.068 144.913V136.388C219.05 135.623 219.64 134.988 220.386 134.969H226.271Z" fill="#161720"/>
<path opacity="0.1" d="M227.712 131.15V133.477C227.59 133.484 227.475 133.492 227.352 133.492C227.23 133.492 227.114 133.484 226.992 133.477C226.749 133.46 226.508 133.421 226.272 133.359C224.813 133.004 223.608 131.955 223.03 130.537C222.93 130.298 222.853 130.051 222.799 129.798H226.394C227.121 129.801 227.71 130.404 227.712 131.15Z" fill="#161720"/>
<path opacity="0.2" d="M226.992 131.889V133.477C226.749 133.46 226.508 133.421 226.272 133.359C224.813 133.004 223.608 131.955 223.03 130.537H225.674C226.401 130.539 226.989 131.143 226.992 131.889Z" fill="#161720"/>
<path opacity="0.2" d="M226.992 131.889V133.477C226.749 133.46 226.508 133.421 226.272 133.359C224.813 133.004 223.608 131.955 223.03 130.537H225.674C226.401 130.539 226.989 131.143 226.992 131.889Z" fill="#161720"/>
<path opacity="0.2" d="M226.272 131.889V133.359C224.813 133.004 223.608 131.955 223.03 130.537H224.953C225.68 130.539 226.269 131.143 226.272 131.889Z" fill="#161720"/>
<path d="M211.743 130.537H224.951C225.68 130.537 226.272 131.143 226.272 131.891V145.436C226.272 146.184 225.68 146.79 224.951 146.79H211.743C211.014 146.79 210.423 146.184 210.423 145.436V131.891C210.423 131.143 211.014 130.537 211.743 130.537Z" fill="#161720"/>
<path d="M221.822 135.692H219.182V143.065H217.5V135.692H214.872V134.262H221.822V135.692Z" fill="white"/>
</g>
<g clip-path="url(#clip2_30_944)">
<path d="M181.658 170.958C181.091 170.393 180.474 169.96 179.821 169.659C179.167 169.359 178.341 169.214 177.392 169.214C176.627 169.214 175.899 169.347 175.221 169.611C174.543 169.876 173.951 170.249 173.446 170.73C172.928 171.211 172.521 171.8 172.225 172.485C171.929 173.171 171.781 173.929 171.781 174.77C171.781 175.612 171.929 176.37 172.225 177.055C172.521 177.741 172.928 178.318 173.446 178.799C173.963 179.28 174.568 179.665 175.246 179.929C175.924 180.194 176.664 180.326 177.441 180.326C178.267 180.326 178.995 180.218 179.611 179.99C180.228 179.761 180.758 179.448 181.202 179.064C181.498 178.799 181.769 178.474 182.003 178.089C182.238 177.693 182.423 177.26 182.558 176.779H177.342V173.892H185.851C185.9 174.085 185.937 174.313 185.974 174.602C186.011 174.891 186.023 175.155 186.023 175.432C186.023 176.574 185.851 177.608 185.505 178.558C185.16 179.508 184.63 180.338 183.939 181.072C183.163 181.878 182.238 182.491 181.153 182.936C180.067 183.381 178.822 183.597 177.429 183.597C176.171 183.597 174.987 183.381 173.877 182.936C172.767 182.491 171.793 181.878 170.955 181.096C170.128 180.314 169.475 179.388 168.982 178.318C168.488 177.248 168.254 176.057 168.254 174.782C168.254 173.508 168.501 172.329 168.982 171.247C169.463 170.164 170.116 169.238 170.955 168.457C171.781 167.675 172.755 167.074 173.877 166.629C174.999 166.184 176.183 165.967 177.429 165.967C178.859 165.967 180.129 166.208 181.227 166.689C182.324 167.17 183.274 167.831 184.075 168.673L181.658 170.958Z" fill="#161720"/>
<path d="M203.521 178.702C203.521 180.181 202.966 181.372 201.856 182.274C200.734 183.152 199.365 183.597 197.75 183.597C196.319 183.597 195.049 183.188 193.952 182.37C192.854 181.552 192.102 180.434 191.683 179.027L193.804 178.173C193.952 178.678 194.149 179.135 194.408 179.544C194.667 179.953 194.963 180.302 195.308 180.59C195.653 180.879 196.036 181.107 196.455 181.276C196.874 181.444 197.318 181.528 197.787 181.528C198.798 181.528 199.636 181.276 200.277 180.758C200.919 180.253 201.239 179.568 201.239 178.726C201.239 178.017 200.968 177.415 200.438 176.91C199.944 176.429 199.007 175.948 197.639 175.491C196.257 175.01 195.394 174.673 195.049 174.505C193.212 173.591 192.299 172.256 192.299 170.476C192.299 169.238 192.805 168.179 193.816 167.302C194.852 166.424 196.11 165.979 197.614 165.979C198.933 165.979 200.08 166.303 201.042 166.965C202.004 167.614 202.657 168.42 202.978 169.394L200.919 170.224C200.721 169.599 200.339 169.069 199.772 168.661C199.205 168.24 198.502 168.035 197.688 168.035C196.812 168.035 196.085 168.276 195.493 168.745C194.901 169.178 194.605 169.755 194.605 170.452C194.605 171.03 194.839 171.535 195.308 171.956C195.826 172.376 196.948 172.882 198.662 173.459C200.413 174.036 201.671 174.758 202.423 175.599C203.151 176.441 203.521 177.475 203.521 178.702Z" fill="#161720"/>
<path d="M215.839 183.212H213.718V181.612H213.62C213.287 182.178 212.756 182.647 212.066 183.031C211.363 183.404 210.636 183.597 209.883 183.597C208.428 183.597 207.318 183.188 206.542 182.382C205.765 181.576 205.37 180.422 205.37 178.931V171.667H207.59V178.786C207.639 180.674 208.613 181.612 210.512 181.612C211.4 181.612 212.14 181.264 212.732 180.566C213.324 179.869 213.62 179.027 213.62 178.053V171.667H215.839V183.212Z" fill="#161720"/>
<path d="M220.908 167.686C220.908 168.107 220.76 168.468 220.451 168.769C220.143 169.069 219.773 169.214 219.341 169.214C218.91 169.214 218.54 169.069 218.232 168.769C217.923 168.468 217.775 168.107 217.775 167.686C217.775 167.266 217.923 166.905 218.232 166.604C218.54 166.303 218.91 166.159 219.341 166.159C219.773 166.159 220.143 166.303 220.451 166.604C220.76 166.905 220.908 167.266 220.908 167.686ZM220.451 171.667V183.212H218.232V171.667H220.451Z" fill="#161720"/>
<path d="M227.27 183.404C226.308 183.404 225.507 183.116 224.866 182.538C224.225 181.961 223.904 181.143 223.892 180.109V173.651H221.808V171.667H223.879V168.131H226.099V171.667H228.997V173.651H226.099V179.4C226.099 180.169 226.247 180.686 226.555 180.963C226.863 181.239 227.209 181.372 227.591 181.372C227.764 181.372 227.936 181.348 228.109 181.312C228.281 181.276 228.429 181.215 228.577 181.155L229.28 183.091C228.725 183.296 228.047 183.404 227.27 183.404Z" fill="#161720"/>
<path d="M235.582 183.585C233.843 183.585 232.412 183.007 231.278 181.841C230.156 180.674 229.589 179.207 229.589 177.439C229.589 175.684 230.131 174.216 231.229 173.05C232.326 171.883 233.72 171.294 235.434 171.294C237.185 171.294 238.59 171.847 239.626 172.954C240.662 174.06 241.18 175.611 241.18 177.608L241.155 177.848H231.858C231.895 178.979 232.277 179.893 233.017 180.578C233.757 181.264 234.644 181.612 235.68 181.612C237.098 181.612 238.208 180.927 239.01 179.544L240.995 180.482C240.465 181.456 239.725 182.214 238.788 182.767C237.838 183.308 236.765 183.585 235.582 183.585ZM232.03 176.044H238.825C238.763 175.239 238.43 174.577 237.826 174.048C237.222 173.519 236.408 173.254 235.397 173.254C234.558 173.254 233.843 173.507 233.239 174.012C232.622 174.529 232.227 175.203 232.03 176.044Z" fill="#161720"/>
</g>
<path d="M223.066 109.697C223.32 109.083 223.029 108.378 222.409 108.139C211.277 103.85 198.945 103.85 187.813 108.139C187.193 108.378 186.902 109.083 187.156 109.697C187.41 110.311 188.113 110.601 188.734 110.363C199.276 106.317 210.946 106.317 221.488 110.363C222.109 110.601 222.812 110.311 223.066 109.697Z" fill="#161720"/>
<path d="M187.156 196.392C186.902 197.006 187.193 197.711 187.813 197.95C193.329 200.075 199.193 201.167 205.111 201.167C211.029 201.167 216.893 200.075 222.409 197.95C223.029 197.711 223.32 197.006 223.066 196.392C222.812 195.778 222.109 195.488 221.488 195.726C216.264 197.731 210.713 198.761 205.111 198.761C199.509 198.761 193.958 197.731 188.734 195.726C188.113 195.488 187.41 195.778 187.156 196.392Z" fill="#161720"/>
<path d="M248.459 171C249.073 171.254 249.778 170.963 250.017 170.343C254.306 159.21 254.306 146.879 250.017 135.746C249.778 135.126 249.073 134.835 248.459 135.089C247.845 135.344 247.555 136.047 247.793 136.667C251.839 147.21 251.839 158.879 247.793 169.422C247.555 170.042 247.845 170.745 248.459 171Z" fill="#161720"/>
<path d="M161.764 135.089C161.15 134.835 160.444 135.126 160.206 135.746C158.081 141.262 156.989 147.126 156.989 153.044C156.989 158.963 158.081 164.827 160.206 170.343C160.444 170.963 161.15 171.254 161.764 171C162.377 170.745 162.667 170.042 162.429 169.422C160.425 164.198 159.395 158.647 159.395 153.044C159.395 147.442 160.425 141.891 162.429 136.667C162.667 136.047 162.377 135.344 161.764 135.089Z" fill="#161720"/>
<path d="M118.333 218.142C118.333 218.142 100.921 221.387 77.9335 212.924C70.9417 210.172 60.5004 206.335 53.9061 202.73C49.7656 189.414 53.2088 163.746 53.2088 163.567C53.2172 163.281 53.1126 163.003 52.9176 162.793C52.7226 162.584 52.4531 162.461 52.1678 162.45C52.0226 162.428 51.8742 162.439 51.7339 162.482C51.5936 162.526 51.4649 162.601 51.3577 162.701C51.2504 162.802 51.1674 162.926 51.1148 163.063C51.0623 163.201 51.0416 163.349 51.0542 163.495C51.0542 164.107 47.7858 187.36 51.2837 201.217C49.0211 199.92 47.1182 198.804 45.6093 197.936C43.0239 196.423 41.6274 195.523 41.3429 195.667C41.0585 195.776 41.9118 196.893 44.2882 198.909C51.4494 204.861 64.41 209.69 72.9267 213.439C81.1509 217.256 99.2784 220.093 108.401 220.92C109.083 220.993 115.612 221.212 115.612 221.212C115.612 221.212 113.868 236.881 112.883 245.488C106.374 248.5 82.6911 248.116 81.1822 248.116C75.8526 248.172 65.5252 247.758 60.3015 246.697C48.5843 244.469 37.5583 239.496 28.1227 232.182C8.47444 216.633 2.8001 188.896 10.8807 165.743C14.6651 155.367 21.441 146.354 30.3469 139.849C41.1211 131.817 54.0497 127.388 66.7992 123.067C54.4451 124.866 42.2346 128.613 31.6724 135.276C20.2062 142.328 11.4783 153.087 6.92715 165.78C1.57259 181.101 1.92974 197.847 7.9326 212.924C14.1815 228.193 28.3687 240.475 43.8118 245.804C59.8649 251.315 91.3315 252.69 107.852 248.116L108.354 247.973L112.883 246.922C112.954 246.31 112.883 246.528 112.883 245.488H114.855L117.873 221.07L118.333 218.142Z" fill="#161720"/>
<path d="M67.3376 99.7186C67.4095 101.996 71.62 106.589 75.1767 107.455L75.2845 108.648C76.483 121.661 78.0796 127.952 78.8412 122.71C79.2895 118.182 79.411 113.627 79.2048 109.081C79.1315 106.076 79.0223 102.863 78.8053 99.5382L78.732 98.3101C78.7491 97.4747 78.5083 96.6543 78.0422 95.9597C77.7578 95.599 77.4014 95.301 76.9955 95.0844C76.5896 94.8678 76.143 94.7375 75.684 94.7015L74.4136 94.5211C73.1277 94.4633 71.8782 94.0774 70.7851 93.4003C70.3871 93.0094 70.075 92.5403 69.8687 92.0228C69.6623 91.5053 69.5663 90.9508 69.5866 90.3943C69.552 89.1946 69.6484 87.9948 69.874 86.8158C69.9795 86.0195 70.2267 85.2483 70.604 84.5384C72.0195 83.273 73.6218 83.4176 73.9092 85.695C74.4524 89.743 76.0131 80.8153 78.663 79.5499C81.3129 78.2845 94.0869 76.1517 97.201 58.6512C97.201 58.6512 102.173 68.1229 117.488 71.0874C117.452 71.4481 117.416 71.846 117.344 72.3155C117.2 74.195 117.236 76.9061 117.344 80.1883C117.505 83.8869 117.469 87.5913 117.236 91.2861C116.977 95.4883 115.877 99.5966 114.003 103.37C112.094 107.152 108.792 110.054 104.786 111.468C102.87 112.051 100.872 112.319 98.8694 112.262C97.0765 112.306 95.2826 112.233 93.4991 112.046C90.9391 111.797 88.3959 111.399 85.8827 110.854C84.1051 110.491 83.0532 110.311 82.8649 110.527C82.6767 110.743 83.3377 111.359 85.0435 112.262C87.4946 113.48 90.0925 114.379 92.7734 114.937C94.4741 115.285 96.1954 115.524 97.9267 115.653C97.5495 118.071 97.7229 120.542 98.4339 122.883C98.7378 124.171 99.293 125.387 100.068 126.462C100.613 127.113 101.193 127.258 101.7 126.498C102.645 125.016 102.499 121.113 101.629 117.786C101.47 117.094 101.251 116.416 100.975 115.762H101.483C102.666 115.735 103.844 115.602 105.003 115.364C107.48 114.778 109.814 113.702 111.866 112.199C113.917 110.696 115.644 108.798 116.943 106.617C119.465 102.267 120.874 97.3656 121.045 92.3453C121.185 89.1464 121.051 85.9413 120.645 82.7649C122.279 80.4517 130.88 66.7516 120.07 49.3284C108.203 30.2419 94.4131 47.1226 94.4131 47.1226C94.4131 47.1226 77.2475 36.8937 66.9769 50.4148C60.8855 58.2965 57.7649 68.058 58.1592 77.9968C58.1592 77.9968 54.5665 77.7793 55.3282 82.7677C56.0898 87.7562 67.2643 97.1521 67.3376 99.7186ZM72.6719 73.1858C73.7971 72.3542 76.0835 71.2706 78.5868 69.6431C81.3266 67.8696 83.8586 65.7964 86.1357 63.4622C87.8174 61.7037 89.4043 59.8574 90.8894 57.9312C91.3205 57.3586 91.6525 56.9922 91.9054 56.9922C92.1583 56.9922 92.3782 57.3887 92.3782 58.2204C91.9918 60.8685 90.9001 63.3651 89.2167 65.4505C86.9931 68.4299 84.1171 70.8653 80.8071 72.5718C78.4996 73.8629 75.9046 74.5587 73.2582 74.5958C71.7652 74.487 71.5467 73.9817 72.6719 73.1858Z" fill="#161720"/>
<path fill-rule="evenodd" clip-rule="evenodd" d="M56.0111 126.254C56.9876 131.856 59.5873 137.045 63.4848 141.169C67.602 145.151 72.5882 148.11 78.0456 149.812C83.5031 151.513 89.2808 151.91 94.9177 150.969C99.9758 150.346 104.915 148.977 109.575 146.905C111.26 145.9 112.843 144.733 114.303 143.421C118.627 139.761 122.359 135.45 125.367 130.641C125.395 130.565 125.417 130.488 125.433 130.409L124.938 129.589L124.128 130.08V130.118V130.099C120.804 134.328 116.928 138.088 112.604 141.277C109.952 143.534 106.795 145.112 103.403 145.876C81.1398 152.087 64.8434 143.459 58.577 129.608C56.7929 125.196 57.8803 126.314 56.5155 125.433L56.0111 126.254Z" fill="#161720"/>
<path fill-rule="evenodd" clip-rule="evenodd" d="M117.703 123.295L117.041 122.467L116.774 122.579C116.653 122.63 116.56 122.666 116.482 122.696L116.47 122.701C116.4 122.728 116.328 122.756 116.268 122.785C116.198 122.82 116.123 122.866 116.054 122.939C115.989 123.009 115.948 123.084 115.918 123.146C115.898 123.188 115.877 123.236 115.851 123.294C115.742 123.542 115.552 123.977 114.998 124.882C110.231 131.865 98.2249 136.019 81.9595 132.169L81.9525 132.167L81.9455 132.166C79.4955 131.682 77.2379 130.781 75.3642 129.546L75.3442 129.534C72.2854 127.777 69.5572 125.744 67.2294 123.489L67.2326 123.397L67.0424 123.307L66.4877 122.764L66.1579 122.885L65.4485 123.67L65.4975 123.868C65.5143 123.936 65.538 124.001 65.568 124.064L65.6168 124.142C67.7778 126.8 70.4862 129.206 73.6426 131.276C74.7152 132.021 75.8817 132.69 77.1253 133.274L77.1419 133.282L77.1592 133.288C80.5922 134.516 84.2444 135.376 87.9978 135.841C92.1888 136.491 96.5099 136.431 100.618 135.664C104.729 134.896 108.518 133.442 111.683 131.41L111.69 131.405L111.697 131.401C114.714 129.276 116.795 126.526 117.649 123.484L117.703 123.295Z" fill="#161720"/>
<path fill-rule="evenodd" clip-rule="evenodd" d="M112.022 131.943L112.203 132.933C112.938 134.651 114.112 136.042 115.554 136.904C116.084 137.332 116.676 137.639 117.3 137.806C117.88 138.08 118.517 138.13 119.122 137.948C119.001 136.776 119.052 137.012 118.905 136.661C118.617 135.932 118.243 135.256 117.797 134.653C116.842 133.511 115.697 132.623 114.437 132.048C112.73 131.608 112.917 131.713 112.022 131.943Z" fill="#161720"/>
<path fill-rule="evenodd" clip-rule="evenodd" d="M105.711 136.602V136.621C105.881 138.295 106.427 139.882 107.289 141.213C107.789 142.227 108.45 143.112 109.234 143.819C109.495 144.098 109.276 143.947 110.143 144.367C110.448 143.466 110.526 143.638 110.357 141.808C110.28 141.172 110.104 140.559 109.836 140.003C109.392 138.882 108.787 137.863 108.049 136.993C107.588 136.572 107.102 136.191 106.596 135.852L105.828 135.689L105.711 136.602Z" fill="#161720"/>
<path fill-rule="evenodd" clip-rule="evenodd" d="M96.2483 138.907C96.1901 140.808 96.8137 142.683 98.0459 144.312C98.7774 145.53 99.6629 146.685 100.689 147.76C100.723 147.787 101.622 148.29 101.66 148.311L102.325 147.552V147.533C102.775 146.016 102.563 144.422 101.726 143.013C101.06 141.471 99.9267 140.083 98.4262 138.974C97.5158 138.279 98.0728 138.539 96.6785 138.056L96.2483 138.907Z" fill="#161720"/>
<path fill-rule="evenodd" clip-rule="evenodd" d="M87.53 138.667C87.3549 139.054 87.2072 139.453 87.088 139.861C86.7183 141.792 86.6787 143.774 86.9709 145.719C87.0851 146.361 87.4305 147.703 87.492 148.238C87.4932 148.261 87.4932 148.285 87.492 148.309L87.9047 149.1L88.6776 148.67V148.652C89.313 147.794 89.7303 146.788 89.8924 145.725C90.023 143.935 89.8406 142.135 89.3537 140.41C88.5429 138.264 89.061 139.064 88.1828 138.056C88.1682 138.082 87.53 138.64 87.53 138.667Z" fill="#161720"/>
<path fill-rule="evenodd" clip-rule="evenodd" d="M77.9824 137.736C76.4185 139.54 75.6245 141.792 75.7453 144.081C75.7767 144.873 75.8838 145.66 76.0654 146.435C76.1361 146.825 76.0249 146.587 76.6314 147.522C77.5545 147.023 77.4535 147.126 77.7061 146.797C78.2677 146.131 78.7214 145.396 79.0538 144.614C79.6817 142.727 79.8382 140.738 79.512 138.789C79.3402 137.845 79.4884 138.211 78.8382 137.267L77.9824 137.736Z" fill="#161720"/>
<path fill-rule="evenodd" clip-rule="evenodd" d="M71.5632 134.262C70.5135 134.669 69.5625 135.269 68.7666 136.024C67.8125 136.701 67.0757 137.608 66.636 138.645C66.3145 139.184 66.1982 139.808 66.3059 140.416C66.9525 140.455 67.5974 140.319 68.1624 140.024C69.2887 139.617 70.2691 138.924 70.9915 138.024C71.6621 137.407 72.1458 136.637 72.3943 135.791C72.6217 135.254 72.6384 134.659 72.4414 134.111L71.5632 134.262Z" fill="#161720"/>
<path fill-rule="evenodd" clip-rule="evenodd" d="M65.2332 128.59C64.3757 128.693 63.5392 128.979 62.761 129.437C60.0964 130.96 60.2681 131.906 59.5043 132.664L59.1667 133.679L59.9928 134.093C60.8914 134.161 61.7929 134.038 62.6574 133.726C63.7282 133.19 64.7688 132.566 65.772 131.858C67.658 130.206 67.1754 130.645 67.8445 129.759C67.131 128.938 67.2997 129.048 67.0037 128.924C66.4335 128.687 65.8345 128.574 65.2332 128.59Z" fill="#161720"/>
<path fill-rule="evenodd" clip-rule="evenodd" d="M105.275 80.0507C106.409 83.2591 107.366 86.5174 108.143 89.8133C108.354 90.6879 108.765 92.4166 108.856 93.3084C108.888 93.5267 108.847 93.7489 108.738 93.9451C108.628 94.1413 108.455 94.302 108.242 94.4054C106.382 95.4571 102.588 95.3458 101.517 95.4367H101.543H101.528L101.553 95.4289L101.589 95.4116L101.658 95.3678L101.742 95.28C101.81 95.1233 101.922 95.0856 101.302 95.4555L100.978 95.0041C100.988 94.9622 101.005 94.922 101.029 94.885L101.067 94.838C101.125 94.7708 101.206 94.7229 101.296 94.7017C103.159 94.2714 104.99 93.7349 106.779 93.0952C105.593 88.8393 104.806 84.4983 104.428 80.1197V80.1087V80.0696L104.843 79.6777L105.275 80.0507Z" fill="#161720"/>
<path fill-rule="evenodd" clip-rule="evenodd" d="M106.37 102.546V102.556C105.988 103.153 105.463 103.615 104.855 103.888C104.497 104.021 104.126 104.101 103.75 104.129C103.546 104.139 103.47 104.129 103.329 104.129C102.746 104.15 102.167 104.012 101.642 103.728C101.117 103.444 100.661 103.021 100.313 102.497C100.273 102.453 100.242 102.4 100.222 102.342L100.201 102.279C100.201 102.144 100.173 102.279 100.201 102.06L100.227 101.991L100.255 101.932C100.278 101.895 100.305 101.862 100.336 101.833L100.383 101.796L100.441 101.767L100.929 102.011L100.904 101.947L100.862 101.881L100.834 101.847H100.848L100.829 101.83H100.848L100.834 101.819C101.081 101.861 101.773 101.87 101.942 101.879C102.765 101.988 103.596 101.994 104.42 101.895C106.455 101.817 105.672 101.707 106.5 101.93L106.37 102.546ZM100.713 102.581C100.975 102.305 100.918 102.437 100.948 102.075L100.929 102.033L100.713 102.581Z" fill="#161720"/>
<path fill-rule="evenodd" clip-rule="evenodd" d="M92.7734 75.7519C93.9778 75.6721 95.1819 75.914 96.2847 76.4572C97.3874 77.0004 98.3567 77.8291 99.1111 78.8738C98.9677 78.8738 99.4279 78.7354 100.183 81.3786C101.043 84.3288 101.508 87.104 99.9655 89.674C95.9415 95.7381 85.2 93.6499 85.2 84.0155C85.2444 82.5809 85.594 81.1784 86.2204 79.9224C86.8467 78.6665 87.732 77.5927 88.8039 76.7888C90.0022 76.0061 91.3862 75.6446 92.7734 75.7519ZM93.4127 77.145C92.1336 77.0016 90.8482 77.3402 89.7638 78.1062C88.6793 78.8722 87.8589 80.021 87.4348 81.3675C86.8153 82.8955 86.731 84.6248 87.1983 86.2181V86.2309C87.6899 87.9643 88.756 89.4262 90.1815 90.3213C91.5023 91.0203 92.9762 91.2838 94.428 91.0805C95.8799 90.8773 97.2485 90.2157 98.3714 89.1746C98.9815 88.4097 99.414 87.4911 99.6314 86.4986C99.8487 85.5061 99.8443 84.4697 99.6185 83.4795C99.4621 82.2331 99.1922 81.0076 98.8129 79.8216C98.7412 79.6491 98.6533 79.4854 98.5506 79.3334C97.8855 78.5815 97.0826 77.997 96.1961 77.6194C95.3097 77.2419 94.3605 77.0801 93.4127 77.145ZM99.1068 78.8738L99.0939 78.8642L99.1068 78.8738Z" fill="#161720"/>
<path fill-rule="evenodd" clip-rule="evenodd" d="M118.656 77.5119C117.995 76.5215 117.071 75.7637 116.003 75.3356C114.934 74.9075 113.77 74.8288 112.659 75.1094C110.765 75.394 109.338 77.026 108.516 79.5708C107.115 83.899 109.249 88.6434 112.425 89.6532C113.799 90.1063 115.281 90.0072 116.591 89.3746C117.901 88.7419 118.947 87.6199 119.531 86.2212C120.07 84.1235 120.035 81.9055 119.43 79.8282C119.311 79.0111 119.048 78.2253 118.656 77.5119Z" fill="white"/>
<path fill-rule="evenodd" clip-rule="evenodd" d="M113.746 74.1668C114.812 74.1224 115.87 74.3761 116.813 74.9024C117.757 75.4287 118.553 76.209 119.121 77.1647C119.475 77.7078 119.732 78.3145 119.88 78.9552C120.693 81.1968 120.907 83.6323 120.497 85.994C120.105 87.3565 119.311 88.5499 118.23 89.3982C117.15 90.2466 115.84 90.7051 114.495 90.7063C113.635 90.7703 112.772 90.6406 111.963 90.3257C111.154 90.0107 110.418 89.5177 109.802 88.8792C105.632 84.7013 107.022 76.6363 111.258 74.6129C112.044 74.2636 112.895 74.1109 113.746 74.1668ZM112.108 75.869C110.147 76.8084 109.073 79.7317 108.992 81.7293C108.848 85.2312 110.749 88.7757 114.09 88.8853C115.158 88.9199 116.215 88.6355 117.138 88.0646C118.056 87.4919 118.755 86.5972 119.115 85.5357C119.474 84.3047 119.573 83.005 119.403 81.7293C119.311 80.3202 119.027 78.9326 118.56 77.6093L118.542 77.5819L118.53 77.5575C118.037 76.8748 117.396 76.3284 116.661 75.9649C115.206 75.3423 113.585 75.3081 112.108 75.869ZM119.127 77.1647V77.1571V77.1647Z" fill="#161720"/>
<path d="M93.4291 85.9889C93.1297 85.9889 92.8425 85.9034 92.6307 85.7513C92.419 85.5992 92.3 85.3928 92.3 85.1777C92.3 84.7568 92.3518 84.2788 92.3518 83.0706C92.3518 81.508 95.0313 81.9116 94.6247 83.0706C94.5545 85.6052 94.5582 84.5988 94.5582 85.1843C94.5563 85.3984 94.4364 85.6032 94.2248 85.754C94.0132 85.9048 93.7271 85.9892 93.4291 85.9889Z" fill="#161720"/>
<path d="M113.389 85.1999C113.153 85.1988 112.925 85.1013 112.746 84.925C112.567 84.7487 112.449 84.5051 112.412 84.2377C112.349 83.793 112.238 82.657 112.049 81.3024C111.743 79.135 114.166 79.2658 114.023 80.9287C114.451 84.3928 114.234 82.8476 114.376 83.8771C114.399 84.0407 114.391 84.2082 114.352 84.3678C114.313 84.5274 114.244 84.6754 114.15 84.8013C114.056 84.9273 113.939 85.0282 113.808 85.097C113.677 85.1659 113.534 85.201 113.389 85.1999Z" fill="#161720"/>
<path d="M101.067 84.4112C100.52 84.4112 100.358 84.2008 100.225 83.693C100.158 83.4373 100.185 83.1627 100.302 82.9294C100.419 82.6961 100.615 82.5232 100.847 82.4488C101.254 82.3173 100.231 82.628 103.111 82.0494C104.708 81.6715 106.325 81.4063 107.953 81.2556C108.196 81.2556 108.428 81.3614 108.599 81.5497C108.771 81.7381 108.867 81.9935 108.867 82.2598C108.867 82.5261 108.771 82.7816 108.599 82.9699C108.428 83.1582 108.196 83.264 107.953 83.264C106.681 83.264 102.018 84.4112 101.067 84.4112Z" fill="#161720"/>
<path d="M85.015 83.6222C75.0798 83.6222 75.0559 83.4853 74.9443 82.8236L75.9101 82.7381L75.9946 82.0444C76.3484 82.0615 83.1041 82.2235 85.015 82.2235C85.2733 82.2235 85.5209 82.297 85.7036 82.4277C85.8862 82.5584 85.9888 82.7357 85.9888 82.9206C85.9888 83.1055 85.8862 83.2828 85.7036 83.4135C85.5209 83.5442 85.2733 83.6177 85.015 83.6177V83.6222Z" fill="#161720"/>
<path fill-rule="evenodd" clip-rule="evenodd" d="M117.72 123.174C117.81 122.748 118.229 122.476 118.655 122.566C118.759 122.588 118.862 122.609 118.965 122.631C119.77 122.799 120.554 122.962 121.285 123.296C122.15 123.692 122.915 124.307 123.698 125.355C124.826 126.864 125.482 128.767 125.482 130.203C125.482 130.639 125.129 130.992 124.693 130.992C124.257 130.992 123.904 130.639 123.904 130.203C123.904 129.162 123.394 127.583 122.435 126.3C121.782 125.426 121.215 124.999 120.629 124.731C120.069 124.475 119.468 124.349 118.632 124.174C118.534 124.153 118.433 124.132 118.328 124.109C117.902 124.019 117.629 123.6 117.72 123.174Z" fill="#161720"/>
<defs>
<linearGradient id="paint0_linear_30_944" x1="43.1881" y1="132.451" x2="114.189" y2="239.332" gradientUnits="userSpaceOnUse">
<stop stop-color="#3131F1"/>
<stop offset="1" stop-color="#3131F1" stop-opacity="0"/>
</linearGradient>
<clipPath id="clip0_30_944">
<rect width="30.1619" height="32.014" fill="white" transform="translate(168.848 123.067)"/>
</clipPath>
<clipPath id="clip1_30_944">
<rect width="30.977" height="29.5513" fill="white" transform="translate(210.423 123.888)"/>
</clipPath>
<clipPath id="clip2_30_944">
<rect width="73.3667" height="18.0592" fill="white" transform="translate(168.033 165.752)"/>
</clipPath>
</defs>
</svg>
