<svg width="360" height="360" viewBox="0 0 360 360" fill="none" xmlns="http://www.w3.org/2000/svg">
<path fill-rule="evenodd" clip-rule="evenodd" d="M138.603 221.435C143.999 215.639 151.963 207.084 154.47 208.517C155.751 209.262 159.767 216.214 162.311 220.616C163.014 221.833 163.604 222.855 163.993 223.498C163.993 226.036 164.05 257.875 163.836 258.464C163.785 258.574 163.711 258.668 163.619 258.736C163.528 258.804 159.292 258.905 159.183 258.912C158.828 258.898 158.777 258.839 158.118 258.062C158.047 257.978 157.969 257.886 157.883 257.785C156.725 256.4 155.032 254.126 153.315 251.819C151.397 249.242 149.448 246.624 148.178 245.154C148.104 245.075 148.081 245.042 148.058 245.043C148.037 245.043 148.017 245.073 147.954 245.123C146.452 246.37 142.098 251.618 137.76 256.847C133.576 261.891 129.407 266.916 127.826 268.316C125.887 270.136 125.145 269.249 112.385 253.953C110.5 251.681 109.966 251.054 108.697 249.649C107.539 250.71 105.06 253.671 102.429 256.814C99.7573 260.004 96.9285 263.383 95.1636 265.154C93.7621 266.499 93.0867 267.088 90.6312 265.294C88.156 263.492 84.6852 259.866 81.546 256.587C79.4712 254.42 67.6983 251.014 66.2964 249.776C65.9697 249.484 65.7783 249.405 65.6363 249.26C65.1127 248.726 63.7769 233.589 65.1345 231.37C63.0406 221.618 64.2267 215.689 65.6363 210.69C65.0688 208.447 65.6424 207.386 65.6363 207.143C65.6435 206.943 65.6958 206.749 65.7882 206.58C65.8807 206.411 66.01 206.272 66.1635 206.177C66.317 206.082 66.4894 206.034 66.6638 206.039C66.8382 206.043 67.0085 206.1 67.1581 206.203C67.179 206.22 67.3733 206.401 67.7115 206.715C70.7917 209.579 85.8086 223.541 90.5187 226.345C91.3838 225.848 95.0891 222.525 99.3427 218.711C105.157 213.496 111.997 207.362 114.005 206.274C114.937 205.74 115.374 206.007 116.335 206.896C118.025 208.481 121.511 212.472 124.95 216.409C129.362 221.459 133.697 226.421 134.062 226.101C134.946 225.363 136.597 223.59 138.603 221.435Z" fill="#BCF0F5"/>
<path fill-rule="evenodd" clip-rule="evenodd" d="M138.603 221.435C143.999 215.639 151.963 207.084 154.47 208.517C155.751 209.262 159.767 216.214 162.311 220.616C163.014 221.833 163.604 222.855 163.993 223.498C163.993 226.036 164.05 257.875 163.836 258.464C163.785 258.574 163.711 258.668 163.619 258.736C163.528 258.804 159.292 258.905 159.183 258.912C158.828 258.898 158.777 258.839 158.118 258.062C158.047 257.978 157.969 257.886 157.883 257.785C156.725 256.4 155.032 254.126 153.315 251.819C151.397 249.242 149.448 246.624 148.178 245.154C148.104 245.075 148.081 245.042 148.058 245.043C148.037 245.043 148.017 245.073 147.954 245.123C146.452 246.37 142.098 251.618 137.76 256.847C133.576 261.891 129.407 266.916 127.826 268.316C125.887 270.136 125.145 269.249 112.385 253.953C110.5 251.681 109.966 251.054 108.697 249.649C107.539 250.71 105.06 253.671 102.429 256.814C99.7573 260.004 96.9285 263.383 95.1636 265.154C93.7621 266.499 93.0867 267.088 90.6312 265.294C88.156 263.492 84.6852 259.866 81.546 256.587C79.4712 254.42 67.6983 251.014 66.2964 249.776C65.9697 249.484 65.7783 249.405 65.6363 249.26C65.1127 248.726 63.7769 233.589 65.1345 231.37C63.0406 221.618 64.2267 215.689 65.6363 210.69C65.0688 208.447 65.6424 207.386 65.6363 207.143C65.6435 206.943 65.6958 206.749 65.7882 206.58C65.8807 206.411 66.01 206.272 66.1635 206.177C66.317 206.082 66.4894 206.034 66.6638 206.039C66.8382 206.043 67.0085 206.1 67.1581 206.203C67.179 206.22 67.3733 206.401 67.7115 206.715C70.7917 209.579 85.8086 223.541 90.5187 226.345C91.3838 225.848 95.0891 222.525 99.3427 218.711C105.157 213.496 111.997 207.362 114.005 206.274C114.937 205.74 115.374 206.007 116.335 206.896C118.025 208.481 121.511 212.472 124.95 216.409C129.362 221.459 133.697 226.421 134.062 226.101C134.946 225.363 136.597 223.59 138.603 221.435Z" fill="url(#paint0_linear)" fill-opacity="0.5"/>
<path fill-rule="evenodd" clip-rule="evenodd" d="M220.596 288.173C221.947 286.559 222.905 288.295 222.143 289.278C219.373 292.854 211.523 293.086 207.274 293.556C192.759 295.154 189.609 298.708 177.029 304.663C168.664 308.741 159.359 310.535 150.067 309.862C146.532 309.647 148.19 307.47 150.169 307.564C158.145 307.942 166.781 306.902 178.228 301.169C189.532 295.508 193.727 292.797 206.597 291.358C210.389 290.935 218.166 291.074 220.596 288.173ZM297.194 95.4903C296.974 95.4245 296.737 95.433 296.522 95.5147C296.307 95.5964 296.125 95.7466 296.004 95.9419C295.884 96.1373 295.832 96.3667 295.856 96.5945C295.88 96.8224 295.98 97.0358 296.139 97.2015C297.795 99.4133 298.982 100.459 299.321 103.473C299.568 105.659 301.384 106.128 301.861 103.437C302.36 100.626 299.89 96.3459 297.194 95.4926V95.4903ZM287.575 93.6694C292.096 93.0748 296.053 101.054 295.871 105.042C295.73 108.14 293.741 108.937 293.144 105.225C292.693 102.388 290.891 96.0536 287.571 95.618C287.338 95.581 287.126 95.4626 286.973 95.284C286.819 95.1055 286.735 94.8784 286.735 94.6437C286.735 94.409 286.819 94.1819 286.973 94.0034C287.126 93.8248 287.338 93.7064 287.571 93.6694H287.575ZM287.946 105.204C287.986 99.2856 283.666 91.5282 276.804 93.2416C275.976 93.4488 275.758 94.9819 276.813 95.1241C283.039 95.9652 284.093 100.469 284.962 105.741C285.68 110.081 287.918 109.565 287.946 105.204ZM266.669 95.8375C272.573 90.9851 280.862 98.822 279.285 106.316C278.941 107.958 277.13 106.997 277.008 105.596C276.684 101.886 274.191 95.1812 267.645 97.4512C266.767 97.7547 265.919 96.4545 266.669 95.8375ZM354.228 191.332C353.953 169.718 355.108 147.131 354.228 125.801C353.63 111.243 353.253 102.702 336.85 100.685C327.058 99.4816 314.463 100.436 304.96 100.496C304.707 100.506 304.467 100.613 304.291 100.794C304.114 100.976 304.015 101.218 304.013 101.47C304.012 101.722 304.108 101.965 304.281 102.149C304.455 102.332 304.693 102.442 304.947 102.456C314.89 102.948 326.375 102.642 335.445 103.185C349.911 104.051 351.969 111.576 351.993 127.28C352.026 148.81 351.43 170.313 351.629 191.87C351.832 214.117 353.605 238.836 352.957 260.794C352.316 282.49 342.082 281.624 326.838 281.997C280.898 283.138 232.192 282.303 186.371 282.641C185.32 282.649 185.321 284.482 186.371 284.492C230.275 284.94 280.452 286.118 324.648 284.891C345.104 284.322 354.171 285.138 355.662 261.485C356.893 241.946 354.374 203.206 354.223 191.337L354.228 191.332ZM269.525 100.374C243.864 100.089 216.539 99.3136 190.961 100.204C178.499 100.637 163.763 105.193 163.763 120.004C163.737 159.744 163.524 199.478 163.588 239.225C163.601 248.45 162.871 260.173 163.911 268.992C164.393 273.076 165.738 275.924 168.765 278.268C169.64 278.946 171.355 277.813 170.196 276.663C167.387 273.885 166.592 271.024 166.342 267.464C165.666 257.643 166.317 246.161 166.323 236.124C166.341 197.448 166.21 158.768 166.21 120.096C166.21 105.595 181.781 102.896 193.294 102.756C218.614 102.447 243.984 103.075 269.317 102.946C270.968 102.938 271.204 100.393 269.521 100.371L269.525 100.374ZM184.76 271.537C189.674 270.333 190.252 273.777 187.04 276.895C184.244 279.577 182.002 282.776 180.442 286.314C179.858 287.625 177.739 286.847 178.329 285.53C180.123 281.581 182.65 278.003 185.778 274.985C187.304 273.47 187.18 273.359 185.24 273.851C174.614 276.539 167.134 291.142 155.455 290.284C151.428 289.989 152.135 288.228 155.455 288.156C166.646 287.904 173.884 274.203 184.76 271.537Z" fill="#161720"/>
<g clip-path="url(#clip0)">
<path d="M237.96 164.604V172.542L240.602 174.288C240.672 174.31 240.823 174.311 240.893 174.288L252.265 166.239C252.265 165.287 251.419 164.604 250.941 164.604H237.96Z" fill="#161720"/>
<path d="M237.96 175.503L240.371 177.242C240.711 177.505 241.121 177.242 241.121 177.242C240.713 177.505 252.267 169.448 252.267 169.448V184.037C252.267 185.625 251.298 186.291 250.209 186.291H237.958V175.503H237.96Z" fill="#161720"/>
<path d="M225.474 171.844C224.652 171.844 223.997 172.249 223.514 173.059C223.031 173.868 222.788 174.939 222.788 176.273C222.788 177.626 223.031 178.696 223.514 179.483C223.997 180.271 224.632 180.663 225.416 180.663C226.225 180.663 226.866 180.28 227.34 179.515C227.813 178.75 228.051 177.687 228.051 176.329C228.051 174.913 227.822 173.811 227.361 173.023C226.901 172.237 226.273 171.844 225.474 171.844Z" fill="#161720"/>
<path d="M214.033 160.573V191.628L236.537 196.581V156L214.033 160.573ZM229.092 181.35C228.141 182.664 226.901 183.322 225.371 183.322C223.88 183.322 222.666 182.685 221.727 181.413C220.789 180.138 220.318 178.48 220.318 176.435C220.318 174.275 220.795 172.528 221.749 171.194C222.702 169.861 223.966 169.193 225.538 169.193C227.023 169.193 228.225 169.83 229.141 171.108C230.059 172.385 230.518 174.068 230.518 176.157C230.519 178.305 230.043 180.036 229.092 181.35Z" fill="#161720"/>
</g>
<g clip-path="url(#clip1)">
<path d="M294.122 171.088H304.265C305.223 171.088 306 171.885 306 172.867V182.342C306 185.953 303.145 188.881 299.623 188.881H299.593C296.071 188.882 293.216 185.954 293.215 182.343C293.215 182.342 293.215 182.342 293.215 182.342V172.018C293.215 171.504 293.621 171.088 294.122 171.088Z" fill="#161720"/>
<path d="M300.977 169.215C303.247 169.215 305.087 167.328 305.087 165.001C305.087 162.673 303.247 160.786 300.977 160.786C298.708 160.786 296.868 162.673 296.868 165.001C296.868 167.328 298.708 169.215 300.977 169.215Z" fill="#161720"/>
<path d="M288.193 169.215C291.471 169.215 294.129 166.49 294.129 163.128C294.129 159.766 291.471 157.041 288.193 157.041C284.915 157.041 282.257 159.766 282.257 163.128C282.257 166.49 284.915 169.215 288.193 169.215Z" fill="#161720"/>
<path d="M296.108 171.088H279.365C278.418 171.112 277.669 171.918 277.691 172.889V183.695C277.559 189.522 282.055 194.357 287.736 194.5C293.418 194.357 297.914 189.522 297.781 183.695V172.889C297.803 171.918 297.054 171.112 296.108 171.088Z" fill="#161720"/>
<path opacity="0.1" d="M288.65 171.088V186.231C288.645 186.925 288.235 187.549 287.609 187.814C287.409 187.9 287.195 187.945 286.978 187.945H278.495C278.376 187.636 278.267 187.327 278.175 187.008C277.856 185.934 277.693 184.816 277.691 183.693V172.886C277.669 171.916 278.417 171.112 279.363 171.088H288.65Z" fill="#161720"/>
<path opacity="0.2" d="M287.736 171.088V187.167C287.736 187.389 287.693 187.609 287.609 187.814C287.351 188.456 286.742 188.876 286.065 188.881H278.924C278.769 188.572 278.623 188.263 278.495 187.945C278.367 187.626 278.267 187.327 278.175 187.008C277.856 185.934 277.693 184.816 277.691 183.693V172.886C277.669 171.916 278.417 171.112 279.363 171.088H287.736Z" fill="#161720"/>
<path opacity="0.2" d="M287.736 171.088V185.294C287.729 186.238 286.985 187.001 286.065 187.008H278.175C277.856 185.934 277.693 184.816 277.691 183.693V172.886C277.669 171.916 278.417 171.112 279.363 171.088H287.736Z" fill="#161720"/>
<path opacity="0.2" d="M286.823 171.088V185.294C286.816 186.238 286.072 187.001 285.152 187.008H278.175C277.856 185.934 277.693 184.816 277.691 183.693V172.886C277.669 171.916 278.417 171.112 279.363 171.088H286.823Z" fill="#161720"/>
<path opacity="0.1" d="M288.65 166.246V169.196C288.494 169.206 288.348 169.215 288.193 169.215C288.038 169.215 287.892 169.206 287.736 169.196C287.428 169.175 287.122 169.125 286.823 169.046C284.974 168.597 283.446 167.267 282.714 165.469C282.588 165.167 282.49 164.853 282.422 164.532H286.978C287.9 164.536 288.646 165.301 288.65 166.246Z" fill="#161720"/>
<path opacity="0.2" d="M287.736 167.183V169.196C287.428 169.175 287.122 169.125 286.823 169.046C284.974 168.597 283.446 167.267 282.714 165.469H286.065C286.987 165.472 287.733 166.238 287.736 167.183Z" fill="#161720"/>
<path opacity="0.2" d="M287.736 167.183V169.196C287.428 169.175 287.122 169.125 286.823 169.046C284.974 168.597 283.446 167.267 282.714 165.469H286.065C286.987 165.472 287.733 166.238 287.736 167.183Z" fill="#161720"/>
<path opacity="0.2" d="M286.823 167.183V169.046C284.974 168.597 283.446 167.267 282.714 165.469H285.152C286.074 165.472 286.82 166.238 286.823 167.183Z" fill="#161720"/>
<path d="M268.407 165.469H285.149C286.074 165.469 286.823 166.237 286.823 167.185V184.355C286.823 185.303 286.074 186.072 285.149 186.072H268.407C267.483 186.072 266.733 185.303 266.733 184.355V167.185C266.733 166.237 267.483 165.469 268.407 165.469Z" fill="#161720"/>
<path d="M281.183 172.004H277.837V181.35H275.704V172.004H272.373V170.191H281.183V172.004Z" fill="white"/>
</g>
<g clip-path="url(#clip2)">
<path d="M230.27 216.707C229.551 215.99 228.769 215.441 227.941 215.06C227.113 214.679 226.065 214.496 224.862 214.496C223.893 214.496 222.97 214.664 222.111 214.999C221.251 215.335 220.501 215.807 219.86 216.417C219.203 217.027 218.687 217.774 218.312 218.642C217.937 219.511 217.75 220.472 217.75 221.539C217.75 222.606 217.937 223.566 218.312 224.435C218.687 225.304 219.203 226.036 219.86 226.646C220.516 227.255 221.282 227.743 222.142 228.079C223.002 228.414 223.939 228.582 224.924 228.582C225.971 228.582 226.894 228.444 227.675 228.155C228.457 227.865 229.129 227.469 229.692 226.981C230.067 226.646 230.411 226.234 230.708 225.746C231.005 225.243 231.239 224.694 231.411 224.085H224.799V220.426H235.585C235.647 220.67 235.694 220.96 235.741 221.325C235.788 221.691 235.803 222.027 235.803 222.377C235.803 223.825 235.585 225.136 235.147 226.341C234.709 227.545 234.037 228.597 233.162 229.527C232.177 230.548 231.005 231.326 229.629 231.89C228.254 232.454 226.675 232.728 224.909 232.728C223.314 232.728 221.814 232.454 220.407 231.89C219 231.326 217.765 230.548 216.702 229.557C215.655 228.566 214.827 227.393 214.201 226.036C213.576 224.679 213.279 223.17 213.279 221.554C213.279 219.938 213.592 218.444 214.201 217.072C214.811 215.7 215.639 214.527 216.702 213.536C217.75 212.545 218.984 211.783 220.407 211.219C221.829 210.655 223.33 210.38 224.909 210.38C226.722 210.38 228.332 210.685 229.723 211.295C231.114 211.905 232.318 212.743 233.334 213.81L230.27 216.707Z" fill="#161720"/>
<path d="M257.984 226.524C257.984 228.399 257.28 229.908 255.874 231.051C254.451 232.164 252.716 232.728 250.669 232.728C248.855 232.728 247.245 232.21 245.854 231.173C244.463 230.136 243.509 228.719 242.978 226.935L245.667 225.853C245.854 226.493 246.104 227.072 246.432 227.591C246.761 228.109 247.136 228.551 247.574 228.917C248.011 229.283 248.496 229.572 249.027 229.786C249.559 229.999 250.121 230.106 250.715 230.106C251.997 230.106 253.06 229.786 253.873 229.13C254.686 228.49 255.092 227.621 255.092 226.554C255.092 225.655 254.748 224.893 254.076 224.252C253.451 223.643 252.263 223.033 250.528 222.454C248.777 221.844 247.683 221.417 247.245 221.204C244.916 220.045 243.76 218.353 243.76 216.097C243.76 214.527 244.4 213.185 245.682 212.072C246.995 210.96 248.59 210.396 250.497 210.396C252.169 210.396 253.623 210.807 254.842 211.646C256.061 212.469 256.89 213.49 257.296 214.725L254.686 215.777C254.436 214.984 253.951 214.313 253.232 213.795C252.513 213.261 251.622 213.002 250.59 213.002C249.481 213.002 248.558 213.307 247.808 213.902C247.058 214.45 246.683 215.182 246.683 216.066C246.683 216.798 246.98 217.438 247.574 217.972C248.23 218.505 249.652 219.146 251.825 219.877C254.045 220.609 255.639 221.524 256.593 222.591C257.515 223.658 257.984 224.969 257.984 226.524Z" fill="#161720"/>
<path d="M273.599 232.24H270.911V230.213H270.786C270.364 230.929 269.691 231.524 268.816 232.011C267.925 232.484 267.003 232.728 266.049 232.728C264.205 232.728 262.798 232.21 261.813 231.188C260.829 230.167 260.328 228.703 260.328 226.813V217.606H263.142V226.63C263.205 229.024 264.439 230.213 266.847 230.213C267.972 230.213 268.91 229.771 269.66 228.886C270.411 228.002 270.786 226.935 270.786 225.7V217.606H273.599V232.24Z" fill="#161720"/>
<path d="M280.024 212.56C280.024 213.094 279.836 213.551 279.445 213.932C279.055 214.313 278.586 214.496 278.038 214.496C277.491 214.496 277.022 214.313 276.632 213.932C276.241 213.551 276.053 213.094 276.053 212.56C276.053 212.027 276.241 211.569 276.632 211.188C277.022 210.807 277.491 210.624 278.038 210.624C278.586 210.624 279.055 210.807 279.445 211.188C279.836 211.569 280.024 212.027 280.024 212.56ZM279.445 217.606V232.24H276.632V217.606H279.445Z" fill="#161720"/>
<path d="M288.089 232.484C286.87 232.484 285.854 232.118 285.041 231.387C284.228 230.655 283.822 229.618 283.806 228.307V220.121H281.165V217.606H283.791V213.124H286.604V217.606H290.278V220.121H286.604V227.408C286.604 228.384 286.792 229.039 287.183 229.39C287.573 229.74 288.011 229.908 288.496 229.908C288.714 229.908 288.933 229.877 289.152 229.832C289.371 229.786 289.559 229.71 289.746 229.634L290.637 232.088C289.934 232.347 289.074 232.484 288.089 232.484Z" fill="#161720"/>
<path d="M298.625 232.713C296.421 232.713 294.607 231.981 293.169 230.502C291.747 229.024 291.028 227.164 291.028 224.923C291.028 222.697 291.716 220.838 293.107 219.359C294.498 217.88 296.264 217.133 298.437 217.133C300.657 217.133 302.438 217.835 303.751 219.237C305.064 220.639 305.721 222.606 305.721 225.136L305.69 225.441H293.904C293.951 226.874 294.435 228.033 295.373 228.902C296.311 229.771 297.437 230.213 298.75 230.213C300.547 230.213 301.954 229.344 302.97 227.591L305.487 228.78C304.814 230.014 303.877 230.975 302.689 231.676C301.485 232.362 300.125 232.713 298.625 232.713ZM294.123 223.155H302.735C302.657 222.133 302.235 221.295 301.469 220.624C300.703 219.953 299.672 219.618 298.39 219.618C297.327 219.618 296.421 219.938 295.655 220.578C294.873 221.234 294.373 222.088 294.123 223.155Z" fill="#161720"/>
</g>
<path d="M282.76 139.052C283.082 138.274 282.714 137.38 281.928 137.077C267.816 131.641 252.184 131.641 238.072 137.077C237.287 137.38 236.918 138.274 237.24 139.052C237.562 139.83 238.454 140.198 239.24 139.896C252.604 134.768 267.396 134.768 280.76 139.896C281.546 140.198 282.438 139.83 282.76 139.052Z" fill="#161720"/>
<path d="M237.24 248.948C236.918 249.726 237.286 250.62 238.072 250.923C245.065 253.616 252.498 255 260 255C267.502 255 274.935 253.616 281.928 250.923C282.714 250.62 283.082 249.726 282.76 248.948C282.438 248.17 281.546 247.802 280.76 248.104C274.138 250.645 267.101 251.95 260 251.95C252.899 251.95 245.862 250.645 239.24 248.104C238.454 247.802 237.562 248.17 237.24 248.948Z" fill="#161720"/>
<path d="M314.948 216.76C315.726 217.082 316.62 216.714 316.923 215.928C322.359 201.816 322.359 186.184 316.923 172.072C316.62 171.287 315.726 170.918 314.948 171.24C314.17 171.562 313.802 172.454 314.104 173.24C319.232 186.604 319.232 201.396 314.104 214.76C313.802 215.546 314.17 216.438 314.948 216.76Z" fill="#161720"/>
<path d="M205.052 171.24C204.274 170.918 203.38 171.286 203.077 172.072C200.384 179.065 199 186.498 199 194C199 201.502 200.384 208.935 203.077 215.928C203.38 216.714 204.274 217.082 205.052 216.76C205.83 216.438 206.198 215.546 205.896 214.76C203.355 208.138 202.05 201.101 202.05 194C202.05 186.899 203.355 179.862 205.896 173.24C206.198 172.454 205.83 171.562 205.052 171.24Z" fill="#161720"/>
<path d="M150 276.518C150 276.518 127.928 280.632 98.789 269.903C89.9261 266.415 76.6907 261.552 68.3317 256.981C63.0832 240.102 67.4478 207.566 67.4478 207.338C67.4585 206.975 67.3259 206.623 67.0787 206.358C66.8315 206.093 66.4899 205.936 66.1282 205.923C65.9442 205.894 65.7561 205.908 65.5782 205.963C65.4003 206.019 65.2373 206.114 65.1013 206.241C64.9654 206.369 64.8601 206.526 64.7935 206.7C64.7269 206.874 64.7006 207.062 64.7167 207.248C64.7167 208.023 60.5736 237.499 65.0075 255.063C62.1394 253.42 59.7274 252.004 57.8147 250.905C54.5374 248.987 52.7671 247.847 52.4066 248.029C52.046 248.167 53.1277 249.582 56.14 252.138C65.2176 259.683 81.6465 265.804 92.4423 270.556C102.867 275.395 125.846 278.991 137.41 280.039C138.274 280.132 146.55 280.41 146.55 280.41C146.55 280.41 144.34 300.272 143.091 311.182C134.841 315 104.82 314.513 102.907 314.513C96.1513 314.584 83.0602 314.059 76.4385 312.714C61.5858 309.891 47.6091 303.586 35.6486 294.315C10.7423 274.605 3.54947 239.446 13.7925 210.097C18.5896 196.944 27.1788 185.519 38.468 177.274C52.1254 167.092 68.5138 161.477 84.6751 156C69.015 158.281 53.5369 163.03 40.1481 171.476C25.6136 180.416 14.5501 194.054 8.78094 210.144C1.99347 229.564 2.4462 250.792 10.0555 269.903C17.9766 289.259 35.9604 304.827 55.5361 311.583C75.8851 318.568 115.772 320.311 136.714 314.513L137.351 314.333L143.091 313C143.181 312.224 143.091 312.5 143.091 311.182H145.591L149.416 280.229L150 276.518Z" fill="#161720"/>
<path d="M85.3576 126.404C85.4487 129.291 90.786 135.113 95.2945 136.211L95.4311 137.723C96.9503 154.218 98.9742 162.193 99.9396 155.548C100.508 149.808 100.662 144.034 100.4 138.272C100.308 134.462 100.169 130.39 99.8941 126.175L99.8012 124.618C99.8229 123.56 99.5177 122.52 98.9268 121.639C98.5663 121.182 98.1145 120.804 97.6 120.53C97.0855 120.255 96.5194 120.09 95.9375 120.044L94.3272 119.816C92.6972 119.742 91.1133 119.253 89.7276 118.395C89.2231 117.899 88.8275 117.305 88.566 116.649C88.3044 115.993 88.1827 115.29 88.2084 114.584C88.1646 113.064 88.2868 111.543 88.5727 110.048C88.7065 109.039 89.0199 108.061 89.4981 107.161C91.2924 105.557 93.3235 105.741 93.6878 108.628C94.3764 113.759 96.3547 102.442 99.7137 100.838C103.073 99.234 119.265 96.5304 123.213 74.3467C123.213 74.3467 129.515 86.3531 148.928 90.1108C148.883 90.5681 148.837 91.0725 148.746 91.6676C148.564 94.05 148.609 97.4867 148.746 101.647C148.95 106.336 148.904 111.031 148.609 115.715C148.28 121.042 146.887 126.249 144.511 131.033C142.091 135.827 137.905 139.505 132.827 141.297C130.399 142.036 127.866 142.376 125.327 142.304C123.055 142.359 120.781 142.268 118.52 142.03C115.275 141.715 112.051 141.21 108.866 140.519C106.612 140.06 105.279 139.831 105.04 140.105C104.802 140.379 105.639 141.159 107.802 142.304C110.909 143.847 114.202 144.987 117.6 145.695C119.756 146.136 121.938 146.439 124.132 146.603C123.654 149.667 123.874 152.799 124.775 155.768C125.161 157.4 125.864 158.941 126.847 160.304C127.537 161.129 128.273 161.313 128.916 160.349C130.113 158.471 129.929 153.523 128.825 149.306C128.624 148.429 128.347 147.57 127.996 146.741H128.641C130.14 146.706 131.633 146.538 133.102 146.236C136.243 145.494 139.201 144.129 141.802 142.224C144.402 140.32 146.591 137.913 148.238 135.148C151.435 129.634 153.22 123.421 153.437 117.058C153.614 113.002 153.445 108.94 152.93 104.913C155.002 101.981 165.904 84.6148 152.202 62.529C137.159 38.3349 119.679 59.7329 119.679 59.7329C119.679 59.7329 97.9194 46.7667 84.9004 63.9062C77.1789 73.8971 73.2232 86.2707 73.7229 98.8693C73.7229 98.8693 69.1689 98.5935 70.1344 104.917C71.0998 111.24 85.2647 123.151 85.3576 126.404ZM92.1194 92.7708C93.5457 91.7166 96.4439 90.3431 99.6172 88.28C103.09 86.0319 106.3 83.4039 109.186 80.4451C111.318 78.216 113.329 75.8757 115.212 73.434C115.759 72.7082 116.179 72.2437 116.5 72.2437C116.821 72.2437 117.099 72.7463 117.099 73.8005C116.609 77.1573 115.226 80.322 113.092 82.9654C110.273 86.7421 106.627 89.8293 102.432 91.9924C99.5067 93.6292 96.2172 94.5111 92.8626 94.5581C90.97 94.4202 90.6931 93.7797 92.1194 92.7708Z" fill="#161720"/>
<path fill-rule="evenodd" clip-rule="evenodd" d="M71 160.04C72.2378 167.142 75.5332 173.718 80.4737 178.947C85.6926 183.994 92.0132 187.745 98.9311 189.902C105.849 192.059 113.173 192.561 120.318 191.369C126.73 190.58 132.991 188.844 138.898 186.218C141.033 184.944 143.04 183.465 144.891 181.801C150.372 177.162 155.103 171.697 158.916 165.601C158.952 165.505 158.98 165.407 159 165.308L158.373 164.268L157.346 164.89V164.938V164.914C153.132 170.275 148.218 175.041 142.738 179.083C139.375 181.944 135.374 183.944 131.074 184.913C102.853 192.787 82.1958 181.85 74.2525 164.292C71.991 158.699 73.3694 160.116 71.6393 159L71 160.04Z" fill="#161720"/>
<path fill-rule="evenodd" clip-rule="evenodd" d="M149.2 156.289L148.362 155.24L148.024 155.382C147.87 155.446 147.752 155.492 147.654 155.53L147.638 155.536C147.55 155.571 147.458 155.606 147.382 155.643C147.293 155.687 147.198 155.745 147.111 155.838C147.029 155.927 146.977 156.022 146.938 156.101C146.913 156.153 146.886 156.214 146.853 156.288C146.715 156.603 146.474 157.154 145.773 158.302C139.729 167.152 124.51 172.419 103.892 167.538L103.883 167.536L103.874 167.534C100.769 166.92 97.9071 165.778 95.532 164.213L95.5066 164.198C91.6293 161.971 88.171 159.394 85.2202 156.535L85.2243 156.419L84.9832 156.304L84.2801 155.616L83.8621 155.77L82.9628 156.764L83.0249 157.015C83.0462 157.101 83.0763 157.185 83.1143 157.265L83.1761 157.362C85.9154 160.732 89.3485 163.782 93.3496 166.406C94.7094 167.35 96.188 168.198 97.7644 168.939L97.7854 168.948L97.8073 168.956C102.159 170.513 106.789 171.603 111.546 172.192C116.859 173.017 122.336 172.94 127.544 171.968C132.754 170.995 137.558 169.151 141.57 166.576L141.579 166.57L141.587 166.564C145.412 163.871 148.05 160.386 149.133 156.529L149.2 156.289Z" fill="#161720"/>
<path fill-rule="evenodd" clip-rule="evenodd" d="M142 167.252L142.229 168.507C143.161 170.684 144.649 172.448 146.477 173.54C147.149 174.084 147.899 174.471 148.69 174.684C149.426 175.031 150.233 175.094 151 174.864C150.846 173.377 150.911 173.677 150.725 173.232C150.359 172.308 149.886 171.452 149.319 170.687C148.11 169.24 146.658 168.114 145.061 167.384C142.898 166.828 143.133 166.96 142 167.252Z" fill="#161720"/>
<path fill-rule="evenodd" clip-rule="evenodd" d="M134 173.158V173.182C134.216 175.304 134.907 177.316 136 179.003C136.634 180.288 137.472 181.41 138.466 182.306C138.796 182.659 138.519 182.469 139.618 183C140.004 181.858 140.103 182.076 139.889 179.756C139.792 178.95 139.568 178.173 139.229 177.468C138.666 176.047 137.899 174.756 136.964 173.654C136.379 173.12 135.764 172.636 135.122 172.206L134.149 172L134 173.158Z" fill="#161720"/>
<path fill-rule="evenodd" clip-rule="evenodd" d="M122.005 176.079C121.931 178.489 122.721 180.866 124.283 182.93C125.211 184.474 126.333 185.939 127.633 187.301C127.677 187.336 128.816 187.973 128.865 188L129.707 187.037V187.014C130.277 185.091 130.01 183.07 128.948 181.285C128.104 179.329 126.667 177.57 124.765 176.165C123.611 175.283 124.317 175.613 122.55 175L122.005 176.079Z" fill="#161720"/>
<path fill-rule="evenodd" clip-rule="evenodd" d="M110.954 175.775C110.732 176.266 110.544 176.771 110.393 177.289C109.925 179.737 109.874 182.249 110.245 184.714C110.39 185.527 110.827 187.23 110.905 187.907C110.907 187.937 110.907 187.967 110.905 187.998L111.429 189L112.408 188.455V188.433C113.214 187.344 113.743 186.069 113.948 184.722C114.114 182.452 113.882 180.171 113.265 177.985C112.237 175.265 112.894 176.279 111.781 175C111.762 175.034 110.954 175.741 110.954 175.775Z" fill="#161720"/>
<path fill-rule="evenodd" clip-rule="evenodd" d="M98.851 174.594C96.8686 176.881 95.8621 179.736 96.0152 182.638C96.055 183.642 96.1908 184.64 96.4209 185.622C96.5106 186.116 96.3697 185.815 97.1384 187C98.3086 186.367 98.1805 186.498 98.5008 186.081C99.2126 185.237 99.7877 184.305 100.209 183.314C101.005 180.922 101.203 178.4 100.79 175.93C100.572 174.733 100.76 175.197 99.9358 174L98.851 174.594Z" fill="#161720"/>
<path fill-rule="evenodd" clip-rule="evenodd" d="M90.7138 170.191C89.3831 170.708 88.1777 171.467 87.1688 172.425C85.9593 173.283 85.0255 174.432 84.468 175.748C84.0604 176.431 83.913 177.221 84.0496 177.992C84.8692 178.041 85.6866 177.869 86.403 177.496C87.8307 176.979 89.0733 176.101 89.9891 174.96C90.8391 174.178 91.4523 173.202 91.7672 172.13C92.0555 171.448 92.0767 170.694 91.827 170L90.7138 170.191Z" fill="#161720"/>
<path fill-rule="evenodd" clip-rule="evenodd" d="M82.6899 163.002C81.603 163.132 80.5425 163.495 79.5561 164.075C76.1785 166.006 76.3962 167.204 75.4279 168.166L75 169.452L76.0471 169.977C77.1862 170.064 78.3289 169.907 79.4248 169.512C80.7822 168.833 82.1012 168.042 83.3729 167.144C85.7636 165.05 85.1518 165.607 86 164.483C85.0955 163.443 85.3095 163.582 84.9342 163.424C84.2114 163.124 83.4521 162.981 82.6899 163.002Z" fill="#161720"/>
<path fill-rule="evenodd" clip-rule="evenodd" d="M133.447 101.473C134.884 105.54 136.097 109.67 137.083 113.848C137.35 114.956 137.871 117.148 137.986 118.278C138.028 118.555 137.975 118.837 137.836 119.085C137.697 119.334 137.478 119.538 137.209 119.669C134.85 121.002 130.042 120.861 128.684 120.976H128.717H128.697L128.73 120.966L128.775 120.944L128.862 120.889L128.969 120.777C129.056 120.579 129.197 120.531 128.41 121L128 120.428C128.013 120.375 128.035 120.324 128.065 120.277L128.113 120.217C128.187 120.132 128.289 120.071 128.404 120.044C130.765 119.499 133.086 118.819 135.354 118.008C133.85 112.613 132.853 107.111 132.374 101.56V101.546V101.497L132.9 101L133.447 101.473Z" fill="#161720"/>
<path fill-rule="evenodd" clip-rule="evenodd" d="M134.835 129.988V130.001C134.351 130.757 133.685 131.343 132.915 131.689C132.461 131.857 131.99 131.96 131.514 131.994C131.256 132.007 131.159 131.994 130.98 131.994C130.241 132.021 129.508 131.846 128.842 131.486C128.176 131.126 127.598 130.59 127.157 129.925C127.107 129.87 127.067 129.803 127.042 129.73L127.016 129.65C127.016 129.478 126.98 129.65 127.016 129.371L127.048 129.285L127.083 129.209C127.113 129.163 127.148 129.121 127.187 129.085L127.246 129.038L127.319 129L127.938 129.309L127.907 129.229L127.853 129.145L127.817 129.102H127.835L127.812 129.08H127.835L127.817 129.067C128.131 129.12 129.008 129.131 129.222 129.142C130.265 129.281 131.319 129.288 132.363 129.162C134.942 129.065 133.95 128.924 135 129.207L134.835 129.988ZM127.665 130.032C127.996 129.683 127.925 129.85 127.962 129.391L127.938 129.338L127.665 130.032Z" fill="#161720"/>
<path fill-rule="evenodd" clip-rule="evenodd" d="M117.6 96.0234C119.127 95.9223 120.653 96.2289 122.051 96.9175C123.449 97.6061 124.678 98.6565 125.634 99.9808C125.452 99.9808 126.035 99.8054 126.993 103.156C128.083 106.896 128.672 110.413 126.717 113.671C121.616 121.358 108 118.711 108 106.498C108.056 104.68 108.5 102.902 109.294 101.31C110.087 99.718 111.21 98.3569 112.568 97.3378C114.087 96.3457 115.842 95.8874 117.6 96.0234ZM118.411 97.7894C116.789 97.6076 115.16 98.0368 113.785 99.0078C112.41 99.9788 111.371 101.435 110.833 103.142C110.048 105.079 109.941 107.271 110.533 109.291V109.307C111.156 111.504 112.508 113.357 114.315 114.492C115.989 115.378 117.857 115.712 119.698 115.454C121.538 115.196 123.273 114.358 124.696 113.038C125.47 112.069 126.018 110.904 126.293 109.646C126.569 108.388 126.563 107.074 126.277 105.819C126.079 104.239 125.737 102.686 125.256 101.182C125.165 100.964 125.053 100.756 124.923 100.563C124.08 99.6103 123.062 98.8694 121.939 98.3908C120.815 97.9122 119.612 97.7071 118.411 97.7894ZM125.628 99.9808L125.612 99.9687L125.628 99.9808Z" fill="#161720"/>
<path fill-rule="evenodd" clip-rule="evenodd" d="M150.408 98.2546C149.571 96.9991 148.4 96.0384 147.046 95.4958C145.691 94.9532 144.216 94.8534 142.808 95.2091C140.406 95.5699 138.597 97.6386 137.556 100.864C135.779 106.351 138.485 112.365 142.51 113.645C144.252 114.219 146.131 114.094 147.792 113.292C149.452 112.49 150.778 111.067 151.518 109.295C152.202 106.635 152.157 103.824 151.39 101.191C151.239 100.155 150.906 99.1588 150.408 98.2546Z" fill="white"/>
<path fill-rule="evenodd" clip-rule="evenodd" d="M144.185 94.0143C145.536 93.958 146.877 94.2796 148.073 94.9468C149.269 95.6139 150.278 96.603 150.999 97.8144C151.447 98.5029 151.773 99.272 151.961 100.084C152.992 102.926 153.262 106.013 152.743 109.006C152.246 110.734 151.239 112.246 149.869 113.322C148.5 114.397 146.84 114.978 145.135 114.98C144.045 115.061 142.951 114.897 141.926 114.497C140.9 114.098 139.966 113.473 139.185 112.664C133.899 107.368 135.662 97.1447 141.032 94.5797C142.028 94.137 143.107 93.9435 144.185 94.0143ZM142.109 96.172C139.623 97.3628 138.261 101.068 138.159 103.601C137.977 108.04 140.387 112.533 144.621 112.672C145.976 112.715 147.315 112.355 148.485 111.631C149.648 110.905 150.535 109.771 150.991 108.426C151.447 106.865 151.571 105.218 151.356 103.601C151.239 101.814 150.879 100.055 150.288 98.378L150.264 98.3432L150.25 98.3124C149.625 97.447 148.812 96.7544 147.88 96.2936C146.036 95.5043 143.982 95.461 142.109 96.172ZM151.006 97.8144V97.8048V97.8144Z" fill="#161720"/>
<path d="M118.431 109C118.052 109 117.688 108.892 117.419 108.699C117.151 108.506 117 108.244 117 107.972C117 107.438 117.066 106.832 117.066 105.301C117.066 103.32 120.462 103.832 119.947 105.301C119.858 108.514 119.862 107.238 119.862 107.98C119.86 108.252 119.708 108.511 119.44 108.702C119.172 108.893 118.809 109 118.431 109Z" fill="#161720"/>
<path d="M143.733 108C143.434 107.999 143.145 107.875 142.918 107.652C142.691 107.428 142.541 107.119 142.494 106.78C142.414 106.217 142.273 104.777 142.034 103.059C141.646 100.312 144.717 100.478 144.536 102.586C145.079 106.977 144.804 105.018 144.984 106.323C145.013 106.531 145.003 106.743 144.953 106.945C144.904 107.148 144.817 107.335 144.697 107.495C144.578 107.654 144.43 107.782 144.264 107.87C144.097 107.957 143.916 108.001 143.733 108Z" fill="#161720"/>
<path d="M128.113 107C127.419 107 127.215 106.733 127.046 106.09C126.96 105.766 126.995 105.417 127.143 105.122C127.291 104.826 127.54 104.607 127.834 104.513C128.35 104.346 127.053 104.74 130.704 104.006C132.728 103.527 134.778 103.191 136.842 103C137.149 103 137.444 103.134 137.661 103.373C137.878 103.612 138 103.935 138 104.273C138 104.611 137.878 104.934 137.661 105.173C137.444 105.412 137.149 105.546 136.842 105.546C135.229 105.546 129.318 107 128.113 107Z" fill="#161720"/>
<path d="M107.766 106C95.1717 106 95.1414 105.826 95 104.988L96.2242 104.879L96.3313 104C96.7798 104.022 105.343 104.227 107.766 104.227C108.093 104.227 108.407 104.32 108.638 104.486C108.87 104.652 109 104.876 109 105.111C109 105.345 108.87 105.57 108.638 105.735C108.407 105.901 108.093 105.994 107.766 105.994V106Z" fill="#161720"/>
<path fill-rule="evenodd" clip-rule="evenodd" d="M149.222 156.136C149.337 155.596 149.868 155.251 150.408 155.365C150.539 155.393 150.67 155.42 150.8 155.448C151.821 155.66 152.815 155.868 153.742 156.291C154.839 156.792 155.808 157.572 156.801 158.901C158.23 160.813 159.062 163.225 159.062 165.046C159.062 165.598 158.614 166.046 158.062 166.046C157.51 166.046 157.062 165.598 157.062 165.046C157.062 163.727 156.415 161.725 155.199 160.099C154.371 158.991 153.653 158.449 152.911 158.11C152.201 157.786 151.439 157.626 150.378 157.403C150.254 157.377 150.126 157.35 149.993 157.322C149.453 157.207 149.108 156.676 149.222 156.136Z" fill="#161720"/>
<defs>
<linearGradient id="paint0_linear" x1="54.7456" y1="167.895" x2="144.747" y2="303.379" gradientUnits="userSpaceOnUse">
<stop stop-color="#3131F1"/>
<stop offset="1" stop-color="#3131F1" stop-opacity="0"/>
</linearGradient>
<clipPath id="clip0">
<rect width="38.2333" height="40.5811" fill="white" transform="translate(214.033 156)"/>
</clipPath>
<clipPath id="clip1">
<rect width="39.2667" height="37.4594" fill="white" transform="translate(266.733 157.041)"/>
</clipPath>
<clipPath id="clip2">
<rect width="93" height="22.8919" fill="white" transform="translate(213 210.108)"/>
</clipPath>
</defs>
</svg>
