<svg width="360" height="360" viewBox="0 0 360 360" fill="none" xmlns="http://www.w3.org/2000/svg">
<g clip-path="url(#clip0_12_106)">
<path d="M220.005 124.533C220.148 123.427 220.664 121.547 221.926 121.187C221.954 121.187 221.954 121.159 221.982 121.159C222.154 121.067 222.345 121.014 222.541 121.002C222.737 120.991 222.933 121.022 223.115 121.094C223.296 121.165 223.459 121.275 223.591 121.416C223.722 121.556 223.82 121.724 223.875 121.905C224.019 122.374 224.039 122.87 223.934 123.348C223.828 123.826 223.602 124.271 223.273 124.644C223.149 124.926 222.995 125.195 222.814 125.447C222.667 125.68 222.44 125.855 222.172 125.941C221.905 126.027 221.614 126.019 221.352 125.918C221.324 125.918 221.324 125.889 221.294 125.889C221.115 125.889 220.937 125.853 220.773 125.784C220.609 125.714 220.461 125.612 220.34 125.485C220.219 125.357 220.126 125.207 220.069 125.043C220.011 124.879 219.989 124.706 220.005 124.533Z" fill="#161720"/>
<path d="M238.987 327.825C237.485 333.032 234.56 337.697 230.554 341.276C229.586 342.14 228.574 342.953 227.524 343.712C226.695 344.314 225.015 344.94 224.658 345.904C224.451 346.83 224.34 347.776 224.327 348.726C224.232 349.569 224.138 350.437 224.02 351.281C224.084 352.824 223.714 354.355 222.954 355.692C222.844 355.806 222.709 355.892 222.56 355.944C222.411 355.996 222.252 356.012 222.096 355.991C221.94 355.97 221.791 355.912 221.661 355.823C221.53 355.733 221.422 355.614 221.345 355.474C220.657 354.004 221.179 352.268 221.368 350.702C221.58 348.967 221.723 347.23 222.006 345.521C222.409 342.942 225.393 342.026 227.216 340.579C231.661 337.018 235.263 332.485 237.756 327.315C237.841 327.181 237.97 327.081 238.119 327.032C238.269 326.984 238.431 326.99 238.577 327.05C238.723 327.11 238.844 327.22 238.918 327.361C238.993 327.502 239.018 327.664 238.987 327.822V327.825Z" fill="#161720" stroke="#161720" stroke-width="0.326" stroke-miterlimit="10"/>
<path d="M214.221 133.258C213.951 133.197 213.711 133.041 213.544 132.819C212.31 131.065 211.222 129.577 212.745 127.652C214.348 125.565 216.164 123.654 218.162 121.948C218.218 121.901 218.284 121.868 218.355 121.851C219.65 118.567 221.194 115.389 222.973 112.345C223.036 112.233 223.128 112.14 223.24 112.077C223.049 110.484 222.968 108.88 222.998 107.275C222.992 107.089 223.026 106.904 223.097 106.732C223.167 106.559 223.274 106.404 223.409 106.277C223.36 101.158 227.373 98.4776 231.605 95.6008C234.366 93.7634 237.509 92.5903 240.792 92.1719C244.074 91.7536 247.408 92.1012 250.536 93.188C256.772 95.1623 261.997 97.2577 265.89 102.571C269.734 107.837 272.539 118.196 273.94 124.508C277.326 139.716 275.391 151.855 276.214 167.283C276.482 174.942 277.709 182.535 279.865 189.884C280.324 191.322 281.605 193.247 280.662 194.636C279.555 196.119 278.299 197.484 276.915 198.707C274.369 201.117 271.554 203.219 268.526 204.971C254.26 213.136 237.988 207.847 224.521 198.414C224.255 198.252 224.048 198.009 223.931 197.719C223.813 197.43 223.791 197.11 223.868 196.807C227.834 186.886 228.751 180.866 229.863 170.239C230.832 160.904 229.816 150.644 234.699 142.235C234.826 142.026 235.003 141.853 235.215 141.732C235.427 141.612 235.666 141.549 235.909 141.549C236.152 141.549 236.391 141.612 236.603 141.732C236.814 141.853 236.992 142.026 237.118 142.235C239.512 145.452 243.84 142.965 244.83 139.894C245.169 138.846 245.629 135.654 244.978 134.655C244.012 133.169 241.563 133.757 240.481 134.608C240.209 134.759 239.896 134.819 239.587 134.779C239.279 134.74 238.991 134.603 238.765 134.388C234.509 130.659 230.134 127.905 227.035 123.104C225.457 120.629 224.335 117.887 223.722 115.011C220.99 122.345 217.678 129.489 215.816 137.118C215.019 140.384 213.858 145.526 216.446 148.304C217.917 149.689 219.848 150.471 221.861 150.499C222.854 150.552 223.85 150.445 224.811 150.181C225.614 149.827 226.474 149.62 227.35 149.572C227.519 149.574 227.684 149.621 227.83 149.707C227.976 149.792 228.098 149.915 228.183 150.062C228.268 150.209 228.314 150.376 228.316 150.547C228.319 150.717 228.277 150.885 228.196 151.034C227.743 151.59 227.18 152.045 226.543 152.368C225.906 152.691 225.209 152.876 224.496 152.911C225.512 155.689 225.657 160.687 223.506 162.929C223.341 163.083 223.132 163.18 222.909 163.205C222.686 163.229 222.461 163.18 222.267 163.065C222.074 162.949 221.923 162.774 221.837 162.565C221.751 162.356 221.734 162.125 221.789 161.905C222.376 160.413 222.798 158.86 223.045 157.274C223.142 155.86 222.998 154.447 223.167 153.033C223.045 153.033 222.925 153.058 222.803 153.058C220.674 153.134 218.563 152.638 216.688 151.62C212.649 149.401 212.094 144.941 212.576 140.725C212.894 138.19 213.445 135.69 214.221 133.258ZM260.208 102.986C262.892 107.202 264.709 111.918 265.553 116.855C266.049 119.783 266.388 122.737 266.569 125.702C266.567 128.629 266.834 131.55 267.366 134.428C267.399 134.531 267.463 134.621 267.55 134.685C267.637 134.748 267.742 134.783 267.849 134.783C267.957 134.783 268.061 134.748 268.148 134.685C268.235 134.621 268.3 134.531 268.333 134.428C269.042 131.286 269.173 128.039 268.72 124.849C268.513 121.89 268.15 118.945 267.632 116.025C267.194 113.397 266.456 110.829 265.431 108.373C264.929 107.174 264.322 106.022 263.618 104.93C262.924 103.917 262.065 103.029 261.078 102.303C260.619 101.938 259.846 102.401 260.208 102.986ZM228.631 111.591C229.429 113.44 230.409 115.203 231.556 116.855C232.447 118.122 233.515 120.121 234.918 120.852C235.035 120.916 235.166 120.948 235.298 120.947C235.431 120.945 235.561 120.91 235.677 120.844C235.793 120.779 235.89 120.685 235.96 120.571C236.03 120.457 236.07 120.328 236.077 120.194C235.886 118.615 235.295 117.113 234.361 115.831C233.564 114.369 232.668 112.954 231.895 111.444C231.134 109.979 230.581 108.413 230.251 106.793C230.012 105.123 229.907 103.436 229.936 101.748C229.93 101.558 229.864 101.376 229.747 101.227C229.631 101.078 229.47 100.971 229.288 100.922C229.106 100.873 228.914 100.884 228.739 100.954C228.564 101.024 228.416 101.148 228.316 101.309C226.238 104.327 227.301 108.47 228.631 111.591ZM214.898 131.137C215.454 129.529 216.034 127.92 216.615 126.311C216.684 126.096 216.765 125.885 216.857 125.678C216.59 126.043 216.3 126.384 216.011 126.75C215.431 127.385 214.898 128.061 214.414 128.773C213.858 129.674 214.365 130.406 214.898 131.137Z" fill="#161720" stroke="#161720" stroke-width="0.163" stroke-miterlimit="10"/>
<path d="M221.59 167.375C220.308 166.699 219.171 165.789 217.939 165.043C216.45 164.18 214.765 163.683 213.031 163.596C205.924 163.013 198.865 164.576 192.072 166.419C179.404 169.847 164.607 174.862 154.406 180.506C148.339 183.865 143.717 186.689 139.032 191.609C138.233 192.449 137.581 191.796 138.33 190.957C142.077 186.641 145.172 184.985 149.838 181.346C154.648 177.592 161.997 174.041 167.678 171.62C174.014 169.076 180.515 166.934 187.14 165.206C193.846 163.053 200.792 161.668 207.833 161.078C211.315 160.915 215.256 160.867 218.447 162.407C221.713 163.993 224.055 166.885 228.068 166.163C228.225 166.123 228.391 166.134 228.54 166.193C228.69 166.253 228.816 166.358 228.898 166.492C228.98 166.627 229.014 166.784 228.995 166.939C228.976 167.094 228.905 167.239 228.793 167.352C226.762 169.311 223.788 168.565 221.59 167.375Z" fill="#161720" stroke="#161720" stroke-width="0.326" stroke-miterlimit="10"/>
<path d="M92.9898 103.773C91.4613 101.33 90.2909 98.6369 89.5216 95.7915C88.512 92.8123 87.6116 89.8002 86.8662 86.7197C86.141 83.7404 85.5264 80.7284 85.0007 77.6955C84.7311 76.0941 84.4737 74.4689 84.2755 72.8691C84.1219 71.6774 83.6016 70.0551 84.5828 69.2299C84.7059 69.106 84.861 69.0278 85.0263 69.0061C85.1917 68.9845 85.359 69.0205 85.5048 69.1092C86.6465 69.6425 86.5144 71.2677 86.6681 72.4326C86.8662 73.8626 87.086 75.2942 87.3043 76.7257C87.8098 79.7571 88.4244 82.79 89.1483 85.7737C89.8505 88.6606 90.5973 91.5461 91.4532 94.3853C92.535 97.2231 93.387 100.161 93.9994 103.165C94.021 103.698 93.4064 104.354 92.9898 103.773Z" fill="#161720" stroke="#161720" stroke-width="0.326" stroke-miterlimit="10"/>
<path d="M83.9963 89.2615C83.9914 89.385 83.9523 89.5045 83.8834 89.6058C83.8145 89.7071 83.7188 89.7861 83.6076 89.8332C83.4964 89.8803 83.3744 89.8937 83.256 89.8718C83.1377 89.8499 83.0279 89.7935 82.9397 89.7095C82.1822 89.0731 81.3542 88.4831 80.6419 89.5442C80.208 90.4271 80.0178 91.4153 80.0917 92.4014C80.0331 94.3149 80.1716 96.2294 80.505 98.1129C80.8165 99.8419 81.2464 101.546 81.7915 103.213C82.2048 104.517 83.4447 106.402 82.7324 107.721C82.6709 107.828 82.5771 107.911 82.4653 107.958C82.3534 108.005 82.2298 108.013 82.1131 107.981C81.1017 107.698 80.8267 106.706 80.4811 105.763C79.9535 104.37 79.4936 102.929 79.1029 101.489C78.3469 98.7807 77.9759 95.9742 78.0012 93.1567C78.0464 91.1504 78.162 88.4831 80.0917 87.3263C81.5616 86.5 84.1105 87.2784 83.9963 89.2615Z" fill="#161720" stroke="#161720" stroke-width="0.326" stroke-miterlimit="10"/>
<path d="M75.712 100.887C75.9305 102.296 76.2628 103.69 76.7063 105.055C77.3903 106.402 77.8272 107.84 78 109.313C77.9756 109.762 77.3524 110.209 76.8804 109.895C74.9407 108.596 74.3939 105.794 73.8959 103.8C73.3209 101.468 73.029 99.0861 73.0254 96.6969C73.0254 95.0841 72.7016 92.5287 74.3679 91.4086C74.6557 91.1986 75.0017 91.0633 75.3685 91.0174C75.7353 90.9715 76.1091 91.0167 76.4495 91.1481C76.79 91.2795 77.0841 91.4922 77.3003 91.7631C77.5164 92.034 77.6464 92.353 77.6762 92.6856C77.6738 92.804 77.6331 92.9193 77.5591 93.0172C77.485 93.1151 77.3809 93.1914 77.2594 93.2367C77.1379 93.282 77.0043 93.2943 76.8751 93.2722C76.746 93.2501 76.6268 93.1945 76.5322 93.1122C75.1896 91.9686 75.3638 95.6882 75.3638 96.2042C75.3558 97.7707 75.4721 99.3356 75.712 100.887Z" fill="#161720" stroke="#161720" stroke-width="0.326" stroke-miterlimit="10"/>
<path d="M70.0511 93.6755C70.8301 92.8724 72.412 92.6286 72.9233 93.8251C73.0728 94.1421 72.8994 94.6521 72.4613 94.6043C70.6103 94.4338 71.2652 98.2088 71.3654 99.3529C71.5363 101.304 71.8784 103.235 72.3881 105.126C73.3624 108.601 74.9631 111.87 77.1114 114.77C79.0551 117.425 81.0796 119.982 82.8573 122.758C84.4646 125.242 86.4861 127.679 85.9972 130.746C87.8695 129.683 89.8996 128.925 92.0108 128.503C93.3564 128.211 94.6886 128.017 96.0478 127.846C97.0598 127.665 98.0883 127.591 99.1159 127.626C98.9961 127.509 98.9188 127.354 98.8961 127.188C98.9039 125.807 99.1854 124.441 99.7244 123.169C100.186 121.66 100.771 120.197 101.332 118.736C102.508 115.913 103.476 113.007 104.229 110.042C104.789 107.411 104.977 104.271 103.157 102.078C101.429 99.9841 98.5552 99.8136 96.6817 98.0113C96.5754 97.8994 96.5039 97.7591 96.4758 97.6073C96.4477 97.4555 96.4643 97.2988 96.5235 97.1563C96.5827 97.0138 96.682 96.8915 96.8094 96.8043C96.9367 96.7172 97.0867 96.6689 97.2409 96.6653C99.8216 96.3736 102.939 98.1504 104.691 99.9557C105.676 101.079 106.401 102.405 106.815 103.841C107.228 105.277 107.32 106.786 107.084 108.261C106.617 111.593 105.7 114.846 104.356 117.93C103.724 119.514 102.993 121.096 102.311 122.679C101.776 124.376 101.041 126.003 100.121 127.526C100.044 127.626 99.94 127.702 99.8216 127.746C100.114 127.817 100.399 127.915 100.674 128.038C100.779 127.893 100.914 127.773 101.07 127.685C101.226 127.598 101.399 127.545 101.577 127.531C101.755 127.517 101.934 127.541 102.102 127.603C102.27 127.665 102.422 127.762 102.549 127.888C110.772 136.096 117.501 145.74 124.51 154.971C128.211 159.866 131.904 164.769 135.588 169.682C139.444 174.566 143.021 179.664 146.301 184.952C146.359 185.063 146.376 185.19 146.35 185.312C146.323 185.434 146.254 185.543 146.155 185.618C146.056 185.694 145.933 185.733 145.808 185.726C145.684 185.72 145.565 185.67 145.474 185.585C141.323 181.072 137.437 176.323 133.835 171.361C130.159 166.564 126.482 161.742 122.831 156.944C115.769 147.641 109.026 137.949 100.723 129.69C100.591 129.57 100.488 129.42 100.424 129.252C98.7929 129.69 97.0406 129.813 95.3839 130.202C93.7781 130.568 92.1469 130.908 90.5889 131.419C89.0787 131.921 87.6508 132.643 86.3515 133.562C86.1238 133.73 85.8717 133.862 85.6039 133.953C87.9962 144.986 90.4005 155.946 93.7601 166.734C97.2 177.753 101.359 188.534 106.209 199.008C108.452 203.854 110.762 208.701 113.464 213.303C115.771 217.59 118.938 221.354 122.765 224.361C132.185 231.181 145.262 228.891 155.927 227.114C162.793 225.968 169.682 224.751 176.548 223.557C179.688 223.022 182.855 222.487 185.968 221.805C189.23 221.073 192.348 219.832 195.585 219.15C196.754 218.906 197.144 219.709 196.048 220.173C192.931 221.537 190.666 222.34 187.648 223.581C185.496 224.489 183.251 225.159 180.953 225.58C181.85 229.257 182.194 233.129 182.876 236.831C183.581 240.606 184.337 244.381 185.189 248.107C186.041 251.858 186.967 255.585 188.013 259.287C188.525 261.089 189.036 262.891 189.597 264.693C190.265 266.372 190.778 268.108 191.129 269.88C191.228 270.197 191.349 270.489 191.446 270.806C191.569 271.147 191.69 271.464 191.811 271.805C192.419 271.634 193.007 271.464 193.605 271.317C196.292 270.639 199.015 270.118 201.763 269.759C207.115 269.053 212.517 268.808 217.911 269.028C223.445 269.255 228.964 269.775 234.443 270.588C237.291 271 240.14 271.44 242.965 271.975C245.706 272.383 248.415 272.977 251.074 273.754C255.857 264.976 260.046 255.887 263.612 246.548C265.39 241.873 267.005 237.148 268.458 232.374C269.943 227.527 271.695 222.511 273.392 217.736C273.66 217.007 274.391 217.08 274.289 217.98C273.893 221.123 273.266 224.233 272.414 227.285C275.612 229.097 278.657 231.165 281.52 233.471C282.956 234.591 284.345 235.784 285.684 237.05C287.112 238.167 288.325 239.536 289.264 241.088C289.323 241.197 289.346 241.322 289.329 241.445C289.311 241.569 289.254 241.683 289.166 241.77C289.078 241.858 288.964 241.915 288.841 241.933C288.717 241.95 288.592 241.927 288.483 241.867C287.077 241.029 285.785 240.013 284.638 238.846C283.249 237.649 281.813 236.508 280.352 235.364C277.605 233.256 274.752 231.289 271.806 229.47C271.489 230.566 271.172 231.662 270.831 232.76C269.347 237.705 267.675 242.6 265.816 247.447C263.649 253.122 261.263 258.699 258.657 264.179C259.524 264.11 260.396 264.128 261.259 264.233C262.596 264.223 263.931 264.323 265.251 264.532C265.233 264.429 265.238 264.324 265.263 264.223C265.289 264.123 265.336 264.028 265.401 263.947C268.382 260.612 271.623 257.517 275.091 254.692C278.304 251.793 281.566 248.944 284.83 246.095C287.849 243.464 290.892 240.883 294.083 238.448C297.203 235.839 300.608 233.592 304.235 231.751C305.581 231.166 305.431 231.507 304.162 232.334C302.945 233.162 301.872 234.185 299.097 236.182C297.442 237.352 295.762 239.202 294.154 240.445C290.941 242.905 288.993 245.657 285.95 248.312C282.736 251.111 279.57 253.962 276.332 256.762C273.492 259.417 270.501 261.906 267.373 264.215C268.181 265.419 268.774 266.753 269.125 268.16C269.686 269.792 270.172 271.451 270.611 273.105C271.455 276.013 271.929 279.016 272.023 282.043C272.096 281.988 272.179 281.947 272.266 281.921C275.319 280.983 278.425 280.227 281.566 279.656C284.684 278.926 287.8 278.17 290.892 277.342C297.076 275.662 303.188 273.763 309.202 271.57C314.944 269.586 320.539 267.201 325.948 264.435C331.186 261.899 335.738 258.14 339.218 253.475C340.86 251.277 342.038 248.769 342.683 246.102C343.328 243.435 343.424 240.666 342.967 237.96C341.725 232.163 337.83 227.294 334.203 222.763C327.125 213.914 319.162 205.811 310.438 198.579C305.5 194.496 300.339 190.691 294.978 187.181C289.596 183.648 283.851 180.726 278.446 177.244C277.716 176.78 278.178 175.442 279.055 175.783C284.584 177.971 289.871 180.728 294.832 184.009C310.017 193.519 323.551 205.44 334.902 219.305C338.676 223.933 342.668 228.728 344.771 234.411C345.725 237.109 346.13 239.971 345.963 242.828C345.796 245.684 345.06 248.479 343.797 251.047C338.634 262.202 326.827 267.632 316.041 271.943C309.077 274.724 301.97 277.134 294.751 279.163C291.05 280.21 287.325 281.136 283.576 281.939C279.941 282.91 276.209 283.473 272.449 283.62C272.307 283.623 272.168 283.588 272.044 283.52C271.92 283.451 271.816 283.351 271.743 283.23C271.665 283.292 271.573 283.333 271.475 283.35C271.378 283.367 271.277 283.36 271.183 283.328C271.089 283.297 271.004 283.242 270.936 283.17C270.868 283.097 270.819 283.009 270.794 282.913C270.453 281.818 270.185 280.722 269.918 279.623C268.651 280.572 267.19 281.278 265.9 282.228C265.152 282.813 263.222 284.811 262.37 283.251C261.615 281.863 264.025 280.622 264.901 280.061C266.292 279.088 267.853 278.386 269.503 277.991C269.162 276.554 268.845 275.116 268.431 273.68C268.019 272.194 267.555 270.709 267.068 269.271C266.703 268.177 266.171 267.08 265.872 265.96L265.722 266.033C264.225 266.342 262.698 266.48 261.169 266.446C260.049 266.495 258.563 266.813 257.639 266.105C256.323 268.809 254.936 271.464 253.524 274.119C253.636 274.141 253.742 274.182 253.84 274.24C258.147 277.488 261.674 281.657 264.164 286.443C266.885 291.335 269.221 296.432 271.151 301.688C275.828 313.489 279.136 325.787 281.012 338.343C281.961 345.137 282.839 352.401 281.864 359.24C281.694 360.481 279.892 360.067 279.795 358.972C279.333 352.931 279.478 346.915 278.748 340.875C278 334.797 276.844 328.776 275.29 322.852C272.532 311.501 268.506 300.497 263.286 290.047C260.42 284.775 256.939 279.861 252.914 275.409C252.885 275.382 252.861 275.349 252.843 275.312C252.816 275.339 252.799 275.373 252.793 275.409C252.694 275.582 252.554 275.727 252.384 275.832C252.214 275.936 252.021 275.995 251.822 276.005C251.623 276.015 251.425 275.974 251.246 275.887C251.067 275.8 250.912 275.669 250.797 275.507C247.896 275.286 245.009 274.896 242.154 274.337C239.305 273.924 236.455 273.461 233.607 273.046C227.613 272.182 221.571 271.694 215.515 271.585C209.711 271.466 203.91 271.948 198.204 273.022C196.841 273.29 195.503 273.583 194.167 273.92C193.087 274.402 191.91 274.626 190.728 274.576C190.732 274.619 190.724 274.661 190.704 274.699C187.734 284.343 184.203 293.818 181.573 303.584C178.927 313.442 176.894 323.454 175.487 333.564C174.684 339.238 174.343 344.962 173.491 350.637C173.296 351.879 171.348 351.534 171.348 350.345C171.444 345.246 171.893 340.159 172.694 335.122C173.375 330.037 174.18 324.991 175.177 319.949C177.149 309.844 179.751 299.871 182.968 290.091C184.704 284.626 186.854 279.301 189.398 274.162C189.461 274.05 189.554 273.958 189.665 273.894C189.318 273.335 189.056 272.728 188.886 272.092C188.692 271.533 188.474 270.996 188.278 270.436C187.648 268.938 187.143 267.391 186.769 265.809C186.208 263.933 185.649 262.034 185.138 260.135C184.091 256.334 183.166 252.507 182.337 248.663C181.509 244.912 180.827 241.113 180.244 237.314C179.523 233.578 179.091 229.792 178.952 225.989C172.573 227.086 166.202 228.183 159.84 229.28C148.689 231.203 135.712 234.004 124.95 228.981C115.576 224.597 110.609 214.588 106.324 205.746C101.12 194.997 96.6301 183.916 92.884 172.576C88.5321 159.94 85.3617 146.927 83.4135 133.705C83.3911 133.56 83.4115 133.412 83.472 133.28C83.5327 133.147 83.6308 133.034 83.7544 132.957C83.75 132.79 83.7801 132.624 83.8429 132.47C83.9057 132.315 83.9998 132.176 84.1192 132.059C84.2164 131.962 84.3136 131.889 84.4108 131.792C84.291 131.741 84.1859 131.66 84.1052 131.558C84.0245 131.456 83.9707 131.335 83.9488 131.207C83.3403 127.432 80.93 124.192 78.7381 121.149C76.4011 117.909 73.7711 114.961 72.092 111.309C70.2578 107.411 69.2072 103.191 69 98.8878C69.1495 97.3054 68.858 94.8929 70.0511 93.6755Z" fill="#161720" stroke="#161720" stroke-width="0.326" stroke-miterlimit="10"/>
<path fill-rule="evenodd" clip-rule="evenodd" d="M172.649 43.777C172.541 49.9442 172.433 56.1052 172.527 62.1538L172.522 62.1576C172.559 64.5224 172.766 68.4597 173.014 73.1777C173.609 84.525 174.442 100.388 173.719 109.753C172.532 125.119 165.569 125.264 150.048 125.588C149.359 125.602 148.654 125.617 147.931 125.633C136.68 125.888 124.015 125.99 110.807 126C110.76 125.955 110.699 125.9 110.63 125.837C110.408 125.637 110.097 125.356 109.84 125.035C109.476 124.58 109.882 124.072 110.465 124.07C124.279 124.026 137.64 123.915 149.752 123.67C150.353 123.658 150.945 123.647 151.527 123.638C163.217 123.438 170.962 123.306 171.469 109.284C171.799 100.186 171.377 90.3892 170.961 80.7028C170.695 74.527 170.431 68.396 170.365 62.5193C170.273 54.3536 170.387 46.1995 170.501 38.0474C170.591 31.5971 170.681 25.148 170.669 18.6953C170.648 8.04026 168.937 2.9342 156.909 2.34685C153.003 2.15601 148.559 2.11963 144.033 2.08258C139.819 2.04809 135.535 2.01302 131.549 1.8522C131.339 1.84294 131.141 1.76826 130.996 1.64366C130.852 1.51905 130.772 1.35409 130.773 1.18301C130.775 1.01193 130.857 0.847864 131.004 0.724876C131.15 0.601888 131.35 0.529418 131.561 0.522502C133.762 0.511069 136.164 0.452552 138.659 0.391754C145.118 0.234373 152.203 0.0617114 158.077 0.650914C171.716 2.01937 172.029 7.81383 172.527 17.6916C172.957 26.1947 172.803 34.9922 172.649 43.777ZM73.8541 124.078C74.509 124.079 75.0017 124.708 74.7248 125.302C74.6073 125.554 74.4789 125.759 74.3505 125.847C64.2173 125.768 54.2238 125.667 44.7416 125.571C37.0318 125.494 29.66 125.419 22.826 125.362C21.9531 125.356 21.9521 124.112 22.826 124.107C36.9309 124.022 52.7527 124.046 69.0251 124.071C70.6308 124.073 72.2409 124.076 73.8541 124.078ZM36.7707 0.324186C58.0388 -0.279879 106.431 0.109328 127.768 0.303084L127.765 0.300804C129.164 0.316 128.967 2.04234 127.595 2.04842C118.753 2.08509 105.383 2.05534 91.287 2.02397C71.8006 1.9806 50.9269 1.93415 38.7105 2.05584C29.1372 2.15082 16.1901 3.98201 16.1901 13.821C16.1901 26.0932 16.2139 38.3667 16.2377 50.6406C16.2647 64.6088 16.2918 78.5775 16.2838 92.5454C16.2795 98.829 17.0914 108.386 17.6583 115.061C17.7058 115.62 17.7516 116.158 17.795 116.673C18.0029 119.089 18.418 120.853 20.754 122.738C21.7177 123.518 20.2913 124.287 19.5635 123.827C17.0468 122.237 16.1746 120.481 15.7738 117.71C14.9093 111.726 14.0209 100.908 14.0097 94.6494C13.9784 78.5732 14.0287 62.5005 14.0789 46.4283C14.113 35.5385 14.1471 24.649 14.1558 13.7587C14.1558 3.70923 26.4088 0.618239 36.7707 0.324186Z" fill="#161720"/>
<path d="M42.2753 49.894C55.3163 46.5478 66.9756 44.6731 79.5781 39.6191C79.5765 39.6065 79.5777 39.5938 79.5817 39.5818C79.5856 39.5698 79.5923 39.5588 79.6011 39.5496C84.1203 28.0983 85.1428 25.8139 89.3016 13.3124C89.4177 12.9893 89.9307 12.8518 90.0941 13.2203C94.6685 22.5225 95.8031 25.0889 98.4108 30.1393C99.414 32.6083 100.371 35.0999 101.327 37.5943C101.458 38.2045 101.721 38.7794 102.098 39.2795C102.628 39.616 103.225 39.8364 103.848 39.9258C105.225 40.341 106.625 40.7322 108.004 41.1248C113.116 42.5563 114.638 43.8157 119.842 44.9226C125.746 46.1698 131.72 47.1902 137.694 48.0151C138.02 48.0619 138.091 48.5225 137.881 48.7308C128.409 57.6266 121.951 65.8367 111.271 73.2748C113.699 85.0686 115.885 96.9158 117.829 108.816C117.848 108.905 117.838 108.998 117.801 109.081C117.764 109.164 117.701 109.233 117.622 109.279C117.543 109.325 117.451 109.346 117.36 109.337C117.268 109.329 117.182 109.293 117.112 109.233C107.918 99.9313 102.089 95.3358 93.618 85.273L91.8682 87.2813C91.262 83.9351 90.6315 80.5662 90.0052 77.2185C89.6158 74.9875 89.0952 72.7807 88.446 70.6096C88.297 69.8711 87.9938 69.1715 87.5558 68.5555C87.1178 67.9396 86.5546 67.4208 85.9023 67.0324C82.9143 65.6477 81.6317 69.086 81.4913 71.3707C81.2921 75.286 81.5979 79.2104 82.4013 83.0493C81.8835 82.7633 81.3041 82.6037 80.7114 82.5837C80.1187 82.5637 79.5297 82.684 78.9934 82.9345C78.3755 83.2408 77.8472 83.6987 77.4591 84.2644C77.071 84.8301 76.8359 85.4848 76.7765 86.1659C76.4005 85.9871 75.992 85.8846 75.5753 85.8647C75.1585 85.8447 74.742 85.9076 74.3503 86.0497C73.6327 86.4167 73.0221 86.9595 72.5768 87.6261C72.1315 88.2928 71.8663 89.0612 71.8065 89.858C71.2879 89.6109 70.7005 89.5426 70.138 89.6638C69.5755 89.785 69.0702 90.0888 68.7025 90.5269C67.1619 92.3042 67.4887 95.6051 67.4658 97.7736C67.4453 101.661 67.8601 105.54 68.7025 109.337L68.1422 109.891C68.0814 109.945 68.0063 109.981 67.9258 109.994C67.8452 110.007 67.7626 109.998 67.6874 109.966C67.6122 109.935 67.5477 109.883 67.5014 109.816C67.455 109.75 67.4287 109.672 67.4256 109.591C66.2347 100.289 65.0209 90.989 64.5308 81.6192C64.4152 79.2646 64.3455 76.9105 64.3216 74.5568C64.3216 73.1948 64.5308 72.2254 63.4617 71.2559C62.6019 70.4948 61.7592 69.7323 60.8951 68.9486C57.4184 65.7866 56.3338 65.1455 52.9962 61.8461C49.2864 58.1753 45.6693 54.4208 42.1449 50.5828C42.0898 50.5369 42.048 50.4774 42.0237 50.4102C41.9995 50.3431 41.9937 50.2708 42.0069 50.2008C42.0202 50.1307 42.052 50.0654 42.0992 50.0115C42.1463 49.9576 42.2071 49.9171 42.2753 49.894Z" fill="#BCF0F5"/>
<path d="M42.2753 49.894C55.3163 46.5478 66.9756 44.6731 79.5781 39.6191C79.5765 39.6065 79.5777 39.5938 79.5817 39.5818C79.5856 39.5698 79.5923 39.5588 79.6011 39.5496C84.1203 28.0983 85.1428 25.8139 89.3016 13.3124C89.4177 12.9893 89.9307 12.8518 90.0941 13.2203C94.6685 22.5225 95.8031 25.0889 98.4108 30.1393C99.414 32.6083 100.371 35.0999 101.327 37.5943C101.458 38.2045 101.721 38.7794 102.098 39.2795C102.628 39.616 103.225 39.8364 103.848 39.9258C105.225 40.341 106.625 40.7322 108.004 41.1248C113.116 42.5563 114.638 43.8157 119.842 44.9226C125.746 46.1698 131.72 47.1902 137.694 48.0151C138.02 48.0619 138.091 48.5225 137.881 48.7308C128.409 57.6266 121.951 65.8367 111.271 73.2748C113.699 85.0686 115.885 96.9158 117.829 108.816C117.848 108.905 117.838 108.998 117.801 109.081C117.764 109.164 117.701 109.233 117.622 109.279C117.543 109.325 117.451 109.346 117.36 109.337C117.268 109.329 117.182 109.293 117.112 109.233C107.918 99.9313 102.089 95.3358 93.618 85.273L91.8682 87.2813C91.262 83.9351 90.6315 80.5662 90.0052 77.2185C89.6158 74.9875 89.0952 72.7807 88.446 70.6096C88.297 69.8711 87.9938 69.1715 87.5558 68.5555C87.1178 67.9396 86.5546 67.4208 85.9023 67.0324C82.9143 65.6477 81.6317 69.086 81.4913 71.3707C81.2921 75.286 81.5979 79.2104 82.4013 83.0493C81.8835 82.7633 81.3041 82.6037 80.7114 82.5837C80.1187 82.5637 79.5297 82.684 78.9934 82.9345C78.3755 83.2408 77.8472 83.6987 77.4591 84.2644C77.071 84.8301 76.8359 85.4848 76.7765 86.1659C76.4005 85.9871 75.992 85.8846 75.5753 85.8647C75.1585 85.8447 74.742 85.9076 74.3503 86.0497C73.6327 86.4167 73.0221 86.9595 72.5768 87.6261C72.1315 88.2928 71.8663 89.0612 71.8065 89.858C71.2879 89.6109 70.7005 89.5426 70.138 89.6638C69.5755 89.785 69.0702 90.0888 68.7025 90.5269C67.1619 92.3042 67.4887 95.6051 67.4658 97.7736C67.4453 101.661 67.8601 105.54 68.7025 109.337L68.1422 109.891C68.0814 109.945 68.0063 109.981 67.9258 109.994C67.8452 110.007 67.7626 109.998 67.6874 109.966C67.6122 109.935 67.5477 109.883 67.5014 109.816C67.455 109.75 67.4287 109.672 67.4256 109.591C66.2347 100.289 65.0209 90.989 64.5308 81.6192C64.4152 79.2646 64.3455 76.9105 64.3216 74.5568C64.3216 73.1948 64.5308 72.2254 63.4617 71.2559C62.6019 70.4948 61.7592 69.7323 60.8951 68.9486C57.4184 65.7866 56.3338 65.1455 52.9962 61.8461C49.2864 58.1753 45.6693 54.4208 42.1449 50.5828C42.0898 50.5369 42.048 50.4774 42.0237 50.4102C41.9995 50.3431 41.9937 50.2708 42.0069 50.2008C42.0202 50.1307 42.052 50.0654 42.0992 50.0115C42.1463 49.9576 42.2071 49.9171 42.2753 49.894Z" fill="url(#paint0_linear_12_106)" fill-opacity="0.5"/>
<path fill-rule="evenodd" clip-rule="evenodd" d="M43.2838 12.0368C43.5194 12.0418 43.9019 12.1074 44.0627 12.163C44.316 12.2507 44.4617 12.3394 44.7144 12.6284C44.9207 12.9463 44.9683 13.169 44.9623 13.29C44.9263 14.0091 44.6046 14.576 44.2554 14.743C43.9428 14.8924 43.4969 14.9825 43.2478 14.9603C43.207 14.9567 43.1684 14.9533 43.1317 14.9501C42.7208 14.9141 42.5477 14.8989 42.2107 14.8003C41.922 14.7159 41.7022 14.6335 41.4847 14.5163C41.4863 14.5171 41.4871 14.5176 41.4871 14.5176C41.4872 14.5174 41.4673 14.5052 41.4289 14.4733C41.3867 14.4381 41.3378 14.392 41.2885 14.3394C41.2391 14.2868 41.1967 14.2355 41.1651 14.1922C41.139 14.1565 41.1287 14.1379 41.1279 14.1368C41.0813 14.0342 41.0704 13.983 41.0634 13.9355C41.0585 13.9014 41.0542 13.8571 41.0498 13.785C41.0471 13.7386 41.0452 13.7003 41.0431 13.655C41.0422 13.6374 41.0413 13.6188 41.0403 13.5982C41.1191 12.9997 41.3177 12.6997 41.5618 12.511C41.853 12.286 42.3662 12.097 43.2838 12.0368ZM44.7291 10.2385C44.3292 10.1001 43.695 10 43.2563 10C43.2355 10 43.2147 10.0006 43.1939 10.0019C42.0848 10.0699 41.0813 10.3082 40.3158 10.8999C39.5099 11.5228 39.1202 12.4153 39.0061 13.4523C39 13.5075 38.9985 13.5631 39.0015 13.6186C39.0037 13.6596 39.0056 13.7008 39.0074 13.7425C39.0232 14.091 39.0403 14.4712 39.2782 14.9902C39.407 15.271 39.62 15.538 39.8022 15.7322C39.9853 15.9275 40.2402 16.1592 40.5178 16.3088C40.9042 16.5171 41.27 16.647 41.6385 16.7549C42.1743 16.9117 42.5281 16.9422 42.9425 16.978C42.9835 16.9815 43.0251 16.9851 43.0674 16.9889C43.7601 17.0504 44.5729 16.8486 45.1343 16.5802C46.473 15.9402 46.945 14.4287 46.9969 13.3917C47.0337 12.6565 46.7367 11.9807 46.3709 11.4408C46.3498 11.4097 46.327 11.3798 46.3027 11.3512C45.8391 10.8076 45.4024 10.4715 44.7291 10.2385Z" fill="#161720"/>
<path fill-rule="evenodd" clip-rule="evenodd" d="M52.8609 11.986C53.0091 11.9455 53.3551 11.9462 53.5387 11.9916C53.6788 12.0261 53.7361 12.0457 53.8261 12.0764C53.8768 12.0937 53.9379 12.1146 54.0301 12.1437C54.1612 12.185 54.2544 12.2306 54.3276 12.2737C54.4054 12.3196 54.4676 12.3659 54.565 12.4385L54.5689 12.4414C55.0463 12.7971 55.2535 13.3322 55.1241 13.9617C55.1032 14.0635 55.0544 14.2197 54.979 14.3751C54.9012 14.5358 54.8236 14.6366 54.7722 14.6825C54.5999 14.8363 54.2073 14.9987 53.8668 15.0349C53.4289 15.0815 53.0168 14.9365 52.4659 14.6309C52.2993 14.5385 52.2072 14.4539 52.1382 14.3654C52.0627 14.2685 51.982 14.1248 51.8843 13.8676C51.8627 13.8108 51.8349 13.6718 51.8384 13.4636C51.8417 13.2636 51.8727 13.0794 51.9072 12.9652C51.9382 12.8625 51.9562 12.8092 51.9679 12.7781C51.9731 12.7643 51.9759 12.758 51.9766 12.7564L51.9775 12.7546C51.9807 12.7489 51.9885 12.7355 52.0269 12.6783C52.032 12.6706 52.0375 12.6625 52.0433 12.6538C52.0778 12.6023 52.1253 12.5317 52.183 12.4416C52.1824 12.4426 52.1821 12.443 52.1821 12.4431C52.1823 12.4432 52.2025 12.4155 52.2576 12.3646C52.3148 12.3118 52.3892 12.2527 52.4743 12.1943C52.6613 12.066 52.8145 11.9987 52.8609 11.986ZM53.9539 10.0856C53.5283 9.98053 52.8794 9.96078 52.4032 10.0911C52.0915 10.1764 51.751 10.3628 51.4784 10.5498C51.2147 10.7308 50.8788 11.0046 50.6643 11.3394C50.6188 11.4104 50.5835 11.4631 50.5493 11.5141C50.5429 11.5236 50.5365 11.5331 50.5301 11.5426C50.4929 11.5982 50.4427 11.6734 50.3948 11.7597C50.288 11.9523 50.2255 12.1409 50.1573 12.3665C50.0604 12.6873 50.0067 13.0645 50.0006 13.4285C49.9946 13.7844 50.0325 14.2122 50.1803 14.6012C50.3167 14.9602 50.4825 15.3054 50.7238 15.615C50.9717 15.9328 51.267 16.1721 51.6165 16.366C52.2609 16.7235 53.068 17.0862 54.0497 16.9817C54.6413 16.9188 55.4201 16.6576 55.9534 16.1816C56.5224 15.6735 56.8199 14.8653 56.9197 14.3798C57.2101 12.9666 56.6981 11.6396 55.623 10.8385C55.6168 10.8339 55.6104 10.8292 55.604 10.8243C55.402 10.6736 55.0822 10.435 54.5526 10.2678C54.5191 10.2573 54.4827 10.2449 54.4422 10.2312C54.3227 10.1908 54.1682 10.1385 53.9539 10.0856Z" fill="#161720"/>
<path fill-rule="evenodd" clip-rule="evenodd" d="M32.3574 11.9304C33.0025 12.0555 33.1054 12.0834 33.306 12.2259C33.7665 12.5532 33.8988 12.6785 34.0062 12.9492C34.1202 13.2364 34.1558 13.4539 34.1256 13.6956C34.0858 14.0142 33.968 14.3203 33.7917 14.5616C33.6512 14.7538 33.3866 14.9151 33.2354 14.9384C33.1346 14.954 33.0438 14.969 32.9583 14.9832C32.614 15.0404 32.3541 15.0835 31.8622 15.0861C31.5357 15.0505 31.238 14.9987 30.9893 14.9211C30.7216 14.8376 30.5791 14.745 30.5125 14.6766C30.2256 14.3821 30.0492 14.1154 29.9079 13.7501C29.8179 13.5173 29.854 13.0607 30.2227 12.6134C30.3707 12.4339 30.6378 12.2167 30.8444 12.1026C30.9034 12.07 31.0147 12.0205 31.1394 11.9802C31.1991 11.961 31.2515 11.9472 31.2927 11.9388C31.3226 11.9327 31.3377 11.9313 31.3401 11.931C31.3584 11.9309 31.3766 11.9302 31.3948 11.929C31.6695 11.9104 31.8131 11.9112 31.9306 11.9152C31.9595 11.9161 31.9935 11.9177 32.032 11.9195C32.1191 11.9235 32.2295 11.9286 32.3574 11.9304ZM31.2972 10.0177C31.7253 9.98984 31.9873 10.001 32.1991 10.01C32.288 10.0138 32.368 10.0172 32.4478 10.0172C32.5056 10.0172 32.5634 10.0228 32.6202 10.0337C32.6664 10.0427 32.7119 10.0513 32.757 10.0599C33.3303 10.169 33.8172 10.2616 34.3671 10.6524C34.8478 10.9941 35.4011 11.3919 35.7326 12.2271C35.9326 12.731 36.0561 13.2864 35.9746 13.9389C35.8967 14.5623 35.6662 15.1853 35.283 15.7099C34.9022 16.2311 34.2293 16.7206 33.5119 16.831C33.4343 16.843 33.3574 16.8559 33.279 16.869C32.9041 16.9317 32.4962 17 31.8152 17C31.7839 17 31.7526 16.9984 31.7215 16.9952C31.322 16.9537 30.8729 16.885 30.4473 16.7522C30.0289 16.6217 29.5627 16.408 29.1943 16.0298C28.7461 15.5697 28.4195 15.0876 28.1754 14.4563C27.7643 13.3935 28.1179 12.2045 28.7997 11.3773C29.1109 10.9996 29.5663 10.6355 29.9606 10.4176C30.1413 10.3177 30.3647 10.2242 30.5802 10.1546C30.7725 10.0925 31.0364 10.0237 31.2972 10.0177Z" fill="#161720"/>
</g>
<defs>
<linearGradient id="paint0_linear_12_106" x1="146.884" y1="-45.6692" x2="-3.14189" y2="95.1448" gradientUnits="userSpaceOnUse">
<stop stop-color="#3131F1"/>
<stop offset="1" stop-color="#3131F1" stop-opacity="0"/>
</linearGradient>
<clipPath id="clip0_12_106">
<rect width="360" height="360" fill="white" transform="matrix(-1 0 0 1 360 0)"/>
</clipPath>
</defs>
</svg>
