<svg width="422" height="422" viewBox="0 0 422 422" fill="none" xmlns="http://www.w3.org/2000/svg">
<path fill-rule="evenodd" clip-rule="evenodd" d="M164.648 211.356C166.404 212.505 167.747 214.184 168.483 216.15C168.739 216.79 168.947 217.448 169.104 218.119C169.679 220.572 169.631 223.131 168.963 225.56C168.616 227.298 167.731 228.883 166.434 230.09C165.137 231.298 163.494 232.067 161.736 232.29C162.868 239.36 163.933 244.048 164.162 245.169C165.265 249.908 165.181 248.728 165.032 249.88L164.448 250.354L163.706 250.263L163.227 249.672C163.227 249.522 161.731 245.227 160.343 239.105C158.374 230.437 158.586 230.992 158.815 230.419C158.958 230.144 159.183 229.92 159.46 229.78C160.065 229.554 160.81 229.596 162.196 229.16C163.172 228.903 164.03 228.315 164.621 227.496C165.554 226.016 166.126 224.337 166.292 222.595C166.458 220.853 166.213 219.096 165.576 217.466C165.041 215.849 163.888 214.508 162.369 213.736C160.653 212.782 162.125 211.879 160.913 205.345C156.586 183.111 131.899 182.505 121.879 195.821L121.239 196.215L120.536 196.081H120.523L120.142 195.473C120.294 194.602 120.243 194.77 120.356 194.595V194.588C132.533 175.864 164.418 181.414 164.648 211.356Z" fill="#161720"/>
<path fill-rule="evenodd" clip-rule="evenodd" d="M132.789 204.601C133.982 204.571 135.139 205.013 136.008 205.83C136.511 206.237 136.873 206.793 137.042 207.417C137.042 207.427 136.91 208.056 136.91 208.066C134.753 208.28 135.992 208.216 134.747 208.004C134.528 207.959 134.307 207.928 134.084 207.911L134.051 207.903C133.299 207.736 132.519 207.742 131.77 207.919L131.73 207.938C131.298 208.09 130.907 208.341 130.589 208.672C130.414 208.913 130.245 208.953 129.434 209.464C129.283 209.585 129.489 209.464 128.105 210.067C127.495 208.661 127.565 208.852 127.55 208.701C127.496 208.049 127.649 207.396 127.987 206.835C128.69 205.953 129.632 205.293 130.7 204.932C131.374 204.706 132.08 204.594 132.789 204.601Z" fill="#161720"/>
<path d="M135.713 216.545C135.791 214.76 134.576 213.256 133 213.187C131.423 213.119 130.082 214.511 130.004 216.297C129.927 218.083 131.141 219.586 132.718 219.655C134.294 219.723 135.635 218.331 135.713 216.545Z" fill="#161720"/>
<path fill-rule="evenodd" clip-rule="evenodd" d="M132.881 241.17L132.1 240.968C131.916 240.847 131.333 240.567 131.129 240.472C131.008 240.415 129.863 239.872 129.733 239.814C129.396 239.657 129.067 239.483 128.748 239.292C128.129 238.941 127.461 238.685 126.766 238.533C126.606 238.505 126.444 238.492 126.282 238.492H126.262H126.21H126.191H126.178H126.158H126.122H126.108H126.095H126.082H126.07H126.056H126.042H126.029H126.022H126.015H126.008H126.001V238.499L125.98 238.517L125.973 238.53V238.543H125.966C125.947 238.574 125.931 238.605 125.916 238.638L125.902 238.649L125.874 238.687L125.861 238.7L125.847 238.725L125.833 238.738L125.793 238.776L125.778 238.801L125.717 238.876C125.615 238.993 125.525 239.119 125.448 239.253C125.315 239.443 125.198 239.644 125.098 239.854V239.872L124.103 240.827C123.034 239.714 123.154 240.011 122.903 238.915C122.873 238.644 122.861 238.37 122.868 238.097C122.887 237.81 122.952 237.529 123.059 237.262C123.355 236.626 123.826 236.086 124.417 235.708C125.128 235.285 125.955 235.096 126.78 235.169C128.508 235.379 130.151 236.038 131.544 237.081C132.339 237.747 133.034 238.524 133.608 239.388L133.853 240.15L133.65 240.79L132.881 241.17Z" fill="#161720"/>
<path fill-rule="evenodd" clip-rule="evenodd" d="M121.301 246.94C121.723 247.299 122.861 248.092 123.016 248.188C125.272 249.925 127.999 250.943 130.841 251.108C132.261 251.187 133.686 251.06 135.069 250.728C136.158 250.482 137.246 249.87 138.033 251.422C139.267 254.196 140.301 257.054 141.128 259.974C141.633 261.522 141.55 260.946 141.539 261.982L141.069 262.526H141.055L140.336 262.533C139.633 261.923 139.904 262.421 138.315 259.374C138.24 259.25 136.497 255.694 135.672 253.847C134.478 254.131 133.257 254.284 132.03 254.304C128.537 254.374 125.104 253.386 122.183 251.47C120.955 250.681 119.909 249.639 119.115 248.413V248.4C118.719 247.801 118.365 247.175 118.056 246.527L117.966 245.757L118.315 245.183H118.329L118.994 245.077C120.19 245.728 118.973 244.958 121.301 246.94Z" fill="#161720"/>
<path fill-rule="evenodd" clip-rule="evenodd" d="M125.631 251.542C123.135 250.643 119.827 249.675 119.135 247.125C118.613 245.288 118.186 243.426 117.855 241.546C117.455 239.092 117.37 236.597 117.602 234.121C117.64 233.85 117.527 233.159 117.76 233.311C120.186 234.943 118.87 239.045 125.309 251.333" fill="#161720"/>
<path fill-rule="evenodd" clip-rule="evenodd" d="M123.321 248.474C124.71 249.123 126.237 249.421 127.768 249.34C126.957 247.362 124.704 241.786 126.819 242.099C127.496 242.207 128.004 242.902 128.357 243.424C129.283 244.792 129.623 246.856 130.927 247.949C132.089 248.934 135.053 247.572 136.213 247.105C136.978 246.795 138.886 246.402 139.15 245.425C139.432 244.355 138.52 242.947 138.126 242.01C137.27 239.976 136.361 237.931 135.397 235.935C134.923 234.689 134.206 233.55 133.287 232.584C131.269 230.793 129.84 231.854 128.522 230.976C127.697 230.413 127.305 229.451 128.479 228.977C129.54 228.683 130.662 228.696 131.715 229.015C132.756 229.176 133.761 229.518 134.684 230.027C137.393 231.689 138.764 234.95 141.386 239.08C143.342 242.235 143.272 244.899 147.956 239.717C154.815 232.184 152.147 229.156 154.318 221.762C154.459 221.302 154.794 219.917 155.518 220.084C156.653 220.366 156.995 222.061 157.115 223.013C157.578 226.083 157.518 229.21 156.939 232.26C156.415 235.06 155.272 237.707 153.594 240.008C151.625 242.463 146.798 247.372 141.611 249.517C140.47 249.987 136.471 251.776 135.534 252.014C128.36 253.86 122.298 250.93 121.35 248.817C121.173 248.395 121.36 247.987 121.858 248.015C122.386 248.096 122.9 248.257 123.38 248.49" fill="#161720"/>
<path fill-rule="evenodd" clip-rule="evenodd" d="M82.0424 203.894C82.6557 204.555 82.4644 204.016 83.5559 207.368C92.2688 236.877 77.572 257.881 80.3347 301.966C81.3615 315.552 83.819 327.07 90.9058 338.54C96.3427 347.008 103.881 353.923 112.785 358.611C113.524 358.644 133.206 371.959 162.561 361.987L163.318 362.027L163.832 362.574C163.832 362.594 163.794 363.311 163.792 363.331L163.245 363.851C157.411 366.043 151.307 367.436 145.099 367.992C132.844 369.114 120.537 366.499 109.796 360.492C99.0558 354.485 90.3854 345.367 84.926 334.338C75.2425 314.84 75.7419 286.485 78.6256 264.925C80.405 249.742 85.8179 227.849 82.3997 211.634C81.9774 209.421 81.4165 207.236 80.7201 205.093L80.7792 204.351L81.325 203.856L82.0424 203.894Z" fill="#161720"/>
<path fill-rule="evenodd" clip-rule="evenodd" d="M91.8651 201.703L92.4658 202.208C94.2649 204.664 94.5434 206.534 95.3354 210.409C95.8141 212.866 96.0679 215.362 96.0936 217.865C96.0355 219.367 95.8638 220.864 95.5801 222.341L95.2074 223.03L94.5533 223.3L93.9259 222.975L93.608 222.253H93.601C93.5208 221.245 93.0467 217.893 92.8428 215.565C92.3125 209.506 91.1548 207.239 90.8326 204.583C90.8256 204.527 90.6582 202.948 90.647 202.895C90.647 202.884 90.7764 202.125 90.7778 202.115L91.2195 201.648H91.2336L91.8651 201.703Z" fill="#161720"/>
<path fill-rule="evenodd" clip-rule="evenodd" d="M103.217 200.591C103.696 200.923 104.077 201.378 104.32 201.909C104.747 202.584 105.096 203.306 105.359 204.061C106.019 206.598 106.436 209.193 106.604 211.809C106.852 214.204 106.696 216.625 106.143 218.969C106.019 219.637 105.617 220.785 105.61 220.938L105.154 221.58L104.477 221.776L103.891 221.381L103.659 220.626C103.659 218.877 103.49 213.073 103.456 212.315C103.299 209.752 102.905 207.209 102.279 204.719C102.17 204.095 101.98 201.862 101.986 201.757L102.127 200.979L102.568 200.519H102.581L103.217 200.591Z" fill="#161720"/>
<path fill-rule="evenodd" clip-rule="evenodd" d="M114.521 204.719C115.026 205.446 115.032 205.053 115.771 209.783C116.413 215.803 116.539 221.867 116.148 227.908C115.876 232.776 116.076 237.66 116.743 242.49C120.108 261.902 134.289 283.17 142.345 305.843C142.59 306.302 142.668 306.832 142.566 307.343L142.024 307.857L141.281 307.819C140.586 307.098 140.976 307.765 139.775 304.902C131.29 285.927 117.748 263.38 113.977 244.93C111.343 231.401 114.361 220.419 113.234 207.232C113.006 205.363 112.995 205.878 113.217 204.956L113.825 204.549L114.521 204.719Z" fill="#161720"/>
<path fill-rule="evenodd" clip-rule="evenodd" d="M151.128 292.557L151.681 292.969C151.681 292.979 151.664 293.652 151.663 293.663C149.806 296.054 145.992 297.223 141.723 299.711C140.92 300.215 140.021 300.546 139.083 300.685C138.785 300.766 139.072 300.79 137.51 300.467C137.832 298.903 137.741 299.181 137.932 298.931C138.491 298.093 139.252 297.411 140.146 296.947C140.153 296.784 145.615 294.107 146.444 293.712C147.279 293.39 148.13 293.111 148.994 292.876C149.667 292.591 150.401 292.481 151.128 292.557Z" fill="#161720"/>
<path fill-rule="evenodd" clip-rule="evenodd" d="M22.729 232.151H22.7416L23.2227 232.696C23.1805 233.931 23.376 232.823 22.02 236.196C16.7675 248.877 13.6644 264.189 11.9018 278.023C10.9073 286.819 10.4319 294.525 10.2687 300.125C9.8945 306.827 10.5443 313.547 12.1958 320.053C12.8842 322.57 13.7112 325.047 14.673 327.472C18.8402 337.344 26.3985 345.401 35.984 350.19C41.9557 353.041 48.4972 354.498 55.1146 354.452C62.6184 354.338 70.0319 352.796 76.9588 349.908C78.2782 349.379 82.3224 347.549 82.487 347.395L83.2409 347.337C83.2522 347.345 83.8135 347.812 83.8219 347.822L83.881 348.571C83.2283 349.361 83.9035 348.96 79.2137 351.27C74.2108 353.629 68.9287 355.344 63.4942 356.373C59.8962 357.021 56.2434 357.313 52.5883 357.246C51.7288 357.246 50.8792 357.164 50.3179 357.14C47.7281 356.952 45.1594 356.54 42.6403 355.911C40.1094 355.269 37.6396 354.407 35.2595 353.334C29.898 350.838 25.0727 347.323 21.0522 342.986C17.4812 339.291 14.5682 335.013 12.4392 330.336C6.07683 316.103 6.61137 303.946 7.71701 288.406C9.45424 268.128 12.1283 250.942 21.4376 232.613L22.0003 232.125L22.729 232.151Z" fill="#161720"/>
<path fill-rule="evenodd" clip-rule="evenodd" d="M53.4209 239.327L54.0413 239.666L54.3015 240.37C54.3015 240.581 54.2664 243.007 54.3676 244.812C54.3676 245.809 54.5083 248.014 54.5322 248.461C54.7258 253.923 55.2813 259.367 56.1949 264.756C57.7422 275.061 62.6374 289.246 66.5381 298.817C70.0421 307.417 69.5835 305.48 69.6497 306.821C69.6398 306.832 69.1812 307.383 69.1714 307.396C69.1615 307.409 68.4329 307.434 68.4244 307.434C67.6508 306.777 68.0024 307.237 66.8279 305.083C66.0106 303.512 63.6249 299.076 61.6851 294.477C57.2841 284.096 54.212 273.201 52.5418 262.049C50.4824 248.372 52.3026 241.512 52.3589 240.214L52.7303 239.555L53.4013 239.326L53.4209 239.327Z" fill="#161720"/>
<path fill-rule="evenodd" clip-rule="evenodd" d="M75.116 291.512L75.642 291.924C75.642 291.934 75.5942 292.58 75.5942 292.589L75.0653 293.266C74.0821 294.086 72.9941 294.771 71.83 295.303C71.6682 295.296 70.6596 295.856 67.3286 297.077C67.0156 297.228 66.6777 297.321 66.3313 297.351C66.1907 297.367 65.7068 297.376 65.6041 297.372C64.6771 297.314 65.1174 297.444 63.6165 296.741C64.3198 295.231 64.0553 295.645 64.7418 294.988C65.1555 294.58 65.6596 294.275 66.2132 294.099C66.5029 294.111 71.4741 291.8 73.2465 291.624C73.8542 291.453 74.492 291.414 75.116 291.512Z" fill="#161720"/>
<path d="M311.741 205.391C313.703 205.253 315.172 203.406 315.021 201.266C314.871 199.125 313.158 197.502 311.196 197.64C309.234 197.778 307.765 199.625 307.916 201.766C308.066 203.906 309.779 205.529 311.741 205.391Z" fill="#161720"/>
<path fill-rule="evenodd" clip-rule="evenodd" d="M312.767 187.073C313.163 187.23 313.547 187.419 313.915 187.635C314.065 187.734 313.93 187.611 314.555 188.292L314.629 188.963L314.148 189.422L313.346 189.548C313.052 189.516 312.755 189.505 312.459 189.516C311.777 189.542 311.099 189.63 310.433 189.778H310.425C309.713 189.861 309.018 190.054 308.365 190.35C307.486 190.75 306.685 191.303 306.001 191.983C305.771 192.253 305.505 192.489 305.211 192.687C304.523 193.3 303.662 193.684 302.746 193.785L302.402 192.449C302.501 191.895 302.668 191.356 302.899 190.844C303.11 190.409 303.409 190.022 303.778 189.709C304.677 188.824 305.717 188.094 306.854 187.548C307.874 187.07 308.961 186.752 310.077 186.607C310.996 186.577 311.911 186.735 312.767 187.073Z" fill="#161720"/>
<path fill-rule="evenodd" clip-rule="evenodd" d="M310.678 224.707L311.19 225.169L311.331 225.954C311.186 227.068 310.879 228.155 310.419 229.18C310.337 229.332 310.617 228.784 310.036 229.941C308.555 232.236 306.521 234.123 304.12 235.427C303.322 235.898 302.465 236.261 301.571 236.507C300.844 236.635 300.103 236.651 299.371 236.555C298.841 236.48 299.176 236.66 297.896 235.641C299.125 234.082 298.208 234.958 300.598 233.562C301.89 233.083 303.106 232.419 304.209 231.592C305.446 230.624 306.546 229.492 307.479 228.227C307.687 227.985 308.323 227.188 308.696 226.622C308.97 226.231 309.217 225.822 309.436 225.397L309.986 224.826L310.665 224.719L310.678 224.707Z" fill="#161720"/>
<path fill-rule="evenodd" clip-rule="evenodd" d="M214.896 258.738C209.239 254.285 201.83 251.785 194.922 250.214C186.169 248.218 168.569 249.635 168.408 249.792C161.627 256.198 155.393 263.035 147.268 267.898C144.02 269.844 136.748 271.044 138.517 264.944C135.621 266.079 133.017 267.85 130.897 270.126C134.414 277.915 137.419 284.203 140.963 291.954C144.645 290.454 147.153 289.974 150.835 288.495C161.98 295.999 169.515 309.886 173.595 322.429C175.183 319.744 176.794 316.995 178.59 314.442C176.513 308.578 173.934 296.805 183.457 296.296C182.965 288.997 185.237 280.768 194.112 281.75C193.788 278.016 193.796 273.798 195.94 270.534C198.648 266.413 204.415 268.343 207.101 271.273C209.389 267.195 214.896 258.738 214.896 258.738Z" fill="#161720"/>
<path fill-rule="evenodd" clip-rule="evenodd" d="M210.536 267.653C207.796 272.167 208.054 272.457 206.946 272.409C206.354 272.269 206.317 272.069 206.032 271.819C204.992 270.831 203.737 270.099 202.366 269.682C201.421 269.375 200.413 269.311 199.437 269.496L199.405 269.507H199.365C198.805 269.637 198.283 269.896 197.842 270.264L197.821 270.288C196.229 272.149 195.351 274.516 195.345 276.966C195.155 281.335 195.792 281.457 195.28 282.473C195.133 282.703 194.921 282.885 194.671 282.996C194.421 283.108 194.144 283.143 193.874 283.097C192.284 282.895 190.67 283.163 189.232 283.868C188.335 284.415 187.554 285.133 186.937 285.983C186.319 286.833 185.875 287.796 185.632 288.818C185.4 289.596 185.229 290.39 185.12 291.194C184.483 296.2 185.635 296.593 184.238 297.604C182.85 298.244 176.984 297.067 178.461 307.502C178.815 309.681 179.363 311.824 180.1 313.905C180.454 315.32 179.87 314.832 175.57 322.222C174.953 323.266 174.775 323.865 173.691 324.007C173.342 324.026 172.997 323.929 172.709 323.731C172.421 323.533 172.207 323.246 172.099 322.914C170.043 316.523 167.223 310.403 163.702 304.687C160.341 299.067 155.901 294.169 150.637 290.274C149.427 290.654 152.086 289.863 145.808 291.91C143.135 292.754 141.771 293.356 141.307 293.497C140.954 293.574 140.585 293.528 140.262 293.366C139.939 293.205 139.68 292.938 139.53 292.609C132.628 277.455 129.329 271.079 129.323 269.973C129.353 269.608 129.514 269.265 129.775 269.008C131.421 267.217 133.37 265.731 135.532 264.618C136.441 264.121 137.389 263.701 138.368 263.362C138.713 263.327 139.06 263.406 139.356 263.586C139.652 263.766 139.882 264.038 140.01 264.361C140.229 265.107 140.072 265.147 139.904 266.02C139.834 266.299 139.818 266.589 139.855 266.874V266.901V266.926C139.86 266.957 139.867 266.988 139.876 267.018V267.044C139.892 267.102 139.911 267.159 139.932 267.215V267.227L139.945 267.241L139.956 267.268V267.281C139.97 267.298 139.982 267.316 139.993 267.334V267.347V267.361V267.375L140.031 267.416H140.043V267.428H140.056V267.441L140.069 267.448H140.081L140.1 267.468H140.112L140.125 267.482L140.163 267.503L140.176 267.516C140.205 267.533 140.19 267.516 140.219 267.538L140.232 267.551L140.302 267.58L140.321 267.594L140.397 267.623L140.416 267.637C140.475 267.661 140.643 267.71 140.698 267.728H140.73C140.789 267.745 140.754 267.728 140.813 267.751H140.845L140.903 267.766H140.935L140.968 267.774C144.732 267.938 146.912 266.276 149.97 264.128C158.251 258.023 166.088 249.358 167.573 248.33C169.008 247.71 185.905 246.859 194.282 248.633C201.388 250.205 209.848 253.252 215.439 257.908L215.453 257.895C216.455 258.827 215.947 258.741 210.536 267.653ZM206.847 269.457C207.41 268.413 213.294 259.268 213.559 258.966C208.416 255.202 200.865 252.802 194.621 251.523C190.209 250.437 180.543 250.655 176.012 250.828C174.737 250.897 170.397 251.127 169.136 251.281C159.9 260.177 157.642 262.663 150.766 267.544C148.671 269.191 146.224 270.334 143.615 270.882C141.765 271.21 139.351 271.148 137.988 269.846C137.329 269.251 136.889 268.451 136.739 267.575C135.296 268.348 133.97 269.323 132.801 270.468C134.961 275.304 140.923 287.995 141.783 289.921C143.204 289.358 147.884 287.952 149.27 287.389C151.194 286.686 150.885 286.523 153.332 288.312C158.295 292.143 162.533 296.83 165.846 302.152C169.139 307.355 171.867 312.895 173.985 318.678C174.079 318.526 175.875 315.56 176.831 314.2C175.185 309.073 173.681 301.812 177.146 297.601C178.36 296.177 180.046 295.236 181.896 294.95C181.642 290.981 182.732 287.043 184.991 283.77C185.578 283.037 186.275 282.399 187.056 281.876C188.718 280.794 190.67 280.244 192.653 280.299C192.436 275.895 193.287 269.91 197.088 267.763C199.36 266.468 203.106 266.532 206.847 269.457Z" fill="#161720"/>
<path fill-rule="evenodd" clip-rule="evenodd" d="M184.487 397.551C179.003 393.799 174.666 388.6 171.959 382.531C169.253 376.462 168.282 369.762 169.154 363.175C157.206 369.938 144.65 373.417 131.013 370.197C133.123 379.55 135.279 388.905 137.333 398.263C142.651 398.075 168.873 397.763 184.961 397.85" fill="#161720"/>
<path fill-rule="evenodd" clip-rule="evenodd" d="M169.425 361.605C169.785 361.669 170.112 361.854 170.353 362.13C170.593 362.406 170.732 362.756 170.745 363.121C170.724 363.418 170.617 364.272 170.605 364.424C170.182 368.415 170.482 372.45 171.491 376.335C172.678 381.27 174.887 385.902 177.976 389.929H177.988C180.082 392.552 182.492 394.905 185.162 396.937L185.684 397.154C186.627 399.378 186.714 398.759 166.381 399.164C145.34 399.777 159.883 399.216 137.395 399.839C137.024 399.854 136.66 399.737 136.366 399.509C136.073 399.282 135.869 398.959 135.79 398.596C129.079 368.417 129.329 370.62 129.496 369.741C129.6 369.397 129.817 369.097 130.112 368.891C130.406 368.685 130.762 368.585 131.121 368.606C136.203 369.812 141.458 370.11 146.644 369.484C152.368 368.724 157.932 367.045 163.121 364.511C168.586 361.949 168.212 361.523 169.425 361.605ZM136.057 372.691C135.904 372.672 133.259 372.336 133.103 372.252C134.192 377.035 137.555 391.852 138.599 396.634C139.82 396.281 174.953 396.677 181.606 396.784C181.44 396.691 180.208 395.711 179.458 395.064C178.216 393.982 177.055 392.811 175.982 391.561C169.874 384.492 166.754 375.324 167.284 365.996C157.528 371.063 147.014 374.051 136.057 372.691Z" fill="#161720"/>
<path fill-rule="evenodd" clip-rule="evenodd" d="M286.755 249.005C287.457 249.517 288.209 249.957 288.998 250.321L289.886 250.775C291.362 251.646 292.981 252.246 294.669 252.546C296.277 252.845 297.919 252.929 299.55 252.798C301.479 252.64 303.388 252.297 305.252 251.775C305.918 251.581 306.562 251.318 307.174 250.99L307.938 250.849L308.557 251.194H308.564L308.704 251.897L308.337 252.582C307.697 253.142 307.005 253.639 306.269 254.067C304.46 255.079 302.459 255.705 300.395 255.904C297.421 256.224 294.412 255.918 291.563 255.008C290.406 254.623 289.295 254.112 288.251 253.483L287.742 253.117C286.787 252.32 285.973 251.369 285.331 250.304L285.143 249.551L285.39 248.934L286.02 248.748L286.755 249.005Z" fill="#161720"/>
<path fill-rule="evenodd" clip-rule="evenodd" d="M290.617 251.747C291.094 252.656 290.908 251.961 291.294 254.362C291.675 257.059 291.762 259.79 291.554 262.507C291.587 262.885 291.508 263.265 291.325 263.598C290.621 264.608 289.983 264.344 288.23 264.422C283.183 264.684 278.156 265.255 273.179 266.133C270.799 266.565 271.772 266.576 270.548 266.414L270.059 265.887C270.059 265.867 270.133 265.183 270.136 265.158L270.699 264.632C274.755 262.832 279.102 261.778 283.532 261.522C288.81 261.1 288.386 261.36 288.395 261.15C288.395 260.869 288.413 259.669 288.416 258.9C288.372 257.384 288.473 255.867 288.717 254.37C288.727 254.301 289.012 252.497 289.015 252.439L289.37 251.754L289.979 251.464L290.617 251.747Z" fill="#161720"/>
<path fill-rule="evenodd" clip-rule="evenodd" d="M338.233 194.591C338.831 194.906 339.411 195.253 339.97 195.632C347.118 200.854 346.669 209.568 339.455 214.6C337.329 216.079 334.943 217.145 332.422 217.741C332.481 223.447 331.609 229.125 329.841 234.55C328.447 238.934 326.294 243.04 323.48 246.679C323.494 246.856 323.585 254.126 323.993 260.472C329.233 261.933 334.372 263.733 339.378 265.86C341.022 266.635 340.605 266.351 341.263 267.077L341.243 267.821L340.691 268.329C340.539 268.329 339.775 268.315 339.927 268.315C334.335 266.187 328.6 264.456 322.765 263.134C322.486 263.124 322.212 263.052 321.964 262.924C321.198 262.433 321.205 261.909 321.12 260.982C320.79 257.894 320.461 253.507 320.321 247.518C320.344 245.036 320.305 245.717 321.556 244.002L322.087 243.26C323.459 241.269 324.627 239.145 325.572 236.919C328.262 230.456 329.51 223.483 329.229 216.487C329.217 216.139 329.32 215.796 329.522 215.512C329.724 215.228 330.014 215.019 330.347 214.916C331.504 214.743 332.641 214.456 333.742 214.059C338.303 212.176 342.159 209.156 341.9 204.247C341.9 204.202 341.881 204.029 341.878 204.019C341.73 202.597 341.226 201.235 340.411 200.06C339.521 198.751 338.354 197.653 336.992 196.845C335.265 195.759 333.275 195.162 331.235 195.117L330.541 194.836L330.233 194.182L330.496 193.507C331.281 193.127 331.059 193.17 331.723 193.152C333.978 193.093 336.213 193.587 338.233 194.591Z" fill="#161720"/>
<path fill-rule="evenodd" clip-rule="evenodd" d="M274.722 169.609C278.808 171.75 282.727 174.188 287.275 175.268C297.417 177.673 309.187 173.629 316.76 166.715C317.863 178.014 320.107 190.755 332.312 193.822C333.118 186.805 332.283 178.461 329.16 172.034C325.59 164.708 317.869 159.297 310.021 157.485C303.329 155.885 296.32 156.227 289.816 158.469C287.143 159.481 284.774 161.272 281.999 162.04C280.845 162.359 279.195 161.831 279.377 160.343C279.609 158.708 280.433 157.216 281.692 156.147C285.605 153.218 290.122 151.199 294.915 150.239C301.971 148.935 313.024 150.345 319.382 153.896C325.757 157.794 330.902 163.412 334.224 170.105C337.134 170.246 338.856 170.745 341.316 168.706C344.262 166.262 342.765 161.11 332.409 159.844C334.347 159.246 336.195 158.391 337.905 157.3C339.694 156.413 341.197 155.042 342.245 153.342C344.099 149.627 341.501 146.047 337.565 145.628C333.429 145.188 328.851 148.256 326.057 151.076C328.095 147.883 330.672 144.963 331.817 141.281C333.291 136.566 331.262 133.379 326.57 135.742C322.833 137.623 320.446 141.834 318.181 145.176C319.565 142.706 320.615 140.062 321.304 137.315C322.167 133.103 321.416 124.337 314.768 126.369C309.135 128.094 306.034 134.572 304.238 140.155C304.701 135.902 306.462 125.815 304.448 121.677C304.194 121.072 303.798 120.537 303.292 120.119C302.787 119.701 302.187 119.412 301.545 119.277C300.903 119.143 300.238 119.166 299.607 119.345C298.976 119.524 298.398 119.853 297.922 120.305C297.232 120.92 296.629 121.626 296.127 122.403C292.679 127.607 292.647 134.147 292.189 140.148C291.204 135.928 289.891 131.145 286.617 128.05C281.606 123.327 277.442 129.796 277.116 134.601C276.8 139.326 278.63 143.597 280.124 147.957C277.431 144.019 275.468 138.202 271.323 135.455C266.984 132.577 263.524 136.881 263.559 141.274C263.601 146.402 267.465 151.571 270.239 155.719C266.952 152.653 262.701 148.319 257.787 148.485C254.375 148.6 250.804 156.081 257.457 163.337C262.017 168.32 268.215 168.401 274.362 168.948" fill="#161720"/>
<path fill-rule="evenodd" clip-rule="evenodd" d="M332.913 135.081C334.857 137.993 333.56 142.018 331.9 145.091C331.944 145.074 332.091 145.01 332.144 144.988C343.196 140.674 348.493 151.979 340.792 157.295C340.128 157.798 338.346 158.92 337.604 159.34C338.556 159.651 339.475 160.051 340.351 160.534C344.571 162.839 346.005 167.586 341.404 170.617C339.177 172.047 337.489 171.909 334.912 171.743C333.927 171.679 333.927 171.719 333.445 171.494C332.468 170.85 333.258 171.017 330.605 166.925C327.818 162.737 324.269 159.111 320.143 156.234C312.622 151.377 299.952 150.346 293.232 152.26C289.843 153.188 286.627 154.661 283.711 156.621C282.912 157.094 282.228 157.739 281.71 158.509C281.327 159.107 281.071 159.777 280.956 160.478C281.107 160.532 281.269 160.55 281.428 160.53C283.368 159.87 285.237 159.017 287.008 157.986C299.997 151.483 321.835 154.732 330.396 170.966C331.859 173.914 332.882 177.06 333.431 180.305C334.19 184.538 334.362 188.855 333.941 193.134C333.827 194.086 333.877 194.195 333.567 194.725C333.368 194.999 333.086 195.201 332.763 195.303C332.44 195.404 332.093 195.399 331.774 195.288C330.646 194.995 329.546 194.602 328.488 194.114C320.288 190.164 317.689 182.369 316.171 173.369C316.046 172.525 315.74 170.392 315.656 169.387C309.4 174.214 301.768 176.921 293.868 177.116C283.999 177.178 278.281 172.311 274.255 170.467C273.46 169.496 274.649 170.148 268.932 169.482C262.58 168.762 258.015 166.8 254.567 161.347C254.14 160.648 253.769 159.915 253.457 159.157C252.815 157.62 252.516 155.961 252.581 154.296C252.722 151.094 254.563 147.403 257.869 147.32C260.344 147.353 262.752 148.134 264.777 149.558C263.033 146.231 261.672 142.761 262.467 139.066C263.623 134.801 266.164 133.173 268.589 133.182C271.57 133.213 273.899 135.61 275.743 137.945C275.677 137.714 275.615 136.216 275.603 136.064C275.503 128.014 281.502 121.83 287.165 126.53C288.919 128.102 290.319 130.027 291.274 132.18C291.627 128.147 292.991 124.268 295.24 120.902C297.163 118.17 300.063 116.783 303.085 118.147C307.389 120.328 307.068 125.932 306.857 130.755C307.293 130.119 307.766 129.508 308.272 128.927C313.386 123.41 320.17 122.567 322.381 129.087C323.108 131.396 323.342 133.831 323.068 136.236C324.283 135.126 325.712 134.277 327.267 133.74C330.062 132.87 331.954 133.659 332.913 135.081ZM301.233 148.181C307.475 148.277 315.114 149.619 320.441 152.682C325.038 155.539 329.032 159.266 332.2 163.654C333.349 165.21 334.369 166.856 335.251 168.578C336.228 168.693 337.216 168.693 338.194 168.578C339.226 168.33 340.147 167.747 340.813 166.919L340.834 166.895L340.861 166.848L340.869 166.824L340.91 166.753L340.918 166.731L340.932 166.708V166.686L340.946 166.662C340.976 166.569 340.994 166.521 341.014 166.459V166.437L341.029 166.393V166.369L341.036 166.348V166.302L341.045 166.279L341.055 166.047V166.023V165.974V165.95V165.926V165.901V165.876C341.038 165.79 341.027 165.735 341.007 165.643L340.996 165.617V165.59V165.563L340.984 165.535V165.508L340.938 165.397C340.9 165.189 340.412 163.95 337.784 162.792C336.089 162.113 334.311 161.664 332.497 161.454C332.181 161.457 331.872 161.37 331.604 161.202C331.337 161.035 331.124 160.794 330.989 160.509C330.836 160.179 330.802 159.807 330.892 159.455C330.981 159.103 331.189 158.793 331.481 158.576C331.975 158.265 332.696 158.154 334.277 157.462C335.887 156.759 339.661 154.625 340.558 153.126C340.921 152.646 341.159 152.084 341.249 151.49C341.339 150.895 341.279 150.288 341.074 149.723C340.87 149.158 340.527 148.653 340.077 148.254C339.627 147.855 339.085 147.575 338.499 147.44C336.297 146.944 333.988 147.338 332.075 148.536C330.28 149.512 328.638 150.746 327.202 152.2C326.943 152.461 326.601 152.623 326.236 152.66C325.868 152.694 325.5 152.602 325.192 152.398C324.885 152.193 324.66 151.888 324.555 151.534C324.45 151.181 324.471 150.802 324.615 150.463C325.83 148.145 331.648 141.715 330.603 137.521L330.567 137.492C330.562 137.467 330.557 137.442 330.55 137.417L330.539 137.393V137.369L330.526 137.346V137.322L330.513 137.298V137.275C330.313 136.888 330.287 136.853 330.28 136.842L330.267 136.829V136.817L330.254 136.807V136.796L330.242 136.786V136.776L330.229 136.766L330.222 136.758L330.209 136.749V136.741L330.197 136.734V136.725H330.184H330.171V136.718H330.159V136.711L330.133 136.698L330.083 136.676C329.894 136.605 329.692 136.574 329.491 136.583C327.813 136.825 326.26 137.61 325.071 138.818C319.803 144.082 320.177 147.412 317.689 146.704C317.354 146.578 317.072 146.343 316.888 146.036C316.704 145.73 316.628 145.371 316.673 145.016C316.904 143.97 319.576 139.845 319.983 136.002C320.233 133.611 320.045 129.712 318.173 128.175C316.625 126.952 313.843 128.357 312.338 129.555C309.503 131.646 307.485 135.932 306.309 139.261C305.698 140.962 305.788 141.212 304.92 141.674C304.578 141.814 304.197 141.832 303.843 141.724C301.374 140.724 303.909 138.05 303.863 126.687C303.854 124.735 303.528 121.879 301.753 121.039C301.342 120.849 300.883 120.789 300.437 120.865C299.337 121.182 298.401 121.909 297.821 122.896C294.49 127.828 294.304 133.096 293.865 139.463C293.798 140.477 293.827 140.852 293.21 141.423C292.934 141.637 292.595 141.753 292.246 141.751C291.897 141.749 291.559 141.63 291.285 141.414C290.301 140.475 290.907 139.609 288.894 134.307C288.811 134.128 288.537 133.412 288.286 132.951C287.397 131.063 285.278 128.011 283.176 127.963C282.606 128.033 282.06 128.235 281.582 128.552C281.103 128.87 280.705 129.294 280.419 129.792C276.755 135.158 279.42 141.186 281.457 147.338C281.601 147.625 281.645 147.952 281.583 148.267C281.521 148.582 281.357 148.867 281.115 149.079C280.871 149.291 280.562 149.414 280.238 149.428C279.915 149.441 279.597 149.344 279.336 149.152C277.478 147.52 274.05 137.499 269.523 136.08C269.108 135.928 268.662 135.883 268.225 135.949C267.788 136.015 267.376 136.191 267.025 136.459C260.413 142.464 271.283 153.902 271.534 155.673C271.552 155.887 271.514 156.102 271.424 156.296C271.333 156.491 271.194 156.659 271.019 156.783C270.844 156.908 270.64 156.985 270.427 157.007C270.214 157.029 269.998 156.996 269.801 156.909C268.51 156.219 263.508 149.735 258.081 149.702C257.693 149.673 257.307 149.772 256.98 149.983C253.417 152.713 254.642 159.78 259.326 163.657C263.152 167.203 268.856 167.504 273.929 167.952C274.657 168.018 274.377 167.936 275.181 168.358L275.335 168.834C280.645 171.672 285.082 174.193 290.477 174.714C295.952 175.178 301.454 174.214 306.445 171.916C309.909 170.382 313.103 168.3 315.904 165.75C316.133 165.541 316.427 165.418 316.737 165.399C317.047 165.381 317.353 165.47 317.606 165.65C318.59 166.482 317.839 166.621 319.133 173.747C319.672 177.016 320.629 180.203 321.979 183.228C324.151 187.473 326.441 190.076 330.99 191.82C331.33 186.823 330.799 181.804 329.42 176.988C328.722 174.56 327.658 172.253 326.264 170.146C320.79 162.308 311.058 157.331 298.714 158.232C290.159 158.887 287.9 161.62 283.629 163.234C283.021 163.537 282.356 163.709 281.678 163.738C280.999 163.768 280.322 163.655 279.69 163.405C279.283 163.222 278.915 162.96 278.609 162.635C278.17 162.149 277.901 161.534 277.843 160.882C277.842 159.637 278.17 158.415 278.794 157.338C279.764 155.65 281.204 154.281 282.94 153.4C285.694 151.69 288.664 150.354 291.771 149.427C294.84 148.518 298.033 148.098 301.233 148.181Z" fill="#161720"/>
<path fill-rule="evenodd" clip-rule="evenodd" d="M259.922 262.838C260.359 263.747 260.204 263.135 260.412 265.161C260.871 269.506 261.083 273.874 261.046 278.243C261.388 295.365 261.522 294.044 261.647 306.117C261.506 317.715 261.647 316.492 260.522 317.06H260.515L259.834 316.764C259.419 315.826 259.533 316.359 259.367 314.373C258.344 302.103 258.461 300.447 258.222 293.079C257.722 271.979 257.694 272.371 257.928 268.445C258.043 266.49 258.291 263.674 258.31 263.522L258.633 262.836L259.274 262.546H259.287L259.922 262.838Z" fill="#161720"/>
<path fill-rule="evenodd" clip-rule="evenodd" d="M351.039 258.827L351.674 259.139L351.973 259.827C352.651 266.456 352.414 293.287 352.37 294.757C352.331 301.28 351.807 307.79 350.802 314.235C350.432 316.786 350.493 316.345 350.055 317.099L349.351 317.314H349.339C348.06 316.551 348.596 317.649 348.907 307.004C349.751 276.479 348.613 273.574 349.877 261.09C350.07 259.465 349.935 259.965 350.373 259.095L351.025 258.825L351.039 258.827Z" fill="#161720"/>
<path fill-rule="evenodd" clip-rule="evenodd" d="M305.725 306.696C306.608 308.384 306.243 307.354 306.604 311.653C306.815 313.003 306.702 314.385 306.273 315.683L305.882 316.463L305.342 316.802H305.33C304.611 316.435 304.851 316.662 304.299 315.778C303.874 314.822 303.608 313.804 303.509 312.763C303.492 312.578 303.155 308.583 303.235 308.059C303.305 307.744 303.413 307.44 303.559 307.153C303.84 306.566 303.577 306.916 304.729 305.726C304.744 305.739 305.707 306.674 305.725 306.696Z" fill="#161720"/>
<path fill-rule="evenodd" clip-rule="evenodd" d="M183.09 300.482C186.53 304.235 183.566 300.941 188.898 307.877C197.113 317.351 196.672 316.348 196.281 317.687L195.628 317.969L194.853 317.741C195.468 317.741 191.336 316.615 184.678 307.621C183.734 306.437 182.91 305.162 182.22 303.813C181.887 303.04 181.612 302.244 181.397 301.43C181.44 300.434 181.256 300.868 181.772 300.105H181.785L182.428 300.076L183.09 300.482Z" fill="#161720"/>
<path fill-rule="evenodd" clip-rule="evenodd" d="M190.076 288.752C190.892 289.676 191.644 290.655 192.326 291.682C196.449 299.105 197.239 299.869 198.848 302.523C201.716 307.69 201.224 306.473 201.463 307.648L201.138 308.275L200.444 308.416L199.734 308.049C199.119 307.414 197.604 305.871 196.759 304.777C194.084 301.057 191.662 297.162 189.509 293.118C189.033 291.995 188.65 290.833 188.364 289.647C188.406 288.678 188.263 289.021 188.777 288.336L189.426 288.324L190.076 288.752Z" fill="#161720"/>
<path fill-rule="evenodd" clip-rule="evenodd" d="M208.337 293.864L207.606 293.533C206.409 292.485 205.293 291.349 204.266 290.135C202.272 287.478 200.599 284.594 199.281 281.544C198.473 279.977 198.085 278.228 198.156 276.466C198.156 276.06 198.108 276.303 198.389 275.4L198.887 274.995H198.9L199.522 275.145C200.139 275.818 200.039 275.681 200.191 275.989C200.29 276.178 201.411 278.201 201.512 278.548C203.708 284.369 205.124 285.452 208.351 291.006C209.295 292.585 209.055 291.971 209.319 293.037L209.025 293.678V293.685L208.337 293.864Z" fill="#161720"/>
<path fill-rule="evenodd" clip-rule="evenodd" d="M221.792 275.425H221.805L222.287 275.951C222.315 279.377 212.792 297.251 213.913 325.01C214.003 329.288 214.577 335.528 214.776 337.964C216.548 354.958 217.199 353.878 216.826 355.598C216.814 355.598 216.222 356.02 216.212 356.02C216.202 356.02 215.496 355.868 215.486 355.866L215.046 355.238C213.244 347.803 211.945 340.254 211.158 332.644C210.441 323.889 210.566 315.085 211.532 306.354C211.94 302.457 213.079 296.9 213.104 296.746C214.308 290.549 216.304 284.533 219.043 278.845C220.65 275.486 220.44 275.965 221.079 275.408L221.792 275.425Z" fill="#161720"/>
<path fill-rule="evenodd" clip-rule="evenodd" d="M180.091 321.869L180.594 322.39C180.634 324.82 180.172 321.67 177.953 333.875C176.042 344.296 170.92 359.51 174.587 375.135C175.625 379.771 177.665 384.123 180.564 387.885C183.558 391.657 187.51 394.556 192.007 396.278C195.95 397.799 200.187 398.407 204.399 398.056C207.703 397.674 210.935 396.821 213.998 395.524C222.974 391.879 228.582 383.763 233.228 375.408C238.011 366.632 236.656 368.187 237.779 367.193L238.523 367.22L239.031 367.783C238.987 368.768 239.098 368.296 238.495 369.664C235.454 376.455 231.11 385.392 225.811 390.783C222.523 394.307 218.507 397.071 214.041 398.882C209.575 400.694 204.768 401.509 199.955 401.271C193.886 400.864 188.073 398.667 183.251 394.959C178.43 391.25 174.816 386.195 172.865 380.433C170.475 373.32 169.612 365.782 170.333 358.313C171.635 345.027 173.21 342.343 174.756 335.797C175.137 334.339 176.782 326.414 178.809 322.383L179.35 321.868H180.076L180.091 321.869Z" fill="#161720"/>
<path fill-rule="evenodd" clip-rule="evenodd" d="M252.26 269.296L252.608 269.948L252.371 270.651C251.627 271.058 251.793 271.008 251.354 271.073C245.347 271.93 238.744 276.307 233.933 280.022C225.634 286.417 220.591 293.526 214.521 301.833C214.51 301.843 213.903 302.265 213.892 302.273L213.189 302.21L213.176 302.203L212.754 301.64C212.816 300.73 212.778 300.937 212.915 300.63C215.122 295.581 218.19 290.954 221.98 286.954C225.822 282.589 230.162 278.689 234.912 275.334C237.602 273.377 240.547 271.796 243.664 270.634C243.815 270.584 246.161 269.78 246.385 269.78C248.069 269.356 249.794 269.111 251.53 269.052L252.26 269.296Z" fill="#161720"/>
<path fill-rule="evenodd" clip-rule="evenodd" d="M356.59 271.582C365.964 274.131 376.019 278.133 383.608 284.413C389.946 289.524 394.341 294.903 398.859 305.033C407.784 324.045 411.041 343.455 412.585 364.394C412.845 368.967 413.782 373.96 414.578 380.813C414.973 384.063 415.064 387.343 414.851 390.61L414.511 391.29L413.808 391.544H413.793L413.128 391.211L412.868 390.508C413.158 383.839 411.308 376.089 410.491 370.707C409.028 361.81 408.893 350.553 405.286 334.324C403.665 326.502 401.31 318.85 398.253 311.47C395.622 305.341 391.982 297.352 387.451 292.405C386.169 290.976 384.801 289.627 383.355 288.364C376.217 281.94 365.67 276.817 356.008 273.453L355.445 272.962C355.445 272.941 355.372 272.246 355.373 272.227L355.844 271.677L356.59 271.582Z" fill="#161720"/>
<path fill-rule="evenodd" clip-rule="evenodd" d="M371.741 398.285C371.117 397.565 371.281 397.943 370.174 395.422C369.471 393.799 369.693 394.455 367.29 386.185C366.92 385.077 366.803 383.9 366.949 382.741L367.622 381.54L368.825 382.214C369.294 382.899 369.707 383.622 370.059 384.374C370.142 384.593 372.394 392.228 372.609 393.228C372.722 393.722 372.954 395.411 372.971 395.655C373.128 397.483 373.158 396.89 372.94 397.967L372.428 398.431C372.408 398.43 371.759 398.289 371.741 398.285Z" fill="#161720"/>
<path fill-rule="evenodd" clip-rule="evenodd" d="M245.531 397.081C242.498 371.339 237.113 344.567 249.522 320.396C262.018 317.513 337.731 317.189 362.336 319.271C370.969 345.597 365.102 372.4 360.005 398.775" fill="#161720"/>
<path fill-rule="evenodd" clip-rule="evenodd" d="M360.951 317.573C362.748 317.689 362.755 317.698 363.21 317.95C363.868 318.459 363.843 318.803 364.246 320.036C372.134 345.844 366.556 371.239 361.229 397.729C360.923 399.219 361.089 398.804 360.551 399.604L359.818 399.761H359.806L359.182 399.339C358.963 398.286 358.935 399.084 359.485 396.11C364.061 370.98 363.338 372.526 363.488 372.526C366.071 353.639 366.417 338.519 361.149 320.771C361.132 320.771 360.36 320.709 355.228 320.396C332.277 319.395 309.122 319.357 287.368 319.752C282.578 319.841 255.155 320.482 250.596 321.797C247.031 329.11 244.773 336.989 243.924 345.079C241.456 367.572 247.194 394.666 246.292 397.689L245.653 398.056H245.646L244.943 397.85L244.569 397.205C240.925 371.032 235.448 344.016 247.818 320.26C248.575 318.713 248.641 318.872 252.376 318.313C275.085 315.728 341.329 315.913 360.951 317.573Z" fill="#161720"/>
<path fill-rule="evenodd" clip-rule="evenodd" d="M235.003 252.398C232.384 251.52 230.035 249.98 228.187 247.926C223.598 255.11 219.263 261.028 213.612 268.963C212.346 270.741 209.564 275.075 210.982 277.375C213.341 281.218 217.791 275.304 219.399 273.086C225.559 264.55 228.32 260.868 235.03 252.298" fill="#161720"/>
<path fill-rule="evenodd" clip-rule="evenodd" d="M228.443 246.52C229.084 246.707 229.132 246.843 229.561 247.348C231.041 249.048 232.877 250.399 234.94 251.307L235.662 251.489L236.015 252.146C235.882 252.622 235.902 252.491 235.919 252.717L235.835 252.802L235.808 252.9C221.224 273.016 220.586 274.563 218.009 277.303C216.796 278.826 215.075 279.862 213.161 280.221C212.491 280.252 211.824 280.104 211.231 279.792C210.637 279.479 210.138 279.014 209.785 278.444C209.338 277.716 209.069 276.893 209 276.042C208.931 275.19 209.064 274.335 209.388 273.545C210.447 270.093 213.148 266.918 219.108 258.51C227.641 246.234 227.094 246.399 228.443 246.52ZM212.532 274.182C212.263 274.828 212.157 275.531 212.224 276.229V276.255C212.241 276.312 212.256 276.351 212.283 276.433L212.29 276.445L212.304 276.47V276.483V276.49V276.503C212.363 276.598 212.428 276.689 212.499 276.774C212.539 276.825 212.611 276.901 212.612 276.902H212.626L212.639 276.915L212.647 276.926H212.66H212.674L212.694 276.943H212.708L212.722 276.956L212.736 276.968H212.748L212.775 276.98H212.788H212.802H212.815H212.84L212.996 276.968L213.014 276.96H213.04L213.059 276.952H213.079H213.09H213.11L213.13 276.943H213.148L213.206 276.921H213.224C213.283 276.901 213.255 276.907 213.314 276.888L213.332 276.874C213.465 276.823 213.593 276.762 213.715 276.69C215.87 275.413 218.185 271.896 219.695 269.817C223.712 264.248 229.06 257.784 233.207 252.796C232.47 252.526 231.753 252.205 231.06 251.834C230.137 251.353 229.265 250.778 228.458 250.118C222.145 260.602 213.688 270.539 212.525 274.182H212.532Z" fill="#161720"/>
<path fill-rule="evenodd" clip-rule="evenodd" d="M257.105 168.997C268.584 169.308 279.487 174.091 287.489 182.327C295.491 190.562 299.959 201.598 299.941 213.08C299.942 216.976 299.46 220.856 298.505 224.632V224.652C295.788 235.18 289.379 244.381 280.444 250.579C271.51 256.776 260.647 259.556 249.834 258.412C246.065 258.044 242.361 257.181 238.818 255.845C230.285 252.675 222.902 247.012 217.63 239.592C212.358 232.171 209.439 223.336 209.254 214.235C209.132 207.392 210.602 200.614 213.546 194.435C215.54 190.252 218.167 186.401 221.335 183.019C225.87 178.157 231.438 174.373 237.628 171.947C243.818 169.52 250.474 168.512 257.105 168.997ZM250.1 172.554C243.203 173.446 236.647 176.076 231.046 180.197C225.445 184.319 220.983 189.796 218.08 196.115C215.159 202.506 213.95 209.546 214.572 216.545C215.405 226.737 220.099 236.226 227.694 243.073C235.289 249.92 245.213 253.608 255.436 253.383C265.66 253.159 275.412 249.038 282.699 241.864C289.986 234.69 294.259 225.004 294.643 214.785C294.724 212.411 294.604 210.034 294.286 207.68C293.652 203.13 292.23 198.726 290.083 194.664C286.121 186.928 279.831 180.63 272.099 176.659C265.378 173.022 257.685 171.586 250.105 172.554H250.1ZM257.105 169.001C256.493 168.988 256.49 168.987 257.105 169.001V169.001Z" fill="#161720"/>
<path d="M268.384 208.718C268.571 204.43 266.115 200.841 262.9 200.701C259.684 200.561 256.926 203.923 256.739 208.21C256.552 212.497 259.007 216.087 262.223 216.227C265.439 216.367 268.197 213.005 268.384 208.718Z" fill="#161720"/>
<path fill-rule="evenodd" clip-rule="evenodd" d="M262.765 199.035C263.739 198.995 264.712 199.127 265.639 199.426C268.894 200.672 271.219 204.012 271.021 208.578C270.988 209.837 270.774 211.085 270.387 212.283C269.956 213.766 269.168 215.121 268.091 216.228C267.014 217.335 265.682 218.16 264.211 218.631C263.005 218.937 261.74 218.929 260.538 218.606C259.335 218.284 258.236 217.659 257.344 216.79C256.25 215.743 255.408 214.46 254.884 213.04C252.402 206.617 256.426 198.762 262.765 199.035ZM262.841 202.336C259.699 202.899 258.803 207.341 259.579 210.432C259.685 211.125 259.97 211.778 260.407 212.327C260.843 212.876 261.416 213.301 262.068 213.56H262.1L262.125 213.569H262.158H262.19H262.215L262.248 213.577H262.429H262.462H262.494H262.519H262.553H262.578H262.611C263.21 213.405 263.759 213.09 264.21 212.659C264.661 212.228 265.001 211.695 265.2 211.104C266.715 207.748 264.885 202.916 262.843 202.311L262.841 202.336Z" fill="#161720"/>
<path fill-rule="evenodd" clip-rule="evenodd" d="M285.241 199.268L285.442 200.01C285.37 202.929 285.124 205.841 284.707 208.731C284.133 213.282 284.154 215.612 282.813 226.867C282.492 228.105 282.326 229.377 282.318 230.655L282.328 230.721V230.754C282.347 230.886 282.38 231.016 282.428 231.141L282.44 231.153V231.173L282.453 231.187V231.207L282.464 231.226L282.477 231.241C282.651 231.533 283.163 231.762 284.014 231.944C284.507 232.037 284.21 231.91 285.058 232.379L285.307 233.057V233.064L284.968 233.709C284.173 234.012 284.327 233.999 283.803 233.976C283.102 234.024 282.399 233.89 281.764 233.587C281.129 233.285 280.583 232.824 280.177 232.249C279.836 231.621 279.644 230.922 279.614 230.208C279.44 226.383 280.665 218.161 280.942 214.628C281.134 212.869 280.962 212.868 281.81 206.299C282.154 204.022 282.731 201.786 283.533 199.627L284.006 199.032L284.674 198.873C284.695 198.873 285.223 199.256 285.241 199.268Z" fill="#161720"/>
<path fill-rule="evenodd" clip-rule="evenodd" d="M249.495 179.285C251.06 179.273 252.6 179.673 253.961 180.446C254.565 180.795 255.085 181.274 255.483 181.847C255.882 182.42 256.149 183.073 256.267 183.761C257.163 189.529 247.566 195.393 243.36 198.986C240.954 201.115 238.821 203.116 235.624 203.554C231.187 203.805 229.765 199.444 230.47 195.099C230.665 193.911 231.066 192.767 231.654 191.716C234.306 186.634 238.675 182.658 243.985 180.498C246.018 179.678 245.712 179.795 246.437 179.827L246.771 179.588C247.663 179.374 248.578 179.273 249.495 179.285ZM247.161 181.536L246.731 181.44C243.233 183.349 240.1 185.86 237.476 188.859C236.059 190.425 234.895 192.202 234.026 194.127C233.656 195.025 233.469 195.988 233.474 196.96C233.48 197.931 233.678 198.892 234.058 199.786V199.806L234.076 199.825L234.1 199.866L234.113 199.879L234.137 199.92L234.149 199.932L234.162 199.952L234.186 199.98L234.199 200L234.211 200.013L234.23 200.027V200.041L234.249 200.053L234.299 200.108H234.311L234.335 200.135H234.348L234.36 200.149H234.373L234.386 200.162H234.398L234.411 200.176L234.449 200.197L234.46 200.209L234.587 200.28H234.607C234.625 200.291 234.644 200.301 234.664 200.308H234.677C234.688 200.311 234.699 200.316 234.709 200.322H234.728H234.74H234.76C234.77 200.328 234.781 200.333 234.792 200.336H234.83L234.85 200.344H234.888H234.908L235.174 200.356H235.199H235.231H235.258H235.29H235.316C235.976 200.254 236.613 200.036 237.198 199.711C238.183 199.15 239.104 198.482 239.942 197.718C246.715 191.923 250.156 190.171 252.743 186.428C252.959 186.101 253.148 185.756 253.305 185.397C253.425 185.129 253.507 184.845 253.549 184.553L253.557 184.522V184.458V184.431L253.566 184.251V184.224V184.14V184.114V184.088L253.554 184.036V184.01L253.543 183.957V183.932C253.524 183.839 253.509 183.778 253.501 183.729L253.488 183.709L253.477 183.657L253.466 183.636V183.611L253.453 183.591V183.564C253.444 183.549 253.436 183.534 253.429 183.518V183.491C253.241 183.091 252.946 182.75 252.577 182.507C252.425 182.397 252.267 182.295 252.104 182.201L252.065 182.186L252.034 182.166C250.51 181.471 248.812 181.251 247.161 181.536Z" fill="#161720"/>
<path fill-rule="evenodd" clip-rule="evenodd" d="M230.33 211.985C231.082 212.44 230.955 212.321 231.034 212.547C231.373 212.518 231.159 212.497 231.537 212.602C231.989 212.748 232.422 212.947 232.827 213.196C233.672 213.748 234.386 214.48 234.917 215.338C235.449 216.197 235.785 217.161 235.902 218.164C236.157 219.847 235.959 221.568 235.328 223.149C234.986 224.18 234.404 225.115 233.631 225.877C232.857 226.64 231.915 227.209 230.88 227.537C229.844 227.866 228.746 227.944 227.675 227.767C226.603 227.59 225.589 227.161 224.715 226.517C221.886 224.597 221.173 220.533 222.315 217.326C222.633 216.14 223.234 215.049 224.068 214.147C224.901 213.245 225.941 212.559 227.098 212.148C228.144 211.818 229.257 211.762 230.33 211.985ZM230.077 213.924C229.444 213.969 228.83 214.155 228.278 214.469C227.446 214.991 226.744 215.696 226.226 216.531C225.916 216.965 225.665 217.438 225.477 217.938C225.35 218.299 225.241 218.666 225.151 219.038C224.669 220.994 225.231 223.431 227.07 224.216C227.959 224.663 228.983 224.763 229.942 224.497C230.514 224.264 231.03 223.912 231.456 223.464C231.882 223.017 232.208 222.484 232.414 221.902C232.594 221.502 232.74 221.088 232.85 220.664C233.02 219.998 233.104 219.314 233.1 218.627C233.104 217.852 232.943 217.085 232.629 216.376C232.241 215.483 231.528 214.77 230.634 214.383L230.156 213.916C230.13 213.923 230.104 213.927 230.077 213.929V213.924Z" fill="#161720"/>
<path fill-rule="evenodd" clip-rule="evenodd" d="M36.4045 189.278C40.3391 189.4 44.225 190.186 47.8984 191.601C52.8963 193.404 52.0171 193.007 52.7542 193.66L52.84 194.363L52.833 194.376L52.3674 194.919L51.6246 195.023C46.9651 193.72 42.19 192.872 37.3667 192.491C36.0382 192.319 34.6878 192.504 33.4547 193.027L33.421 193.038C32.5178 193.589 31.7634 194.352 31.2237 195.262H31.2167C30.0577 197.388 29.2241 199.676 28.7438 202.049C27.3666 208.136 26.9104 214.395 27.3906 220.617C27.6522 224.331 28.2669 228.962 31.1309 231.308C34.6476 234.199 41.6978 233.418 46.2413 232.699C50.1223 232.146 49.0392 232.063 50.2827 232.345L50.7047 232.959L50.5429 233.685L49.9155 234.119C46.6062 234.946 43.2479 235.563 39.8607 235.967C35.4142 236.43 30.1167 235.558 27.4539 231.992C22.7753 226.378 23.7529 209.766 25.3734 202.556C26.3496 198.181 27.7043 192.99 31.446 190.519C32.1054 190.086 32.8309 189.763 33.594 189.562C34.5138 189.342 35.4592 189.247 36.4045 189.278Z" fill="#161720"/>
<path fill-rule="evenodd" clip-rule="evenodd" d="M37.1922 194.42C38.3006 195.546 39.1683 196.886 39.7425 198.358C40.9424 201.478 41.0901 206.269 41.1 209.612C41.0409 213.889 40.4987 218.146 39.4837 222.301V222.314C39.0322 224.051 39.1728 223.453 39.0195 224.031C38.1938 226.469 37.3934 228.943 35.1934 230.502L34.4535 230.691L33.8064 230.344L33.6292 229.65L33.971 228.958C35.237 227.822 35.9079 225.01 36.1991 223.331C37.4553 216.438 38.4287 211.515 37.7085 204.142C37.4497 201.664 36.9714 199.377 36.932 199.219C36.7151 197.954 36.2907 196.733 35.6758 195.605L35.5281 194.854L35.839 194.245L36.5142 194.081L37.1922 194.42Z" fill="#161720"/>
<path fill-rule="evenodd" clip-rule="evenodd" d="M38.364 198.903C34.7545 204.38 34.2312 209.972 33.9274 215.8C33.8622 217.026 33.8843 218.255 33.9935 219.478C34.1004 220.603 34.1271 224.137 35.2187 224.964C35.3762 225.088 36.0627 224.444 36.1879 224.307C38.9857 221.293 39.1728 209.696 39.1827 205.565C39.17 204.805 39.2164 199.869 37.5538 200.548" fill="#161720"/>
<path fill-rule="evenodd" clip-rule="evenodd" d="M38.893 198.085L38.9056 198.092L39.2812 198.685C39.1518 199.669 39.2474 199.278 38.9577 199.876C40.2138 200.854 40.4389 204.314 40.4825 205.911C40.7877 210.789 40.5444 220.36 38.011 224.553C37.1346 225.88 35.6506 227.168 34.2946 226.251C33.0032 225.279 32.6755 223.138 32.5489 221.411C32.3749 219.72 32.2998 218.02 32.3238 216.32C32.6403 209.06 33.1439 204.106 37.558 198.37V198.363L38.2037 197.97L38.893 198.085ZM35.7069 212.748C35.537 214.507 35.4666 216.274 35.4959 218.04C35.4959 218.278 35.7097 221.536 35.7913 221.948C37.4371 217.654 38.0729 205.051 37.845 202.498C36.7084 205.813 35.9901 209.256 35.7069 212.748Z" fill="#161720"/>
<path fill-rule="evenodd" clip-rule="evenodd" d="M78.3514 187.005C78.4259 187.022 104.532 193.698 105.334 193.929C112.612 195.912 114.286 196.381 116.078 197.243C117.49 197.889 118.727 198.863 119.688 200.083C121.642 202.608 122.22 206.447 122.376 209.63C122.463 211.412 122.326 213.198 121.969 214.946C121.419 217.137 120.739 219.293 119.931 221.402L119.44 221.965L118.717 222.044C118.707 222.032 118.166 221.574 118.154 221.565C117.998 220.209 117.924 221.847 119.378 215.939C119.607 214.917 119.748 213.878 119.8 212.833C119.941 209.586 119.198 203.799 117.025 201.72C115.489 199.188 100.944 196.144 85.5155 192.155C79.8677 190.693 71.4306 188.126 65.6126 188.597C64.4436 188.719 63.3552 189.25 62.5404 190.097C61.8349 190.795 61.177 191.539 60.5711 192.325C59.1224 194.233 57.913 196.312 56.97 198.514C55.139 202.907 54.0299 207.566 53.6855 212.312C53.2896 216.829 53.6341 221.38 54.7053 225.785C55.1293 227.662 55.9621 229.423 57.1445 230.941C61.0916 235.711 71.3349 234.435 77.4722 233.829H77.4792L78.2079 234.048L78.5821 234.694V234.707L78.3767 235.423L77.7113 235.802C77.0643 235.774 68.8634 237.478 62.4082 236.445C53.7699 235.064 51.8892 228.635 50.6541 220.17C49.6588 210.989 51.4872 201.722 55.8953 193.607C57.3859 190.898 59.4072 188.517 61.8385 186.607C62.6007 186.153 63.4288 185.821 64.2931 185.622C68.2402 184.804 73.0623 185.861 78.3514 187.005Z" fill="#161720"/>
<path fill-rule="evenodd" clip-rule="evenodd" d="M49.4613 205.719V205.694L49.4992 205.715L49.5443 205.729V205.704L49.6273 205.733V205.701C49.6521 205.712 49.6781 205.719 49.7046 205.724V205.691L49.7623 205.707L49.751 205.673L49.8143 205.69L49.8031 205.656H49.8608L49.8495 205.624H49.9016L49.8903 205.591L49.9086 205.598H49.9353L49.917 205.565H49.9367H49.955L49.9311 205.531H49.9367H49.955C49.9477 205.519 49.9397 205.508 49.9311 205.497L49.9184 205.484H49.9255H49.9184L49.9311 205.497L49.9184 205.484L49.9311 205.497V205.49L49.9424 205.504H49.955L49.9677 205.518H49.9803V205.525L50.031 205.553H50.0436C50.4167 205.679 50.7979 205.781 51.1844 205.856C51.5094 205.996 51.5544 206.089 51.8034 206.213C52.4884 206.759 51.6627 205.957 53.2804 207.58C52.0495 208.51 51.9497 208.687 50.889 208.941C50.7102 208.969 50.5276 208.961 50.3517 208.918C49.1825 208.784 48.1052 208.22 47.3302 207.334V207.327C47.2095 207.084 47.1535 206.814 47.1675 206.543C47.1816 206.272 47.2652 206.009 47.4103 205.78L49.3544 205.639L49.4613 205.719Z" fill="#161720"/>
<path fill-rule="evenodd" clip-rule="evenodd" d="M52.3112 219.116C52.7332 219.353 52.321 218.991 53.5842 220.274C53.0383 220.88 52.375 221.369 51.6346 221.712L51.4362 221.8H51.4292C51.3662 221.82 51.3046 221.843 51.2449 221.871C50.7296 221.929 50.2312 222.09 49.7792 222.345L49.7581 222.363L49.7384 222.376H49.7313L49.699 222.394L49.6793 222.412L49.6385 222.436L49.6188 222.456L49.5991 222.467L49.564 222.498L49.5105 222.547L49.4894 222.56L49.443 222.604H49.4289H49.4036L49.3769 222.615H49.3642H49.3445C49.3445 222.615 48.824 222.628 48.7987 222.629C48.4471 222.613 48.9324 222.886 46.9869 221.539V221.526C47.0376 220.364 47.1937 220.301 47.8183 219.825C48.3027 219.476 48.8398 219.206 49.4092 219.026C49.8671 218.817 50.3673 218.716 50.8707 218.731C51.3742 218.747 51.8671 218.879 52.3112 219.116Z" fill="#161720"/>
<path fill-rule="evenodd" clip-rule="evenodd" d="M67.6354 191.262L67.6776 191.317H67.6902C69.1339 192.88 70.2325 194.729 70.9143 196.745C71.2997 198.087 71.2266 197.62 71.2196 197.769C71.2688 197.957 71.3954 198.523 71.4277 198.673C72.2089 202.599 72.4676 206.611 72.1972 210.605C71.9665 214.996 71.0294 219.321 69.4218 223.414C68.1558 226.459 66.5579 230.688 63.2705 231.01C62.4265 230.973 62.7669 231.122 61.8498 230.588L61.6289 229.885V229.872L61.9932 229.246L62.7163 229H62.7683H62.788H62.833H62.8527H62.878H62.8977H62.9174H62.9371H62.9568H62.9695H62.9892L63.0482 228.983H63.0679C63.0679 228.983 63.2184 228.931 63.2578 228.92L63.2719 228.907C63.283 228.904 63.2939 228.9 63.3042 228.896L63.3239 228.883H63.3436C63.3549 228.883 63.3943 228.858 63.4112 228.848L63.4238 228.835C63.6742 228.763 64.2017 228.25 64.77 227.227V227.215C65.4464 225.811 65.9958 224.349 66.4116 222.847C67.5225 219.798 68.3035 216.638 68.741 213.422C69.2201 209.757 69.2423 206.046 68.8071 202.376C68.6124 200.772 68.3226 199.182 67.9392 197.613C67.5651 195.812 66.9406 194.072 66.0838 192.445L65.9432 191.693L66.2751 191.086L66.956 190.934L67.6354 191.262Z" fill="#161720"/>
<path fill-rule="evenodd" clip-rule="evenodd" d="M68.3964 195.808C64.3424 197.815 62.7177 202.379 61.7527 206.499C61.0817 209.336 60.4403 216.693 60.9959 219.266C61.5066 221.899 63.4731 227.196 65.7083 225.344C70.0689 221.729 70.2208 208.766 70.0155 203.093C69.9381 200.868 69.7932 197.957 68.1179 196.238" fill="#161720"/>
<path fill-rule="evenodd" clip-rule="evenodd" d="M69.2643 195.365V195.378L69.2995 196.065C70.2661 197.357 70.8645 198.886 71.0311 200.491C71.2862 202.519 71.4374 204.559 71.484 206.603C71.7218 211.277 71.2556 215.96 70.1013 220.495C69.3487 223.294 67.4441 227.451 64.6054 227.327C62.1789 227.22 60.7526 223.986 59.9972 221.675C59.1799 218.831 58.9731 218.066 59.3951 211.857C59.4598 210.377 59.8607 207.888 59.924 207.447C60.9565 202.184 62.9582 197.164 67.8633 194.972C68.0138 194.916 67.845 194.941 68.7073 194.913L69.2643 195.365ZM63.0553 208.016C62.6988 210.24 62.4818 212.484 62.4054 214.735C62.3514 216.059 62.3847 217.386 62.5053 218.706C62.8325 220.636 63.5897 222.467 64.7208 224.065L64.7405 224.079C64.9462 223.9 65.1346 223.702 65.3031 223.487C68.5511 219.779 69.1715 202.748 68.485 199.394C68.4 198.942 68.2695 198.5 68.0954 198.074C68.006 197.849 67.8983 197.632 67.7732 197.424C64.9754 200.003 63.9077 203.967 63.0553 208.016Z" fill="#161720"/>
<path fill-rule="evenodd" clip-rule="evenodd" d="M67.6677 202.54C67.719 203.397 67.5617 204.253 67.2091 205.036C65.3805 210 66.4706 208.564 64.5491 213.573L64.0666 214.24L63.4407 214.465H63.428L62.878 214.095C62.6338 213.619 62.5124 213.09 62.5249 212.556C62.445 211.72 62.445 210.878 62.5249 210.042C62.9059 207.939 63.4838 205.877 64.2509 203.882C64.4795 203.178 64.9022 202.551 65.4705 202.076C66.0486 201.546 65.666 201.74 67.2443 201.232L67.6677 202.54Z" fill="white"/>
<path fill-rule="evenodd" clip-rule="evenodd" d="M38.1207 210.617C38.0915 211.668 37.8458 212.701 37.399 213.652C37.098 214.342 37.3864 213.974 36.1147 215.145C35.1019 213.849 35.2342 214.135 35.0879 213.457C34.7554 211.897 34.7703 210.282 35.1315 208.728C35.3129 207.002 35.3059 206.971 35.448 206.662C35.641 206.322 35.8567 205.996 36.0936 205.686L37.174 204.832C38.8085 206.883 38.5609 206.475 38.1207 210.617Z" fill="white"/>
<path fill-rule="evenodd" clip-rule="evenodd" d="M122.979 210.221C124.028 210.157 125.064 210.476 125.895 211.118C128.173 212.782 128.568 216.323 128.187 219.055C127.535 223.571 124.601 225.774 121.302 225.631C120.726 225.585 120.162 225.446 119.63 225.22L119.067 224.684C119.067 224.674 118.98 223.981 118.981 223.981L119.451 223.463C120.887 223.238 120.935 223.455 121.713 223.161C122.16 223.011 122.575 222.778 122.936 222.474C123.698 221.846 124.291 221.036 124.659 220.119C125.288 218.6 125.389 214.901 124.217 213.885V213.872L124.199 213.858L124.176 213.813C124.168 213.813 123.982 213.646 123.977 213.643C123.894 213.594 123.814 213.541 123.737 213.483H123.725C123.542 213.351 123.35 213.232 123.151 213.127C122.903 212.978 122.639 212.857 122.363 212.768C122.013 212.628 121.3 212.417 121.148 212.373L120.478 211.961L120.219 211.366L120.53 210.796L121.234 210.437H121.266C121.828 210.304 122.402 210.232 122.979 210.221Z" fill="#161720"/>
<path fill-rule="evenodd" clip-rule="evenodd" d="M177.884 271.091C178.098 272.31 178.385 271.837 173.865 275.711C171.807 277.5 161.672 285.204 155.916 288.876C155.89 288.896 155.552 289.136 155.535 289.145L154.799 289.378L154.161 289.163L153.923 288.537L154.143 287.794V287.787C154.283 287.621 154.117 287.76 155.306 286.251C156.64 284.711 158.202 283.382 159.937 282.312C167.381 277.015 168.159 275.572 176.462 270.873L177.253 270.733L177.884 271.091Z" fill="#161720"/>
<path fill-rule="evenodd" clip-rule="evenodd" d="M299.116 369.824C299.857 370.241 300.556 370.727 301.205 371.276C304.159 374.638 306.31 375.93 308.863 378.493C309.952 379.59 309.469 378.901 310.114 379.98L310.052 380.657L309.472 381.021L308.658 380.953C307.303 380.462 306.012 379.807 304.815 379.004C303.103 377.653 301.489 376.184 299.984 374.607C298.898 373.672 298.092 372.455 297.655 371.09L297.642 371.07L297.76 369.702L299.116 369.824Z" fill="#161720"/>
<path fill-rule="evenodd" clip-rule="evenodd" d="M190.359 61.5086C196.855 64.1952 202.646 68.357 207.281 73.669C211.916 78.981 215.268 85.2995 217.078 92.1314C219.065 98.781 219.519 105.799 218.405 112.652C217.291 119.505 214.639 126.012 210.651 131.677C206.541 137.531 201.103 142.313 194.788 145.626C191.671 147.288 188.372 148.579 184.959 149.474C178.763 151.112 172.295 151.436 165.968 150.424C159.641 149.412 153.591 147.087 148.204 143.597C114.479 120.819 123.265 71.8884 158.473 60.3524C168.893 56.8575 180.216 57.2681 190.359 61.5086ZM165.957 62.148C158.985 63.3646 152.424 66.3101 146.866 70.7187C141.309 75.1273 136.929 80.8602 134.122 87.3998C131.316 93.9394 130.171 101.08 130.792 108.176C131.412 115.273 133.778 122.102 137.677 128.047C141.575 133.993 146.882 138.867 153.119 142.23C159.357 145.593 166.328 147.339 173.403 147.31C180.479 147.282 187.436 145.479 193.646 142.066C199.856 138.652 205.125 133.735 208.975 127.759C212.401 122.581 214.686 116.725 215.677 110.585C216.667 104.444 216.339 98.1606 214.715 92.1581L214.697 92.1638C208.194 70.8836 186.74 58.1752 165.957 62.148ZM217.072 92.1324C216.871 91.4758 216.889 91.5272 217.072 92.1324V92.1324Z" fill="#161720"/>
<path fill-rule="evenodd" clip-rule="evenodd" d="M171.09 87.3247C171.401 89.7293 172.381 101.66 172.417 102.165C172.514 103.359 172.663 105.727 172.664 105.735C175.531 105.944 182.737 105.565 187.218 105.587C188.461 105.596 188.154 105.555 188.776 105.8L189 106.262V106.268L188.805 106.741C188.033 107.101 188.913 106.871 185.21 107.249C180.091 107.772 176.559 108.221 171.763 107.883C171.536 107.903 171.309 107.861 171.105 107.763C170.901 107.664 170.73 107.513 170.61 107.325C170.436 106.982 170.474 107.09 170.369 105.325C169.748 94.9443 168.766 91.0366 169.05 83.0831C169.071 82.5922 169.016 82.8211 169.274 82.2176L169.727 82H169.732C170.585 82.3226 170.345 81.8297 171.09 87.3247Z" fill="#161720"/>
<path fill-rule="evenodd" clip-rule="evenodd" d="M140.845 104C141.268 104.05 141.686 104.128 142.097 104.232C142.348 104.289 142.19 104.232 142.78 104.498L143 104.817C142.767 105.233 142.913 105.095 142.346 105.414C141.904 105.568 141.449 105.69 140.985 105.779C140.659 105.828 140.328 105.848 139.998 105.839C137.377 105.94 137.799 106.122 137.024 105.879C136.632 105.763 136.892 105.889 136 105.354C136.574 104.579 136.41 104.746 136.743 104.513C136.956 104.36 137.202 104.249 137.465 104.185C138.586 104.058 139.715 103.996 140.845 104Z" fill="#161720"/>
<path fill-rule="evenodd" clip-rule="evenodd" d="M208.202 103.014C208.542 103.008 208.883 103.025 209.211 103.065C209.289 103.074 209.678 103.124 209.724 103.131C210.389 103.233 210.055 103.141 211 103.496C210.177 103.871 210.425 103.803 209.751 103.906C208.774 104.074 207.6 103.957 205.872 103.997C205.587 104.009 205.302 103.977 205.067 103.907C204.694 103.83 204.985 103.911 204 103.605C204.675 103.198 204.524 103.272 204.831 103.17C205.079 103.07 205.405 103.013 205.745 103.01C206.63 102.992 207.258 103.001 208.202 103.014Z" fill="#161720"/>
<path fill-rule="evenodd" clip-rule="evenodd" d="M169.919 67.5132C170.143 67.7603 170.33 68.0238 170.479 68.2993C170.572 68.6785 170.637 69.0611 170.674 69.4453C170.938 71.2993 171.314 72.2386 170.534 73.7606L170.116 74H170.102L169.623 73.8404L169.216 73.3951C168.952 72.9382 168.727 72.4699 168.542 71.9928C168.432 71.6329 168.039 69.0152 168.039 68.9234C167.96 68.6174 168.002 68.3013 168.159 68.012C168.51 67.4533 168.01 67.9218 169.071 67L169.919 67.5132Z" fill="#161720"/>
<path fill-rule="evenodd" clip-rule="evenodd" d="M173.751 142.162C173.417 141.393 173.228 140.525 173.2 139.634C172.933 137.324 172.97 137.83 173.1 137.162C173.274 136.612 173.154 136.907 173.668 136C174.006 136.271 174.297 136.639 174.519 137.077C174.684 137.404 174.647 137.343 174.753 138.258C174.996 140.532 175.082 140.59 174.91 141.775C174.843 142.234 174.91 142.027 174.409 143C173.709 142.212 173.832 142.382 173.751 142.162Z" fill="#161720"/>
</svg>
